<svg xmlns="http://www.w3.org/2000/svg" xmlns:xlink="http://www.w3.org/1999/xlink" width="500" zoomAndPan="magnify" viewBox="0 0 375 374.999991" height="500" preserveAspectRatio="xMidYMid meet" version="1.0"><defs><clipPath id="bdc936e3af"><path d="M 22 154 L 103 154 L 103 275 L 22 275 Z M 22 154 " clip-rule="nonzero"/></clipPath><clipPath id="71d73f8fd1"><path d="M 60.289062 142.394531 L 118.886719 169.507812 L 64.445312 287.15625 L 5.851562 260.042969 Z M 60.289062 142.394531 " clip-rule="nonzero"/></clipPath><clipPath id="9213e61cff"><path d="M 89.585938 155.953125 C 73.40625 148.464844 48.125 168.683594 33.121094 201.109375 C 18.117188 233.535156 19.070312 265.894531 35.25 273.378906 C 51.429688 280.867188 76.710938 260.648438 91.714844 228.222656 C 106.722656 195.796875 105.769531 163.4375 89.585938 155.953125 Z M 89.585938 155.953125 " clip-rule="nonzero"/></clipPath><clipPath id="c74b6fd286"><path d="M 38 180 L 98 180 L 98 270 L 38 270 Z M 38 180 " clip-rule="nonzero"/></clipPath><clipPath id="23858e9e3b"><path d="M 66.222656 171.246094 L 109.707031 191.367188 L 69.304688 278.671875 L 25.824219 258.550781 Z M 66.222656 171.246094 " clip-rule="nonzero"/></clipPath><clipPath id="7ae914ef10"><path d="M 87.964844 181.308594 C 75.957031 175.75 57.195312 190.753906 46.0625 214.816406 C 34.925781 238.882812 35.632812 262.894531 47.640625 268.449219 C 59.648438 274.003906 78.40625 259.003906 89.542969 234.9375 C 100.679688 210.875 99.972656 186.863281 87.964844 181.308594 Z M 87.964844 181.308594 " clip-rule="nonzero"/></clipPath><clipPath id="e2ea5a329b"><path d="M 269 163 L 352 163 L 352 283 L 269 283 Z M 269 163 " clip-rule="nonzero"/></clipPath><clipPath id="c1e7e3f036"><path d="M 252.296875 180.132812 L 309.660156 150.496094 L 369.15625 265.667969 L 311.796875 295.300781 Z M 252.296875 180.132812 " clip-rule="nonzero"/></clipPath><clipPath id="4eaf1ba48c"><path d="M 280.976562 165.3125 C 265.136719 173.496094 265.59375 205.867188 281.992188 237.609375 C 298.390625 269.355469 324.527344 288.453125 340.367188 280.273438 C 356.207031 272.089844 355.753906 239.722656 339.351562 207.976562 C 322.953125 176.230469 296.816406 157.132812 280.976562 165.3125 Z M 280.976562 165.3125 " clip-rule="nonzero"/></clipPath><clipPath id="64316a1f9b"><path d="M 271 186 L 334 186 L 334 275 L 271 275 Z M 271 186 " clip-rule="nonzero"/></clipPath><clipPath id="c289c22c5b"><path d="M 259.214844 198.8125 L 301.78125 176.820312 L 345.9375 262.289062 L 303.367188 284.277344 Z M 259.214844 198.8125 " clip-rule="nonzero"/></clipPath><clipPath id="89223b16ff"><path d="M 280.5 187.816406 C 268.746094 193.890625 269.082031 217.910156 281.25 241.464844 C 293.421875 265.023438 312.816406 279.199219 324.570312 273.125 C 336.324219 267.050781 335.988281 243.03125 323.816406 219.476562 C 311.648438 195.917969 292.253906 181.742188 280.5 187.816406 Z M 280.5 187.816406 " clip-rule="nonzero"/></clipPath><clipPath id="bbd5f38320"><path d="M 58.613281 32.808594 L 309.171875 32.808594 L 309.171875 309 L 58.613281 309 Z M 58.613281 32.808594 " clip-rule="nonzero"/></clipPath><clipPath id="9045021752"><path d="M 142.179688 39.289062 C 154.980469 35.375 169.628906 32.808594 183.960938 32.808594 C 198.292969 32.808594 212.085938 35.007812 224.796875 38.921875 C 225.066406 39.046875 225.335938 39.046875 225.605469 39.167969 C 273.339844 54.820312 308.496094 96.152344 309.171875 144.457031 L 309.171875 309.054688 L 58.613281 309.054688 L 58.613281 144.578125 C 59.289062 95.910156 93.90625 54.574219 142.179688 39.289062 Z M 142.179688 39.289062 " clip-rule="nonzero"/></clipPath><clipPath id="eb6597cc23"><path d="M 154 194.875 L 183.238281 194.875 L 183.238281 212.875 L 154 212.875 Z M 154 194.875 " clip-rule="nonzero"/></clipPath><clipPath id="d1ba2382ae"><path d="M 179 195 L 207.3125 195 L 207.3125 212.871094 L 179 212.871094 Z M 179 195 " clip-rule="nonzero"/></clipPath><clipPath id="f5dd186107"><path d="M 251.914062 194.535156 L 278.511719 194.535156 L 278.511719 222.796875 L 251.914062 222.796875 Z M 251.914062 194.535156 " clip-rule="nonzero"/></clipPath><clipPath id="0e58675f3e"><path d="M 265.214844 194.535156 C 257.871094 194.535156 251.914062 200.859375 251.914062 208.664062 C 251.914062 216.46875 257.871094 222.792969 265.214844 222.792969 C 272.558594 222.792969 278.511719 216.46875 278.511719 208.664062 C 278.511719 200.859375 272.558594 194.535156 265.214844 194.535156 Z M 265.214844 194.535156 " clip-rule="nonzero"/></clipPath><clipPath id="c7f9433321"><path d="M 98.851562 118.257812 L 164.078125 118.257812 L 164.078125 183.484375 L 98.851562 183.484375 Z M 98.851562 118.257812 " clip-rule="nonzero"/></clipPath><clipPath id="8831a02733"><path d="M 131.464844 118.257812 C 113.453125 118.257812 98.851562 132.859375 98.851562 150.871094 C 98.851562 168.882812 113.453125 183.484375 131.464844 183.484375 C 149.476562 183.484375 164.078125 168.882812 164.078125 150.871094 C 164.078125 132.859375 149.476562 118.257812 131.464844 118.257812 Z M 131.464844 118.257812 " clip-rule="nonzero"/></clipPath><clipPath id="77f06dada7"><path d="M 96.09375 115.511719 L 161.316406 115.511719 L 161.316406 180.734375 L 96.09375 180.734375 Z M 96.09375 115.511719 " clip-rule="nonzero"/></clipPath><clipPath id="816fc54386"><path d="M 128.703125 115.511719 C 110.691406 115.511719 96.09375 130.113281 96.09375 148.121094 C 96.09375 166.132812 110.691406 180.734375 128.703125 180.734375 C 146.714844 180.734375 161.316406 166.132812 161.316406 148.121094 C 161.316406 130.113281 146.714844 115.511719 128.703125 115.511719 Z M 128.703125 115.511719 " clip-rule="nonzero"/></clipPath><clipPath id="0c39c02852"><path d="M 102.273438 120.039062 L 155.136719 120.039062 L 155.136719 176.207031 L 102.273438 176.207031 Z M 102.273438 120.039062 " clip-rule="nonzero"/></clipPath><clipPath id="cba4087926"><path d="M 128.703125 120.039062 C 114.105469 120.039062 102.273438 132.613281 102.273438 148.121094 C 102.273438 163.632812 114.105469 176.207031 128.703125 176.207031 C 143.300781 176.207031 155.136719 163.632812 155.136719 148.121094 C 155.136719 132.613281 143.300781 120.039062 128.703125 120.039062 Z M 128.703125 120.039062 " clip-rule="nonzero"/></clipPath><clipPath id="23c169de33"><path d="M 108.453125 131.707031 L 126.710938 131.707031 L 126.710938 149.964844 L 108.453125 149.964844 Z M 108.453125 131.707031 " clip-rule="nonzero"/></clipPath><clipPath id="3218492825"><path d="M 117.582031 131.707031 C 112.539062 131.707031 108.453125 135.796875 108.453125 140.835938 C 108.453125 145.878906 112.539062 149.964844 117.582031 149.964844 C 122.621094 149.964844 126.710938 145.878906 126.710938 140.835938 C 126.710938 135.796875 122.621094 131.707031 117.582031 131.707031 Z M 117.582031 131.707031 " clip-rule="nonzero"/></clipPath><clipPath id="7f5f7d3fa7"><path d="M 126.710938 148.121094 L 137.292969 148.121094 L 137.292969 158.707031 L 126.710938 158.707031 Z M 126.710938 148.121094 " clip-rule="nonzero"/></clipPath><clipPath id="873a208d20"><path d="M 132 148.121094 C 129.078125 148.121094 126.710938 150.492188 126.710938 153.414062 C 126.710938 156.335938 129.078125 158.707031 132 158.707031 C 134.925781 158.707031 137.292969 156.335938 137.292969 153.414062 C 137.292969 150.492188 134.925781 148.121094 132 148.121094 Z M 132 148.121094 " clip-rule="nonzero"/></clipPath><clipPath id="d49f460837"><path d="M 82.789062 233 L 167.003906 233 L 167.003906 371.488281 L 82.789062 371.488281 Z M 82.789062 233 " clip-rule="nonzero"/></clipPath><clipPath id="20b5073e17"><path d="M 82.789062 267.566406 C 82.789062 248.496094 101.644531 233.035156 124.898438 233.035156 C 148.152344 233.035156 167.003906 248.496094 167.003906 267.566406 L 167.003906 336.628906 C 167.003906 355.699219 148.152344 371.160156 124.898438 371.160156 C 101.644531 371.160156 82.789062 355.699219 82.789062 336.628906 Z M 82.789062 267.566406 " clip-rule="nonzero"/></clipPath><clipPath id="598093d60b"><path d="M 97.574219 353.292969 L 109.394531 353.292969 L 109.394531 371.160156 L 97.574219 371.160156 Z M 97.574219 353.292969 " clip-rule="nonzero"/></clipPath><clipPath id="0672953fb3"><path d="M 97.574219 359.21875 C 97.574219 355.953125 100.21875 353.308594 103.484375 353.308594 C 106.746094 353.308594 109.394531 355.953125 109.394531 359.21875 L 109.394531 365.25 C 109.394531 368.511719 106.746094 371.160156 103.484375 371.160156 C 100.21875 371.160156 97.574219 368.511719 97.574219 365.25 Z M 97.574219 359.21875 " clip-rule="nonzero"/></clipPath><clipPath id="dd24d1ad17"><path d="M 118.265625 357.128906 L 130.085938 357.128906 L 130.085938 374.996094 L 118.265625 374.996094 Z M 118.265625 357.128906 " clip-rule="nonzero"/></clipPath><clipPath id="bf3996ab75"><path d="M 118.265625 363.054688 C 118.265625 359.792969 120.914062 357.144531 124.175781 357.144531 C 127.441406 357.144531 130.085938 359.792969 130.085938 363.054688 L 130.085938 369.085938 C 130.085938 372.351562 127.441406 374.996094 124.175781 374.996094 C 120.914062 374.996094 118.265625 372.351562 118.265625 369.085938 Z M 118.265625 363.054688 " clip-rule="nonzero"/></clipPath><clipPath id="09ff5f7930"><path d="M 139.292969 353.292969 L 151.113281 353.292969 L 151.113281 371.160156 L 139.292969 371.160156 Z M 139.292969 353.292969 " clip-rule="nonzero"/></clipPath><clipPath id="a96500212e"><path d="M 139.292969 359.21875 C 139.292969 355.953125 141.941406 353.308594 145.203125 353.308594 C 148.46875 353.308594 151.113281 355.953125 151.113281 359.21875 L 151.113281 365.25 C 151.113281 368.511719 148.46875 371.160156 145.203125 371.160156 C 141.941406 371.160156 139.292969 368.511719 139.292969 365.25 Z M 139.292969 359.21875 " clip-rule="nonzero"/></clipPath><clipPath id="7598a0105c"><path d="M 82.792969 194.535156 L 109.390625 194.535156 L 109.390625 222.796875 L 82.792969 222.796875 Z M 82.792969 194.535156 " clip-rule="nonzero"/></clipPath><clipPath id="a7ab27dcb8"><path d="M 96.09375 194.535156 C 88.746094 194.535156 82.792969 200.859375 82.792969 208.664062 C 82.792969 216.46875 88.746094 222.792969 96.09375 222.792969 C 103.4375 222.792969 109.390625 216.46875 109.390625 208.664062 C 109.390625 200.859375 103.4375 194.535156 96.09375 194.535156 Z M 96.09375 194.535156 " clip-rule="nonzero"/></clipPath><clipPath id="f3c42f3bcf"><path d="M 207.316406 233 L 291.53125 233 L 291.53125 371.488281 L 207.316406 371.488281 Z M 207.316406 233 " clip-rule="nonzero"/></clipPath><clipPath id="e476781d35"><path d="M 207.316406 267.566406 C 207.316406 248.496094 226.167969 233.035156 249.421875 233.035156 C 272.679688 233.035156 291.53125 248.496094 291.53125 267.566406 L 291.53125 336.628906 C 291.53125 355.699219 272.679688 371.160156 249.421875 371.160156 C 226.167969 371.160156 207.316406 355.699219 207.316406 336.628906 Z M 207.316406 267.566406 " clip-rule="nonzero"/></clipPath><clipPath id="99a5a30726"><path d="M 222.101562 353.292969 L 233.917969 353.292969 L 233.917969 371.160156 L 222.101562 371.160156 Z M 222.101562 353.292969 " clip-rule="nonzero"/></clipPath><clipPath id="88d40a4489"><path d="M 222.101562 359.21875 C 222.101562 355.953125 224.746094 353.308594 228.007812 353.308594 C 231.273438 353.308594 233.917969 355.953125 233.917969 359.21875 L 233.917969 365.25 C 233.917969 368.511719 231.273438 371.160156 228.007812 371.160156 C 224.746094 371.160156 222.101562 368.511719 222.101562 365.25 Z M 222.101562 359.21875 " clip-rule="nonzero"/></clipPath><clipPath id="ad967603bc"><path d="M 242.792969 357.128906 L 254.613281 357.128906 L 254.613281 374.996094 L 242.792969 374.996094 Z M 242.792969 357.128906 " clip-rule="nonzero"/></clipPath><clipPath id="a3eb8e6ea1"><path d="M 242.792969 363.054688 C 242.792969 359.792969 245.4375 357.144531 248.703125 357.144531 C 251.964844 357.144531 254.613281 359.792969 254.613281 363.054688 L 254.613281 369.085938 C 254.613281 372.351562 251.964844 374.996094 248.703125 374.996094 C 245.4375 374.996094 242.792969 372.351562 242.792969 369.085938 Z M 242.792969 363.054688 " clip-rule="nonzero"/></clipPath><clipPath id="0e92b0165b"><path d="M 263.820312 353.292969 L 275.640625 353.292969 L 275.640625 371.160156 L 263.820312 371.160156 Z M 263.820312 353.292969 " clip-rule="nonzero"/></clipPath><clipPath id="46d247b99e"><path d="M 263.820312 359.21875 C 263.820312 355.953125 266.464844 353.308594 269.730469 353.308594 C 272.992188 353.308594 275.640625 355.953125 275.640625 359.21875 L 275.640625 365.25 C 275.640625 368.511719 272.992188 371.160156 269.730469 371.160156 C 266.464844 371.160156 263.820312 368.511719 263.820312 365.25 Z M 263.820312 359.21875 " clip-rule="nonzero"/></clipPath><clipPath id="bfd58fa601"><path d="M 89.621094 246.410156 L 118.332031 246.410156 L 118.332031 321.78125 L 89.621094 321.78125 Z M 89.621094 246.410156 " clip-rule="nonzero"/></clipPath><clipPath id="2cd70fa541"><path d="M 89.621094 270.324219 C 89.621094 257.148438 96.046875 246.46875 103.976562 246.46875 C 111.90625 246.46875 118.332031 257.148438 118.332031 270.324219 L 118.332031 297.925781 C 118.332031 311.101562 111.90625 321.78125 103.976562 321.78125 C 96.046875 321.78125 89.621094 311.101562 89.621094 297.925781 Z M 89.621094 270.324219 " clip-rule="nonzero"/></clipPath><clipPath id="0bbcaaa5f2"><path d="M 88.121094 238.769531 L 119.839844 238.769531 L 119.839844 315.457031 L 88.121094 315.457031 Z M 88.121094 238.769531 " clip-rule="nonzero"/></clipPath><clipPath id="e61fc518c1"><path d="M 88.121094 265.207031 C 88.121094 250.652344 95.222656 238.855469 103.980469 238.855469 C 112.738281 238.855469 119.839844 250.652344 119.839844 265.207031 L 119.839844 289.105469 C 119.839844 303.65625 112.738281 315.457031 103.980469 315.457031 C 95.222656 315.457031 88.121094 303.65625 88.121094 289.105469 Z M 88.121094 265.207031 " clip-rule="nonzero"/></clipPath><clipPath id="9d95ab7f4e"><path d="M 113.871094 224.621094 L 252 224.621094 L 252 302.101562 L 113.871094 302.101562 Z M 113.871094 224.621094 " clip-rule="nonzero"/></clipPath><clipPath id="5a2b8b7b2e"><path d="M 159.910156 229.273438 C 166.964844 226.464844 175.035156 224.621094 182.929688 224.621094 C 190.828125 224.621094 198.425781 226.203125 205.429688 229.011719 C 205.578125 229.097656 205.726562 229.097656 205.875 229.1875 C 232.171875 240.425781 251.542969 270.105469 251.914062 302.101562 L 113.871094 302.101562 C 114.246094 269.929688 133.316406 240.25 159.910156 229.273438 Z M 159.910156 229.273438 " clip-rule="nonzero"/></clipPath><clipPath id="577270ff73"><path d="M 60.113281 263.304688 L 88.824219 263.304688 L 88.824219 332.847656 L 60.113281 332.847656 Z M 60.113281 263.304688 " clip-rule="nonzero"/></clipPath><clipPath id="8bad1a3af5"><path d="M 60.113281 287.210938 C 60.113281 274.035156 66.539062 263.355469 74.46875 263.355469 C 82.398438 263.355469 88.824219 274.035156 88.824219 287.210938 L 88.824219 308.988281 C 88.824219 322.164062 82.398438 332.847656 74.46875 332.847656 C 66.539062 332.847656 60.113281 322.164062 60.113281 308.988281 Z M 60.113281 287.210938 " clip-rule="nonzero"/></clipPath><clipPath id="a04f4346da"><path d="M 58.613281 263.328125 L 90.328125 263.328125 L 90.328125 327.007812 L 58.613281 327.007812 Z M 58.613281 263.328125 " clip-rule="nonzero"/></clipPath><clipPath id="a70e6a284e"><path d="M 58.613281 289.707031 C 58.613281 275.152344 65.714844 263.355469 74.472656 263.355469 C 83.230469 263.355469 90.328125 275.152344 90.328125 289.707031 L 90.328125 300.65625 C 90.328125 315.210938 83.230469 327.007812 74.472656 327.007812 C 65.714844 327.007812 58.613281 315.210938 58.613281 300.65625 Z M 58.613281 289.707031 " clip-rule="nonzero"/></clipPath><clipPath id="d928843df8"><path d="M 280.457031 258.710938 L 309.167969 258.710938 L 309.167969 332.847656 L 280.457031 332.847656 Z M 280.457031 258.710938 " clip-rule="nonzero"/></clipPath><clipPath id="cab1804fdf"><path d="M 280.457031 282.636719 C 280.457031 269.460938 286.882812 258.78125 294.8125 258.78125 C 302.742188 258.78125 309.167969 269.460938 309.167969 282.636719 L 309.167969 308.992188 C 309.167969 322.167969 302.742188 332.847656 294.8125 332.847656 C 286.882812 332.847656 280.457031 322.167969 280.457031 308.992188 Z M 280.457031 282.636719 " clip-rule="nonzero"/></clipPath><clipPath id="dc9b474252"><path d="M 278.953125 249.316406 L 310.667969 249.316406 L 310.667969 326.621094 L 278.953125 326.621094 Z M 278.953125 249.316406 " clip-rule="nonzero"/></clipPath><clipPath id="78eb3496cd"><path d="M 278.953125 275.722656 C 278.953125 261.171875 286.054688 249.375 294.8125 249.375 C 303.570312 249.375 310.667969 261.171875 310.667969 275.722656 L 310.667969 300.269531 C 310.667969 314.824219 303.570312 326.621094 294.8125 326.621094 C 286.054688 326.621094 278.953125 314.824219 278.953125 300.269531 Z M 278.953125 275.722656 " clip-rule="nonzero"/></clipPath><clipPath id="db27876f3f"><path d="M 115.726562 274.773438 L 144.441406 274.773438 L 144.441406 328.273438 L 115.726562 328.273438 Z M 115.726562 274.773438 " clip-rule="nonzero"/></clipPath><clipPath id="1f2b6318f1"><path d="M 115.726562 298.65625 C 115.726562 285.480469 122.15625 274.800781 130.085938 274.800781 C 138.011719 274.800781 144.441406 285.480469 144.441406 298.65625 L 144.441406 304.417969 C 144.441406 317.59375 138.011719 328.273438 130.085938 328.273438 C 122.15625 328.273438 115.726562 317.59375 115.726562 304.417969 Z M 115.726562 298.65625 " clip-rule="nonzero"/></clipPath><clipPath id="0d51fadb79"><path d="M 114.226562 267.859375 L 145.945312 267.859375 L 145.945312 320.636719 L 114.226562 320.636719 Z M 114.226562 267.859375 " clip-rule="nonzero"/></clipPath><clipPath id="c1dae83f89"><path d="M 114.226562 294.285156 C 114.226562 279.730469 121.328125 267.933594 130.085938 267.933594 C 138.84375 267.933594 145.945312 279.730469 145.945312 294.285156 C 145.945312 308.835938 138.84375 320.636719 130.085938 320.636719 C 121.328125 320.636719 114.226562 308.835938 114.226562 294.285156 Z M 114.226562 294.285156 " clip-rule="nonzero"/></clipPath><clipPath id="1e5715faa7"><path d="M 167.035156 263.277344 L 207.316406 263.277344 L 207.316406 327.007812 L 167.035156 327.007812 Z M 167.035156 263.277344 " clip-rule="nonzero"/></clipPath><clipPath id="ef4bdbdc39"><path d="M 167.035156 289.707031 C 167.035156 275.152344 176.050781 263.355469 187.175781 263.355469 C 198.300781 263.355469 207.316406 275.152344 207.316406 289.707031 L 207.316406 300.65625 C 207.316406 315.210938 198.300781 327.007812 187.175781 327.007812 C 176.050781 327.007812 167.035156 315.210938 167.035156 300.65625 Z M 167.035156 289.707031 " clip-rule="nonzero"/></clipPath><clipPath id="296eed70ea"><path d="M 139.628906 258.730469 L 168.339844 258.730469 L 168.339844 328.269531 L 139.628906 328.269531 Z M 139.628906 258.730469 " clip-rule="nonzero"/></clipPath><clipPath id="7d59c96284"><path d="M 139.628906 282.636719 C 139.628906 269.460938 146.054688 258.777344 153.984375 258.777344 C 161.914062 258.777344 168.339844 269.460938 168.339844 282.636719 L 168.339844 304.414062 C 168.339844 317.589844 161.914062 328.269531 153.984375 328.269531 C 146.054688 328.269531 139.628906 317.589844 139.628906 304.414062 Z M 139.628906 282.636719 " clip-rule="nonzero"/></clipPath><clipPath id="9dabfe783a"><path d="M 138.128906 252.1875 L 169.847656 252.1875 L 169.847656 322.433594 L 138.128906 322.433594 Z M 138.128906 252.1875 " clip-rule="nonzero"/></clipPath><clipPath id="d6b4a7b0db"><path d="M 138.128906 278.644531 C 138.128906 264.089844 145.230469 252.292969 153.988281 252.292969 C 162.746094 252.292969 169.847656 264.089844 169.847656 278.644531 L 169.847656 296.082031 C 169.847656 310.636719 162.746094 322.433594 153.988281 322.433594 C 145.230469 322.433594 138.128906 310.636719 138.128906 296.082031 Z M 138.128906 278.644531 " clip-rule="nonzero"/></clipPath><clipPath id="a5938530d5"><path d="M 251.046875 258.695312 L 282.011719 258.695312 L 282.011719 332.847656 L 251.046875 332.847656 Z M 251.046875 258.695312 " clip-rule="nonzero"/></clipPath><clipPath id="15cabcc5df"><path d="M 251.046875 282.636719 C 251.046875 269.460938 257.976562 258.78125 266.527344 258.78125 C 275.082031 258.78125 282.011719 269.460938 282.011719 282.636719 L 282.011719 308.992188 C 282.011719 322.167969 275.082031 332.847656 266.527344 332.847656 C 257.976562 332.847656 251.046875 322.167969 251.046875 308.992188 Z M 251.046875 282.636719 " clip-rule="nonzero"/></clipPath><clipPath id="e0eb752b9d"><path d="M 249.429688 252.199219 L 283.636719 252.199219 L 283.636719 326.625 L 249.429688 326.625 Z M 249.429688 252.199219 " clip-rule="nonzero"/></clipPath><clipPath id="ab845c4c29"><path d="M 249.429688 278.640625 C 249.429688 264.089844 257.085938 252.292969 266.53125 252.292969 C 275.976562 252.292969 283.636719 264.089844 283.636719 278.640625 L 283.636719 300.273438 C 283.636719 314.828125 275.976562 326.625 266.53125 326.625 C 257.085938 326.625 249.429688 314.828125 249.429688 300.273438 Z M 249.429688 278.640625 " clip-rule="nonzero"/></clipPath><clipPath id="c5acedc253"><path d="M 209.316406 280.574219 L 247.4375 280.574219 L 247.4375 334.183594 L 209.316406 334.183594 Z M 209.316406 280.574219 " clip-rule="nonzero"/></clipPath><clipPath id="a0f389e772"><path d="M 209.316406 304.5625 C 209.316406 291.386719 217.847656 280.707031 228.375 280.707031 C 238.902344 280.707031 247.4375 291.386719 247.4375 304.5625 L 247.4375 310.328125 C 247.4375 323.503906 238.902344 334.183594 228.375 334.183594 C 217.847656 334.183594 209.316406 323.503906 209.316406 310.328125 Z M 209.316406 304.5625 " clip-rule="nonzero"/></clipPath><clipPath id="c978ea5b16"><path d="M 207.316406 273.75 L 249.425781 273.75 L 249.425781 326.550781 L 207.316406 326.550781 Z M 207.316406 273.75 " clip-rule="nonzero"/></clipPath><clipPath id="44d75ee08f"><path d="M 207.316406 300.199219 C 207.316406 285.644531 216.742188 273.847656 228.371094 273.847656 C 240 273.847656 249.425781 285.644531 249.425781 300.199219 C 249.425781 314.75 240 326.550781 228.371094 326.550781 C 216.742188 326.550781 207.316406 314.75 207.316406 300.199219 Z M 207.316406 300.199219 " clip-rule="nonzero"/></clipPath><clipPath id="c66c2e5cd1"><path d="M 32 129 L 84 129 L 84 167 L 32 167 Z M 32 129 " clip-rule="nonzero"/></clipPath><clipPath id="4c1b462606"><path d="M 37.441406 169.839844 L 29.046875 153.242188 L 75.542969 129.730469 L 83.9375 146.332031 Z M 37.441406 169.839844 " clip-rule="nonzero"/></clipPath><clipPath id="92431da0d6"><path d="M 35.253906 163.996094 C 34.457031 163.335938 33.722656 162.484375 33.242188 161.535156 C 32.761719 160.585938 32.507812 159.566406 32.449219 158.539062 C 32.453125 158.515625 32.445312 158.5 32.445312 158.472656 C 32.320312 154.566406 35.03125 150.269531 40.011719 147.699219 L 75.515625 129.746094 L 83.910156 146.34375 L 48.429688 164.285156 C 43.359375 166.792969 38.308594 166.46875 35.253906 163.996094 Z M 35.253906 163.996094 " clip-rule="nonzero"/></clipPath><clipPath id="c152bcc4c8"><path d="M 38 105 L 89 105 L 89 144 L 38 144 Z M 38 105 " clip-rule="nonzero"/></clipPath><clipPath id="4d18f39b8b"><path d="M 44 147.703125 L 34.632812 131.628906 L 79.644531 105.394531 L 89.011719 121.464844 Z M 44 147.703125 " clip-rule="nonzero"/></clipPath><clipPath id="55da85d4f7"><path d="M 41.464844 141.996094 C 40.628906 141.382812 39.847656 140.582031 39.3125 139.660156 C 38.777344 138.742188 38.460938 137.742188 38.34375 136.71875 C 38.34375 136.695312 38.335938 136.675781 38.335938 136.652344 C 37.976562 132.757812 40.429688 128.308594 45.246094 125.445312 L 79.617188 105.410156 L 88.984375 121.480469 L 54.636719 141.5 C 49.722656 144.308594 44.664062 144.28125 41.464844 141.996094 Z M 41.464844 141.996094 " clip-rule="nonzero"/></clipPath><clipPath id="48cf2058aa"><path d="M 39 85 L 91 85 L 91 122 L 39 122 Z M 39 85 " clip-rule="nonzero"/></clipPath><clipPath id="0f3e11f0de"><path d="M 44.144531 125.683594 L 35.554688 109.183594 L 81.765625 85.125 L 90.355469 101.625 Z M 44.144531 125.683594 " clip-rule="nonzero"/></clipPath><clipPath id="b63b3370c2"><path d="M 41.886719 119.863281 C 41.082031 119.210938 40.339844 118.371094 39.847656 117.429688 C 39.355469 116.484375 39.089844 115.46875 39.019531 114.441406 C 39.019531 114.417969 39.011719 114.402344 39.011719 114.375 C 38.839844 110.472656 41.503906 106.144531 46.449219 103.511719 L 81.738281 85.136719 L 90.328125 101.636719 L 55.066406 119.996094 C 50.023438 122.566406 44.96875 122.300781 41.886719 119.863281 Z M 41.886719 119.863281 " clip-rule="nonzero"/></clipPath><clipPath id="beb36d11f0"><path d="M 272 89 L 324 89 L 324 126 L 272 126 Z M 272 89 " clip-rule="nonzero"/></clipPath><clipPath id="627ecf0410"><path d="M 327.394531 113.195312 L 318.90625 129.75 L 272.546875 105.96875 L 281.039062 89.417969 Z M 327.394531 113.195312 " clip-rule="nonzero"/></clipPath><clipPath id="0e78df5a75"><path d="M 323.957031 118.40625 C 323.890625 119.4375 323.632812 120.53125 323.148438 121.476562 C 322.664062 122.421875 321.988281 123.230469 321.191406 123.878906 C 321.171875 123.890625 321.160156 123.910156 321.140625 123.921875 C 318.054688 126.320312 312.984375 126.65625 307.976562 124.140625 L 272.578125 105.984375 L 281.066406 89.429688 L 316.441406 107.578125 C 321.453125 110.203125 324.15625 114.480469 323.957031 118.40625 Z M 323.957031 118.40625 " clip-rule="nonzero"/></clipPath><clipPath id="bc68d73f0c"><path d="M 280 116 L 332 116 L 332 153 L 280 153 Z M 280 116 " clip-rule="nonzero"/></clipPath><clipPath id="dc0be5a63d"><path d="M 335.273438 140.140625 L 326.78125 156.691406 L 280.425781 132.910156 L 288.914062 116.359375 Z M 335.273438 140.140625 " clip-rule="nonzero"/></clipPath><clipPath id="9fc4a0c11a"><path d="M 331.832031 145.347656 C 331.765625 146.382812 331.511719 147.472656 331.023438 148.417969 C 330.539062 149.367188 329.867188 150.171875 329.066406 150.824219 C 329.046875 150.835938 329.039062 150.851562 329.015625 150.863281 C 325.929688 153.265625 320.863281 153.597656 315.851562 151.085938 L 280.453125 132.925781 L 288.941406 116.375 L 324.316406 134.519531 C 329.328125 137.148438 332.035156 141.421875 331.832031 145.347656 Z M 331.832031 145.347656 " clip-rule="nonzero"/></clipPath><clipPath id="335393888b"><path d="M 283 136 L 336 136 L 336 173 L 283 173 Z M 283 136 " clip-rule="nonzero"/></clipPath><clipPath id="4957eef1a1"><path d="M 338.445312 160.296875 L 329.957031 176.847656 L 283.597656 153.070312 L 292.089844 136.519531 Z M 338.445312 160.296875 " clip-rule="nonzero"/></clipPath><clipPath id="cddd38cf7c"><path d="M 335.007812 165.507812 C 334.9375 166.539062 334.683594 167.632812 334.199219 168.578125 C 333.710938 169.523438 333.039062 170.328125 332.242188 170.980469 C 332.21875 170.992188 332.210938 171.011719 332.191406 171.023438 C 329.105469 173.421875 324.035156 173.753906 319.027344 171.242188 L 283.625 153.085938 L 292.117188 136.53125 L 327.488281 154.679688 C 332.503906 157.304688 335.207031 161.582031 335.007812 165.507812 Z M 335.007812 165.507812 " clip-rule="nonzero"/></clipPath><clipPath id="075fa46436"><path d="M 145 20 L 180 20 L 180 46 L 145 46 Z M 145 20 " clip-rule="nonzero"/></clipPath><clipPath id="4d10ba0188"><path d="M 150.15625 16.089844 L 182.894531 28.097656 L 175.035156 49.53125 L 142.296875 37.523438 Z M 150.15625 16.089844 " clip-rule="nonzero"/></clipPath><clipPath id="3c1462de14"><path d="M 166.523438 22.09375 C 157.484375 18.777344 148.398438 20.886719 146.226562 26.804688 C 144.054688 32.726562 149.625 40.210938 158.664062 43.527344 C 167.703125 46.84375 176.792969 44.730469 178.960938 38.8125 C 181.132812 32.894531 175.566406 25.40625 166.523438 22.09375 Z M 166.523438 22.09375 " clip-rule="nonzero"/></clipPath><clipPath id="7f63d5c7c1"><path d="M 170 8 L 217 8 L 217 50 L 170 50 Z M 170 8 " clip-rule="nonzero"/></clipPath><clipPath id="ca5f0ef92f"><path d="M 162.597656 31.808594 L 203.234375 -0.00390625 L 224.0625 26.601562 L 183.425781 58.414062 Z M 162.597656 31.808594 " clip-rule="nonzero"/></clipPath><clipPath id="0ddd3868dd"><path d="M 182.914062 15.902344 C 171.691406 24.6875 167.257812 37.765625 173.011719 45.113281 C 178.761719 52.460938 192.523438 51.292969 203.742188 42.507812 C 214.964844 33.726562 219.398438 20.648438 213.644531 13.300781 C 207.894531 5.953125 194.132812 7.117188 182.914062 15.902344 Z M 182.914062 15.902344 " clip-rule="nonzero"/></clipPath><clipPath id="6c974add2d"><path d="M 242 15 L 315 15 L 315 87 L 242 87 Z M 242 15 " clip-rule="nonzero"/></clipPath><clipPath id="caaaca0bae"><path d="M 292.035156 5.261719 L 325.425781 45.269531 L 276.042969 86.488281 L 242.652344 46.480469 Z M 292.035156 5.261719 " clip-rule="nonzero"/></clipPath><clipPath id="4f1457a103"><path d="M 302.015625 19.570312 C 304.417969 21.03125 306.828125 22.988281 308.738281 25.277344 C 310.648438 27.566406 312.09375 30.09375 313.09375 32.707031 C 313.105469 32.769531 313.140625 32.8125 313.15625 32.871094 C 316.726562 42.824219 314.046875 54.585938 305.527344 61.878906 L 276.1875 86.367188 L 242.796875 46.359375 L 272.113281 21.890625 C 280.878906 14.757812 292.859375 14.136719 302.015625 19.570312 Z M 302.015625 19.570312 " clip-rule="nonzero"/></clipPath><clipPath id="450d9e5a3b"><path d="M 250 24 L 306 24 L 306 79 L 250 79 Z M 250 24 " clip-rule="nonzero"/></clipPath><clipPath id="42ff9a9acb"><path d="M 288 16.414062 L 313.726562 47.238281 L 275.679688 78.992188 L 249.953125 48.171875 Z M 288 16.414062 " clip-rule="nonzero"/></clipPath><clipPath id="ca8f76d4a2"><path d="M 295.691406 27.4375 C 297.542969 28.5625 299.398438 30.070312 300.871094 31.832031 C 302.34375 33.597656 303.457031 35.546875 304.226562 37.558594 C 304.234375 37.605469 304.261719 37.636719 304.273438 37.683594 C 307.027344 45.351562 304.960938 54.414062 298.394531 60.035156 L 275.792969 78.902344 L 250.0625 48.078125 L 272.652344 29.222656 C 279.40625 23.730469 288.636719 23.25 295.691406 27.4375 Z M 295.691406 27.4375 " clip-rule="nonzero"/></clipPath><clipPath id="60c2f54ee7"><path d="M 256 42 L 286 42 L 286 72 L 256 72 Z M 256 42 " clip-rule="nonzero"/></clipPath><clipPath id="16691f8a6a"><path d="M 276.210938 38.355469 L 289.773438 54.605469 L 269.71875 71.34375 L 256.15625 55.097656 Z M 276.210938 38.355469 " clip-rule="nonzero"/></clipPath><clipPath id="0400f70f26"><path d="M 280.265625 44.164062 C 281.242188 44.757812 282.222656 45.554688 282.996094 46.484375 C 283.773438 47.414062 284.359375 48.441406 284.765625 49.5 C 284.769531 49.527344 284.785156 49.542969 284.792969 49.570312 C 286.242188 53.609375 285.152344 58.386719 281.691406 61.351562 L 269.777344 71.296875 L 256.214844 55.046875 L 268.121094 45.109375 C 271.679688 42.210938 276.546875 41.957031 280.265625 44.164062 Z M 280.265625 44.164062 " clip-rule="nonzero"/></clipPath><clipPath id="2e807b8cc5"><path d="M 52 17 L 124 17 L 124 89 L 52 89 Z M 52 17 " clip-rule="nonzero"/></clipPath><clipPath id="6d64d127dd"><path d="M 42.117188 40.390625 L 81.582031 6.359375 L 123.589844 55.074219 L 84.125 89.105469 Z M 42.117188 40.390625 " clip-rule="nonzero"/></clipPath><clipPath id="bc76cdd52f"><path d="M 56.261719 30.179688 C 57.683594 27.75 59.601562 25.3125 61.859375 23.363281 C 64.117188 21.417969 66.625 19.929688 69.21875 18.894531 C 69.28125 18.878906 69.324219 18.839844 69.382812 18.824219 C 79.277344 15.09375 91.082031 17.589844 98.511719 25.988281 L 123.464844 54.929688 L 84 88.960938 L 59.0625 60.042969 C 51.789062 51.390625 50.976562 39.421875 56.261719 30.179688 Z M 56.261719 30.179688 " clip-rule="nonzero"/></clipPath><clipPath id="76d1b50acb"><path d="M 61 26 L 117 26 L 117 82 L 61 82 Z M 61 26 " clip-rule="nonzero"/></clipPath><clipPath id="f6dd486d05"><path d="M 53.339844 44.242188 L 83.746094 18.023438 L 116.109375 55.554688 L 85.703125 81.777344 Z M 53.339844 44.242188 " clip-rule="nonzero"/></clipPath><clipPath id="dd98e3a401"><path d="M 64.238281 36.375 C 65.335938 34.507812 66.8125 32.625 68.550781 31.125 C 70.289062 29.625 72.222656 28.480469 74.222656 27.679688 C 74.269531 27.667969 74.300781 27.640625 74.347656 27.628906 C 81.96875 24.753906 91.0625 26.675781 96.789062 33.148438 L 116.015625 55.445312 L 85.609375 81.664062 L 66.394531 59.382812 C 60.792969 52.71875 60.164062 43.5 64.238281 36.375 Z M 64.238281 36.375 " clip-rule="nonzero"/></clipPath><clipPath id="8b88f6f117"><path d="M 79 46 L 109 46 L 109 76 L 79 76 Z M 79 46 " clip-rule="nonzero"/></clipPath><clipPath id="ad4590abf8"><path d="M 75.46875 55.675781 L 91.5 41.855469 L 108.558594 61.640625 L 92.53125 75.460938 Z M 75.46875 55.675781 " clip-rule="nonzero"/></clipPath><clipPath id="c52520c5ab"><path d="M 81.214844 51.527344 C 81.792969 50.542969 82.570312 49.550781 83.488281 48.761719 C 84.40625 47.96875 85.421875 47.367188 86.476562 46.945312 C 86.503906 46.9375 86.519531 46.925781 86.542969 46.917969 C 90.5625 45.402344 95.355469 46.414062 98.375 49.828125 L 108.511719 61.582031 L 92.480469 75.402344 L 82.351562 63.65625 C 79.398438 60.144531 79.066406 55.285156 81.214844 51.527344 Z M 81.214844 51.527344 " clip-rule="nonzero"/></clipPath><clipPath id="868220e322"><path d="M 195.984375 118.257812 L 261.207031 118.257812 L 261.207031 183.484375 L 195.984375 183.484375 Z M 195.984375 118.257812 " clip-rule="nonzero"/></clipPath><clipPath id="3364af3675"><path d="M 228.59375 118.257812 C 210.582031 118.257812 195.984375 132.859375 195.984375 150.871094 C 195.984375 168.882812 210.582031 183.484375 228.59375 183.484375 C 246.605469 183.484375 261.207031 168.882812 261.207031 150.871094 C 261.207031 132.859375 246.605469 118.257812 228.59375 118.257812 Z M 228.59375 118.257812 " clip-rule="nonzero"/></clipPath><clipPath id="ad32c91810"><path d="M 193.222656 115.511719 L 258.449219 115.511719 L 258.449219 180.734375 L 193.222656 180.734375 Z M 193.222656 115.511719 " clip-rule="nonzero"/></clipPath><clipPath id="90a0ae3b5e"><path d="M 225.835938 115.511719 C 207.824219 115.511719 193.222656 130.113281 193.222656 148.121094 C 193.222656 166.132812 207.824219 180.734375 225.835938 180.734375 C 243.847656 180.734375 258.449219 166.132812 258.449219 148.121094 C 258.449219 130.113281 243.847656 115.511719 225.835938 115.511719 Z M 225.835938 115.511719 " clip-rule="nonzero"/></clipPath><clipPath id="e45b8164e9"><path d="M 199.402344 120.039062 L 252.265625 120.039062 L 252.265625 176.207031 L 199.402344 176.207031 Z M 199.402344 120.039062 " clip-rule="nonzero"/></clipPath><clipPath id="699a491a8b"><path d="M 225.835938 120.039062 C 211.238281 120.039062 199.402344 132.613281 199.402344 148.121094 C 199.402344 163.632812 211.238281 176.207031 225.835938 176.207031 C 240.433594 176.207031 252.265625 163.632812 252.265625 148.121094 C 252.265625 132.613281 240.433594 120.039062 225.835938 120.039062 Z M 225.835938 120.039062 " clip-rule="nonzero"/></clipPath><clipPath id="ea14f24156"><path d="M 205.585938 131.707031 L 223.839844 131.707031 L 223.839844 149.964844 L 205.585938 149.964844 Z M 205.585938 131.707031 " clip-rule="nonzero"/></clipPath><clipPath id="21361f6866"><path d="M 214.710938 131.707031 C 209.671875 131.707031 205.585938 135.796875 205.585938 140.835938 C 205.585938 145.878906 209.671875 149.964844 214.710938 149.964844 C 219.753906 149.964844 223.839844 145.878906 223.839844 140.835938 C 223.839844 135.796875 219.753906 131.707031 214.710938 131.707031 Z M 214.710938 131.707031 " clip-rule="nonzero"/></clipPath><clipPath id="ca4135f6e3"><path d="M 223.839844 148.121094 L 234.425781 148.121094 L 234.425781 158.707031 L 223.839844 158.707031 Z M 223.839844 148.121094 " clip-rule="nonzero"/></clipPath><clipPath id="6a0c9ac50e"><path d="M 229.132812 148.121094 C 226.210938 148.121094 223.839844 150.492188 223.839844 153.414062 C 223.839844 156.335938 226.210938 158.707031 229.132812 158.707031 C 232.054688 158.707031 234.425781 156.335938 234.425781 153.414062 C 234.425781 150.492188 232.054688 148.121094 229.132812 148.121094 Z M 229.132812 148.121094 " clip-rule="nonzero"/></clipPath></defs><g clip-path="url(#bdc936e3af)"><g clip-path="url(#71d73f8fd1)"><g clip-path="url(#9213e61cff)"><path fill="#60b9b9" d="M 60.289062 142.394531 L 118.886719 169.507812 L 64.550781 286.925781 L 5.957031 259.8125 Z M 60.289062 142.394531 " fill-opacity="1" fill-rule="nonzero"/></g></g></g><g clip-path="url(#c74b6fd286)"><g clip-path="url(#23858e9e3b)"><g clip-path="url(#7ae914ef10)"><path fill="#0c8794" d="M 66.222656 171.246094 L 109.707031 191.367188 L 69.386719 278.5 L 25.902344 258.378906 Z M 66.222656 171.246094 " fill-opacity="1" fill-rule="nonzero"/></g></g></g><g clip-path="url(#e2ea5a329b)"><g clip-path="url(#c1e7e3f036)"><g clip-path="url(#4eaf1ba48c)"><path fill="#60b9b9" d="M 252.296875 180.132812 L 309.660156 150.496094 L 369.042969 265.445312 L 311.679688 295.078125 Z M 252.296875 180.132812 " fill-opacity="1" fill-rule="nonzero"/></g></g></g><g clip-path="url(#64316a1f9b)"><g clip-path="url(#c289c22c5b)"><g clip-path="url(#89223b16ff)"><path fill="#0c8794" d="M 259.214844 198.8125 L 301.78125 176.820312 L 345.851562 262.121094 L 303.28125 284.113281 Z M 259.214844 198.8125 " fill-opacity="1" fill-rule="nonzero"/></g></g></g><g clip-path="url(#bbd5f38320)"><g clip-path="url(#9045021752)"><path fill="#60b9b9" d="M 58.613281 32.808594 L 309.171875 32.808594 L 309.171875 308.8125 L 58.613281 308.8125 Z M 58.613281 32.808594 " fill-opacity="1" fill-rule="nonzero"/></g></g><g clip-path="url(#eb6597cc23)"><path fill="#25284d" d="M 179.886719 196.804688 C 179.953125 197.566406 179.917969 198.332031 179.820312 199.089844 C 179.839844 198.941406 179.859375 198.796875 179.878906 198.648438 C 179.71875 199.804688 179.402344 200.9375 178.953125 202.015625 C 179.007812 201.882812 179.0625 201.75 179.117188 201.621094 C 178.710938 202.582031 178.195312 203.5 177.558594 204.328125 C 177.644531 204.214844 177.730469 204.105469 177.816406 203.992188 C 177.011719 205.027344 176.066406 205.953125 175.03125 206.753906 C 175.140625 206.667969 175.253906 206.582031 175.367188 206.496094 C 174.515625 207.148438 173.605469 207.71875 172.648438 208.191406 C 172.375 208.324219 172.097656 208.449219 171.820312 208.570312 C 171.949219 208.511719 172.082031 208.457031 172.214844 208.402344 C 171.300781 208.785156 170.351562 209.085938 169.378906 209.277344 C 169.105469 209.332031 168.828125 209.378906 168.550781 209.414062 C 168.695312 209.394531 168.84375 209.375 168.988281 209.355469 C 167.933594 209.496094 166.859375 209.507812 165.800781 209.367188 C 165.949219 209.386719 166.097656 209.40625 166.242188 209.425781 C 165.324219 209.300781 164.425781 209.0625 163.570312 208.703125 C 163.703125 208.757812 163.832031 208.8125 163.964844 208.871094 C 163.167969 208.53125 162.417969 208.09375 161.730469 207.566406 C 161.839844 207.652344 161.953125 207.738281 162.066406 207.824219 C 161.320312 207.246094 160.65625 206.574219 160.078125 205.828125 C 160.167969 205.941406 160.253906 206.050781 160.339844 206.164062 C 159.722656 205.367188 159.167969 204.480469 158.777344 203.550781 C 158.832031 203.683594 158.886719 203.816406 158.941406 203.945312 C 158.621094 203.179688 158.402344 202.367188 158.203125 201.5625 C 157.96875 200.621094 157.773438 199.671875 157.605469 198.71875 C 157.519531 198.242188 157.445312 197.765625 157.382812 197.289062 C 157.402344 197.4375 157.421875 197.582031 157.441406 197.730469 C 157.375 197.230469 157.296875 196.71875 157.3125 196.214844 C 157.328125 195.800781 157.117188 195.332031 156.828125 195.042969 C 156.542969 194.757812 156.070312 194.539062 155.660156 194.558594 C 155.230469 194.578125 154.785156 194.71875 154.488281 195.042969 C 154.183594 195.375 154.019531 195.761719 154.003906 196.214844 C 153.988281 196.648438 154.050781 197.089844 154.101562 197.523438 C 154.207031 198.335938 154.328125 199.144531 154.476562 199.949219 C 154.742188 201.386719 155.046875 202.835938 155.523438 204.222656 C 156.078125 205.835938 156.988281 207.304688 158.089844 208.597656 C 158.554688 209.144531 159.070312 209.644531 159.628906 210.089844 C 160.265625 210.59375 160.921875 211.054688 161.644531 211.425781 C 162.34375 211.78125 163.085938 212.082031 163.839844 212.300781 C 164.601562 212.515625 165.386719 212.640625 166.167969 212.71875 C 167.617188 212.863281 169.097656 212.722656 170.515625 212.414062 C 171.96875 212.097656 173.378906 211.546875 174.691406 210.855469 C 176.035156 210.152344 177.285156 209.25 178.402344 208.226562 C 179.679688 207.058594 180.800781 205.679688 181.582031 204.136719 C 182.546875 202.242188 183.132812 200.160156 183.222656 198.03125 C 183.238281 197.621094 183.234375 197.210938 183.199219 196.804688 C 183.207031 196.574219 183.160156 196.363281 183.054688 196.164062 C 182.988281 195.960938 182.875 195.78125 182.710938 195.632812 C 182.425781 195.347656 181.953125 195.128906 181.542969 195.148438 C 181.113281 195.167969 180.671875 195.308594 180.371094 195.632812 C 180.089844 195.941406 179.851562 196.371094 179.886719 196.804688 Z M 179.886719 196.804688 " fill-opacity="1" fill-rule="nonzero"/></g><g clip-path="url(#d1ba2382ae)"><path fill="#25284d" d="M 204.082031 197.386719 C 204.144531 198.121094 204.113281 198.859375 204.015625 199.589844 C 204.035156 199.445312 204.054688 199.304688 204.074219 199.164062 C 203.921875 200.28125 203.617188 201.371094 203.179688 202.40625 C 203.234375 202.28125 203.289062 202.152344 203.339844 202.027344 C 202.949219 202.953125 202.453125 203.835938 201.835938 204.636719 C 201.921875 204.527344 202.003906 204.421875 202.085938 204.3125 C 201.3125 205.3125 200.402344 206.203125 199.402344 206.972656 C 199.511719 206.890625 199.617188 206.808594 199.726562 206.726562 C 198.910156 207.355469 198.03125 207.902344 197.105469 208.359375 C 196.84375 208.488281 196.578125 208.609375 196.308594 208.722656 C 196.4375 208.667969 196.5625 208.617188 196.691406 208.5625 C 195.808594 208.933594 194.894531 209.21875 193.957031 209.40625 C 193.691406 209.457031 193.425781 209.5 193.160156 209.539062 C 193.300781 209.519531 193.441406 209.5 193.582031 209.480469 C 192.5625 209.617188 191.53125 209.628906 190.511719 209.492188 C 190.652344 209.511719 190.792969 209.53125 190.933594 209.546875 C 190.050781 209.429688 189.183594 209.199219 188.359375 208.851562 C 188.488281 208.90625 188.613281 208.957031 188.742188 209.011719 C 187.972656 208.6875 187.25 208.265625 186.585938 207.757812 C 186.695312 207.839844 186.800781 207.921875 186.910156 208.003906 C 186.191406 207.449219 185.554688 206.800781 184.996094 206.082031 C 185.082031 206.191406 185.164062 206.296875 185.246094 206.40625 C 184.652344 205.636719 184.121094 204.785156 183.742188 203.886719 C 183.792969 204.015625 183.847656 204.140625 183.902344 204.269531 C 183.59375 203.53125 183.382812 202.746094 183.1875 201.972656 C 182.960938 201.066406 182.773438 200.152344 182.613281 199.234375 C 182.53125 198.773438 182.460938 198.316406 182.398438 197.855469 C 182.414062 197.996094 182.433594 198.136719 182.453125 198.277344 C 182.390625 197.796875 182.316406 197.304688 182.332031 196.816406 C 182.347656 196.417969 182.144531 195.96875 181.863281 195.691406 C 181.589844 195.414062 181.136719 195.207031 180.738281 195.222656 C 180.324219 195.242188 179.898438 195.378906 179.609375 195.691406 C 179.316406 196.007812 179.160156 196.382812 179.144531 196.816406 C 179.128906 197.238281 179.1875 197.664062 179.238281 198.078125 C 179.335938 198.859375 179.453125 199.640625 179.597656 200.417969 C 179.851562 201.800781 180.148438 203.199219 180.609375 204.535156 C 181.140625 206.089844 182.015625 207.503906 183.078125 208.753906 C 183.527344 209.277344 184.023438 209.761719 184.5625 210.1875 C 185.179688 210.671875 185.808594 211.121094 186.503906 211.476562 C 187.179688 211.816406 187.894531 212.109375 188.621094 212.316406 C 189.355469 212.527344 190.109375 212.644531 190.867188 212.722656 C 192.261719 212.863281 193.6875 212.726562 195.054688 212.429688 C 196.453125 212.125 197.8125 211.59375 199.078125 210.929688 C 200.371094 210.246094 201.578125 209.378906 202.652344 208.394531 C 203.882812 207.269531 204.960938 205.9375 205.71875 204.453125 C 206.644531 202.628906 207.210938 200.621094 207.296875 198.570312 C 207.3125 198.175781 207.304688 197.78125 207.273438 197.386719 C 207.28125 197.167969 207.234375 196.960938 207.136719 196.773438 C 207.070312 196.574219 206.960938 196.402344 206.804688 196.257812 C 206.527344 195.980469 206.074219 195.773438 205.675781 195.792969 C 205.265625 195.808594 204.835938 195.945312 204.550781 196.257812 C 204.277344 196.554688 204.046875 196.96875 204.082031 197.386719 Z M 204.082031 197.386719 " fill-opacity="1" fill-rule="nonzero"/></g><g clip-path="url(#f5dd186107)"><g clip-path="url(#0e58675f3e)"><path fill="#fe9284" d="M 251.914062 194.535156 L 278.511719 194.535156 L 278.511719 222.796875 L 251.914062 222.796875 Z M 251.914062 194.535156 " fill-opacity="1" fill-rule="nonzero"/></g></g><g clip-path="url(#c7f9433321)"><g clip-path="url(#8831a02733)"><path fill="#0c8794" d="M 98.851562 118.257812 L 164.078125 118.257812 L 164.078125 183.484375 L 98.851562 183.484375 Z M 98.851562 118.257812 " fill-opacity="1" fill-rule="nonzero"/></g></g><g clip-path="url(#77f06dada7)"><g clip-path="url(#816fc54386)"><path fill="#fdfcea" d="M 96.09375 115.511719 L 161.316406 115.511719 L 161.316406 180.734375 L 96.09375 180.734375 Z M 96.09375 115.511719 " fill-opacity="1" fill-rule="nonzero"/></g></g><g clip-path="url(#0c39c02852)"><g clip-path="url(#cba4087926)"><path fill="#25284d" d="M 102.273438 120.039062 L 155.136719 120.039062 L 155.136719 176.207031 L 102.273438 176.207031 Z M 102.273438 120.039062 " fill-opacity="1" fill-rule="nonzero"/></g></g><g clip-path="url(#23c169de33)"><g clip-path="url(#3218492825)"><path fill="#fdfcea" d="M 108.453125 131.707031 L 126.710938 131.707031 L 126.710938 149.964844 L 108.453125 149.964844 Z M 108.453125 131.707031 " fill-opacity="1" fill-rule="nonzero"/></g></g><g clip-path="url(#7f5f7d3fa7)"><g clip-path="url(#873a208d20)"><path fill="#fdfcea" d="M 126.710938 148.121094 L 137.292969 148.121094 L 137.292969 158.707031 L 126.710938 158.707031 Z M 126.710938 148.121094 " fill-opacity="1" fill-rule="nonzero"/></g></g><g clip-path="url(#d49f460837)"><g clip-path="url(#20b5073e17)"><path fill="#60b9b9" d="M 82.789062 371.160156 L 82.789062 232.996094 L 167.003906 232.996094 L 167.003906 371.160156 Z M 82.789062 371.160156 " fill-opacity="1" fill-rule="nonzero"/></g></g><g clip-path="url(#598093d60b)"><g clip-path="url(#0672953fb3)"><path fill="#25284d" d="M 97.574219 371.160156 L 97.574219 353.292969 L 109.394531 353.292969 L 109.394531 371.160156 Z M 97.574219 371.160156 " fill-opacity="1" fill-rule="nonzero"/></g></g><g clip-path="url(#dd24d1ad17)"><g clip-path="url(#bf3996ab75)"><path fill="#25284d" d="M 118.265625 374.996094 L 118.265625 357.128906 L 130.085938 357.128906 L 130.085938 374.996094 Z M 118.265625 374.996094 " fill-opacity="1" fill-rule="nonzero"/></g></g><g clip-path="url(#09ff5f7930)"><g clip-path="url(#a96500212e)"><path fill="#25284d" d="M 139.292969 371.160156 L 139.292969 353.292969 L 151.113281 353.292969 L 151.113281 371.160156 Z M 139.292969 371.160156 " fill-opacity="1" fill-rule="nonzero"/></g></g><g clip-path="url(#7598a0105c)"><g clip-path="url(#a7ab27dcb8)"><path fill="#fe9284" d="M 82.792969 194.535156 L 109.390625 194.535156 L 109.390625 222.796875 L 82.792969 222.796875 Z M 82.792969 194.535156 " fill-opacity="1" fill-rule="nonzero"/></g></g><g clip-path="url(#f3c42f3bcf)"><g clip-path="url(#e476781d35)"><path fill="#60b9b9" d="M 207.316406 371.160156 L 207.316406 232.996094 L 291.53125 232.996094 L 291.53125 371.160156 Z M 207.316406 371.160156 " fill-opacity="1" fill-rule="nonzero"/></g></g><g clip-path="url(#99a5a30726)"><g clip-path="url(#88d40a4489)"><path fill="#25284d" d="M 222.101562 371.160156 L 222.101562 353.292969 L 233.917969 353.292969 L 233.917969 371.160156 Z M 222.101562 371.160156 " fill-opacity="1" fill-rule="nonzero"/></g></g><g clip-path="url(#ad967603bc)"><g clip-path="url(#a3eb8e6ea1)"><path fill="#25284d" d="M 242.792969 374.996094 L 242.792969 357.128906 L 254.613281 357.128906 L 254.613281 374.996094 Z M 242.792969 374.996094 " fill-opacity="1" fill-rule="nonzero"/></g></g><g clip-path="url(#0e92b0165b)"><g clip-path="url(#46d247b99e)"><path fill="#25284d" d="M 263.820312 371.160156 L 263.820312 353.292969 L 275.640625 353.292969 L 275.640625 371.160156 Z M 263.820312 371.160156 " fill-opacity="1" fill-rule="nonzero"/></g></g><g clip-path="url(#bfd58fa601)"><g clip-path="url(#2cd70fa541)"><path fill="#0c8794" d="M 89.621094 321.78125 L 89.621094 246.523438 L 118.332031 246.523438 L 118.332031 321.78125 Z M 89.621094 321.78125 " fill-opacity="1" fill-rule="nonzero"/></g></g><g clip-path="url(#0bbcaaa5f2)"><g clip-path="url(#e61fc518c1)"><path fill="#60b9b9" d="M 88.121094 315.457031 L 88.121094 238.890625 L 119.839844 238.890625 L 119.839844 315.457031 Z M 88.121094 315.457031 " fill-opacity="1" fill-rule="nonzero"/></g></g><g clip-path="url(#9d95ab7f4e)"><g clip-path="url(#5a2b8b7b2e)"><path fill="#c1efe3" d="M 113.871094 224.621094 L 251.882812 224.621094 L 251.882812 302.101562 L 113.871094 302.101562 Z M 113.871094 224.621094 " fill-opacity="1" fill-rule="nonzero"/></g></g><g clip-path="url(#577270ff73)"><g clip-path="url(#8bad1a3af5)"><path fill="#0c8794" d="M 60.113281 332.847656 L 60.113281 263.304688 L 88.824219 263.304688 L 88.824219 332.847656 Z M 60.113281 332.847656 " fill-opacity="1" fill-rule="nonzero"/></g></g><g clip-path="url(#a04f4346da)"><g clip-path="url(#a70e6a284e)"><path fill="#60b9b9" d="M 58.613281 327.007812 L 58.613281 263.328125 L 90.328125 263.328125 L 90.328125 327.007812 Z M 58.613281 327.007812 " fill-opacity="1" fill-rule="nonzero"/></g></g><g clip-path="url(#d928843df8)"><g clip-path="url(#cab1804fdf)"><path fill="#0c8794" d="M 280.457031 332.847656 L 280.457031 258.824219 L 309.167969 258.824219 L 309.167969 332.847656 Z M 280.457031 332.847656 " fill-opacity="1" fill-rule="nonzero"/></g></g><g clip-path="url(#dc9b474252)"><g clip-path="url(#78eb3496cd)"><path fill="#60b9b9" d="M 278.953125 326.621094 L 278.953125 249.316406 L 310.667969 249.316406 L 310.667969 326.621094 Z M 278.953125 326.621094 " fill-opacity="1" fill-rule="nonzero"/></g></g><g clip-path="url(#db27876f3f)"><g clip-path="url(#1f2b6318f1)"><path fill="#0c8794" d="M 115.726562 328.273438 L 115.726562 274.773438 L 144.441406 274.773438 L 144.441406 328.273438 Z M 115.726562 328.273438 " fill-opacity="1" fill-rule="nonzero"/></g></g><g clip-path="url(#0d51fadb79)"><g clip-path="url(#c1dae83f89)"><path fill="#c1efe3" d="M 114.226562 320.636719 L 114.226562 267.980469 L 145.945312 267.980469 L 145.945312 320.636719 Z M 114.226562 320.636719 " fill-opacity="1" fill-rule="nonzero"/></g></g><g clip-path="url(#1e5715faa7)"><g clip-path="url(#ef4bdbdc39)"><path fill="#c1efe3" d="M 167.035156 327.007812 L 167.035156 263.277344 L 207.316406 263.277344 L 207.316406 327.007812 Z M 167.035156 327.007812 " fill-opacity="1" fill-rule="nonzero"/></g></g><g clip-path="url(#296eed70ea)"><g clip-path="url(#7d59c96284)"><path fill="#0c8794" d="M 139.628906 328.269531 L 139.628906 258.730469 L 168.339844 258.730469 L 168.339844 328.269531 Z M 139.628906 328.269531 " fill-opacity="1" fill-rule="nonzero"/></g></g><g clip-path="url(#9dabfe783a)"><g clip-path="url(#d6b4a7b0db)"><path fill="#c1efe3" d="M 138.128906 322.433594 L 138.128906 252.3125 L 169.847656 252.3125 L 169.847656 322.433594 Z M 138.128906 322.433594 " fill-opacity="1" fill-rule="nonzero"/></g></g><g clip-path="url(#a5938530d5)"><g clip-path="url(#15cabcc5df)"><path fill="#0c8794" d="M 251.046875 332.847656 L 251.046875 258.816406 L 282.011719 258.816406 L 282.011719 332.847656 Z M 251.046875 332.847656 " fill-opacity="1" fill-rule="nonzero"/></g></g><g clip-path="url(#e0eb752b9d)"><g clip-path="url(#ab845c4c29)"><path fill="#60b9b9" d="M 249.429688 326.625 L 249.429688 252.332031 L 283.636719 252.332031 L 283.636719 326.625 Z M 249.429688 326.625 " fill-opacity="1" fill-rule="nonzero"/></g></g><g clip-path="url(#c5acedc253)"><g clip-path="url(#a0f389e772)"><path fill="#0c8794" d="M 209.316406 334.183594 L 209.316406 280.726562 L 247.4375 280.726562 L 247.4375 334.183594 Z M 209.316406 334.183594 " fill-opacity="1" fill-rule="nonzero"/></g></g><g clip-path="url(#c978ea5b16)"><g clip-path="url(#44d75ee08f)"><path fill="#c1efe3" d="M 207.316406 326.550781 L 207.316406 273.914062 L 249.425781 273.914062 L 249.425781 326.550781 Z M 207.316406 326.550781 " fill-opacity="1" fill-rule="nonzero"/></g></g><g clip-path="url(#c66c2e5cd1)"><g clip-path="url(#4c1b462606)"><g clip-path="url(#92431da0d6)"><path fill="#60b9b9" d="M 37.441406 169.839844 L 29.046875 153.242188 L 75.542969 129.730469 L 83.9375 146.332031 Z M 37.441406 169.839844 " fill-opacity="1" fill-rule="nonzero"/></g></g></g><g clip-path="url(#c152bcc4c8)"><g clip-path="url(#4d18f39b8b)"><g clip-path="url(#55da85d4f7)"><path fill="#60b9b9" d="M 44 147.703125 L 34.632812 131.628906 L 79.644531 105.394531 L 89.011719 121.464844 Z M 44 147.703125 " fill-opacity="1" fill-rule="nonzero"/></g></g></g><g clip-path="url(#48cf2058aa)"><g clip-path="url(#0f3e11f0de)"><g clip-path="url(#b63b3370c2)"><path fill="#60b9b9" d="M 44.144531 125.683594 L 35.554688 109.183594 L 81.765625 85.125 L 90.355469 101.625 Z M 44.144531 125.683594 " fill-opacity="1" fill-rule="nonzero"/></g></g></g><g clip-path="url(#beb36d11f0)"><g clip-path="url(#627ecf0410)"><g clip-path="url(#0e78df5a75)"><path fill="#60b9b9" d="M 327.394531 113.195312 L 318.90625 129.75 L 272.546875 105.96875 L 281.039062 89.417969 Z M 327.394531 113.195312 " fill-opacity="1" fill-rule="nonzero"/></g></g></g><g clip-path="url(#bc68d73f0c)"><g clip-path="url(#dc0be5a63d)"><g clip-path="url(#9fc4a0c11a)"><path fill="#60b9b9" d="M 335.273438 140.140625 L 326.78125 156.691406 L 280.425781 132.910156 L 288.914062 116.359375 Z M 335.273438 140.140625 " fill-opacity="1" fill-rule="nonzero"/></g></g></g><g clip-path="url(#335393888b)"><g clip-path="url(#4957eef1a1)"><g clip-path="url(#cddd38cf7c)"><path fill="#60b9b9" d="M 338.445312 160.296875 L 329.957031 176.847656 L 283.597656 153.070312 L 292.089844 136.519531 Z M 338.445312 160.296875 " fill-opacity="1" fill-rule="nonzero"/></g></g></g><g clip-path="url(#075fa46436)"><g clip-path="url(#4d10ba0188)"><g clip-path="url(#3c1462de14)"><path fill="#60b9b9" d="M 150.15625 16.089844 L 182.894531 28.097656 L 175.035156 49.53125 L 142.296875 37.523438 Z M 150.15625 16.089844 " fill-opacity="1" fill-rule="nonzero"/></g></g></g><g clip-path="url(#7f63d5c7c1)"><g clip-path="url(#ca5f0ef92f)"><g clip-path="url(#0ddd3868dd)"><path fill="#60b9b9" d="M 162.597656 31.808594 L 203.234375 -0.00390625 L 224.0625 26.601562 L 183.425781 58.414062 Z M 162.597656 31.808594 " fill-opacity="1" fill-rule="nonzero"/></g></g></g><g clip-path="url(#6c974add2d)"><g clip-path="url(#caaaca0bae)"><g clip-path="url(#4f1457a103)"><path fill="#60b9b9" d="M 292.035156 5.261719 L 325.425781 45.269531 L 276.199219 86.355469 L 242.808594 46.351562 Z M 292.035156 5.261719 " fill-opacity="1" fill-rule="nonzero"/></g></g></g><g clip-path="url(#450d9e5a3b)"><g clip-path="url(#42ff9a9acb)"><g clip-path="url(#ca8f76d4a2)"><path fill="#0c8794" d="M 288 16.414062 L 313.726562 47.238281 L 275.800781 78.894531 L 250.074219 48.070312 Z M 288 16.414062 " fill-opacity="1" fill-rule="nonzero"/></g></g></g><g clip-path="url(#60c2f54ee7)"><g clip-path="url(#16691f8a6a)"><g clip-path="url(#0400f70f26)"><path fill="#fe9284" d="M 276.210938 38.355469 L 289.773438 54.605469 L 269.78125 71.292969 L 256.21875 55.042969 Z M 276.210938 38.355469 " fill-opacity="1" fill-rule="nonzero"/></g></g></g><g clip-path="url(#2e807b8cc5)"><g clip-path="url(#6d64d127dd)"><g clip-path="url(#bc76cdd52f)"><path fill="#60b9b9" d="M 42.117188 40.390625 L 81.582031 6.359375 L 123.457031 54.917969 L 83.992188 88.949219 Z M 42.117188 40.390625 " fill-opacity="1" fill-rule="nonzero"/></g></g></g><g clip-path="url(#76d1b50acb)"><g clip-path="url(#f6dd486d05)"><g clip-path="url(#dd98e3a401)"><path fill="#0c8794" d="M 53.339844 44.242188 L 83.746094 18.023438 L 116.007812 55.4375 L 85.601562 81.65625 Z M 53.339844 44.242188 " fill-opacity="1" fill-rule="nonzero"/></g></g></g><g clip-path="url(#8b88f6f117)"><g clip-path="url(#ad4590abf8)"><g clip-path="url(#c52520c5ab)"><path fill="#fe9284" d="M 75.46875 55.675781 L 91.5 41.855469 L 108.507812 61.578125 L 92.476562 75.398438 Z M 75.46875 55.675781 " fill-opacity="1" fill-rule="nonzero"/></g></g></g><g clip-path="url(#868220e322)"><g clip-path="url(#3364af3675)"><path fill="#0c8794" d="M 195.984375 118.257812 L 261.207031 118.257812 L 261.207031 183.484375 L 195.984375 183.484375 Z M 195.984375 118.257812 " fill-opacity="1" fill-rule="nonzero"/></g></g><g clip-path="url(#ad32c91810)"><g clip-path="url(#90a0ae3b5e)"><path fill="#fdfcea" d="M 193.222656 115.511719 L 258.449219 115.511719 L 258.449219 180.734375 L 193.222656 180.734375 Z M 193.222656 115.511719 " fill-opacity="1" fill-rule="nonzero"/></g></g><g clip-path="url(#e45b8164e9)"><g clip-path="url(#699a491a8b)"><path fill="#25284d" d="M 199.402344 120.039062 L 252.265625 120.039062 L 252.265625 176.207031 L 199.402344 176.207031 Z M 199.402344 120.039062 " fill-opacity="1" fill-rule="nonzero"/></g></g><g clip-path="url(#ea14f24156)"><g clip-path="url(#21361f6866)"><path fill="#fdfcea" d="M 205.585938 131.707031 L 223.839844 131.707031 L 223.839844 149.964844 L 205.585938 149.964844 Z M 205.585938 131.707031 " fill-opacity="1" fill-rule="nonzero"/></g></g><g clip-path="url(#ca4135f6e3)"><g clip-path="url(#6a0c9ac50e)"><path fill="#fdfcea" d="M 223.839844 148.121094 L 234.425781 148.121094 L 234.425781 158.707031 L 223.839844 158.707031 Z M 223.839844 148.121094 " fill-opacity="1" fill-rule="nonzero"/></g></g></svg>