<svg xmlns="http://www.w3.org/2000/svg" xmlns:xlink="http://www.w3.org/1999/xlink" width="500" zoomAndPan="magnify" viewBox="0 0 375 374.999991" height="500" preserveAspectRatio="xMidYMid meet" version="1.0"><defs><clipPath id="f70ccf8a14"><path d="M 16 159 L 111 159 L 111 270 L 16 270 Z M 16 159 " clip-rule="nonzero"/></clipPath><clipPath id="5008b2a74a"><path d="M 77.011719 143.703125 L 128.183594 183.074219 L 49.140625 285.816406 L -2.03125 246.449219 Z M 77.011719 143.703125 " clip-rule="nonzero"/></clipPath><clipPath id="5063cadacf"><path d="M 102.597656 163.390625 C 88.464844 152.519531 59.347656 166.664062 37.5625 194.980469 C 15.773438 223.300781 9.570312 255.070312 23.699219 265.941406 C 37.832031 276.8125 66.949219 262.667969 88.734375 234.351562 C 110.523438 206.03125 116.726562 174.261719 102.597656 163.390625 Z M 102.597656 163.390625 " clip-rule="nonzero"/></clipPath><clipPath id="b43aae67df"><path d="M 31 185 L 102 185 L 102 267 L 31 267 Z M 31 185 " clip-rule="nonzero"/></clipPath><clipPath id="e73101c86d"><path d="M 76.433594 173.15625 L 114.410156 202.371094 L 55.75 278.613281 L 17.777344 249.402344 Z M 76.433594 173.15625 " clip-rule="nonzero"/></clipPath><clipPath id="23307d7d0b"><path d="M 95.421875 187.761719 C 84.933594 179.695312 63.328125 190.191406 47.160156 211.207031 C 30.992188 232.222656 26.386719 255.800781 36.871094 263.867188 C 47.359375 271.933594 68.964844 261.4375 85.132812 240.421875 C 101.300781 219.40625 105.90625 195.832031 95.421875 187.761719 Z M 95.421875 187.761719 " clip-rule="nonzero"/></clipPath><clipPath id="4941932a53"><path d="M 264 168 L 359 168 L 359 278 L 264 278 Z M 264 168 " clip-rule="nonzero"/></clipPath><clipPath id="8a2b6e2eb3"><path d="M 246.191406 191.566406 L 297.140625 151.90625 L 376.769531 254.199219 L 325.820312 293.859375 Z M 246.191406 191.566406 " clip-rule="nonzero"/></clipPath><clipPath id="8442b385fb"><path d="M 271.667969 171.738281 C 257.597656 182.6875 263.984375 214.421875 285.933594 242.617188 C 307.882812 270.8125 337.078125 284.792969 351.148438 273.839844 C 365.214844 262.886719 358.828125 231.152344 336.878906 202.957031 C 314.933594 174.765625 285.734375 160.785156 271.667969 171.738281 Z M 271.667969 171.738281 " clip-rule="nonzero"/></clipPath><clipPath id="86f2688d7a"><path d="M 269 191 L 340 191 L 340 273 L 269 273 Z M 269 191 " clip-rule="nonzero"/></clipPath><clipPath id="2011e5f530"><path d="M 256.421875 208.660156 L 294.230469 179.226562 L 353.320312 255.136719 L 315.511719 284.566406 Z M 256.421875 208.660156 " clip-rule="nonzero"/></clipPath><clipPath id="d96ec8e948"><path d="M 275.324219 193.941406 C 264.886719 202.070312 269.625 225.621094 285.914062 246.542969 C 302.199219 267.464844 323.867188 277.839844 334.308594 269.710938 C 344.746094 261.585938 340.007812 238.035156 323.71875 217.113281 C 307.433594 196.191406 285.765625 185.816406 275.324219 193.941406 Z M 275.324219 193.941406 " clip-rule="nonzero"/></clipPath><clipPath id="c6093bc7c3"><path d="M 59.347656 32.808594 L 309.902344 32.808594 L 309.902344 309 L 59.347656 309 Z M 59.347656 32.808594 " clip-rule="nonzero"/></clipPath><clipPath id="3c41201df2"><path d="M 142.914062 39.289062 C 155.714844 35.375 170.359375 32.808594 184.695312 32.808594 C 199.027344 32.808594 212.820312 35.007812 225.527344 38.921875 C 225.800781 39.046875 226.070312 39.046875 226.339844 39.167969 C 274.070312 54.820312 309.226562 96.152344 309.902344 144.457031 L 309.902344 309.054688 L 59.347656 309.054688 L 59.347656 144.578125 C 60.023438 95.910156 94.640625 54.574219 142.914062 39.289062 Z M 142.914062 39.289062 " clip-rule="nonzero"/></clipPath><clipPath id="0a4a9f59cb"><path d="M 154.722656 194.875 L 183.972656 194.875 L 183.972656 212.875 L 154.722656 212.875 Z M 154.722656 194.875 " clip-rule="nonzero"/></clipPath><clipPath id="e0d124b8eb"><path d="M 179.542969 195 L 208.042969 195 L 208.042969 212.871094 L 179.542969 212.871094 Z M 179.542969 195 " clip-rule="nonzero"/></clipPath><clipPath id="5694fe5fef"><path d="M 252.648438 194.535156 L 279.246094 194.535156 L 279.246094 222.796875 L 252.648438 222.796875 Z M 252.648438 194.535156 " clip-rule="nonzero"/></clipPath><clipPath id="356bc9d9a1"><path d="M 265.949219 194.535156 C 258.601562 194.535156 252.648438 200.859375 252.648438 208.664062 C 252.648438 216.46875 258.601562 222.792969 265.949219 222.792969 C 273.292969 222.792969 279.246094 216.46875 279.246094 208.664062 C 279.246094 200.859375 273.292969 194.535156 265.949219 194.535156 Z M 265.949219 194.535156 " clip-rule="nonzero"/></clipPath><clipPath id="68a064a0ed"><path d="M 99.585938 118.257812 L 164.808594 118.257812 L 164.808594 183.484375 L 99.585938 183.484375 Z M 99.585938 118.257812 " clip-rule="nonzero"/></clipPath><clipPath id="28d7733d3b"><path d="M 132.199219 118.257812 C 114.1875 118.257812 99.585938 132.859375 99.585938 150.871094 C 99.585938 168.882812 114.1875 183.484375 132.199219 183.484375 C 150.210938 183.484375 164.808594 168.882812 164.808594 150.871094 C 164.808594 132.859375 150.210938 118.257812 132.199219 118.257812 Z M 132.199219 118.257812 " clip-rule="nonzero"/></clipPath><clipPath id="1ffa1f7e66"><path d="M 96.824219 115.511719 L 162.050781 115.511719 L 162.050781 180.734375 L 96.824219 180.734375 Z M 96.824219 115.511719 " clip-rule="nonzero"/></clipPath><clipPath id="5d13dfa845"><path d="M 129.4375 115.511719 C 111.425781 115.511719 96.824219 130.113281 96.824219 148.121094 C 96.824219 166.132812 111.425781 180.734375 129.4375 180.734375 C 147.449219 180.734375 162.050781 166.132812 162.050781 148.121094 C 162.050781 130.113281 147.449219 115.511719 129.4375 115.511719 Z M 129.4375 115.511719 " clip-rule="nonzero"/></clipPath><clipPath id="5db96a346e"><path d="M 103.007812 120.039062 L 155.871094 120.039062 L 155.871094 176.207031 L 103.007812 176.207031 Z M 103.007812 120.039062 " clip-rule="nonzero"/></clipPath><clipPath id="c54e6f9ea5"><path d="M 129.4375 120.039062 C 114.839844 120.039062 103.007812 132.613281 103.007812 148.121094 C 103.007812 163.632812 114.839844 176.207031 129.4375 176.207031 C 144.035156 176.207031 155.871094 163.632812 155.871094 148.121094 C 155.871094 132.613281 144.035156 120.039062 129.4375 120.039062 Z M 129.4375 120.039062 " clip-rule="nonzero"/></clipPath><clipPath id="03528eecac"><path d="M 109.1875 131.707031 L 127.441406 131.707031 L 127.441406 149.964844 L 109.1875 149.964844 Z M 109.1875 131.707031 " clip-rule="nonzero"/></clipPath><clipPath id="7334b57193"><path d="M 118.316406 131.707031 C 113.273438 131.707031 109.1875 135.796875 109.1875 140.835938 C 109.1875 145.878906 113.273438 149.964844 118.316406 149.964844 C 123.355469 149.964844 127.441406 145.878906 127.441406 140.835938 C 127.441406 135.796875 123.355469 131.707031 118.316406 131.707031 Z M 118.316406 131.707031 " clip-rule="nonzero"/></clipPath><clipPath id="da9057a895"><path d="M 127.441406 148.121094 L 138.027344 148.121094 L 138.027344 158.707031 L 127.441406 158.707031 Z M 127.441406 148.121094 " clip-rule="nonzero"/></clipPath><clipPath id="e532f17d82"><path d="M 132.734375 148.121094 C 129.8125 148.121094 127.441406 150.492188 127.441406 153.414062 C 127.441406 156.335938 129.8125 158.707031 132.734375 158.707031 C 135.65625 158.707031 138.027344 156.335938 138.027344 153.414062 C 138.027344 150.492188 135.65625 148.121094 132.734375 148.121094 Z M 132.734375 148.121094 " clip-rule="nonzero"/></clipPath><clipPath id="daf401691b"><path d="M 83.523438 233 L 167.738281 233 L 167.738281 371.488281 L 83.523438 371.488281 Z M 83.523438 233 " clip-rule="nonzero"/></clipPath><clipPath id="fedad1f1c9"><path d="M 83.523438 267.566406 C 83.523438 248.496094 102.375 233.035156 125.632812 233.035156 C 148.886719 233.035156 167.738281 248.496094 167.738281 267.566406 L 167.738281 336.628906 C 167.738281 355.699219 148.886719 371.160156 125.632812 371.160156 C 102.375 371.160156 83.523438 355.699219 83.523438 336.628906 Z M 83.523438 267.566406 " clip-rule="nonzero"/></clipPath><clipPath id="f8edc93b6f"><path d="M 98.308594 353.292969 L 110.128906 353.292969 L 110.128906 371.160156 L 98.308594 371.160156 Z M 98.308594 353.292969 " clip-rule="nonzero"/></clipPath><clipPath id="79a954a60b"><path d="M 98.308594 359.21875 C 98.308594 355.953125 100.953125 353.308594 104.21875 353.308594 C 107.480469 353.308594 110.128906 355.953125 110.128906 359.21875 L 110.128906 365.25 C 110.128906 368.511719 107.480469 371.160156 104.21875 371.160156 C 100.953125 371.160156 98.308594 368.511719 98.308594 365.25 Z M 98.308594 359.21875 " clip-rule="nonzero"/></clipPath><clipPath id="ed162ade18"><path d="M 119 357.128906 L 130.820312 357.128906 L 130.820312 374.996094 L 119 374.996094 Z M 119 357.128906 " clip-rule="nonzero"/></clipPath><clipPath id="45c3d5dba4"><path d="M 119 363.054688 C 119 359.792969 121.648438 357.144531 124.910156 357.144531 C 128.175781 357.144531 130.820312 359.792969 130.820312 363.054688 L 130.820312 369.085938 C 130.820312 372.351562 128.175781 374.996094 124.910156 374.996094 C 121.648438 374.996094 119 372.351562 119 369.085938 Z M 119 363.054688 " clip-rule="nonzero"/></clipPath><clipPath id="f90fa1d791"><path d="M 140.027344 353.292969 L 151.847656 353.292969 L 151.847656 371.160156 L 140.027344 371.160156 Z M 140.027344 353.292969 " clip-rule="nonzero"/></clipPath><clipPath id="accb7336b3"><path d="M 140.027344 359.21875 C 140.027344 355.953125 142.675781 353.308594 145.9375 353.308594 C 149.203125 353.308594 151.847656 355.953125 151.847656 359.21875 L 151.847656 365.25 C 151.847656 368.511719 149.203125 371.160156 145.9375 371.160156 C 142.675781 371.160156 140.027344 368.511719 140.027344 365.25 Z M 140.027344 359.21875 " clip-rule="nonzero"/></clipPath><clipPath id="665e6ed59d"><path d="M 83.527344 194.535156 L 110.125 194.535156 L 110.125 222.796875 L 83.527344 222.796875 Z M 83.527344 194.535156 " clip-rule="nonzero"/></clipPath><clipPath id="ded8e69dcb"><path d="M 96.824219 194.535156 C 89.480469 194.535156 83.527344 200.859375 83.527344 208.664062 C 83.527344 216.46875 89.480469 222.792969 96.824219 222.792969 C 104.171875 222.792969 110.125 216.46875 110.125 208.664062 C 110.125 200.859375 104.171875 194.535156 96.824219 194.535156 Z M 96.824219 194.535156 " clip-rule="nonzero"/></clipPath><clipPath id="8385569c99"><path d="M 208.050781 233 L 292.261719 233 L 292.261719 371.488281 L 208.050781 371.488281 Z M 208.050781 233 " clip-rule="nonzero"/></clipPath><clipPath id="1f988c3af7"><path d="M 208.050781 267.566406 C 208.050781 248.496094 226.902344 233.035156 250.15625 233.035156 C 273.410156 233.035156 292.261719 248.496094 292.261719 267.566406 L 292.261719 336.628906 C 292.261719 355.699219 273.410156 371.160156 250.15625 371.160156 C 226.902344 371.160156 208.050781 355.699219 208.050781 336.628906 Z M 208.050781 267.566406 " clip-rule="nonzero"/></clipPath><clipPath id="9228ccc494"><path d="M 222.832031 353.292969 L 234.652344 353.292969 L 234.652344 371.160156 L 222.832031 371.160156 Z M 222.832031 353.292969 " clip-rule="nonzero"/></clipPath><clipPath id="27af2d7948"><path d="M 222.832031 359.21875 C 222.832031 355.953125 225.480469 353.308594 228.742188 353.308594 C 232.007812 353.308594 234.652344 355.953125 234.652344 359.21875 L 234.652344 365.25 C 234.652344 368.511719 232.007812 371.160156 228.742188 371.160156 C 225.480469 371.160156 222.832031 368.511719 222.832031 365.25 Z M 222.832031 359.21875 " clip-rule="nonzero"/></clipPath><clipPath id="81d98ffb29"><path d="M 243.527344 357.128906 L 255.347656 357.128906 L 255.347656 374.996094 L 243.527344 374.996094 Z M 243.527344 357.128906 " clip-rule="nonzero"/></clipPath><clipPath id="9e645917af"><path d="M 243.527344 363.054688 C 243.527344 359.792969 246.171875 357.144531 249.4375 357.144531 C 252.699219 357.144531 255.347656 359.792969 255.347656 363.054688 L 255.347656 369.085938 C 255.347656 372.351562 252.699219 374.996094 249.4375 374.996094 C 246.171875 374.996094 243.527344 372.351562 243.527344 369.085938 Z M 243.527344 363.054688 " clip-rule="nonzero"/></clipPath><clipPath id="f2a73911bf"><path d="M 264.554688 353.292969 L 276.375 353.292969 L 276.375 371.160156 L 264.554688 371.160156 Z M 264.554688 353.292969 " clip-rule="nonzero"/></clipPath><clipPath id="29c4905b56"><path d="M 264.554688 359.21875 C 264.554688 355.953125 267.199219 353.308594 270.464844 353.308594 C 273.726562 353.308594 276.375 355.953125 276.375 359.21875 L 276.375 365.25 C 276.375 368.511719 273.726562 371.160156 270.464844 371.160156 C 267.199219 371.160156 264.554688 368.511719 264.554688 365.25 Z M 264.554688 359.21875 " clip-rule="nonzero"/></clipPath><clipPath id="c74dc029d4"><path d="M 90.355469 246.410156 L 119.066406 246.410156 L 119.066406 321.78125 L 90.355469 321.78125 Z M 90.355469 246.410156 " clip-rule="nonzero"/></clipPath><clipPath id="b6d977ab59"><path d="M 90.355469 270.324219 C 90.355469 257.148438 96.78125 246.46875 104.710938 246.46875 C 112.640625 246.46875 119.066406 257.148438 119.066406 270.324219 L 119.066406 297.925781 C 119.066406 311.101562 112.640625 321.78125 104.710938 321.78125 C 96.78125 321.78125 90.355469 311.101562 90.355469 297.925781 Z M 90.355469 270.324219 " clip-rule="nonzero"/></clipPath><clipPath id="97dffc5af6"><path d="M 88.855469 238.769531 L 120.570312 238.769531 L 120.570312 315.457031 L 88.855469 315.457031 Z M 88.855469 238.769531 " clip-rule="nonzero"/></clipPath><clipPath id="fab670b8d4"><path d="M 88.855469 265.207031 C 88.855469 250.652344 95.957031 238.855469 104.714844 238.855469 C 113.472656 238.855469 120.570312 250.652344 120.570312 265.207031 L 120.570312 289.105469 C 120.570312 303.65625 113.472656 315.457031 104.714844 315.457031 C 95.957031 315.457031 88.855469 303.65625 88.855469 289.105469 Z M 88.855469 265.207031 " clip-rule="nonzero"/></clipPath><clipPath id="f9fa2db6cc"><path d="M 114.605469 224.621094 L 252.921875 224.621094 L 252.921875 302.101562 L 114.605469 302.101562 Z M 114.605469 224.621094 " clip-rule="nonzero"/></clipPath><clipPath id="58a8298d13"><path d="M 160.644531 229.273438 C 167.699219 226.464844 175.769531 224.621094 183.664062 224.621094 C 191.5625 224.621094 199.160156 226.203125 206.164062 229.011719 C 206.3125 229.097656 206.460938 229.097656 206.609375 229.1875 C 232.90625 240.425781 252.277344 270.105469 252.648438 302.101562 L 114.605469 302.101562 C 114.980469 269.929688 134.050781 240.25 160.644531 229.273438 Z M 160.644531 229.273438 " clip-rule="nonzero"/></clipPath><clipPath id="37606d3724"><path d="M 60.84375 263.304688 L 89.558594 263.304688 L 89.558594 332.847656 L 60.84375 332.847656 Z M 60.84375 263.304688 " clip-rule="nonzero"/></clipPath><clipPath id="b1aba60e6d"><path d="M 60.84375 287.210938 C 60.84375 274.035156 67.273438 263.355469 75.203125 263.355469 C 83.132812 263.355469 89.558594 274.035156 89.558594 287.210938 L 89.558594 308.988281 C 89.558594 322.164062 83.132812 332.847656 75.203125 332.847656 C 67.273438 332.847656 60.84375 322.164062 60.84375 308.988281 Z M 60.84375 287.210938 " clip-rule="nonzero"/></clipPath><clipPath id="082ad8d908"><path d="M 59.347656 263.328125 L 91.0625 263.328125 L 91.0625 327.007812 L 59.347656 327.007812 Z M 59.347656 263.328125 " clip-rule="nonzero"/></clipPath><clipPath id="e893c1976e"><path d="M 59.347656 289.707031 C 59.347656 275.152344 66.445312 263.355469 75.203125 263.355469 C 83.960938 263.355469 91.0625 275.152344 91.0625 289.707031 L 91.0625 300.65625 C 91.0625 315.210938 83.960938 327.007812 75.203125 327.007812 C 66.445312 327.007812 59.347656 315.210938 59.347656 300.65625 Z M 59.347656 289.707031 " clip-rule="nonzero"/></clipPath><clipPath id="093b197cf3"><path d="M 281.191406 258.710938 L 309.902344 258.710938 L 309.902344 332.847656 L 281.191406 332.847656 Z M 281.191406 258.710938 " clip-rule="nonzero"/></clipPath><clipPath id="4783d1f331"><path d="M 281.191406 282.636719 C 281.191406 269.460938 287.617188 258.78125 295.546875 258.78125 C 303.476562 258.78125 309.902344 269.460938 309.902344 282.636719 L 309.902344 308.992188 C 309.902344 322.167969 303.476562 332.847656 295.546875 332.847656 C 287.617188 332.847656 281.191406 322.167969 281.191406 308.992188 Z M 281.191406 282.636719 " clip-rule="nonzero"/></clipPath><clipPath id="aa7b1e1a3d"><path d="M 279.6875 249.316406 L 311.402344 249.316406 L 311.402344 326.621094 L 279.6875 326.621094 Z M 279.6875 249.316406 " clip-rule="nonzero"/></clipPath><clipPath id="2c66a855d1"><path d="M 279.6875 275.722656 C 279.6875 261.171875 286.785156 249.375 295.542969 249.375 C 304.304688 249.375 311.402344 261.171875 311.402344 275.722656 L 311.402344 300.269531 C 311.402344 314.824219 304.304688 326.621094 295.542969 326.621094 C 286.785156 326.621094 279.6875 314.824219 279.6875 300.269531 Z M 279.6875 275.722656 " clip-rule="nonzero"/></clipPath><clipPath id="106440f1d5"><path d="M 116.460938 274.773438 L 145.175781 274.773438 L 145.175781 328.273438 L 116.460938 328.273438 Z M 116.460938 274.773438 " clip-rule="nonzero"/></clipPath><clipPath id="e0625043ac"><path d="M 116.460938 298.65625 C 116.460938 285.480469 122.890625 274.800781 130.816406 274.800781 C 138.746094 274.800781 145.175781 285.480469 145.175781 298.65625 L 145.175781 304.417969 C 145.175781 317.59375 138.746094 328.273438 130.816406 328.273438 C 122.890625 328.273438 116.460938 317.59375 116.460938 304.417969 Z M 116.460938 298.65625 " clip-rule="nonzero"/></clipPath><clipPath id="0892a02228"><path d="M 114.960938 267.859375 L 146.675781 267.859375 L 146.675781 320.636719 L 114.960938 320.636719 Z M 114.960938 267.859375 " clip-rule="nonzero"/></clipPath><clipPath id="0c06bfed83"><path d="M 114.960938 294.285156 C 114.960938 279.730469 122.0625 267.933594 130.820312 267.933594 C 139.578125 267.933594 146.675781 279.730469 146.675781 294.285156 C 146.675781 308.835938 139.578125 320.636719 130.820312 320.636719 C 122.0625 320.636719 114.960938 308.835938 114.960938 294.285156 Z M 114.960938 294.285156 " clip-rule="nonzero"/></clipPath><clipPath id="bfefa5ead1"><path d="M 167.769531 263.277344 L 208.050781 263.277344 L 208.050781 327.007812 L 167.769531 327.007812 Z M 167.769531 263.277344 " clip-rule="nonzero"/></clipPath><clipPath id="bf69a8ec82"><path d="M 167.769531 289.707031 C 167.769531 275.152344 176.785156 263.355469 187.910156 263.355469 C 199.03125 263.355469 208.050781 275.152344 208.050781 289.707031 L 208.050781 300.65625 C 208.050781 315.210938 199.03125 327.007812 187.910156 327.007812 C 176.785156 327.007812 167.769531 315.210938 167.769531 300.65625 Z M 167.769531 289.707031 " clip-rule="nonzero"/></clipPath><clipPath id="156960980e"><path d="M 140.359375 258.730469 L 169.074219 258.730469 L 169.074219 328.269531 L 140.359375 328.269531 Z M 140.359375 258.730469 " clip-rule="nonzero"/></clipPath><clipPath id="017bbc2794"><path d="M 140.359375 282.636719 C 140.359375 269.460938 146.789062 258.777344 154.71875 258.777344 C 162.644531 258.777344 169.074219 269.460938 169.074219 282.636719 L 169.074219 304.414062 C 169.074219 317.589844 162.644531 328.269531 154.71875 328.269531 C 146.789062 328.269531 140.359375 317.589844 140.359375 304.414062 Z M 140.359375 282.636719 " clip-rule="nonzero"/></clipPath><clipPath id="ae01364e3d"><path d="M 138.863281 252.1875 L 170.578125 252.1875 L 170.578125 322.433594 L 138.863281 322.433594 Z M 138.863281 252.1875 " clip-rule="nonzero"/></clipPath><clipPath id="6b40abceaa"><path d="M 138.863281 278.644531 C 138.863281 264.089844 145.964844 252.292969 154.722656 252.292969 C 163.480469 252.292969 170.578125 264.089844 170.578125 278.644531 L 170.578125 296.082031 C 170.578125 310.636719 163.480469 322.433594 154.722656 322.433594 C 145.964844 322.433594 138.863281 310.636719 138.863281 296.082031 Z M 138.863281 278.644531 " clip-rule="nonzero"/></clipPath><clipPath id="8472c55b32"><path d="M 251.777344 258.695312 L 282.746094 258.695312 L 282.746094 332.847656 L 251.777344 332.847656 Z M 251.777344 258.695312 " clip-rule="nonzero"/></clipPath><clipPath id="67c83a8bb4"><path d="M 251.777344 282.636719 C 251.777344 269.460938 258.710938 258.78125 267.261719 258.78125 C 275.8125 258.78125 282.746094 269.460938 282.746094 282.636719 L 282.746094 308.992188 C 282.746094 322.167969 275.8125 332.847656 267.261719 332.847656 C 258.710938 332.847656 251.777344 322.167969 251.777344 308.992188 Z M 251.777344 282.636719 " clip-rule="nonzero"/></clipPath><clipPath id="a151dd0cfb"><path d="M 250.164062 252.199219 L 284.371094 252.199219 L 284.371094 326.625 L 250.164062 326.625 Z M 250.164062 252.199219 " clip-rule="nonzero"/></clipPath><clipPath id="0b5c31dcf5"><path d="M 250.164062 278.640625 C 250.164062 264.089844 257.820312 252.292969 267.265625 252.292969 C 276.710938 252.292969 284.371094 264.089844 284.371094 278.640625 L 284.371094 300.273438 C 284.371094 314.828125 276.710938 326.625 267.265625 326.625 C 257.820312 326.625 250.164062 314.828125 250.164062 300.273438 Z M 250.164062 278.640625 " clip-rule="nonzero"/></clipPath><clipPath id="751706905f"><path d="M 210.050781 280.574219 L 248.171875 280.574219 L 248.171875 334.183594 L 210.050781 334.183594 Z M 210.050781 280.574219 " clip-rule="nonzero"/></clipPath><clipPath id="d45760350a"><path d="M 210.050781 304.5625 C 210.050781 291.386719 218.582031 280.707031 229.109375 280.707031 C 239.636719 280.707031 248.171875 291.386719 248.171875 304.5625 L 248.171875 310.328125 C 248.171875 323.503906 239.636719 334.183594 229.109375 334.183594 C 218.582031 334.183594 210.050781 323.503906 210.050781 310.328125 Z M 210.050781 304.5625 " clip-rule="nonzero"/></clipPath><clipPath id="b6587e2c58"><path d="M 208.050781 273.75 L 250.160156 273.75 L 250.160156 326.550781 L 208.050781 326.550781 Z M 208.050781 273.75 " clip-rule="nonzero"/></clipPath><clipPath id="b89122038c"><path d="M 208.050781 300.199219 C 208.050781 285.644531 217.476562 273.847656 229.105469 273.847656 C 240.734375 273.847656 250.160156 285.644531 250.160156 300.199219 C 250.160156 314.75 240.734375 326.550781 229.105469 326.550781 C 217.476562 326.550781 208.050781 314.75 208.050781 300.199219 Z M 208.050781 300.199219 " clip-rule="nonzero"/></clipPath><clipPath id="cec3fd62bf"><path d="M 33 129 L 85 129 L 85 167 L 33 167 Z M 33 129 " clip-rule="nonzero"/></clipPath><clipPath id="955d58ee9f"><path d="M 38.175781 169.839844 L 29.78125 153.242188 L 76.277344 129.730469 L 84.671875 146.332031 Z M 38.175781 169.839844 " clip-rule="nonzero"/></clipPath><clipPath id="bbd108dddb"><path d="M 35.988281 163.996094 C 35.191406 163.335938 34.457031 162.484375 33.976562 161.535156 C 33.496094 160.585938 33.242188 159.566406 33.183594 158.539062 C 33.1875 158.515625 33.179688 158.5 33.179688 158.472656 C 33.054688 154.566406 35.765625 150.269531 40.746094 147.699219 L 76.25 129.742188 L 84.644531 146.34375 L 49.164062 164.285156 C 44.09375 166.792969 39.042969 166.46875 35.988281 163.996094 Z M 35.988281 163.996094 " clip-rule="nonzero"/></clipPath><clipPath id="81b8e498c1"><path d="M 39 105 L 90 105 L 90 144 L 39 144 Z M 39 105 " clip-rule="nonzero"/></clipPath><clipPath id="d45bd62797"><path d="M 44.734375 147.703125 L 35.367188 131.628906 L 80.378906 105.394531 L 89.746094 121.464844 Z M 44.734375 147.703125 " clip-rule="nonzero"/></clipPath><clipPath id="cfb2c1ca4c"><path d="M 42.199219 141.996094 C 41.363281 141.382812 40.582031 140.582031 40.046875 139.660156 C 39.511719 138.742188 39.195312 137.742188 39.078125 136.71875 C 39.078125 136.695312 39.066406 136.675781 39.070312 136.652344 C 38.710938 132.757812 41.164062 128.308594 45.976562 125.445312 L 80.351562 105.410156 L 89.71875 121.480469 L 55.371094 141.5 C 50.457031 144.308594 45.398438 144.28125 42.199219 141.996094 Z M 42.199219 141.996094 " clip-rule="nonzero"/></clipPath><clipPath id="668c9d9969"><path d="M 39 85 L 92 85 L 92 122 L 39 122 Z M 39 85 " clip-rule="nonzero"/></clipPath><clipPath id="b312c7a0cf"><path d="M 44.878906 125.683594 L 36.289062 109.183594 L 82.5 85.125 L 91.089844 101.625 Z M 44.878906 125.683594 " clip-rule="nonzero"/></clipPath><clipPath id="1495dad105"><path d="M 42.617188 119.863281 C 41.8125 119.210938 41.070312 118.371094 40.582031 117.429688 C 40.089844 116.484375 39.820312 115.46875 39.753906 114.441406 C 39.753906 114.417969 39.746094 114.402344 39.746094 114.375 C 39.574219 110.472656 42.234375 106.144531 47.183594 103.511719 L 82.472656 85.136719 L 91.0625 101.636719 L 55.800781 119.996094 C 50.757812 122.566406 45.703125 122.300781 42.617188 119.863281 Z M 42.617188 119.863281 " clip-rule="nonzero"/></clipPath><clipPath id="8f4f1bad8c"><path d="M 273 89 L 325 89 L 325 126 L 273 126 Z M 273 89 " clip-rule="nonzero"/></clipPath><clipPath id="00004b3656"><path d="M 328.128906 113.195312 L 319.640625 129.746094 L 273.28125 105.96875 L 281.773438 89.417969 Z M 328.128906 113.195312 " clip-rule="nonzero"/></clipPath><clipPath id="24c706a7cc"><path d="M 324.691406 118.40625 C 324.625 119.4375 324.367188 120.53125 323.882812 121.476562 C 323.398438 122.421875 322.722656 123.230469 321.925781 123.878906 C 321.902344 123.890625 321.894531 123.910156 321.875 123.921875 C 318.789062 126.320312 313.71875 126.65625 308.710938 124.140625 L 273.308594 105.984375 L 281.800781 89.429688 L 317.171875 107.578125 C 322.1875 110.203125 324.890625 114.480469 324.691406 118.40625 Z M 324.691406 118.40625 " clip-rule="nonzero"/></clipPath><clipPath id="886e1a4c36"><path d="M 281 116 L 333 116 L 333 153 L 281 153 Z M 281 116 " clip-rule="nonzero"/></clipPath><clipPath id="80dabcbe1a"><path d="M 336.007812 140.140625 L 327.515625 156.691406 L 281.160156 132.910156 L 289.648438 116.359375 Z M 336.007812 140.140625 " clip-rule="nonzero"/></clipPath><clipPath id="d197d359bd"><path d="M 332.566406 145.347656 C 332.5 146.382812 332.246094 147.472656 331.757812 148.417969 C 331.273438 149.367188 330.597656 150.171875 329.800781 150.824219 C 329.78125 150.835938 329.773438 150.851562 329.75 150.863281 C 326.664062 153.265625 321.59375 153.597656 316.585938 151.085938 L 281.1875 132.925781 L 289.675781 116.375 L 325.050781 134.519531 C 330.0625 137.148438 332.769531 141.421875 332.566406 145.347656 Z M 332.566406 145.347656 " clip-rule="nonzero"/></clipPath><clipPath id="2388f0748f"><path d="M 284 136 L 336 136 L 336 173 L 284 173 Z M 284 136 " clip-rule="nonzero"/></clipPath><clipPath id="d04272eefe"><path d="M 339.179688 160.296875 L 330.6875 176.847656 L 284.332031 153.070312 L 292.824219 136.519531 Z M 339.179688 160.296875 " clip-rule="nonzero"/></clipPath><clipPath id="dcf92b678f"><path d="M 335.738281 165.507812 C 335.671875 166.539062 335.417969 167.632812 334.933594 168.578125 C 334.445312 169.523438 333.773438 170.328125 332.972656 170.980469 C 332.953125 170.992188 332.945312 171.011719 332.925781 171.023438 C 329.839844 173.421875 324.769531 173.753906 319.757812 171.242188 L 284.359375 153.085938 L 292.851562 136.53125 L 328.222656 154.679688 C 333.234375 157.304688 335.941406 161.582031 335.738281 165.507812 Z M 335.738281 165.507812 " clip-rule="nonzero"/></clipPath><clipPath id="9b32edef31"><path d="M 146 20 L 181 20 L 181 46 L 146 46 Z M 146 20 " clip-rule="nonzero"/></clipPath><clipPath id="5e60264acf"><path d="M 150.890625 16.089844 L 183.628906 28.097656 L 175.765625 49.53125 L 143.03125 37.523438 Z M 150.890625 16.089844 " clip-rule="nonzero"/></clipPath><clipPath id="31e1a420be"><path d="M 167.257812 22.09375 C 158.21875 18.777344 149.132812 20.886719 146.960938 26.804688 C 144.789062 32.726562 150.359375 40.210938 159.398438 43.527344 C 168.4375 46.84375 177.523438 44.730469 179.695312 38.8125 C 181.867188 32.894531 176.296875 25.40625 167.257812 22.09375 Z M 167.257812 22.09375 " clip-rule="nonzero"/></clipPath><clipPath id="9b868b522f"><path d="M 171 8 L 217 8 L 217 50 L 171 50 Z M 171 8 " clip-rule="nonzero"/></clipPath><clipPath id="1ed41cc864"><path d="M 163.328125 31.808594 L 203.964844 -0.00390625 L 224.796875 26.601562 L 184.160156 58.414062 Z M 163.328125 31.808594 " clip-rule="nonzero"/></clipPath><clipPath id="bc8bc194f9"><path d="M 183.648438 15.902344 C 172.425781 24.6875 167.992188 37.765625 173.746094 45.113281 C 179.496094 52.460938 193.253906 51.292969 204.476562 42.507812 C 215.699219 33.726562 220.132812 20.648438 214.378906 13.300781 C 208.628906 5.953125 194.867188 7.117188 183.648438 15.902344 Z M 183.648438 15.902344 " clip-rule="nonzero"/></clipPath><clipPath id="bbc4482754"><path d="M 243 15 L 316 15 L 316 87 L 243 87 Z M 243 15 " clip-rule="nonzero"/></clipPath><clipPath id="9539bbf75a"><path d="M 292.769531 5.261719 L 326.160156 45.269531 L 276.777344 86.488281 L 243.382812 46.480469 Z M 292.769531 5.261719 " clip-rule="nonzero"/></clipPath><clipPath id="73385c6623"><path d="M 302.75 19.570312 C 305.152344 21.03125 307.5625 22.988281 309.472656 25.277344 C 311.382812 27.566406 312.828125 30.09375 313.824219 32.707031 C 313.839844 32.769531 313.875 32.8125 313.890625 32.871094 C 317.460938 42.824219 314.78125 54.585938 306.257812 61.878906 L 276.921875 86.367188 L 243.527344 46.359375 L 272.84375 21.890625 C 281.609375 14.757812 293.589844 14.136719 302.75 19.570312 Z M 302.75 19.570312 " clip-rule="nonzero"/></clipPath><clipPath id="a93b5074ea"><path d="M 250 24 L 307 24 L 307 79 L 250 79 Z M 250 24 " clip-rule="nonzero"/></clipPath><clipPath id="aa90d4d27a"><path d="M 288.734375 16.414062 L 314.460938 47.238281 L 276.414062 78.992188 L 250.6875 48.171875 Z M 288.734375 16.414062 " clip-rule="nonzero"/></clipPath><clipPath id="6040e33f05"><path d="M 296.425781 27.4375 C 298.277344 28.5625 300.132812 30.070312 301.605469 31.832031 C 303.078125 33.597656 304.191406 35.546875 304.957031 37.558594 C 304.96875 37.605469 304.996094 37.636719 305.007812 37.683594 C 307.757812 45.351562 305.695312 54.414062 299.128906 60.035156 L 276.523438 78.902344 L 250.796875 48.078125 L 273.386719 29.222656 C 280.136719 23.730469 289.367188 23.25 296.425781 27.4375 Z M 296.425781 27.4375 " clip-rule="nonzero"/></clipPath><clipPath id="69767b82cd"><path d="M 256 42 L 287 42 L 287 72 L 256 72 Z M 256 42 " clip-rule="nonzero"/></clipPath><clipPath id="ca1d3f0d55"><path d="M 276.945312 38.355469 L 290.507812 54.605469 L 270.449219 71.34375 L 256.886719 55.097656 Z M 276.945312 38.355469 " clip-rule="nonzero"/></clipPath><clipPath id="8a4db243ab"><path d="M 281 44.164062 C 281.976562 44.757812 282.957031 45.554688 283.730469 46.484375 C 284.507812 47.414062 285.09375 48.441406 285.5 49.5 C 285.503906 49.527344 285.519531 49.542969 285.523438 49.570312 C 286.976562 53.609375 285.886719 58.386719 282.425781 61.351562 L 270.507812 71.296875 L 256.945312 55.046875 L 268.855469 45.109375 C 272.414062 42.210938 277.28125 41.957031 281 44.164062 Z M 281 44.164062 " clip-rule="nonzero"/></clipPath><clipPath id="94dd223c2a"><path d="M 53 17 L 125 17 L 125 89 L 53 89 Z M 53 17 " clip-rule="nonzero"/></clipPath><clipPath id="8293b354d1"><path d="M 42.851562 40.390625 L 82.316406 6.359375 L 124.324219 55.074219 L 84.855469 89.105469 Z M 42.851562 40.390625 " clip-rule="nonzero"/></clipPath><clipPath id="f5bd29a5d7"><path d="M 56.996094 30.179688 C 58.417969 27.75 60.335938 25.3125 62.59375 23.363281 C 64.851562 21.417969 67.359375 19.929688 69.953125 18.894531 C 70.015625 18.878906 70.058594 18.839844 70.117188 18.824219 C 80.007812 15.09375 91.8125 17.589844 99.242188 25.988281 L 124.199219 54.929688 L 84.734375 88.960938 L 59.796875 60.042969 C 52.523438 51.390625 51.710938 39.421875 56.996094 30.179688 Z M 56.996094 30.179688 " clip-rule="nonzero"/></clipPath><clipPath id="ce23c90d2b"><path d="M 62 26 L 117 26 L 117 82 L 62 82 Z M 62 26 " clip-rule="nonzero"/></clipPath><clipPath id="03939ba0c4"><path d="M 54.074219 44.242188 L 84.480469 18.023438 L 116.84375 55.554688 L 86.4375 81.777344 Z M 54.074219 44.242188 " clip-rule="nonzero"/></clipPath><clipPath id="2507331a52"><path d="M 64.972656 36.375 C 66.066406 34.507812 67.546875 32.625 69.285156 31.125 C 71.023438 29.625 72.957031 28.480469 74.953125 27.679688 C 75 27.667969 75.035156 27.640625 75.082031 27.628906 C 82.703125 24.753906 91.796875 26.675781 97.523438 33.148438 L 116.75 55.445312 L 86.34375 81.664062 L 67.128906 59.382812 C 61.527344 52.71875 60.898438 43.5 64.972656 36.375 Z M 64.972656 36.375 " clip-rule="nonzero"/></clipPath><clipPath id="e807ae6129"><path d="M 80 46 L 110 46 L 110 76 L 80 76 Z M 80 46 " clip-rule="nonzero"/></clipPath><clipPath id="4bddc63dd1"><path d="M 76.203125 55.675781 L 92.230469 41.855469 L 109.292969 61.640625 L 93.265625 75.460938 Z M 76.203125 55.675781 " clip-rule="nonzero"/></clipPath><clipPath id="fca217fa9a"><path d="M 81.949219 51.527344 C 82.527344 50.542969 83.304688 49.550781 84.222656 48.761719 C 85.140625 47.96875 86.15625 47.367188 87.210938 46.945312 C 87.234375 46.9375 87.253906 46.925781 87.277344 46.917969 C 91.296875 45.402344 96.089844 46.414062 99.109375 49.828125 L 109.242188 61.582031 L 93.214844 75.402344 L 83.085938 63.65625 C 80.132812 60.144531 79.800781 55.285156 81.949219 51.527344 Z M 81.949219 51.527344 " clip-rule="nonzero"/></clipPath><clipPath id="3ae968cf40"><path d="M 196.714844 118.257812 L 261.941406 118.257812 L 261.941406 183.484375 L 196.714844 183.484375 Z M 196.714844 118.257812 " clip-rule="nonzero"/></clipPath><clipPath id="44facbb8fb"><path d="M 229.328125 118.257812 C 211.316406 118.257812 196.714844 132.859375 196.714844 150.871094 C 196.714844 168.882812 211.316406 183.484375 229.328125 183.484375 C 247.339844 183.484375 261.941406 168.882812 261.941406 150.871094 C 261.941406 132.859375 247.339844 118.257812 229.328125 118.257812 Z M 229.328125 118.257812 " clip-rule="nonzero"/></clipPath><clipPath id="926dca6064"><path d="M 193.957031 115.511719 L 259.183594 115.511719 L 259.183594 180.734375 L 193.957031 180.734375 Z M 193.957031 115.511719 " clip-rule="nonzero"/></clipPath><clipPath id="aa8cd0949a"><path d="M 226.570312 115.511719 C 208.558594 115.511719 193.957031 130.113281 193.957031 148.121094 C 193.957031 166.132812 208.558594 180.734375 226.570312 180.734375 C 244.582031 180.734375 259.183594 166.132812 259.183594 148.121094 C 259.183594 130.113281 244.582031 115.511719 226.570312 115.511719 Z M 226.570312 115.511719 " clip-rule="nonzero"/></clipPath><clipPath id="f3f177651e"><path d="M 200.136719 120.039062 L 253 120.039062 L 253 176.207031 L 200.136719 176.207031 Z M 200.136719 120.039062 " clip-rule="nonzero"/></clipPath><clipPath id="6b6803b52a"><path d="M 226.570312 120.039062 C 211.972656 120.039062 200.136719 132.613281 200.136719 148.121094 C 200.136719 163.632812 211.972656 176.207031 226.570312 176.207031 C 241.167969 176.207031 253 163.632812 253 148.121094 C 253 132.613281 241.167969 120.039062 226.570312 120.039062 Z M 226.570312 120.039062 " clip-rule="nonzero"/></clipPath><clipPath id="0529b5cc3a"><path d="M 206.316406 131.707031 L 224.574219 131.707031 L 224.574219 149.964844 L 206.316406 149.964844 Z M 206.316406 131.707031 " clip-rule="nonzero"/></clipPath><clipPath id="8e20b0c421"><path d="M 215.445312 131.707031 C 210.40625 131.707031 206.316406 135.796875 206.316406 140.835938 C 206.316406 145.878906 210.40625 149.964844 215.445312 149.964844 C 220.488281 149.964844 224.574219 145.878906 224.574219 140.835938 C 224.574219 135.796875 220.488281 131.707031 215.445312 131.707031 Z M 215.445312 131.707031 " clip-rule="nonzero"/></clipPath><clipPath id="375ebce658"><path d="M 224.574219 148.121094 L 235.15625 148.121094 L 235.15625 158.707031 L 224.574219 158.707031 Z M 224.574219 148.121094 " clip-rule="nonzero"/></clipPath><clipPath id="915a72669b"><path d="M 229.867188 148.121094 C 226.941406 148.121094 224.574219 150.492188 224.574219 153.414062 C 224.574219 156.335938 226.941406 158.707031 229.867188 158.707031 C 232.789062 158.707031 235.15625 156.335938 235.15625 153.414062 C 235.15625 150.492188 232.789062 148.121094 229.867188 148.121094 Z M 229.867188 148.121094 " clip-rule="nonzero"/></clipPath><clipPath id="07b81dd050"><path d="M 203.898438 155.234375 L 252 155.234375 L 252 183.484375 L 203.898438 183.484375 Z M 203.898438 155.234375 " clip-rule="nonzero"/></clipPath><clipPath id="adc3296d75"><path d="M 219.941406 156.929688 C 222.398438 155.90625 225.210938 155.234375 227.960938 155.234375 C 230.714844 155.234375 233.363281 155.808594 235.800781 156.832031 C 235.855469 156.867188 235.90625 156.867188 235.957031 156.898438 C 245.121094 160.996094 251.871094 171.816406 252 183.484375 L 203.898438 183.484375 C 204.027344 171.753906 210.671875 160.929688 219.941406 156.929688 Z M 219.941406 156.929688 " clip-rule="nonzero"/></clipPath><clipPath id="d097acb3df"><path d="M 106.578125 157.390625 L 154.691406 157.390625 L 154.691406 185.640625 L 106.578125 185.640625 Z M 106.578125 157.390625 " clip-rule="nonzero"/></clipPath><clipPath id="5022859061"><path d="M 122.621094 159.085938 C 125.078125 158.0625 127.890625 157.390625 130.640625 157.390625 C 133.394531 157.390625 136.042969 157.964844 138.484375 158.992188 C 138.535156 159.023438 138.585938 159.023438 138.636719 159.054688 C 147.800781 163.152344 154.550781 173.972656 154.683594 185.640625 L 106.578125 185.640625 C 106.707031 173.910156 113.351562 163.089844 122.621094 159.085938 Z M 122.621094 159.085938 " clip-rule="nonzero"/></clipPath></defs><g clip-path="url(#f70ccf8a14)"><g clip-path="url(#5008b2a74a)"><g clip-path="url(#5063cadacf)"><path fill="#60b9b9" d="M 77.011719 143.703125 L 128.183594 183.074219 L 49.292969 285.617188 L -1.878906 246.25 Z M 77.011719 143.703125 " fill-opacity="1" fill-rule="nonzero"/></g></g></g><g clip-path="url(#b43aae67df)"><g clip-path="url(#e73101c86d)"><g clip-path="url(#23307d7d0b)"><path fill="#0c8794" d="M 76.433594 173.15625 L 114.410156 202.371094 L 55.863281 278.46875 L 17.890625 249.253906 Z M 76.433594 173.15625 " fill-opacity="1" fill-rule="nonzero"/></g></g></g><g clip-path="url(#4941932a53)"><g clip-path="url(#8a2b6e2eb3)"><g clip-path="url(#8442b385fb)"><path fill="#60b9b9" d="M 246.191406 191.566406 L 297.140625 151.90625 L 376.613281 254 L 325.667969 293.660156 Z M 246.191406 191.566406 " fill-opacity="1" fill-rule="nonzero"/></g></g></g><g clip-path="url(#86f2688d7a)"><g clip-path="url(#2011e5f530)"><g clip-path="url(#d96ec8e948)"><path fill="#0c8794" d="M 256.421875 208.660156 L 294.230469 179.226562 L 353.207031 254.988281 L 315.398438 284.421875 Z M 256.421875 208.660156 " fill-opacity="1" fill-rule="nonzero"/></g></g></g><g clip-path="url(#c6093bc7c3)"><g clip-path="url(#3c41201df2)"><path fill="#60b9b9" d="M 59.347656 32.808594 L 309.902344 32.808594 L 309.902344 308.8125 L 59.347656 308.8125 Z M 59.347656 32.808594 " fill-opacity="1" fill-rule="nonzero"/></g></g><g clip-path="url(#0a4a9f59cb)"><path fill="#25284d" d="M 180.621094 196.804688 C 180.6875 197.566406 180.652344 198.332031 180.550781 199.089844 C 180.570312 198.941406 180.59375 198.796875 180.609375 198.648438 C 180.453125 199.804688 180.136719 200.9375 179.683594 202.015625 C 179.742188 201.882812 179.796875 201.75 179.851562 201.621094 C 179.445312 202.582031 178.929688 203.5 178.289062 204.328125 C 178.378906 204.214844 178.464844 204.105469 178.550781 203.992188 C 177.746094 205.027344 176.800781 205.953125 175.765625 206.753906 C 175.875 206.667969 175.988281 206.582031 176.097656 206.496094 C 175.25 207.148438 174.339844 207.71875 173.378906 208.191406 C 173.109375 208.324219 172.832031 208.449219 172.554688 208.570312 C 172.683594 208.511719 172.816406 208.457031 172.949219 208.402344 C 172.035156 208.785156 171.085938 209.085938 170.113281 209.277344 C 169.835938 209.332031 169.5625 209.378906 169.285156 209.414062 C 169.429688 209.394531 169.578125 209.375 169.722656 209.355469 C 168.667969 209.496094 167.59375 209.507812 166.535156 209.367188 C 166.683594 209.386719 166.828125 209.40625 166.976562 209.425781 C 166.058594 209.300781 165.15625 209.0625 164.304688 208.703125 C 164.433594 208.757812 164.566406 208.8125 164.699219 208.871094 C 163.902344 208.53125 163.148438 208.09375 162.464844 207.566406 C 162.574219 207.652344 162.6875 207.738281 162.796875 207.824219 C 162.054688 207.246094 161.390625 206.574219 160.8125 205.828125 C 160.898438 205.941406 160.984375 206.050781 161.074219 206.164062 C 160.457031 205.367188 159.902344 204.480469 159.507812 203.550781 C 159.566406 203.683594 159.621094 203.816406 159.675781 203.945312 C 159.355469 203.179688 159.136719 202.367188 158.933594 201.5625 C 158.703125 200.621094 158.507812 199.671875 158.339844 198.71875 C 158.253906 198.242188 158.179688 197.765625 158.113281 197.289062 C 158.132812 197.4375 158.15625 197.582031 158.175781 197.730469 C 158.105469 197.230469 158.027344 196.71875 158.046875 196.214844 C 158.0625 195.800781 157.851562 195.332031 157.5625 195.042969 C 157.277344 194.757812 156.804688 194.539062 156.394531 194.558594 C 155.964844 194.578125 155.519531 194.71875 155.222656 195.042969 C 154.917969 195.375 154.753906 195.761719 154.738281 196.214844 C 154.722656 196.648438 154.78125 197.089844 154.835938 197.523438 C 154.941406 198.335938 155.0625 199.144531 155.210938 199.949219 C 155.476562 201.386719 155.78125 202.835938 156.257812 204.222656 C 156.8125 205.835938 157.71875 207.304688 158.824219 208.597656 C 159.289062 209.144531 159.800781 209.644531 160.363281 210.089844 C 161 210.59375 161.652344 211.054688 162.378906 211.425781 C 163.078125 211.78125 163.820312 212.082031 164.574219 212.300781 C 165.335938 212.515625 166.121094 212.640625 166.902344 212.71875 C 168.351562 212.863281 169.832031 212.722656 171.25 212.414062 C 172.703125 212.097656 174.113281 211.546875 175.425781 210.855469 C 176.769531 210.152344 178.019531 209.25 179.136719 208.226562 C 180.414062 207.058594 181.535156 205.679688 182.316406 204.136719 C 183.277344 202.242188 183.867188 200.160156 183.957031 198.03125 C 183.972656 197.621094 183.964844 197.210938 183.929688 196.804688 C 183.941406 196.574219 183.890625 196.363281 183.789062 196.164062 C 183.722656 195.960938 183.609375 195.78125 183.445312 195.632812 C 183.160156 195.347656 182.6875 195.128906 182.277344 195.148438 C 181.847656 195.167969 181.402344 195.308594 181.105469 195.632812 C 180.824219 195.941406 180.585938 196.371094 180.621094 196.804688 Z M 180.621094 196.804688 " fill-opacity="1" fill-rule="nonzero"/></g><g clip-path="url(#e0d124b8eb)"><path fill="#25284d" d="M 204.816406 197.386719 C 204.878906 198.121094 204.847656 198.859375 204.75 199.589844 C 204.769531 199.445312 204.789062 199.304688 204.808594 199.164062 C 204.65625 200.28125 204.347656 201.371094 203.914062 202.40625 C 203.96875 202.28125 204.019531 202.152344 204.074219 202.027344 C 203.683594 202.953125 203.1875 203.835938 202.570312 204.636719 C 202.652344 204.527344 202.738281 204.421875 202.820312 204.3125 C 202.046875 205.3125 201.136719 206.203125 200.136719 206.972656 C 200.242188 206.890625 200.351562 206.808594 200.460938 206.726562 C 199.640625 207.355469 198.765625 207.902344 197.839844 208.359375 C 197.578125 208.488281 197.3125 208.609375 197.042969 208.722656 C 197.167969 208.667969 197.296875 208.617188 197.421875 208.5625 C 196.542969 208.933594 195.628906 209.21875 194.691406 209.40625 C 194.425781 209.457031 194.160156 209.5 193.890625 209.539062 C 194.035156 209.519531 194.175781 209.5 194.316406 209.480469 C 193.296875 209.617188 192.265625 209.628906 191.246094 209.492188 C 191.386719 209.511719 191.527344 209.53125 191.667969 209.546875 C 190.785156 209.429688 189.917969 209.199219 189.09375 208.851562 C 189.21875 208.90625 189.347656 208.957031 189.472656 209.011719 C 188.707031 208.6875 187.984375 208.265625 187.320312 207.757812 C 187.429688 207.839844 187.535156 207.921875 187.644531 208.003906 C 186.925781 207.449219 186.285156 206.800781 185.730469 206.082031 C 185.8125 206.191406 185.898438 206.296875 185.980469 206.40625 C 185.386719 205.636719 184.851562 204.785156 184.476562 203.886719 C 184.527344 204.015625 184.582031 204.140625 184.636719 204.269531 C 184.324219 203.53125 184.113281 202.746094 183.921875 201.972656 C 183.695312 201.066406 183.507812 200.152344 183.347656 199.230469 C 183.265625 198.773438 183.191406 198.316406 183.128906 197.855469 C 183.148438 197.996094 183.167969 198.136719 183.1875 198.277344 C 183.125 197.796875 183.046875 197.304688 183.066406 196.816406 C 183.082031 196.417969 182.878906 195.96875 182.597656 195.691406 C 182.324219 195.414062 181.867188 195.207031 181.472656 195.222656 C 181.058594 195.242188 180.632812 195.378906 180.34375 195.691406 C 180.050781 196.007812 179.894531 196.382812 179.875 196.816406 C 179.859375 197.238281 179.917969 197.664062 179.972656 198.078125 C 180.070312 198.859375 180.1875 199.640625 180.332031 200.417969 C 180.585938 201.800781 180.882812 203.199219 181.339844 204.535156 C 181.875 206.089844 182.75 207.503906 183.8125 208.753906 C 184.261719 209.277344 184.757812 209.761719 185.296875 210.1875 C 185.910156 210.671875 186.542969 211.121094 187.238281 211.476562 C 187.914062 211.816406 188.625 212.109375 189.355469 212.316406 C 190.089844 212.527344 190.84375 212.644531 191.597656 212.722656 C 192.992188 212.863281 194.421875 212.726562 195.789062 212.429688 C 197.1875 212.125 198.546875 211.59375 199.8125 210.929688 C 201.105469 210.246094 202.308594 209.378906 203.386719 208.390625 C 204.613281 207.269531 205.695312 205.9375 206.449219 204.453125 C 207.378906 202.628906 207.945312 200.621094 208.03125 198.570312 C 208.046875 198.175781 208.039062 197.78125 208.007812 197.386719 C 208.015625 197.167969 207.96875 196.960938 207.867188 196.773438 C 207.804688 196.574219 207.695312 196.402344 207.539062 196.257812 C 207.261719 195.980469 206.808594 195.773438 206.410156 195.792969 C 206 195.808594 205.570312 195.945312 205.285156 196.257812 C 205.011719 196.554688 204.78125 196.96875 204.816406 197.386719 Z M 204.816406 197.386719 " fill-opacity="1" fill-rule="nonzero"/></g><g clip-path="url(#5694fe5fef)"><g clip-path="url(#356bc9d9a1)"><path fill="#fe9284" d="M 252.648438 194.535156 L 279.246094 194.535156 L 279.246094 222.796875 L 252.648438 222.796875 Z M 252.648438 194.535156 " fill-opacity="1" fill-rule="nonzero"/></g></g><g clip-path="url(#68a064a0ed)"><g clip-path="url(#28d7733d3b)"><path fill="#0c8794" d="M 99.585938 118.257812 L 164.808594 118.257812 L 164.808594 183.484375 L 99.585938 183.484375 Z M 99.585938 118.257812 " fill-opacity="1" fill-rule="nonzero"/></g></g><g clip-path="url(#1ffa1f7e66)"><g clip-path="url(#5d13dfa845)"><path fill="#fdfcea" d="M 96.824219 115.511719 L 162.050781 115.511719 L 162.050781 180.734375 L 96.824219 180.734375 Z M 96.824219 115.511719 " fill-opacity="1" fill-rule="nonzero"/></g></g><g clip-path="url(#5db96a346e)"><g clip-path="url(#c54e6f9ea5)"><path fill="#25284d" d="M 103.007812 120.039062 L 155.871094 120.039062 L 155.871094 176.207031 L 103.007812 176.207031 Z M 103.007812 120.039062 " fill-opacity="1" fill-rule="nonzero"/></g></g><g clip-path="url(#03528eecac)"><g clip-path="url(#7334b57193)"><path fill="#fdfcea" d="M 109.1875 131.707031 L 127.441406 131.707031 L 127.441406 149.964844 L 109.1875 149.964844 Z M 109.1875 131.707031 " fill-opacity="1" fill-rule="nonzero"/></g></g><g clip-path="url(#da9057a895)"><g clip-path="url(#e532f17d82)"><path fill="#fdfcea" d="M 127.441406 148.121094 L 138.027344 148.121094 L 138.027344 158.707031 L 127.441406 158.707031 Z M 127.441406 148.121094 " fill-opacity="1" fill-rule="nonzero"/></g></g><g clip-path="url(#daf401691b)"><g clip-path="url(#fedad1f1c9)"><path fill="#60b9b9" d="M 83.523438 371.160156 L 83.523438 232.996094 L 167.738281 232.996094 L 167.738281 371.160156 Z M 83.523438 371.160156 " fill-opacity="1" fill-rule="nonzero"/></g></g><g clip-path="url(#f8edc93b6f)"><g clip-path="url(#79a954a60b)"><path fill="#25284d" d="M 98.308594 371.160156 L 98.308594 353.292969 L 110.128906 353.292969 L 110.128906 371.160156 Z M 98.308594 371.160156 " fill-opacity="1" fill-rule="nonzero"/></g></g><g clip-path="url(#ed162ade18)"><g clip-path="url(#45c3d5dba4)"><path fill="#25284d" d="M 119 374.996094 L 119 357.128906 L 130.820312 357.128906 L 130.820312 374.996094 Z M 119 374.996094 " fill-opacity="1" fill-rule="nonzero"/></g></g><g clip-path="url(#f90fa1d791)"><g clip-path="url(#accb7336b3)"><path fill="#25284d" d="M 140.027344 371.160156 L 140.027344 353.292969 L 151.847656 353.292969 L 151.847656 371.160156 Z M 140.027344 371.160156 " fill-opacity="1" fill-rule="nonzero"/></g></g><g clip-path="url(#665e6ed59d)"><g clip-path="url(#ded8e69dcb)"><path fill="#fe9284" d="M 83.527344 194.535156 L 110.125 194.535156 L 110.125 222.796875 L 83.527344 222.796875 Z M 83.527344 194.535156 " fill-opacity="1" fill-rule="nonzero"/></g></g><g clip-path="url(#8385569c99)"><g clip-path="url(#1f988c3af7)"><path fill="#60b9b9" d="M 208.050781 371.160156 L 208.050781 232.996094 L 292.261719 232.996094 L 292.261719 371.160156 Z M 208.050781 371.160156 " fill-opacity="1" fill-rule="nonzero"/></g></g><g clip-path="url(#9228ccc494)"><g clip-path="url(#27af2d7948)"><path fill="#25284d" d="M 222.832031 371.160156 L 222.832031 353.292969 L 234.652344 353.292969 L 234.652344 371.160156 Z M 222.832031 371.160156 " fill-opacity="1" fill-rule="nonzero"/></g></g><g clip-path="url(#81d98ffb29)"><g clip-path="url(#9e645917af)"><path fill="#25284d" d="M 243.527344 374.996094 L 243.527344 357.128906 L 255.347656 357.128906 L 255.347656 374.996094 Z M 243.527344 374.996094 " fill-opacity="1" fill-rule="nonzero"/></g></g><g clip-path="url(#f2a73911bf)"><g clip-path="url(#29c4905b56)"><path fill="#25284d" d="M 264.554688 371.160156 L 264.554688 353.292969 L 276.375 353.292969 L 276.375 371.160156 Z M 264.554688 371.160156 " fill-opacity="1" fill-rule="nonzero"/></g></g><g clip-path="url(#c74dc029d4)"><g clip-path="url(#b6d977ab59)"><path fill="#0c8794" d="M 90.355469 321.78125 L 90.355469 246.523438 L 119.066406 246.523438 L 119.066406 321.78125 Z M 90.355469 321.78125 " fill-opacity="1" fill-rule="nonzero"/></g></g><g clip-path="url(#97dffc5af6)"><g clip-path="url(#fab670b8d4)"><path fill="#60b9b9" d="M 88.855469 315.457031 L 88.855469 238.890625 L 120.570312 238.890625 L 120.570312 315.457031 Z M 88.855469 315.457031 " fill-opacity="1" fill-rule="nonzero"/></g></g><g clip-path="url(#f9fa2db6cc)"><g clip-path="url(#58a8298d13)"><path fill="#c1efe3" d="M 114.605469 224.621094 L 252.617188 224.621094 L 252.617188 302.101562 L 114.605469 302.101562 Z M 114.605469 224.621094 " fill-opacity="1" fill-rule="nonzero"/></g></g><g clip-path="url(#37606d3724)"><g clip-path="url(#b1aba60e6d)"><path fill="#0c8794" d="M 60.84375 332.847656 L 60.84375 263.304688 L 89.558594 263.304688 L 89.558594 332.847656 Z M 60.84375 332.847656 " fill-opacity="1" fill-rule="nonzero"/></g></g><g clip-path="url(#082ad8d908)"><g clip-path="url(#e893c1976e)"><path fill="#60b9b9" d="M 59.347656 327.007812 L 59.347656 263.328125 L 91.0625 263.328125 L 91.0625 327.007812 Z M 59.347656 327.007812 " fill-opacity="1" fill-rule="nonzero"/></g></g><g clip-path="url(#093b197cf3)"><g clip-path="url(#4783d1f331)"><path fill="#0c8794" d="M 281.191406 332.847656 L 281.191406 258.824219 L 309.902344 258.824219 L 309.902344 332.847656 Z M 281.191406 332.847656 " fill-opacity="1" fill-rule="nonzero"/></g></g><g clip-path="url(#aa7b1e1a3d)"><g clip-path="url(#2c66a855d1)"><path fill="#60b9b9" d="M 279.6875 326.621094 L 279.6875 249.316406 L 311.402344 249.316406 L 311.402344 326.621094 Z M 279.6875 326.621094 " fill-opacity="1" fill-rule="nonzero"/></g></g><g clip-path="url(#106440f1d5)"><g clip-path="url(#e0625043ac)"><path fill="#0c8794" d="M 116.460938 328.273438 L 116.460938 274.773438 L 145.175781 274.773438 L 145.175781 328.273438 Z M 116.460938 328.273438 " fill-opacity="1" fill-rule="nonzero"/></g></g><g clip-path="url(#0892a02228)"><g clip-path="url(#0c06bfed83)"><path fill="#c1efe3" d="M 114.960938 320.636719 L 114.960938 267.980469 L 146.675781 267.980469 L 146.675781 320.636719 Z M 114.960938 320.636719 " fill-opacity="1" fill-rule="nonzero"/></g></g><g clip-path="url(#bfefa5ead1)"><g clip-path="url(#bf69a8ec82)"><path fill="#c1efe3" d="M 167.769531 327.007812 L 167.769531 263.277344 L 208.050781 263.277344 L 208.050781 327.007812 Z M 167.769531 327.007812 " fill-opacity="1" fill-rule="nonzero"/></g></g><g clip-path="url(#156960980e)"><g clip-path="url(#017bbc2794)"><path fill="#0c8794" d="M 140.359375 328.269531 L 140.359375 258.730469 L 169.074219 258.730469 L 169.074219 328.269531 Z M 140.359375 328.269531 " fill-opacity="1" fill-rule="nonzero"/></g></g><g clip-path="url(#ae01364e3d)"><g clip-path="url(#6b40abceaa)"><path fill="#c1efe3" d="M 138.863281 322.433594 L 138.863281 252.3125 L 170.578125 252.3125 L 170.578125 322.433594 Z M 138.863281 322.433594 " fill-opacity="1" fill-rule="nonzero"/></g></g><g clip-path="url(#8472c55b32)"><g clip-path="url(#67c83a8bb4)"><path fill="#0c8794" d="M 251.777344 332.847656 L 251.777344 258.816406 L 282.746094 258.816406 L 282.746094 332.847656 Z M 251.777344 332.847656 " fill-opacity="1" fill-rule="nonzero"/></g></g><g clip-path="url(#a151dd0cfb)"><g clip-path="url(#0b5c31dcf5)"><path fill="#60b9b9" d="M 250.164062 326.625 L 250.164062 252.332031 L 284.371094 252.332031 L 284.371094 326.625 Z M 250.164062 326.625 " fill-opacity="1" fill-rule="nonzero"/></g></g><g clip-path="url(#751706905f)"><g clip-path="url(#d45760350a)"><path fill="#0c8794" d="M 210.050781 334.183594 L 210.050781 280.726562 L 248.171875 280.726562 L 248.171875 334.183594 Z M 210.050781 334.183594 " fill-opacity="1" fill-rule="nonzero"/></g></g><g clip-path="url(#b6587e2c58)"><g clip-path="url(#b89122038c)"><path fill="#c1efe3" d="M 208.050781 326.550781 L 208.050781 273.914062 L 250.160156 273.914062 L 250.160156 326.550781 Z M 208.050781 326.550781 " fill-opacity="1" fill-rule="nonzero"/></g></g><g clip-path="url(#cec3fd62bf)"><g clip-path="url(#955d58ee9f)"><g clip-path="url(#bbd108dddb)"><path fill="#60b9b9" d="M 38.175781 169.839844 L 29.78125 153.242188 L 76.277344 129.730469 L 84.671875 146.332031 Z M 38.175781 169.839844 " fill-opacity="1" fill-rule="nonzero"/></g></g></g><g clip-path="url(#81b8e498c1)"><g clip-path="url(#d45bd62797)"><g clip-path="url(#cfb2c1ca4c)"><path fill="#60b9b9" d="M 44.734375 147.703125 L 35.367188 131.628906 L 80.378906 105.394531 L 89.746094 121.464844 Z M 44.734375 147.703125 " fill-opacity="1" fill-rule="nonzero"/></g></g></g><g clip-path="url(#668c9d9969)"><g clip-path="url(#b312c7a0cf)"><g clip-path="url(#1495dad105)"><path fill="#60b9b9" d="M 44.878906 125.683594 L 36.289062 109.183594 L 82.5 85.125 L 91.089844 101.625 Z M 44.878906 125.683594 " fill-opacity="1" fill-rule="nonzero"/></g></g></g><g clip-path="url(#8f4f1bad8c)"><g clip-path="url(#00004b3656)"><g clip-path="url(#24c706a7cc)"><path fill="#60b9b9" d="M 328.128906 113.195312 L 319.640625 129.746094 L 273.28125 105.96875 L 281.773438 89.417969 Z M 328.128906 113.195312 " fill-opacity="1" fill-rule="nonzero"/></g></g></g><g clip-path="url(#886e1a4c36)"><g clip-path="url(#80dabcbe1a)"><g clip-path="url(#d197d359bd)"><path fill="#60b9b9" d="M 336.007812 140.140625 L 327.515625 156.691406 L 281.160156 132.910156 L 289.648438 116.359375 Z M 336.007812 140.140625 " fill-opacity="1" fill-rule="nonzero"/></g></g></g><g clip-path="url(#2388f0748f)"><g clip-path="url(#d04272eefe)"><g clip-path="url(#dcf92b678f)"><path fill="#60b9b9" d="M 339.179688 160.296875 L 330.6875 176.847656 L 284.332031 153.070312 L 292.824219 136.519531 Z M 339.179688 160.296875 " fill-opacity="1" fill-rule="nonzero"/></g></g></g><g clip-path="url(#9b32edef31)"><g clip-path="url(#5e60264acf)"><g clip-path="url(#31e1a420be)"><path fill="#60b9b9" d="M 150.890625 16.089844 L 183.628906 28.097656 L 175.765625 49.53125 L 143.03125 37.523438 Z M 150.890625 16.089844 " fill-opacity="1" fill-rule="nonzero"/></g></g></g><g clip-path="url(#9b868b522f)"><g clip-path="url(#1ed41cc864)"><g clip-path="url(#bc8bc194f9)"><path fill="#60b9b9" d="M 163.328125 31.808594 L 203.964844 -0.00390625 L 224.796875 26.601562 L 184.160156 58.414062 Z M 163.328125 31.808594 " fill-opacity="1" fill-rule="nonzero"/></g></g></g><g clip-path="url(#bbc4482754)"><g clip-path="url(#9539bbf75a)"><g clip-path="url(#73385c6623)"><path fill="#60b9b9" d="M 292.769531 5.261719 L 326.160156 45.269531 L 276.933594 86.355469 L 243.539062 46.351562 Z M 292.769531 5.261719 " fill-opacity="1" fill-rule="nonzero"/></g></g></g><g clip-path="url(#a93b5074ea)"><g clip-path="url(#aa90d4d27a)"><g clip-path="url(#6040e33f05)"><path fill="#0c8794" d="M 288.734375 16.414062 L 314.460938 47.238281 L 276.535156 78.894531 L 250.808594 48.070312 Z M 288.734375 16.414062 " fill-opacity="1" fill-rule="nonzero"/></g></g></g><g clip-path="url(#69767b82cd)"><g clip-path="url(#ca1d3f0d55)"><g clip-path="url(#8a4db243ab)"><path fill="#fe9284" d="M 276.945312 38.355469 L 290.507812 54.605469 L 270.515625 71.292969 L 256.953125 55.042969 Z M 276.945312 38.355469 " fill-opacity="1" fill-rule="nonzero"/></g></g></g><g clip-path="url(#94dd223c2a)"><g clip-path="url(#8293b354d1)"><g clip-path="url(#f5bd29a5d7)"><path fill="#60b9b9" d="M 42.851562 40.390625 L 82.316406 6.359375 L 124.191406 54.917969 L 84.722656 88.949219 Z M 42.851562 40.390625 " fill-opacity="1" fill-rule="nonzero"/></g></g></g><g clip-path="url(#ce23c90d2b)"><g clip-path="url(#03939ba0c4)"><g clip-path="url(#2507331a52)"><path fill="#0c8794" d="M 54.074219 44.242188 L 84.480469 18.023438 L 116.742188 55.4375 L 86.335938 81.65625 Z M 54.074219 44.242188 " fill-opacity="1" fill-rule="nonzero"/></g></g></g><g clip-path="url(#e807ae6129)"><g clip-path="url(#4bddc63dd1)"><g clip-path="url(#fca217fa9a)"><path fill="#fe9284" d="M 76.203125 55.675781 L 92.230469 41.855469 L 109.238281 61.578125 L 93.210938 75.398438 Z M 76.203125 55.675781 " fill-opacity="1" fill-rule="nonzero"/></g></g></g><g clip-path="url(#3ae968cf40)"><g clip-path="url(#44facbb8fb)"><path fill="#0c8794" d="M 196.714844 118.257812 L 261.941406 118.257812 L 261.941406 183.484375 L 196.714844 183.484375 Z M 196.714844 118.257812 " fill-opacity="1" fill-rule="nonzero"/></g></g><g clip-path="url(#926dca6064)"><g clip-path="url(#aa8cd0949a)"><path fill="#fdfcea" d="M 193.957031 115.511719 L 259.183594 115.511719 L 259.183594 180.734375 L 193.957031 180.734375 Z M 193.957031 115.511719 " fill-opacity="1" fill-rule="nonzero"/></g></g><g clip-path="url(#f3f177651e)"><g clip-path="url(#6b6803b52a)"><path fill="#25284d" d="M 200.136719 120.039062 L 253 120.039062 L 253 176.207031 L 200.136719 176.207031 Z M 200.136719 120.039062 " fill-opacity="1" fill-rule="nonzero"/></g></g><g clip-path="url(#0529b5cc3a)"><g clip-path="url(#8e20b0c421)"><path fill="#fdfcea" d="M 206.316406 131.707031 L 224.574219 131.707031 L 224.574219 149.964844 L 206.316406 149.964844 Z M 206.316406 131.707031 " fill-opacity="1" fill-rule="nonzero"/></g></g><g clip-path="url(#375ebce658)"><g clip-path="url(#915a72669b)"><path fill="#fdfcea" d="M 224.574219 148.121094 L 235.15625 148.121094 L 235.15625 158.707031 L 224.574219 158.707031 Z M 224.574219 148.121094 " fill-opacity="1" fill-rule="nonzero"/></g></g><g clip-path="url(#07b81dd050)"><g clip-path="url(#adc3296d75)"><path fill="#60b9b9" d="M 203.898438 155.234375 L 252.011719 155.234375 L 252.011719 183.484375 L 203.898438 183.484375 Z M 203.898438 155.234375 " fill-opacity="1" fill-rule="nonzero"/></g></g><path stroke-linecap="round" transform="matrix(1.839933, 0.0795439, -0.0795439, 1.839933, 202.696076, 151.890693)" fill="none" stroke-linejoin="miter" d="M 4.916866 9.878202 C 11.022952 1.338618 17.130339 1.373932 23.236816 9.982117 " stroke="#25284d" stroke-width="7" stroke-opacity="1" stroke-miterlimit="4"/><g clip-path="url(#d097acb3df)"><g clip-path="url(#5022859061)"><path fill="#60b9b9" d="M 106.578125 157.390625 L 154.691406 157.390625 L 154.691406 185.640625 L 106.578125 185.640625 Z M 106.578125 157.390625 " fill-opacity="1" fill-rule="nonzero"/></g></g><path stroke-linecap="round" transform="matrix(1.839933, 0.0795439, -0.0795439, 1.839933, 105.376704, 154.048348)" fill="none" stroke-linejoin="miter" d="M 4.918534 9.879489 C 11.02462 1.339905 17.129796 1.373192 23.236273 9.981377 " stroke="#25284d" stroke-width="7" stroke-opacity="1" stroke-miterlimit="4"/></svg>