<svg xmlns="http://www.w3.org/2000/svg" xmlns:xlink="http://www.w3.org/1999/xlink" width="500" zoomAndPan="magnify" viewBox="0 0 375 374.999991" height="500" preserveAspectRatio="xMidYMid meet" version="1.0"><defs><clipPath id="6642d9c135"><path d="M 5 158 L 108 158 L 108 261 L 5 261 Z M 5 158 " clip-rule="nonzero"/></clipPath><clipPath id="987b53a430"><path d="M 78.929688 140.875 L 124.375 186.402344 L 32.964844 277.648438 L -12.480469 232.121094 Z M 78.929688 140.875 " clip-rule="nonzero"/></clipPath><clipPath id="f7785db6e6"><path d="M 101.652344 163.636719 C 89.101562 151.066406 58.503906 161.261719 33.308594 186.414062 C 8.113281 211.566406 -2.136719 242.144531 10.414062 254.71875 C 22.960938 267.289062 53.5625 257.09375 78.757812 231.941406 C 103.953125 206.789062 114.203125 176.210938 101.652344 163.636719 Z M 101.652344 163.636719 " clip-rule="nonzero"/></clipPath><clipPath id="d19f7a2452"><path d="M 19 182 L 96 182 L 96 259 L 19 259 Z M 19 182 " clip-rule="nonzero"/></clipPath><clipPath id="d709bf0de3"><path d="M 74.539062 169.894531 L 108.265625 203.679688 L 40.433594 271.390625 L 6.707031 237.605469 Z M 74.539062 169.894531 " clip-rule="nonzero"/></clipPath><clipPath id="93eac518eb"><path d="M 91.402344 186.785156 C 82.089844 177.457031 59.382812 185.023438 40.6875 203.6875 C 21.988281 222.351562 14.382812 245.046875 23.695312 254.375 C 33.007812 263.703125 55.714844 256.136719 74.410156 237.472656 C 93.109375 218.808594 100.714844 196.113281 91.402344 186.785156 Z M 91.402344 186.785156 " clip-rule="nonzero"/></clipPath><clipPath id="d634df1a1c"><path d="M 260 169 L 369 169 L 369 265 L 260 265 Z M 260 169 " clip-rule="nonzero"/></clipPath><clipPath id="70a11a7a0d"><path d="M 244.355469 201.210938 L 285.109375 151.4375 L 385.042969 233.261719 L 344.289062 283.035156 Z M 244.355469 201.210938 " clip-rule="nonzero"/></clipPath><clipPath id="f8504a2bbf"><path d="M 264.734375 176.324219 C 253.480469 190.066406 266.6875 219.492188 294.230469 242.046875 C 321.773438 264.601562 353.226562 271.742188 364.480469 257.996094 C 375.734375 244.253906 362.527344 214.828125 334.984375 192.273438 C 307.4375 169.722656 275.988281 162.578125 264.734375 176.324219 Z M 264.734375 176.324219 " clip-rule="nonzero"/></clipPath><clipPath id="39f1dee5c9"><path d="M 270 191 L 351 191 L 351 263 L 270 263 Z M 270 191 " clip-rule="nonzero"/></clipPath><clipPath id="8b6d3aa94d"><path d="M 258.066406 215.558594 L 288.308594 178.625 L 362.464844 239.347656 L 332.222656 276.28125 Z M 258.066406 215.558594 " clip-rule="nonzero"/></clipPath><clipPath id="ae55ad49f3"><path d="M 273.1875 197.09375 C 264.835938 207.292969 274.636719 229.128906 295.074219 245.863281 C 315.515625 262.601562 338.855469 267.902344 347.207031 257.703125 C 355.558594 247.503906 345.757812 225.667969 325.320312 208.929688 C 304.878906 192.195312 281.539062 186.894531 273.1875 197.09375 Z M 273.1875 197.09375 " clip-rule="nonzero"/></clipPath><clipPath id="b7df32143b"><path d="M 55.601562 32.6875 L 305.246094 32.6875 L 305.246094 308 L 55.601562 308 Z M 55.601562 32.6875 " clip-rule="nonzero"/></clipPath><clipPath id="ae4cb5b295"><path d="M 138.863281 39.144531 C 151.621094 35.246094 166.210938 32.6875 180.492188 32.6875 C 194.773438 32.6875 208.515625 34.882812 221.175781 38.78125 C 221.445312 38.902344 221.714844 38.902344 221.984375 39.023438 C 269.542969 54.621094 304.570312 95.800781 305.246094 143.929688 L 305.246094 307.929688 L 55.601562 307.929688 L 55.601562 144.050781 C 56.277344 95.558594 90.765625 54.375 138.863281 39.144531 Z M 138.863281 39.144531 " clip-rule="nonzero"/></clipPath><clipPath id="f8ea723edc"><path d="M 150.523438 194.105469 L 179.773438 194.105469 L 179.773438 212.105469 L 150.523438 212.105469 Z M 150.523438 194.105469 " clip-rule="nonzero"/></clipPath><clipPath id="fde99d1e2d"><path d="M 176.003906 194.851562 L 203.753906 194.851562 L 203.753906 212 L 176.003906 212 Z M 176.003906 194.851562 " clip-rule="nonzero"/></clipPath><clipPath id="02ad783bb5"><path d="M 248.199219 193.824219 L 274.699219 193.824219 L 274.699219 221.980469 L 248.199219 221.980469 Z M 248.199219 193.824219 " clip-rule="nonzero"/></clipPath><clipPath id="52ae2d4653"><path d="M 261.449219 193.824219 C 254.128906 193.824219 248.199219 200.128906 248.199219 207.902344 C 248.199219 215.679688 254.128906 221.980469 261.449219 221.980469 C 268.765625 221.980469 274.699219 215.679688 274.699219 207.902344 C 274.699219 200.128906 268.765625 193.824219 261.449219 193.824219 Z M 261.449219 193.824219 " clip-rule="nonzero"/></clipPath><clipPath id="2c8547a9f8"><path d="M 95.695312 117.828125 L 160.679688 117.828125 L 160.679688 182.8125 L 95.695312 182.8125 Z M 95.695312 117.828125 " clip-rule="nonzero"/></clipPath><clipPath id="0f870d4897"><path d="M 128.1875 117.828125 C 110.242188 117.828125 95.695312 132.375 95.695312 150.320312 C 95.695312 168.265625 110.242188 182.8125 128.1875 182.8125 C 146.132812 182.8125 160.679688 168.265625 160.679688 150.320312 C 160.679688 132.375 146.132812 117.828125 128.1875 117.828125 Z M 128.1875 117.828125 " clip-rule="nonzero"/></clipPath><clipPath id="e795d7f5ee"><path d="M 92.945312 115.089844 L 157.929688 115.089844 L 157.929688 180.074219 L 92.945312 180.074219 Z M 92.945312 115.089844 " clip-rule="nonzero"/></clipPath><clipPath id="4e79e9ee38"><path d="M 125.4375 115.089844 C 107.492188 115.089844 92.945312 129.636719 92.945312 147.582031 C 92.945312 165.527344 107.492188 180.074219 125.4375 180.074219 C 143.382812 180.074219 157.929688 165.527344 157.929688 147.582031 C 157.929688 129.636719 143.382812 115.089844 125.4375 115.089844 Z M 125.4375 115.089844 " clip-rule="nonzero"/></clipPath><clipPath id="6647ddfb16"><path d="M 99.101562 119.601562 L 151.773438 119.601562 L 151.773438 175.5625 L 99.101562 175.5625 Z M 99.101562 119.601562 " clip-rule="nonzero"/></clipPath><clipPath id="15e273928e"><path d="M 125.4375 119.601562 C 110.894531 119.601562 99.101562 132.128906 99.101562 147.582031 C 99.101562 163.035156 110.894531 175.5625 125.4375 175.5625 C 139.980469 175.5625 151.773438 163.035156 151.773438 147.582031 C 151.773438 132.128906 139.980469 119.601562 125.4375 119.601562 Z M 125.4375 119.601562 " clip-rule="nonzero"/></clipPath><clipPath id="3c7b030274"><path d="M 105.261719 131.226562 L 123.449219 131.226562 L 123.449219 149.417969 L 105.261719 149.417969 Z M 105.261719 131.226562 " clip-rule="nonzero"/></clipPath><clipPath id="bf68c195fc"><path d="M 114.355469 131.226562 C 109.332031 131.226562 105.261719 135.300781 105.261719 140.324219 C 105.261719 145.34375 109.332031 149.417969 114.355469 149.417969 C 119.378906 149.417969 123.449219 145.34375 123.449219 140.324219 C 123.449219 135.300781 119.378906 131.226562 114.355469 131.226562 Z M 114.355469 131.226562 " clip-rule="nonzero"/></clipPath><clipPath id="ad890222c3"><path d="M 123.449219 147.582031 L 133.996094 147.582031 L 133.996094 158.128906 L 123.449219 158.128906 Z M 123.449219 147.582031 " clip-rule="nonzero"/></clipPath><clipPath id="5c52323c63"><path d="M 128.722656 147.582031 C 125.808594 147.582031 123.449219 149.941406 123.449219 152.855469 C 123.449219 155.765625 125.808594 158.128906 128.722656 158.128906 C 131.632812 158.128906 133.996094 155.765625 133.996094 152.855469 C 133.996094 149.941406 131.632812 147.582031 128.722656 147.582031 Z M 128.722656 147.582031 " clip-rule="nonzero"/></clipPath><clipPath id="f43b67a4b2"><path d="M 79.695312 232.140625 L 163.601562 232.140625 L 163.601562 370 L 79.695312 370 Z M 79.695312 232.140625 " clip-rule="nonzero"/></clipPath><clipPath id="0213ec38e0"><path d="M 79.695312 266.585938 C 79.695312 247.582031 98.480469 232.179688 121.648438 232.179688 C 144.820312 232.179688 163.601562 247.582031 163.601562 266.585938 L 163.601562 335.394531 C 163.601562 354.394531 144.820312 369.800781 121.648438 369.800781 C 98.480469 369.800781 79.695312 354.394531 79.695312 335.394531 Z M 79.695312 266.585938 " clip-rule="nonzero"/></clipPath><clipPath id="f6b887963e"><path d="M 94.421875 352 L 106.195312 352 L 106.195312 369.800781 L 94.421875 369.800781 Z M 94.421875 352 " clip-rule="nonzero"/></clipPath><clipPath id="30e50f85ee"><path d="M 94.421875 357.902344 C 94.421875 354.652344 97.054688 352.015625 100.308594 352.015625 C 103.558594 352.015625 106.195312 354.652344 106.195312 357.902344 L 106.195312 363.910156 C 106.195312 367.164062 103.558594 369.800781 100.308594 369.800781 C 97.054688 369.800781 94.421875 367.164062 94.421875 363.910156 Z M 94.421875 357.902344 " clip-rule="nonzero"/></clipPath><clipPath id="7f058fd46a"><path d="M 115.039062 355.820312 L 126.8125 355.820312 L 126.8125 373.621094 L 115.039062 373.621094 Z M 115.039062 355.820312 " clip-rule="nonzero"/></clipPath><clipPath id="928723ac69"><path d="M 115.039062 361.726562 C 115.039062 358.472656 117.671875 355.835938 120.925781 355.835938 C 124.175781 355.835938 126.8125 358.472656 126.8125 361.726562 L 126.8125 367.734375 C 126.8125 370.984375 124.175781 373.621094 120.925781 373.621094 C 117.671875 373.621094 115.039062 370.984375 115.039062 367.734375 Z M 115.039062 361.726562 " clip-rule="nonzero"/></clipPath><clipPath id="cd82ae1761"><path d="M 135.988281 352 L 147.765625 352 L 147.765625 369.800781 L 135.988281 369.800781 Z M 135.988281 352 " clip-rule="nonzero"/></clipPath><clipPath id="a6e85323be"><path d="M 135.988281 357.902344 C 135.988281 354.652344 138.625 352.015625 141.875 352.015625 C 145.128906 352.015625 147.765625 354.652344 147.765625 357.902344 L 147.765625 363.910156 C 147.765625 367.164062 145.128906 369.800781 141.875 369.800781 C 138.625 369.800781 135.988281 367.164062 135.988281 363.910156 Z M 135.988281 357.902344 " clip-rule="nonzero"/></clipPath><clipPath id="d29e21598d"><path d="M 79.691406 193.824219 L 106.195312 193.824219 L 106.195312 221.980469 L 79.691406 221.980469 Z M 79.691406 193.824219 " clip-rule="nonzero"/></clipPath><clipPath id="34afddbfc3"><path d="M 92.945312 193.824219 C 85.625 193.824219 79.691406 200.128906 79.691406 207.902344 C 79.691406 215.679688 85.625 221.980469 92.945312 221.980469 C 100.261719 221.980469 106.195312 215.679688 106.195312 207.902344 C 106.195312 200.128906 100.261719 193.824219 92.945312 193.824219 Z M 92.945312 193.824219 " clip-rule="nonzero"/></clipPath><clipPath id="37d09024c3"><path d="M 203.765625 232.140625 L 287.671875 232.140625 L 287.671875 370 L 203.765625 370 Z M 203.765625 232.140625 " clip-rule="nonzero"/></clipPath><clipPath id="785e33ee40"><path d="M 203.765625 266.585938 C 203.765625 247.582031 222.550781 232.179688 245.71875 232.179688 C 268.890625 232.179688 287.671875 247.582031 287.671875 266.585938 L 287.671875 335.394531 C 287.671875 354.394531 268.890625 369.800781 245.71875 369.800781 C 222.550781 369.800781 203.765625 354.394531 203.765625 335.394531 Z M 203.765625 266.585938 " clip-rule="nonzero"/></clipPath><clipPath id="9a9cd404e6"><path d="M 218.492188 352 L 230.265625 352 L 230.265625 369.800781 L 218.492188 369.800781 Z M 218.492188 352 " clip-rule="nonzero"/></clipPath><clipPath id="833bfd457a"><path d="M 218.492188 357.902344 C 218.492188 354.652344 221.128906 352.015625 224.378906 352.015625 C 227.628906 352.015625 230.265625 354.652344 230.265625 357.902344 L 230.265625 363.910156 C 230.265625 367.164062 227.628906 369.800781 224.378906 369.800781 C 221.128906 369.800781 218.492188 367.164062 218.492188 363.910156 Z M 218.492188 357.902344 " clip-rule="nonzero"/></clipPath><clipPath id="dc055864e7"><path d="M 239.109375 355.820312 L 250.882812 355.820312 L 250.882812 373.621094 L 239.109375 373.621094 Z M 239.109375 355.820312 " clip-rule="nonzero"/></clipPath><clipPath id="9d40f66725"><path d="M 239.109375 361.726562 C 239.109375 358.472656 241.746094 355.835938 244.996094 355.835938 C 248.25 355.835938 250.882812 358.472656 250.882812 361.726562 L 250.882812 367.734375 C 250.882812 370.984375 248.25 373.621094 244.996094 373.621094 C 241.746094 373.621094 239.109375 370.984375 239.109375 367.734375 Z M 239.109375 361.726562 " clip-rule="nonzero"/></clipPath><clipPath id="e29833b7da"><path d="M 260.058594 352 L 271.835938 352 L 271.835938 369.800781 L 260.058594 369.800781 Z M 260.058594 352 " clip-rule="nonzero"/></clipPath><clipPath id="231f4be8cc"><path d="M 260.058594 357.902344 C 260.058594 354.652344 262.695312 352.015625 265.945312 352.015625 C 269.199219 352.015625 271.835938 354.652344 271.835938 357.902344 L 271.835938 363.910156 C 271.835938 367.164062 269.199219 369.800781 265.945312 369.800781 C 262.695312 369.800781 260.058594 367.164062 260.058594 363.910156 Z M 260.058594 357.902344 " clip-rule="nonzero"/></clipPath><clipPath id="9c321cb196"><path d="M 86.5 245.511719 L 115.109375 245.511719 L 115.109375 320.609375 L 86.5 320.609375 Z M 86.5 245.511719 " clip-rule="nonzero"/></clipPath><clipPath id="ac91b87cbc"><path d="M 86.5 269.339844 C 86.5 256.214844 92.902344 245.570312 100.804688 245.570312 C 108.703125 245.570312 115.109375 256.214844 115.109375 269.339844 L 115.109375 296.839844 C 115.109375 309.96875 108.703125 320.609375 100.804688 320.609375 C 92.902344 320.609375 86.5 309.96875 86.5 296.839844 Z M 86.5 269.339844 " clip-rule="nonzero"/></clipPath><clipPath id="369ac722a1"><path d="M 85.003906 238 L 116.601562 238 L 116.601562 314.300781 L 85.003906 314.300781 Z M 85.003906 238 " clip-rule="nonzero"/></clipPath><clipPath id="fd108465ba"><path d="M 85.003906 264.238281 C 85.003906 249.738281 92.078125 237.984375 100.804688 237.984375 C 109.53125 237.984375 116.601562 249.738281 116.601562 264.238281 L 116.601562 288.046875 C 116.601562 302.546875 109.53125 314.300781 100.804688 314.300781 C 92.078125 314.300781 85.003906 302.546875 85.003906 288.046875 Z M 85.003906 264.238281 " clip-rule="nonzero"/></clipPath><clipPath id="8a6a9767fc"><path d="M 110.660156 223.800781 L 248.46875 223.800781 L 248.46875 301 L 110.660156 301 Z M 110.660156 223.800781 " clip-rule="nonzero"/></clipPath><clipPath id="cf674048f8"><path d="M 156.53125 228.4375 C 163.558594 225.636719 171.597656 223.800781 179.464844 223.800781 C 187.332031 223.800781 194.90625 225.375 201.882812 228.175781 C 202.03125 228.261719 202.179688 228.261719 202.328125 228.351562 C 228.527344 239.546875 247.828125 269.117188 248.199219 301 L 110.660156 301 C 111.03125 268.941406 130.03125 239.375 156.53125 228.4375 Z M 156.53125 228.4375 " clip-rule="nonzero"/></clipPath><clipPath id="6b046c19b7"><path d="M 57.097656 262.347656 L 85.707031 262.347656 L 85.707031 331.632812 L 57.097656 331.632812 Z M 57.097656 262.347656 " clip-rule="nonzero"/></clipPath><clipPath id="46bf87faa4"><path d="M 57.097656 286.164062 C 57.097656 273.039062 63.503906 262.398438 71.402344 262.398438 C 79.304688 262.398438 85.707031 273.039062 85.707031 286.164062 L 85.707031 307.867188 C 85.707031 320.992188 79.304688 331.632812 71.402344 331.632812 C 63.503906 331.632812 57.097656 320.992188 57.097656 307.867188 Z M 57.097656 286.164062 " clip-rule="nonzero"/></clipPath><clipPath id="16cb4bad17"><path d="M 55.601562 262.363281 L 87.203125 262.363281 L 87.203125 325.8125 L 55.601562 325.8125 Z M 55.601562 262.363281 " clip-rule="nonzero"/></clipPath><clipPath id="6c2b21241b"><path d="M 55.601562 288.644531 C 55.601562 274.144531 62.675781 262.390625 71.402344 262.390625 C 80.128906 262.390625 87.203125 274.144531 87.203125 288.644531 L 87.203125 299.558594 C 87.203125 314.058594 80.128906 325.8125 71.402344 325.8125 C 62.675781 325.8125 55.601562 314.058594 55.601562 299.558594 Z M 55.601562 288.644531 " clip-rule="nonzero"/></clipPath><clipPath id="22a7fd5cd3"><path d="M 276.636719 257.765625 L 305.242188 257.765625 L 305.242188 331.632812 L 276.636719 331.632812 Z M 276.636719 257.765625 " clip-rule="nonzero"/></clipPath><clipPath id="09fa6274f3"><path d="M 276.636719 281.605469 C 276.636719 268.480469 283.039062 257.835938 290.941406 257.835938 C 298.839844 257.835938 305.242188 268.480469 305.242188 281.605469 L 305.242188 307.863281 C 305.242188 320.992188 298.839844 331.632812 290.941406 331.632812 C 283.039062 331.632812 276.636719 320.992188 276.636719 307.863281 Z M 276.636719 281.605469 " clip-rule="nonzero"/></clipPath><clipPath id="36c727cdb2"><path d="M 275.136719 248.402344 L 306.738281 248.402344 L 306.738281 325.429688 L 275.136719 325.429688 Z M 275.136719 248.402344 " clip-rule="nonzero"/></clipPath><clipPath id="86978f00c9"><path d="M 275.136719 274.714844 C 275.136719 260.21875 282.210938 248.460938 290.9375 248.460938 C 299.664062 248.460938 306.738281 260.21875 306.738281 274.714844 L 306.738281 299.175781 C 306.738281 313.675781 299.664062 325.429688 290.9375 325.429688 C 282.210938 325.429688 275.136719 313.675781 275.136719 299.175781 Z M 275.136719 274.714844 " clip-rule="nonzero"/></clipPath><clipPath id="59db0bb600"><path d="M 112.507812 273.769531 L 141.113281 273.769531 L 141.113281 327.074219 L 112.507812 327.074219 Z M 112.507812 273.769531 " clip-rule="nonzero"/></clipPath><clipPath id="d9dde4c45d"><path d="M 112.507812 297.5625 C 112.507812 284.433594 118.910156 273.792969 126.808594 273.792969 C 134.710938 273.792969 141.113281 284.433594 141.113281 297.5625 L 141.113281 303.304688 C 141.113281 316.433594 134.710938 327.074219 126.808594 327.074219 C 118.910156 327.074219 112.507812 316.433594 112.507812 303.304688 Z M 112.507812 297.5625 " clip-rule="nonzero"/></clipPath><clipPath id="23740f7587"><path d="M 111.011719 267 L 142.609375 267 L 142.609375 319.460938 L 111.011719 319.460938 Z M 111.011719 267 " clip-rule="nonzero"/></clipPath><clipPath id="674bbd8778"><path d="M 111.011719 293.207031 C 111.011719 278.707031 118.085938 266.953125 126.8125 266.953125 C 135.535156 266.953125 142.609375 278.707031 142.609375 293.207031 C 142.609375 307.707031 135.535156 319.460938 126.8125 319.460938 C 118.085938 319.460938 111.011719 307.707031 111.011719 293.207031 Z M 111.011719 293.207031 " clip-rule="nonzero"/></clipPath><clipPath id="ec25f1ce76"><path d="M 163.628906 262.3125 L 203.765625 262.3125 L 203.765625 325.808594 L 163.628906 325.808594 Z M 163.628906 262.3125 " clip-rule="nonzero"/></clipPath><clipPath id="2307d9a39d"><path d="M 163.628906 288.644531 C 163.628906 274.144531 172.613281 262.390625 183.695312 262.390625 C 194.78125 262.390625 203.765625 274.144531 203.765625 288.644531 L 203.765625 299.554688 C 203.765625 314.054688 194.78125 325.808594 183.695312 325.808594 C 172.613281 325.808594 163.628906 314.054688 163.628906 299.554688 Z M 163.628906 288.644531 " clip-rule="nonzero"/></clipPath><clipPath id="ae99b85341"><path d="M 136.324219 257.789062 L 164.933594 257.789062 L 164.933594 327.074219 L 136.324219 327.074219 Z M 136.324219 257.789062 " clip-rule="nonzero"/></clipPath><clipPath id="7cb9f10b02"><path d="M 136.324219 281.605469 C 136.324219 268.480469 142.726562 257.835938 150.628906 257.835938 C 158.527344 257.835938 164.933594 268.480469 164.933594 281.605469 L 164.933594 303.304688 C 164.933594 316.433594 158.527344 327.074219 150.628906 327.074219 C 142.726562 327.074219 136.324219 316.433594 136.324219 303.304688 Z M 136.324219 281.605469 " clip-rule="nonzero"/></clipPath><clipPath id="c56daf3e42"><path d="M 134.828125 251.265625 L 166.429688 251.265625 L 166.429688 321.253906 L 134.828125 321.253906 Z M 134.828125 251.265625 " clip-rule="nonzero"/></clipPath><clipPath id="3ed423b400"><path d="M 134.828125 277.625 C 134.828125 263.125 141.902344 251.371094 150.628906 251.371094 C 159.355469 251.371094 166.429688 263.125 166.429688 277.625 L 166.429688 295 C 166.429688 309.5 159.355469 321.253906 150.628906 321.253906 C 141.902344 321.253906 134.828125 309.5 134.828125 295 Z M 134.828125 277.625 " clip-rule="nonzero"/></clipPath><clipPath id="e810a9c8ee"><path d="M 247.332031 257.75 L 278.1875 257.75 L 278.1875 331.628906 L 247.332031 331.628906 Z M 247.332031 257.75 " clip-rule="nonzero"/></clipPath><clipPath id="e706d5ba44"><path d="M 247.332031 281.601562 C 247.332031 268.476562 254.242188 257.832031 262.761719 257.832031 C 271.28125 257.832031 278.1875 268.476562 278.1875 281.601562 L 278.1875 307.863281 C 278.1875 320.988281 271.28125 331.628906 262.761719 331.628906 C 254.242188 331.628906 247.332031 320.988281 247.332031 307.863281 Z M 247.332031 281.601562 " clip-rule="nonzero"/></clipPath><clipPath id="d927952218"><path d="M 245.714844 251.277344 L 279.792969 251.277344 L 279.792969 325.429688 L 245.714844 325.429688 Z M 245.714844 251.277344 " clip-rule="nonzero"/></clipPath><clipPath id="56b3e4ba17"><path d="M 245.714844 277.625 C 245.714844 263.125 253.34375 251.371094 262.753906 251.371094 C 272.164062 251.371094 279.792969 263.125 279.792969 277.625 L 279.792969 299.175781 C 279.792969 313.675781 272.164062 325.429688 262.753906 325.429688 C 253.34375 325.429688 245.714844 313.675781 245.714844 299.175781 Z M 245.714844 277.625 " clip-rule="nonzero"/></clipPath><clipPath id="a2afa64fd7"><path d="M 205.746094 279.554688 L 243.726562 279.554688 L 243.726562 332.964844 L 205.746094 332.964844 Z M 205.746094 279.554688 " clip-rule="nonzero"/></clipPath><clipPath id="545125419a"><path d="M 205.746094 303.453125 C 205.746094 290.328125 214.25 279.6875 224.738281 279.6875 C 235.226562 279.6875 243.726562 290.328125 243.726562 303.453125 L 243.726562 309.195312 C 243.726562 322.324219 235.226562 332.964844 224.738281 332.964844 C 214.25 332.964844 205.746094 322.324219 205.746094 309.195312 Z M 205.746094 303.453125 " clip-rule="nonzero"/></clipPath><clipPath id="def240f8e1"><path d="M 203.765625 272.742188 L 245.71875 272.742188 L 245.71875 325.347656 L 203.765625 325.347656 Z M 203.765625 272.742188 " clip-rule="nonzero"/></clipPath><clipPath id="74dc8dc266"><path d="M 203.765625 299.09375 C 203.765625 284.59375 213.15625 272.839844 224.742188 272.839844 C 236.328125 272.839844 245.71875 284.59375 245.71875 299.09375 C 245.71875 313.59375 236.328125 325.347656 224.742188 325.347656 C 213.15625 325.347656 203.765625 313.59375 203.765625 299.09375 Z M 203.765625 299.09375 " clip-rule="nonzero"/></clipPath><clipPath id="e4d78f0d08"><path d="M 29 129 L 81 129 L 81 166 L 29 166 Z M 29 129 " clip-rule="nonzero"/></clipPath><clipPath id="95cd05caf3"><path d="M 34.507812 169.222656 L 26.140625 152.683594 L 72.464844 129.257812 L 80.832031 145.796875 Z M 34.507812 169.222656 " clip-rule="nonzero"/></clipPath><clipPath id="1c6d7c8152"><path d="M 32.324219 163.398438 C 31.53125 162.738281 30.800781 161.894531 30.320312 160.949219 C 29.84375 160 29.589844 158.988281 29.53125 157.960938 C 29.535156 157.9375 29.527344 157.921875 29.527344 157.898438 C 29.402344 154.003906 32.105469 149.722656 37.0625 147.160156 L 72.4375 129.269531 L 80.800781 145.8125 L 45.453125 163.6875 C 40.398438 166.183594 35.367188 165.859375 32.324219 163.398438 Z M 32.324219 163.398438 " clip-rule="nonzero"/></clipPath><clipPath id="b915c389f2"><path d="M 35 105 L 86 105 L 86 144 L 35 144 Z M 35 105 " clip-rule="nonzero"/></clipPath><clipPath id="d66e27bad1"><path d="M 41.039062 147.164062 L 31.707031 131.148438 L 76.554688 105.011719 L 85.886719 121.023438 Z M 41.039062 147.164062 " clip-rule="nonzero"/></clipPath><clipPath id="deb0e6fd10"><path d="M 38.515625 141.480469 C 37.683594 140.867188 36.902344 140.070312 36.371094 139.152344 C 35.835938 138.238281 35.519531 137.238281 35.402344 136.21875 C 35.402344 136.195312 35.394531 136.179688 35.394531 136.15625 C 35.039062 132.277344 37.480469 127.84375 42.277344 124.988281 L 76.527344 105.027344 L 85.859375 121.039062 L 51.636719 140.984375 C 46.742188 143.78125 41.699219 143.757812 38.515625 141.480469 Z M 38.515625 141.480469 " clip-rule="nonzero"/></clipPath><clipPath id="8dee047457"><path d="M 36 84 L 88 84 L 88 122 L 36 122 Z M 36 84 " clip-rule="nonzero"/></clipPath><clipPath id="d66032fc1d"><path d="M 41.183594 125.226562 L 32.625 108.785156 L 78.667969 84.8125 L 87.226562 101.253906 Z M 41.183594 125.226562 " clip-rule="nonzero"/></clipPath><clipPath id="7f29929c11"><path d="M 38.933594 119.429688 C 38.128906 118.777344 37.390625 117.941406 36.902344 117 C 36.410156 116.0625 36.144531 115.050781 36.074219 114.023438 C 36.078125 114 36.070312 113.984375 36.070312 113.960938 C 35.898438 110.070312 38.550781 105.757812 43.480469 103.132812 L 78.640625 84.828125 L 87.199219 101.265625 L 52.0625 119.558594 C 47.039062 122.117188 42.003906 121.855469 38.933594 119.429688 Z M 38.933594 119.429688 " clip-rule="nonzero"/></clipPath><clipPath id="c17080737b"><path d="M 268 89 L 320 89 L 320 126 L 268 126 Z M 268 89 " clip-rule="nonzero"/></clipPath><clipPath id="e3c5ca0a28"><path d="M 323.402344 112.785156 L 314.945312 129.277344 L 268.753906 105.585938 L 277.214844 89.09375 Z M 323.402344 112.785156 " clip-rule="nonzero"/></clipPath><clipPath id="e643a3574f"><path d="M 319.976562 117.976562 C 319.910156 119.003906 319.65625 120.09375 319.171875 121.035156 C 318.6875 121.980469 318.015625 122.78125 317.21875 123.429688 C 317.199219 123.441406 317.191406 123.460938 317.171875 123.472656 C 314.09375 125.863281 309.042969 126.195312 304.054688 123.691406 L 268.78125 105.597656 L 277.242188 89.109375 L 312.488281 107.1875 C 317.480469 109.804688 320.175781 114.066406 319.976562 117.976562 Z M 319.976562 117.976562 " clip-rule="nonzero"/></clipPath><clipPath id="07e51bc619"><path d="M 276 115 L 328 115 L 328 153 L 276 153 Z M 276 115 " clip-rule="nonzero"/></clipPath><clipPath id="450fca7b64"><path d="M 331.25 139.628906 L 322.792969 156.121094 L 276.605469 132.429688 L 285.0625 115.9375 Z M 331.25 139.628906 " clip-rule="nonzero"/></clipPath><clipPath id="b2fee2360c"><path d="M 327.824219 144.820312 C 327.757812 145.851562 327.503906 146.9375 327.019531 147.878906 C 326.535156 148.824219 325.863281 149.625 325.066406 150.273438 C 325.046875 150.285156 325.039062 150.304688 325.019531 150.316406 C 321.941406 152.707031 316.890625 153.039062 311.902344 150.535156 L 276.632812 132.441406 L 285.089844 115.953125 L 320.335938 134.03125 C 325.328125 136.648438 328.023438 140.910156 327.824219 144.820312 Z M 327.824219 144.820312 " clip-rule="nonzero"/></clipPath><clipPath id="f4ac7baa5e"><path d="M 279 136 L 331 136 L 331 173 L 279 173 Z M 279 136 " clip-rule="nonzero"/></clipPath><clipPath id="98b2380b69"><path d="M 334.414062 159.714844 L 325.953125 176.207031 L 279.765625 152.515625 L 288.222656 136.023438 Z M 334.414062 159.714844 " clip-rule="nonzero"/></clipPath><clipPath id="8cef8e9cdb"><path d="M 330.984375 164.90625 C 330.917969 165.933594 330.664062 167.023438 330.179688 167.964844 C 329.695312 168.910156 329.023438 169.710938 328.230469 170.359375 C 328.210938 170.371094 328.199219 170.390625 328.179688 170.402344 C 325.105469 172.792969 320.054688 173.125 315.0625 170.621094 L 279.792969 152.527344 L 288.25 136.035156 L 323.496094 154.117188 C 328.488281 156.734375 331.1875 160.996094 330.984375 164.90625 Z M 330.984375 164.90625 " clip-rule="nonzero"/></clipPath><clipPath id="4b1bb5c2e1"><path d="M 142 20 L 176 20 L 176 45 L 142 45 Z M 142 20 " clip-rule="nonzero"/></clipPath><clipPath id="a1ed53de0f"><path d="M 146.8125 16.03125 L 179.429688 27.992188 L 171.597656 49.351562 L 138.980469 37.386719 Z M 146.8125 16.03125 " clip-rule="nonzero"/></clipPath><clipPath id="ac4eda8e94"><path d="M 163.121094 22.011719 C 154.113281 18.707031 145.058594 20.8125 142.894531 26.707031 C 140.734375 32.605469 146.28125 40.0625 155.289062 43.367188 C 164.292969 46.671875 173.347656 44.570312 175.511719 38.671875 C 177.675781 32.773438 172.125 25.316406 163.121094 22.011719 Z M 163.121094 22.011719 " clip-rule="nonzero"/></clipPath><clipPath id="831b98cfe7"><path d="M 167 8 L 213 8 L 213 50 L 167 50 Z M 167 8 " clip-rule="nonzero"/></clipPath><clipPath id="5c32f38b93"><path d="M 159.207031 31.691406 L 199.695312 -0.00390625 L 220.449219 26.503906 L 179.960938 58.203125 Z M 159.207031 31.691406 " clip-rule="nonzero"/></clipPath><clipPath id="e65e5d72bf"><path d="M 179.449219 15.84375 C 168.269531 24.597656 163.851562 37.628906 169.582031 44.949219 C 175.316406 52.269531 189.023438 51.105469 200.203125 42.355469 C 211.382812 33.601562 215.800781 20.570312 210.070312 13.25 C 204.339844 5.929688 190.628906 7.09375 179.449219 15.84375 Z M 179.449219 15.84375 " clip-rule="nonzero"/></clipPath><clipPath id="c27f563f55"><path d="M 239 15 L 311 15 L 311 87 L 239 87 Z M 239 15 " clip-rule="nonzero"/></clipPath><clipPath id="2f69e74ada"><path d="M 288.171875 5.242188 L 321.441406 45.101562 L 272.238281 86.171875 L 238.96875 46.308594 Z M 288.171875 5.242188 " clip-rule="nonzero"/></clipPath><clipPath id="56e398a36e"><path d="M 298.117188 19.496094 C 300.511719 20.953125 302.910156 22.902344 304.816406 25.183594 C 306.71875 27.464844 308.160156 29.984375 309.152344 32.585938 C 309.164062 32.648438 309.203125 32.691406 309.214844 32.75 C 312.773438 42.664062 310.101562 54.382812 301.613281 61.652344 L 272.382812 86.050781 L 239.113281 46.191406 L 268.320312 21.808594 C 277.054688 14.703125 288.992188 14.082031 298.117188 19.496094 Z M 298.117188 19.496094 " clip-rule="nonzero"/></clipPath><clipPath id="941bf43df0"><path d="M 246 24 L 302 24 L 302 79 L 246 79 Z M 246 24 " clip-rule="nonzero"/></clipPath><clipPath id="d4299564ee"><path d="M 284.152344 16.355469 L 309.785156 47.066406 L 271.878906 78.707031 L 246.242188 47.996094 Z M 284.152344 16.355469 " clip-rule="nonzero"/></clipPath><clipPath id="dea2cf312f"><path d="M 291.816406 27.339844 C 293.660156 28.460938 295.511719 29.964844 296.976562 31.71875 C 298.441406 33.476562 299.550781 35.417969 300.316406 37.421875 C 300.328125 37.46875 300.355469 37.503906 300.367188 37.550781 C 303.109375 45.1875 301.050781 54.21875 294.507812 59.816406 L 271.988281 78.617188 L 246.355469 47.90625 L 268.859375 29.121094 C 275.589844 23.644531 284.785156 23.167969 291.816406 27.339844 Z M 291.816406 27.339844 " clip-rule="nonzero"/></clipPath><clipPath id="5f45640420"><path d="M 252 42 L 282 42 L 282 72 L 252 72 Z M 252 42 " clip-rule="nonzero"/></clipPath><clipPath id="dbc49de2b1"><path d="M 272.40625 38.21875 L 285.917969 54.40625 L 265.933594 71.085938 L 252.421875 54.898438 Z M 272.40625 38.21875 " clip-rule="nonzero"/></clipPath><clipPath id="25bd26a056"><path d="M 276.445312 44.007812 C 277.417969 44.597656 278.394531 45.390625 279.167969 46.316406 C 279.9375 47.242188 280.523438 48.265625 280.925781 49.324219 C 280.933594 49.347656 280.949219 49.367188 280.953125 49.390625 C 282.398438 53.417969 281.3125 58.175781 277.867188 61.128906 L 265.992188 71.039062 L 252.480469 54.847656 L 264.34375 44.945312 C 267.890625 42.058594 272.738281 41.808594 276.445312 44.007812 Z M 276.445312 44.007812 " clip-rule="nonzero"/></clipPath><clipPath id="cdf9abf708"><path d="M 49 17 L 121 17 L 121 89 L 49 89 Z M 49 17 " clip-rule="nonzero"/></clipPath><clipPath id="2219d8ea7a"><path d="M 39.167969 40.242188 L 78.488281 6.335938 L 120.339844 54.871094 L 81.019531 88.777344 Z M 39.167969 40.242188 " clip-rule="nonzero"/></clipPath><clipPath id="5f4dff4636"><path d="M 53.257812 30.070312 C 54.679688 27.652344 56.589844 25.21875 58.835938 23.28125 C 61.085938 21.339844 63.585938 19.859375 66.167969 18.824219 C 66.230469 18.808594 66.273438 18.773438 66.335938 18.757812 C 76.191406 15.039062 87.949219 17.523438 95.355469 25.894531 L 120.21875 54.730469 L 80.898438 88.636719 L 56.050781 59.824219 C 48.804688 51.207031 47.992188 39.28125 53.257812 30.070312 Z M 53.257812 30.070312 " clip-rule="nonzero"/></clipPath><clipPath id="fb144614e5"><path d="M 58 26 L 113 26 L 113 82 L 58 82 Z M 58 26 " clip-rule="nonzero"/></clipPath><clipPath id="d9c1f6bee4"><path d="M 50.34375 44.078125 L 80.640625 17.957031 L 112.886719 55.351562 L 82.589844 81.476562 Z M 50.34375 44.078125 " clip-rule="nonzero"/></clipPath><clipPath id="69e9a267ad"><path d="M 61.203125 36.242188 C 62.296875 34.378906 63.769531 32.503906 65.5 31.011719 C 67.234375 29.515625 69.160156 28.375 71.152344 27.578125 C 71.199219 27.566406 71.230469 27.539062 71.277344 27.527344 C 78.871094 24.664062 87.933594 26.578125 93.636719 33.027344 L 112.792969 55.242188 L 82.496094 81.367188 L 63.355469 59.167969 C 57.769531 52.527344 57.144531 43.339844 61.203125 36.242188 Z M 61.203125 36.242188 " clip-rule="nonzero"/></clipPath><clipPath id="ee2df53ebc"><path d="M 76 46 L 106 46 L 106 76 L 76 76 Z M 76 46 " clip-rule="nonzero"/></clipPath><clipPath id="527f483177"><path d="M 72.394531 55.472656 L 88.367188 41.699219 L 105.367188 61.414062 L 89.394531 75.183594 Z M 72.394531 55.472656 " clip-rule="nonzero"/></clipPath><clipPath id="53a059ae1f"><path d="M 78.121094 51.339844 C 78.695312 50.355469 79.472656 49.371094 80.386719 48.582031 C 81.296875 47.792969 82.3125 47.191406 83.363281 46.773438 C 83.386719 46.765625 83.40625 46.75 83.429688 46.746094 C 87.433594 45.234375 92.210938 46.246094 95.214844 49.644531 L 105.316406 61.355469 L 89.34375 75.128906 L 79.253906 63.425781 C 76.308594 59.925781 75.980469 55.082031 78.121094 51.339844 Z M 78.121094 51.339844 " clip-rule="nonzero"/></clipPath><clipPath id="f2752e6a6a"><path d="M 192.46875 117.828125 L 257.457031 117.828125 L 257.457031 182.8125 L 192.46875 182.8125 Z M 192.46875 117.828125 " clip-rule="nonzero"/></clipPath><clipPath id="eb18a5bc62"><path d="M 224.964844 117.828125 C 207.015625 117.828125 192.46875 132.375 192.46875 150.320312 C 192.46875 168.265625 207.015625 182.8125 224.964844 182.8125 C 242.910156 182.8125 257.457031 168.265625 257.457031 150.320312 C 257.457031 132.375 242.910156 117.828125 224.964844 117.828125 Z M 224.964844 117.828125 " clip-rule="nonzero"/></clipPath><clipPath id="b47a9de272"><path d="M 189.71875 115.089844 L 254.707031 115.089844 L 254.707031 180.074219 L 189.71875 180.074219 Z M 189.71875 115.089844 " clip-rule="nonzero"/></clipPath><clipPath id="cfb6e891a8"><path d="M 222.214844 115.089844 C 204.269531 115.089844 189.71875 129.636719 189.71875 147.582031 C 189.71875 165.527344 204.269531 180.074219 222.214844 180.074219 C 240.160156 180.074219 254.707031 165.527344 254.707031 147.582031 C 254.707031 129.636719 240.160156 115.089844 222.214844 115.089844 Z M 222.214844 115.089844 " clip-rule="nonzero"/></clipPath><clipPath id="ac0da39dfe"><path d="M 195.878906 119.601562 L 248.550781 119.601562 L 248.550781 175.5625 L 195.878906 175.5625 Z M 195.878906 119.601562 " clip-rule="nonzero"/></clipPath><clipPath id="4a422825c2"><path d="M 222.214844 119.601562 C 207.667969 119.601562 195.878906 132.128906 195.878906 147.582031 C 195.878906 163.035156 207.667969 175.5625 222.214844 175.5625 C 236.757812 175.5625 248.550781 163.035156 248.550781 147.582031 C 248.550781 132.128906 236.757812 119.601562 222.214844 119.601562 Z M 222.214844 119.601562 " clip-rule="nonzero"/></clipPath><clipPath id="d3c8730586"><path d="M 202.035156 131.226562 L 220.226562 131.226562 L 220.226562 149.417969 L 202.035156 149.417969 Z M 202.035156 131.226562 " clip-rule="nonzero"/></clipPath><clipPath id="c3433f3915"><path d="M 211.132812 131.226562 C 206.109375 131.226562 202.035156 135.300781 202.035156 140.324219 C 202.035156 145.34375 206.109375 149.417969 211.132812 149.417969 C 216.152344 149.417969 220.226562 145.34375 220.226562 140.324219 C 220.226562 135.300781 216.152344 131.226562 211.132812 131.226562 Z M 211.132812 131.226562 " clip-rule="nonzero"/></clipPath><clipPath id="1e69b84241"><path d="M 220.226562 147.582031 L 230.769531 147.582031 L 230.769531 158.128906 L 220.226562 158.128906 Z M 220.226562 147.582031 " clip-rule="nonzero"/></clipPath><clipPath id="bff61ab2f5"><path d="M 225.5 147.582031 C 222.585938 147.582031 220.226562 149.941406 220.226562 152.855469 C 220.226562 155.765625 222.585938 158.128906 225.5 158.128906 C 228.410156 158.128906 230.769531 155.765625 230.769531 152.855469 C 230.769531 149.941406 228.410156 147.582031 225.5 147.582031 Z M 225.5 147.582031 " clip-rule="nonzero"/></clipPath><clipPath id="e1a407c20d"><path d="M 102.058594 151.21875 L 150 151.21875 L 150 182.8125 L 102.058594 182.8125 Z M 102.058594 151.21875 " clip-rule="nonzero"/></clipPath><clipPath id="50a15ff752"><path d="M 118.042969 152.910156 C 120.492188 151.886719 123.292969 151.21875 126.035156 151.21875 C 128.777344 151.21875 131.417969 151.792969 133.847656 152.8125 C 133.898438 152.84375 133.949219 152.84375 134.003906 152.875 C 143.132812 156.960938 149.859375 167.742188 149.988281 179.441406 L 149.988281 182.8125 L 102.058594 182.8125 L 102.058594 179.445312 C 102.1875 167.679688 108.808594 156.894531 118.042969 152.910156 Z M 118.042969 152.910156 " clip-rule="nonzero"/></clipPath><clipPath id="36480557fc"><path d="M 198.835938 151.21875 L 246.847656 151.21875 L 246.847656 182.8125 L 198.835938 182.8125 Z M 198.835938 151.21875 " clip-rule="nonzero"/></clipPath><clipPath id="7e9f044017"><path d="M 214.820312 152.910156 C 217.269531 151.886719 220.070312 151.21875 222.8125 151.21875 C 225.554688 151.21875 228.191406 151.792969 230.625 152.8125 C 230.675781 152.84375 230.726562 152.84375 230.777344 152.875 C 239.910156 156.960938 246.632812 167.742188 246.765625 179.441406 L 246.765625 182.8125 L 198.835938 182.8125 L 198.835938 179.445312 C 198.964844 167.679688 205.585938 156.894531 214.820312 152.910156 Z M 214.820312 152.910156 " clip-rule="nonzero"/></clipPath></defs><g clip-path="url(#6642d9c135)"><g clip-path="url(#987b53a430)"><g clip-path="url(#f7785db6e6)"><path fill="#60b9b9" d="M 78.929688 140.875 L 124.375 186.402344 L 33.144531 277.472656 L -12.300781 231.945312 Z M 78.929688 140.875 " fill-opacity="1" fill-rule="nonzero"/></g></g></g><g clip-path="url(#d19f7a2452)"><g clip-path="url(#d709bf0de3)"><g clip-path="url(#93eac518eb)"><path fill="#0c8794" d="M 74.539062 169.894531 L 108.265625 203.679688 L 40.5625 271.261719 L 6.839844 237.476562 Z M 74.539062 169.894531 " fill-opacity="1" fill-rule="nonzero"/></g></g></g><g clip-path="url(#d634df1a1c)"><g clip-path="url(#70a11a7a0d)"><g clip-path="url(#f8504a2bbf)"><path fill="#60b9b9" d="M 244.355469 201.210938 L 285.109375 151.4375 L 384.847656 233.105469 L 344.09375 282.875 Z M 244.355469 201.210938 " fill-opacity="1" fill-rule="nonzero"/></g></g></g><g clip-path="url(#39f1dee5c9)"><g clip-path="url(#8b6d3aa94d)"><g clip-path="url(#ae55ad49f3)"><path fill="#0c8794" d="M 258.066406 215.558594 L 288.308594 178.625 L 362.320312 239.230469 L 332.078125 276.164062 Z M 258.066406 215.558594 " fill-opacity="1" fill-rule="nonzero"/></g></g></g><g clip-path="url(#b7df32143b)"><g clip-path="url(#ae4cb5b295)"><path fill="#60b9b9" d="M 55.601562 32.6875 L 305.246094 32.6875 L 305.246094 307.683594 L 55.601562 307.683594 Z M 55.601562 32.6875 " fill-opacity="1" fill-rule="nonzero"/></g></g><g clip-path="url(#f8ea723edc)"><path fill="#25284d" d="M 176.433594 196.089844 C 176.5 196.847656 176.464844 197.613281 176.367188 198.367188 C 176.386719 198.21875 176.40625 198.074219 176.425781 197.925781 C 176.265625 199.082031 175.953125 200.207031 175.5 201.28125 C 175.558594 201.148438 175.613281 201.019531 175.667969 200.886719 C 175.261719 201.847656 174.746094 202.761719 174.113281 203.585938 C 174.199219 203.476562 174.285156 203.363281 174.371094 203.253906 C 173.570312 204.285156 172.628906 205.207031 171.59375 206.003906 C 171.707031 205.917969 171.816406 205.832031 171.929688 205.746094 C 171.082031 206.394531 170.175781 206.964844 169.21875 207.433594 C 168.949219 207.570312 168.675781 207.695312 168.394531 207.8125 C 168.527344 207.757812 168.65625 207.699219 168.789062 207.644531 C 167.878906 208.027344 166.933594 208.324219 165.964844 208.515625 C 165.691406 208.570312 165.414062 208.617188 165.136719 208.65625 C 165.285156 208.636719 165.429688 208.613281 165.574219 208.59375 C 164.523438 208.734375 163.453125 208.746094 162.402344 208.605469 C 162.546875 208.625 162.691406 208.644531 162.839844 208.664062 C 161.925781 208.542969 161.027344 208.304688 160.175781 207.945312 C 160.308594 208 160.4375 208.054688 160.570312 208.113281 C 159.773438 207.777344 159.027344 207.335938 158.34375 206.8125 C 158.453125 206.898438 158.566406 206.984375 158.675781 207.070312 C 157.933594 206.496094 157.273438 205.824219 156.699219 205.082031 C 156.785156 205.191406 156.871094 205.304688 156.957031 205.414062 C 156.34375 204.621094 155.789062 203.738281 155.398438 202.8125 C 155.453125 202.945312 155.507812 203.074219 155.566406 203.207031 C 155.246094 202.441406 155.027344 201.632812 154.828125 200.828125 C 154.59375 199.894531 154.398438 198.949219 154.234375 197.996094 C 154.148438 197.523438 154.074219 197.050781 154.007812 196.574219 C 154.027344 196.71875 154.050781 196.863281 154.066406 197.011719 C 154 196.515625 153.925781 196.003906 153.941406 195.5 C 153.957031 195.089844 153.746094 194.625 153.460938 194.335938 C 153.171875 194.050781 152.703125 193.832031 152.292969 193.851562 C 151.867188 193.871094 151.425781 194.011719 151.128906 194.335938 C 150.824219 194.664062 150.660156 195.050781 150.644531 195.5 C 150.628906 195.933594 150.6875 196.375 150.742188 196.804688 C 150.84375 197.613281 150.96875 198.421875 151.113281 199.222656 C 151.378906 200.65625 151.683594 202.101562 152.160156 203.480469 C 152.710938 205.089844 153.617188 206.550781 154.714844 207.84375 C 155.175781 208.386719 155.691406 208.886719 156.25 209.328125 C 156.886719 209.828125 157.535156 210.289062 158.257812 210.65625 C 158.957031 211.011719 159.691406 211.3125 160.445312 211.527344 C 161.203125 211.746094 161.984375 211.867188 162.765625 211.945312 C 164.210938 212.09375 165.683594 211.953125 167.097656 211.644531 C 168.542969 211.328125 169.949219 210.78125 171.257812 210.09375 C 172.59375 209.390625 173.84375 208.488281 174.957031 207.46875 C 176.226562 206.308594 177.34375 204.933594 178.125 203.394531 C 179.082031 201.507812 179.671875 199.433594 179.757812 197.3125 C 179.773438 196.90625 179.769531 196.496094 179.734375 196.089844 C 179.742188 195.863281 179.695312 195.648438 179.589844 195.453125 C 179.523438 195.25 179.410156 195.070312 179.25 194.921875 C 178.964844 194.636719 178.496094 194.421875 178.082031 194.441406 C 177.65625 194.460938 177.214844 194.597656 176.917969 194.921875 C 176.636719 195.230469 176.398438 195.65625 176.433594 196.089844 Z M 176.433594 196.089844 " fill-opacity="1" fill-rule="nonzero"/></g><g clip-path="url(#fde99d1e2d)"><path fill="#25284d" d="M 200.539062 196.667969 C 200.601562 197.402344 200.570312 198.136719 200.472656 198.863281 C 200.492188 198.722656 200.511719 198.582031 200.527344 198.441406 C 200.375 199.550781 200.074219 200.636719 199.640625 201.671875 C 199.691406 201.546875 199.746094 201.417969 199.800781 201.292969 C 199.410156 202.214844 198.914062 203.097656 198.300781 203.890625 C 198.382812 203.785156 198.464844 203.679688 198.550781 203.570312 C 197.78125 204.566406 196.871094 205.453125 195.875 206.222656 C 195.984375 206.136719 196.089844 206.054688 196.195312 205.972656 C 195.382812 206.597656 194.507812 207.148438 193.585938 207.601562 C 193.328125 207.730469 193.0625 207.851562 192.792969 207.964844 C 192.917969 207.910156 193.046875 207.855469 193.171875 207.804688 C 192.296875 208.171875 191.382812 208.457031 190.449219 208.644531 C 190.1875 208.695312 189.921875 208.738281 189.65625 208.773438 C 189.796875 208.757812 189.9375 208.738281 190.078125 208.71875 C 189.0625 208.851562 188.03125 208.863281 187.019531 208.730469 C 187.160156 208.746094 187.300781 208.765625 187.441406 208.785156 C 186.558594 208.667969 185.695312 208.4375 184.875 208.09375 C 185 208.144531 185.128906 208.199219 185.253906 208.253906 C 184.488281 207.929688 183.765625 207.507812 183.109375 207 C 183.214844 207.082031 183.324219 207.167969 183.429688 207.25 C 182.714844 206.695312 182.078125 206.046875 181.523438 205.332031 C 181.605469 205.441406 181.691406 205.546875 181.773438 205.652344 C 181.183594 204.886719 180.648438 204.039062 180.273438 203.148438 C 180.324219 203.273438 180.378906 203.398438 180.433594 203.527344 C 180.125 202.789062 179.914062 202.011719 179.722656 201.238281 C 179.496094 200.335938 179.308594 199.425781 179.148438 198.507812 C 179.066406 198.050781 178.996094 197.59375 178.933594 197.136719 C 178.953125 197.277344 178.972656 197.417969 178.988281 197.558594 C 178.925781 197.078125 178.851562 196.585938 178.867188 196.101562 C 178.882812 195.703125 178.679688 195.257812 178.402344 194.980469 C 178.128906 194.703125 177.675781 194.496094 177.28125 194.515625 C 176.871094 194.53125 176.441406 194.667969 176.15625 194.980469 C 175.867188 195.296875 175.707031 195.667969 175.691406 196.101562 C 175.675781 196.519531 175.734375 196.945312 175.785156 197.359375 C 175.886719 198.136719 176.003906 198.914062 176.144531 199.6875 C 176.398438 201.070312 176.695312 202.460938 177.152344 203.789062 C 177.683594 205.339844 178.554688 206.75 179.613281 207.992188 C 180.058594 208.515625 180.554688 208.996094 181.09375 209.421875 C 181.703125 209.90625 182.332031 210.351562 183.027344 210.703125 C 183.699219 211.046875 184.410156 211.335938 185.136719 211.542969 C 185.863281 211.753906 186.617188 211.871094 187.371094 211.945312 C 188.761719 212.085938 190.179688 211.953125 191.542969 211.65625 C 192.9375 211.351562 194.289062 210.824219 195.550781 210.160156 C 196.839844 209.484375 198.039062 208.617188 199.113281 207.632812 C 200.335938 206.515625 201.414062 205.191406 202.167969 203.707031 C 203.089844 201.890625 203.65625 199.890625 203.738281 197.847656 C 203.757812 197.457031 203.75 197.0625 203.714844 196.667969 C 203.722656 196.449219 203.679688 196.246094 203.578125 196.058594 C 203.515625 195.859375 203.40625 195.691406 203.25 195.546875 C 202.972656 195.269531 202.523438 195.0625 202.125 195.082031 C 201.714844 195.097656 201.289062 195.234375 201.003906 195.546875 C 200.730469 195.839844 200.503906 196.253906 200.539062 196.667969 Z M 200.539062 196.667969 " fill-opacity="1" fill-rule="nonzero"/></g><g clip-path="url(#02ad783bb5)"><g clip-path="url(#52ae2d4653)"><path fill="#fe9284" d="M 248.199219 193.824219 L 274.699219 193.824219 L 274.699219 221.980469 L 248.199219 221.980469 Z M 248.199219 193.824219 " fill-opacity="1" fill-rule="nonzero"/></g></g><g clip-path="url(#2c8547a9f8)"><g clip-path="url(#0f870d4897)"><path fill="#0c8794" d="M 95.695312 117.828125 L 160.679688 117.828125 L 160.679688 182.8125 L 95.695312 182.8125 Z M 95.695312 117.828125 " fill-opacity="1" fill-rule="nonzero"/></g></g><g clip-path="url(#e795d7f5ee)"><g clip-path="url(#4e79e9ee38)"><path fill="#fdfcea" d="M 92.945312 115.089844 L 157.929688 115.089844 L 157.929688 180.074219 L 92.945312 180.074219 Z M 92.945312 115.089844 " fill-opacity="1" fill-rule="nonzero"/></g></g><g clip-path="url(#6647ddfb16)"><g clip-path="url(#15e273928e)"><path fill="#25284d" d="M 99.101562 119.601562 L 151.773438 119.601562 L 151.773438 175.5625 L 99.101562 175.5625 Z M 99.101562 119.601562 " fill-opacity="1" fill-rule="nonzero"/></g></g><g clip-path="url(#3c7b030274)"><g clip-path="url(#bf68c195fc)"><path fill="#fdfcea" d="M 105.261719 131.226562 L 123.449219 131.226562 L 123.449219 149.417969 L 105.261719 149.417969 Z M 105.261719 131.226562 " fill-opacity="1" fill-rule="nonzero"/></g></g><g clip-path="url(#ad890222c3)"><g clip-path="url(#5c52323c63)"><path fill="#fdfcea" d="M 123.449219 147.582031 L 133.996094 147.582031 L 133.996094 158.128906 L 123.449219 158.128906 Z M 123.449219 147.582031 " fill-opacity="1" fill-rule="nonzero"/></g></g><g clip-path="url(#f43b67a4b2)"><g clip-path="url(#0213ec38e0)"><path fill="#60b9b9" d="M 79.695312 369.800781 L 79.695312 232.140625 L 163.601562 232.140625 L 163.601562 369.800781 Z M 79.695312 369.800781 " fill-opacity="1" fill-rule="nonzero"/></g></g><g clip-path="url(#f6b887963e)"><g clip-path="url(#30e50f85ee)"><path fill="#25284d" d="M 94.421875 369.800781 L 94.421875 351.996094 L 106.195312 351.996094 L 106.195312 369.800781 Z M 94.421875 369.800781 " fill-opacity="1" fill-rule="nonzero"/></g></g><g clip-path="url(#7f058fd46a)"><g clip-path="url(#928723ac69)"><path fill="#25284d" d="M 115.039062 373.621094 L 115.039062 355.820312 L 126.8125 355.820312 L 126.8125 373.621094 Z M 115.039062 373.621094 " fill-opacity="1" fill-rule="nonzero"/></g></g><g clip-path="url(#cd82ae1761)"><g clip-path="url(#a6e85323be)"><path fill="#25284d" d="M 135.988281 369.800781 L 135.988281 351.996094 L 147.765625 351.996094 L 147.765625 369.800781 Z M 135.988281 369.800781 " fill-opacity="1" fill-rule="nonzero"/></g></g><g clip-path="url(#d29e21598d)"><g clip-path="url(#34afddbfc3)"><path fill="#fe9284" d="M 79.691406 193.824219 L 106.195312 193.824219 L 106.195312 221.980469 L 79.691406 221.980469 Z M 79.691406 193.824219 " fill-opacity="1" fill-rule="nonzero"/></g></g><g clip-path="url(#37d09024c3)"><g clip-path="url(#785e33ee40)"><path fill="#60b9b9" d="M 203.765625 369.800781 L 203.765625 232.140625 L 287.671875 232.140625 L 287.671875 369.800781 Z M 203.765625 369.800781 " fill-opacity="1" fill-rule="nonzero"/></g></g><g clip-path="url(#9a9cd404e6)"><g clip-path="url(#833bfd457a)"><path fill="#25284d" d="M 218.492188 369.800781 L 218.492188 351.996094 L 230.265625 351.996094 L 230.265625 369.800781 Z M 218.492188 369.800781 " fill-opacity="1" fill-rule="nonzero"/></g></g><g clip-path="url(#dc055864e7)"><g clip-path="url(#9d40f66725)"><path fill="#25284d" d="M 239.109375 373.621094 L 239.109375 355.820312 L 250.882812 355.820312 L 250.882812 373.621094 Z M 239.109375 373.621094 " fill-opacity="1" fill-rule="nonzero"/></g></g><g clip-path="url(#e29833b7da)"><g clip-path="url(#231f4be8cc)"><path fill="#25284d" d="M 260.058594 369.800781 L 260.058594 351.996094 L 271.835938 351.996094 L 271.835938 369.800781 Z M 260.058594 369.800781 " fill-opacity="1" fill-rule="nonzero"/></g></g><g clip-path="url(#9c321cb196)"><g clip-path="url(#ac91b87cbc)"><path fill="#0c8794" d="M 86.5 320.609375 L 86.5 245.625 L 115.109375 245.625 L 115.109375 320.609375 Z M 86.5 320.609375 " fill-opacity="1" fill-rule="nonzero"/></g></g><g clip-path="url(#369ac722a1)"><g clip-path="url(#fd108465ba)"><path fill="#60b9b9" d="M 85.003906 314.300781 L 85.003906 238.019531 L 116.601562 238.019531 L 116.601562 314.300781 Z M 85.003906 314.300781 " fill-opacity="1" fill-rule="nonzero"/></g></g><g clip-path="url(#8a6a9767fc)"><g clip-path="url(#cf674048f8)"><path fill="#c1efe3" d="M 110.660156 223.800781 L 248.167969 223.800781 L 248.167969 301 L 110.660156 301 Z M 110.660156 223.800781 " fill-opacity="1" fill-rule="nonzero"/></g></g><g clip-path="url(#6b046c19b7)"><g clip-path="url(#46bf87faa4)"><path fill="#0c8794" d="M 57.097656 331.632812 L 57.097656 262.347656 L 85.707031 262.347656 L 85.707031 331.632812 Z M 57.097656 331.632812 " fill-opacity="1" fill-rule="nonzero"/></g></g><g clip-path="url(#16cb4bad17)"><g clip-path="url(#6c2b21241b)"><path fill="#60b9b9" d="M 55.601562 325.8125 L 55.601562 262.363281 L 87.203125 262.363281 L 87.203125 325.8125 Z M 55.601562 325.8125 " fill-opacity="1" fill-rule="nonzero"/></g></g><g clip-path="url(#22a7fd5cd3)"><g clip-path="url(#09fa6274f3)"><path fill="#0c8794" d="M 276.636719 331.632812 L 276.636719 257.878906 L 305.242188 257.878906 L 305.242188 331.632812 Z M 276.636719 331.632812 " fill-opacity="1" fill-rule="nonzero"/></g></g><g clip-path="url(#36c727cdb2)"><g clip-path="url(#86978f00c9)"><path fill="#60b9b9" d="M 275.136719 325.429688 L 275.136719 248.402344 L 306.738281 248.402344 L 306.738281 325.429688 Z M 275.136719 325.429688 " fill-opacity="1" fill-rule="nonzero"/></g></g><g clip-path="url(#59db0bb600)"><g clip-path="url(#d9dde4c45d)"><path fill="#0c8794" d="M 112.507812 327.074219 L 112.507812 273.769531 L 141.113281 273.769531 L 141.113281 327.074219 Z M 112.507812 327.074219 " fill-opacity="1" fill-rule="nonzero"/></g></g><g clip-path="url(#23740f7587)"><g clip-path="url(#674bbd8778)"><path fill="#c1efe3" d="M 111.011719 319.460938 L 111.011719 267 L 142.609375 267 L 142.609375 319.460938 Z M 111.011719 319.460938 " fill-opacity="1" fill-rule="nonzero"/></g></g><g clip-path="url(#ec25f1ce76)"><g clip-path="url(#2307d9a39d)"><path fill="#c1efe3" d="M 163.628906 325.808594 L 163.628906 262.3125 L 203.765625 262.3125 L 203.765625 325.808594 Z M 163.628906 325.808594 " fill-opacity="1" fill-rule="nonzero"/></g></g><g clip-path="url(#ae99b85341)"><g clip-path="url(#7cb9f10b02)"><path fill="#0c8794" d="M 136.324219 327.074219 L 136.324219 257.789062 L 164.933594 257.789062 L 164.933594 327.074219 Z M 136.324219 327.074219 " fill-opacity="1" fill-rule="nonzero"/></g></g><g clip-path="url(#c56daf3e42)"><g clip-path="url(#3ed423b400)"><path fill="#c1efe3" d="M 134.828125 321.253906 L 134.828125 251.390625 L 166.429688 251.390625 L 166.429688 321.253906 Z M 134.828125 321.253906 " fill-opacity="1" fill-rule="nonzero"/></g></g><g clip-path="url(#e810a9c8ee)"><g clip-path="url(#e706d5ba44)"><path fill="#0c8794" d="M 247.332031 331.628906 L 247.332031 257.871094 L 278.1875 257.871094 L 278.1875 331.628906 Z M 247.332031 331.628906 " fill-opacity="1" fill-rule="nonzero"/></g></g><g clip-path="url(#d927952218)"><g clip-path="url(#56b3e4ba17)"><path fill="#60b9b9" d="M 245.714844 325.429688 L 245.714844 251.410156 L 279.792969 251.410156 L 279.792969 325.429688 Z M 245.714844 325.429688 " fill-opacity="1" fill-rule="nonzero"/></g></g><g clip-path="url(#a2afa64fd7)"><g clip-path="url(#545125419a)"><path fill="#0c8794" d="M 205.746094 332.964844 L 205.746094 279.703125 L 243.726562 279.703125 L 243.726562 332.964844 Z M 205.746094 332.964844 " fill-opacity="1" fill-rule="nonzero"/></g></g><g clip-path="url(#def240f8e1)"><g clip-path="url(#74dc8dc266)"><path fill="#c1efe3" d="M 203.765625 325.347656 L 203.765625 272.90625 L 245.71875 272.90625 L 245.71875 325.347656 Z M 203.765625 325.347656 " fill-opacity="1" fill-rule="nonzero"/></g></g><g clip-path="url(#e4d78f0d08)"><g clip-path="url(#95cd05caf3)"><g clip-path="url(#1c6d7c8152)"><path fill="#60b9b9" d="M 34.507812 169.222656 L 26.140625 152.683594 L 72.464844 129.257812 L 80.832031 145.796875 Z M 34.507812 169.222656 " fill-opacity="1" fill-rule="nonzero"/></g></g></g><g clip-path="url(#b915c389f2)"><g clip-path="url(#d66e27bad1)"><g clip-path="url(#deb0e6fd10)"><path fill="#60b9b9" d="M 41.039062 147.164062 L 31.707031 131.148438 L 76.554688 105.011719 L 85.886719 121.023438 Z M 41.039062 147.164062 " fill-opacity="1" fill-rule="nonzero"/></g></g></g><g clip-path="url(#8dee047457)"><g clip-path="url(#d66032fc1d)"><g clip-path="url(#7f29929c11)"><path fill="#60b9b9" d="M 41.183594 125.226562 L 32.625 108.785156 L 78.667969 84.8125 L 87.226562 101.253906 Z M 41.183594 125.226562 " fill-opacity="1" fill-rule="nonzero"/></g></g></g><g clip-path="url(#c17080737b)"><g clip-path="url(#e3c5ca0a28)"><g clip-path="url(#e643a3574f)"><path fill="#60b9b9" d="M 323.402344 112.785156 L 314.945312 129.277344 L 268.753906 105.585938 L 277.214844 89.09375 Z M 323.402344 112.785156 " fill-opacity="1" fill-rule="nonzero"/></g></g></g><g clip-path="url(#07e51bc619)"><g clip-path="url(#450fca7b64)"><g clip-path="url(#b2fee2360c)"><path fill="#60b9b9" d="M 331.25 139.628906 L 322.792969 156.121094 L 276.605469 132.429688 L 285.0625 115.9375 Z M 331.25 139.628906 " fill-opacity="1" fill-rule="nonzero"/></g></g></g><g clip-path="url(#f4ac7baa5e)"><g clip-path="url(#98b2380b69)"><g clip-path="url(#8cef8e9cdb)"><path fill="#60b9b9" d="M 334.414062 159.714844 L 325.953125 176.207031 L 279.765625 152.515625 L 288.222656 136.023438 Z M 334.414062 159.714844 " fill-opacity="1" fill-rule="nonzero"/></g></g></g><g clip-path="url(#4b1bb5c2e1)"><g clip-path="url(#a1ed53de0f)"><g clip-path="url(#ac4eda8e94)"><path fill="#60b9b9" d="M 146.8125 16.03125 L 179.429688 27.992188 L 171.597656 49.351562 L 138.980469 37.386719 Z M 146.8125 16.03125 " fill-opacity="1" fill-rule="nonzero"/></g></g></g><g clip-path="url(#831b98cfe7)"><g clip-path="url(#5c32f38b93)"><g clip-path="url(#e65e5d72bf)"><path fill="#60b9b9" d="M 159.207031 31.691406 L 199.695312 -0.00390625 L 220.449219 26.503906 L 179.960938 58.203125 Z M 159.207031 31.691406 " fill-opacity="1" fill-rule="nonzero"/></g></g></g><g clip-path="url(#c27f563f55)"><g clip-path="url(#2f69e74ada)"><g clip-path="url(#56e398a36e)"><path fill="#60b9b9" d="M 288.171875 5.242188 L 321.441406 45.101562 L 272.394531 86.039062 L 239.125 46.179688 Z M 288.171875 5.242188 " fill-opacity="1" fill-rule="nonzero"/></g></g></g><g clip-path="url(#941bf43df0)"><g clip-path="url(#d4299564ee)"><g clip-path="url(#dea2cf312f)"><path fill="#0c8794" d="M 284.152344 16.355469 L 309.785156 47.066406 L 271.996094 78.609375 L 246.363281 47.898438 Z M 284.152344 16.355469 " fill-opacity="1" fill-rule="nonzero"/></g></g></g><g clip-path="url(#5f45640420)"><g clip-path="url(#dbc49de2b1)"><g clip-path="url(#25bd26a056)"><path fill="#fe9284" d="M 272.40625 38.21875 L 285.917969 54.40625 L 265.996094 71.035156 L 252.484375 54.84375 Z M 272.40625 38.21875 " fill-opacity="1" fill-rule="nonzero"/></g></g></g><g clip-path="url(#cdf9abf708)"><g clip-path="url(#2219d8ea7a)"><g clip-path="url(#5f4dff4636)"><path fill="#60b9b9" d="M 39.167969 40.242188 L 78.488281 6.335938 L 120.207031 54.71875 L 80.886719 88.625 Z M 39.167969 40.242188 " fill-opacity="1" fill-rule="nonzero"/></g></g></g><g clip-path="url(#fb144614e5)"><g clip-path="url(#d9c1f6bee4)"><g clip-path="url(#69e9a267ad)"><path fill="#0c8794" d="M 50.34375 44.078125 L 80.640625 17.957031 L 112.785156 55.234375 L 82.488281 81.355469 Z M 50.34375 44.078125 " fill-opacity="1" fill-rule="nonzero"/></g></g></g><g clip-path="url(#ee2df53ebc)"><g clip-path="url(#527f483177)"><g clip-path="url(#53a059ae1f)"><path fill="#fe9284" d="M 72.394531 55.472656 L 88.367188 41.699219 L 105.3125 61.351562 L 89.339844 75.121094 Z M 72.394531 55.472656 " fill-opacity="1" fill-rule="nonzero"/></g></g></g><g clip-path="url(#f2752e6a6a)"><g clip-path="url(#eb18a5bc62)"><path fill="#0c8794" d="M 192.46875 117.828125 L 257.457031 117.828125 L 257.457031 182.8125 L 192.46875 182.8125 Z M 192.46875 117.828125 " fill-opacity="1" fill-rule="nonzero"/></g></g><g clip-path="url(#b47a9de272)"><g clip-path="url(#cfb6e891a8)"><path fill="#fdfcea" d="M 189.71875 115.089844 L 254.707031 115.089844 L 254.707031 180.074219 L 189.71875 180.074219 Z M 189.71875 115.089844 " fill-opacity="1" fill-rule="nonzero"/></g></g><g clip-path="url(#ac0da39dfe)"><g clip-path="url(#4a422825c2)"><path fill="#25284d" d="M 195.878906 119.601562 L 248.550781 119.601562 L 248.550781 175.5625 L 195.878906 175.5625 Z M 195.878906 119.601562 " fill-opacity="1" fill-rule="nonzero"/></g></g><g clip-path="url(#d3c8730586)"><g clip-path="url(#c3433f3915)"><path fill="#fdfcea" d="M 202.035156 131.226562 L 220.226562 131.226562 L 220.226562 149.417969 L 202.035156 149.417969 Z M 202.035156 131.226562 " fill-opacity="1" fill-rule="nonzero"/></g></g><g clip-path="url(#1e69b84241)"><g clip-path="url(#bff61ab2f5)"><path fill="#fdfcea" d="M 220.226562 147.582031 L 230.769531 147.582031 L 230.769531 158.128906 L 220.226562 158.128906 Z M 220.226562 147.582031 " fill-opacity="1" fill-rule="nonzero"/></g></g><g clip-path="url(#e1a407c20d)"><g clip-path="url(#50a15ff752)"><path fill="#60b9b9" d="M 102.058594 151.21875 L 149.945312 151.21875 L 149.945312 182.8125 L 102.058594 182.8125 Z M 102.058594 151.21875 " fill-opacity="1" fill-rule="nonzero"/></g></g><path stroke-linecap="round" transform="matrix(1.834762, 0.0246415, -0.0246415, 1.834762, 97.433283, 146.635889)" fill="none" stroke-linejoin="miter" d="M 4.919687 11.365099 C 12.410915 0.842926 19.903423 0.878556 27.395053 11.469891 " stroke="#25284d" stroke-width="7" stroke-opacity="1" stroke-miterlimit="4"/><g clip-path="url(#36480557fc)"><g clip-path="url(#7e9f044017)"><path fill="#60b9b9" d="M 198.835938 151.21875 L 246.722656 151.21875 L 246.722656 182.8125 L 198.835938 182.8125 Z M 198.835938 151.21875 " fill-opacity="1" fill-rule="nonzero"/></g></g><path stroke-linecap="round" transform="matrix(1.834762, 0.0246415, -0.0246415, 1.834762, 194.209475, 146.635889)" fill="none" stroke-linejoin="miter" d="M 4.920315 11.365091 C 12.411543 0.842918 19.904051 0.878548 27.395681 11.469882 " stroke="#25284d" stroke-width="7" stroke-opacity="1" stroke-miterlimit="4"/></svg>