<svg xmlns="http://www.w3.org/2000/svg" xmlns:xlink="http://www.w3.org/1999/xlink" width="500" zoomAndPan="magnify" viewBox="0 0 375 374.999991" height="500" preserveAspectRatio="xMidYMid meet" version="1.0"><defs><clipPath id="1b0e4e6133"><path d="M 1 157 L 116 157 L 116 243 L 1 243 Z M 1 157 " clip-rule="nonzero"/></clipPath><clipPath id="b3ae9cb5ea"><path d="M 96.164062 139.878906 L 129.066406 194.175781 L 20.046875 260.238281 L -12.855469 205.941406 Z M 96.164062 139.878906 " clip-rule="nonzero"/></clipPath><clipPath id="4a63a3790d"><path d="M 112.613281 167.027344 C 103.527344 152.03125 71.804688 154.640625 41.753906 172.847656 C 11.703125 191.058594 -5.289062 217.972656 3.796875 232.96875 C 12.882812 247.960938 44.609375 245.355469 74.65625 227.144531 C 104.707031 208.9375 121.699219 182.019531 112.613281 167.027344 Z M 112.613281 167.027344 " clip-rule="nonzero"/></clipPath><clipPath id="6c2b8b6de8"><path d="M 14 179 L 100 179 L 100 243 L 14 243 Z M 14 179 " clip-rule="nonzero"/></clipPath><clipPath id="597a4d9f77"><path d="M 85.15625 166.671875 L 109.570312 206.964844 L 28.671875 255.988281 L 4.253906 215.695312 Z M 85.15625 166.671875 " clip-rule="nonzero"/></clipPath><clipPath id="662cd8a4d8"><path d="M 97.363281 186.816406 C 90.621094 175.691406 67.078125 177.625 44.777344 191.136719 C 22.480469 204.652344 9.867188 224.625 16.613281 235.75 C 23.355469 246.878906 46.898438 244.945312 69.195312 231.429688 C 91.496094 217.917969 104.105469 197.945312 97.363281 186.816406 Z M 97.363281 186.816406 " clip-rule="nonzero"/></clipPath><clipPath id="f7515fa4eb"><path d="M 250 171 L 370 171 L 370 249 L 250 249 Z M 250 171 " clip-rule="nonzero"/></clipPath><clipPath id="119c055963"><path d="M 239.171875 214.292969 L 264.214844 155.953125 L 381.351562 206.238281 L 356.304688 264.578125 Z M 239.171875 214.292969 " clip-rule="nonzero"/></clipPath><clipPath id="7e79612f72"><path d="M 251.695312 185.121094 C 244.777344 201.230469 265.34375 225.527344 297.628906 239.390625 C 329.917969 253.25 361.695312 251.425781 368.613281 235.316406 C 375.527344 219.207031 354.960938 194.910156 322.675781 181.050781 C 290.390625 167.1875 258.609375 169.011719 251.695312 185.121094 Z M 251.695312 185.121094 " clip-rule="nonzero"/></clipPath><clipPath id="79a28ffe39"><path d="M 264 192 L 354 192 L 354 250 L 264 250 Z M 264 192 " clip-rule="nonzero"/></clipPath><clipPath id="292f12a03e"><path d="M 256.097656 224.148438 L 274.683594 180.855469 L 361.609375 218.171875 L 343.023438 261.464844 Z M 256.097656 224.148438 " clip-rule="nonzero"/></clipPath><clipPath id="fae6310e78"><path d="M 265.390625 202.5 C 260.257812 214.457031 275.519531 232.484375 299.480469 242.773438 C 323.441406 253.058594 347.023438 251.703125 352.15625 239.75 C 357.289062 227.792969 342.027344 209.765625 318.066406 199.480469 C 294.109375 189.191406 270.523438 190.546875 265.390625 202.5 Z M 265.390625 202.5 " clip-rule="nonzero"/></clipPath><clipPath id="101e6ed185"><path d="M 53.953125 36.808594 L 300.339844 36.808594 L 300.339844 309 L 53.953125 309 Z M 53.953125 36.808594 " clip-rule="nonzero"/></clipPath><clipPath id="bcc680425d"><path d="M 136.125 43.179688 C 148.71875 39.332031 163.117188 36.808594 177.210938 36.808594 C 191.308594 36.808594 204.871094 38.972656 217.367188 42.820312 C 217.632812 42.941406 217.898438 42.941406 218.164062 43.0625 C 265.101562 58.453125 299.671875 99.097656 300.339844 146.597656 L 300.339844 308.457031 L 53.953125 308.457031 L 53.953125 146.71875 C 54.617188 98.859375 88.65625 58.214844 136.125 43.179688 Z M 136.125 43.179688 " clip-rule="nonzero"/></clipPath><clipPath id="c53b897b98"><path d="M 147.519531 195.753906 L 176.496094 195.753906 L 176.496094 213.867188 L 147.519531 213.867188 Z M 147.519531 195.753906 " clip-rule="nonzero"/></clipPath><clipPath id="c35ca91462"><path d="M 173.003906 196 L 200.167969 196 L 200.167969 213.867188 L 173.003906 213.867188 Z M 173.003906 196 " clip-rule="nonzero"/></clipPath><clipPath id="c951d8a7c8"><path d="M 244.039062 195.839844 L 270.191406 195.839844 L 270.191406 223.628906 L 244.039062 223.628906 Z M 244.039062 195.839844 " clip-rule="nonzero"/></clipPath><clipPath id="6a1bfe5d39"><path d="M 257.113281 195.839844 C 249.890625 195.839844 244.039062 202.0625 244.039062 209.734375 C 244.039062 217.410156 249.890625 223.628906 257.113281 223.628906 C 264.335938 223.628906 270.191406 217.410156 270.191406 209.734375 C 270.191406 202.0625 264.335938 195.839844 257.113281 195.839844 Z M 257.113281 195.839844 " clip-rule="nonzero"/></clipPath><clipPath id="c5e4504ce2"><path d="M 93.527344 120.832031 L 157.667969 120.832031 L 157.667969 184.972656 L 93.527344 184.972656 Z M 93.527344 120.832031 " clip-rule="nonzero"/></clipPath><clipPath id="10989001e4"><path d="M 125.597656 120.832031 C 107.886719 120.832031 93.527344 135.191406 93.527344 152.902344 C 93.527344 170.613281 107.886719 184.972656 125.597656 184.972656 C 143.308594 184.972656 157.667969 170.613281 157.667969 152.902344 C 157.667969 135.191406 143.308594 120.832031 125.597656 120.832031 Z M 125.597656 120.832031 " clip-rule="nonzero"/></clipPath><clipPath id="66a5722bf7"><path d="M 90.816406 118.128906 L 154.953125 118.128906 L 154.953125 182.269531 L 90.816406 182.269531 Z M 90.816406 118.128906 " clip-rule="nonzero"/></clipPath><clipPath id="3590a2f3bb"><path d="M 122.886719 118.128906 C 105.171875 118.128906 90.816406 132.488281 90.816406 150.199219 C 90.816406 167.910156 105.171875 182.269531 122.886719 182.269531 C 140.597656 182.269531 154.953125 167.910156 154.953125 150.199219 C 154.953125 132.488281 140.597656 118.128906 122.886719 118.128906 Z M 122.886719 118.128906 " clip-rule="nonzero"/></clipPath><clipPath id="ffdc2a79ba"><path d="M 96.894531 122.589844 L 148.875 122.589844 L 148.875 177.824219 L 96.894531 177.824219 Z M 96.894531 122.589844 " clip-rule="nonzero"/></clipPath><clipPath id="0c13fabbe0"><path d="M 122.882812 122.589844 C 108.53125 122.589844 96.894531 134.957031 96.894531 150.207031 C 96.894531 165.457031 108.53125 177.824219 122.882812 177.824219 C 137.238281 177.824219 148.875 165.457031 148.875 150.207031 C 148.875 134.957031 137.238281 122.589844 122.882812 122.589844 Z M 122.882812 122.589844 " clip-rule="nonzero"/></clipPath><clipPath id="f77a996a01"><path d="M 102.96875 134.0625 L 120.917969 134.0625 L 120.917969 152.011719 L 102.96875 152.011719 Z M 102.96875 134.0625 " clip-rule="nonzero"/></clipPath><clipPath id="88db036438"><path d="M 111.941406 134.0625 C 106.984375 134.0625 102.96875 138.078125 102.96875 143.039062 C 102.96875 147.996094 106.984375 152.011719 111.941406 152.011719 C 116.902344 152.011719 120.917969 147.996094 120.917969 143.039062 C 120.917969 138.078125 116.902344 134.0625 111.941406 134.0625 Z M 111.941406 134.0625 " clip-rule="nonzero"/></clipPath><clipPath id="74c8ca10b7"><path d="M 120.925781 150.199219 L 131.332031 150.199219 L 131.332031 160.609375 L 120.925781 160.609375 Z M 120.925781 150.199219 " clip-rule="nonzero"/></clipPath><clipPath id="23b1170501"><path d="M 126.128906 150.199219 C 123.253906 150.199219 120.925781 152.53125 120.925781 155.402344 C 120.925781 158.277344 123.253906 160.609375 126.128906 160.609375 C 129.003906 160.609375 131.332031 158.277344 131.332031 155.402344 C 131.332031 152.53125 129.003906 150.199219 126.128906 150.199219 Z M 126.128906 150.199219 " clip-rule="nonzero"/></clipPath><clipPath id="8e856a0ff4"><path d="M 77.742188 233.664062 L 160.554688 233.664062 L 160.554688 369.851562 L 77.742188 369.851562 Z M 77.742188 233.664062 " clip-rule="nonzero"/></clipPath><clipPath id="2e5fec6a2b"><path d="M 77.742188 267.65625 C 77.742188 248.90625 96.28125 233.703125 119.148438 233.703125 C 142.015625 233.703125 160.554688 248.90625 160.554688 267.65625 L 160.554688 335.570312 C 160.554688 354.324219 142.015625 369.527344 119.148438 369.527344 C 96.28125 369.527344 77.742188 354.324219 77.742188 335.570312 Z M 77.742188 267.65625 " clip-rule="nonzero"/></clipPath><clipPath id="3d632bb1ce"><path d="M 92.277344 351.945312 L 103.898438 351.945312 L 103.898438 369.515625 L 92.277344 369.515625 Z M 92.277344 351.945312 " clip-rule="nonzero"/></clipPath><clipPath id="1bb4491679"><path d="M 92.277344 357.773438 C 92.277344 354.566406 94.878906 351.964844 98.085938 351.964844 C 101.296875 351.964844 103.898438 354.566406 103.898438 357.773438 L 103.898438 363.707031 C 103.898438 366.914062 101.296875 369.515625 98.085938 369.515625 C 94.878906 369.515625 92.277344 366.914062 92.277344 363.707031 Z M 92.277344 357.773438 " clip-rule="nonzero"/></clipPath><clipPath id="f4ec05db9c"><path d="M 112.625 355.71875 L 124.246094 355.71875 L 124.246094 373.289062 L 112.625 373.289062 Z M 112.625 355.71875 " clip-rule="nonzero"/></clipPath><clipPath id="da9dc89622"><path d="M 112.625 361.546875 C 112.625 358.339844 115.226562 355.738281 118.4375 355.738281 C 121.644531 355.738281 124.246094 358.339844 124.246094 361.546875 L 124.246094 367.476562 C 124.246094 370.6875 121.644531 373.289062 118.4375 373.289062 C 115.226562 373.289062 112.625 370.6875 112.625 367.476562 Z M 112.625 361.546875 " clip-rule="nonzero"/></clipPath><clipPath id="26202638be"><path d="M 133.300781 351.945312 L 144.925781 351.945312 L 144.925781 369.515625 L 133.300781 369.515625 Z M 133.300781 351.945312 " clip-rule="nonzero"/></clipPath><clipPath id="ae58bd1a2f"><path d="M 133.300781 357.773438 C 133.300781 354.566406 135.902344 351.964844 139.113281 351.964844 C 142.324219 351.964844 144.925781 354.566406 144.925781 357.773438 L 144.925781 363.707031 C 144.925781 366.914062 142.324219 369.515625 139.113281 369.515625 C 135.902344 369.515625 133.300781 366.914062 133.300781 363.707031 Z M 133.300781 357.773438 " clip-rule="nonzero"/></clipPath><clipPath id="7acba921b8"><path d="M 77.730469 195.839844 L 103.886719 195.839844 L 103.886719 223.628906 L 77.730469 223.628906 Z M 77.730469 195.839844 " clip-rule="nonzero"/></clipPath><clipPath id="3aef16a3d0"><path d="M 90.808594 195.839844 C 83.585938 195.839844 77.730469 202.0625 77.730469 209.734375 C 77.730469 217.410156 83.585938 223.628906 90.808594 223.628906 C 98.03125 223.628906 103.886719 217.410156 103.886719 209.734375 C 103.886719 202.0625 98.03125 195.839844 90.808594 195.839844 Z M 90.808594 195.839844 " clip-rule="nonzero"/></clipPath><clipPath id="122d661583"><path d="M 200.195312 233.664062 L 283.003906 233.664062 L 283.003906 369.851562 L 200.195312 369.851562 Z M 200.195312 233.664062 " clip-rule="nonzero"/></clipPath><clipPath id="c051fe17ba"><path d="M 200.195312 267.65625 C 200.195312 248.90625 218.730469 233.703125 241.601562 233.703125 C 264.46875 233.703125 283.003906 248.90625 283.003906 267.65625 L 283.003906 335.570312 C 283.003906 354.324219 264.46875 369.527344 241.601562 369.527344 C 218.730469 369.527344 200.195312 354.324219 200.195312 335.570312 Z M 200.195312 267.65625 " clip-rule="nonzero"/></clipPath><clipPath id="9c41d5b458"><path d="M 214.730469 351.945312 L 226.351562 351.945312 L 226.351562 369.515625 L 214.730469 369.515625 Z M 214.730469 351.945312 " clip-rule="nonzero"/></clipPath><clipPath id="87b362d4b4"><path d="M 214.730469 357.773438 C 214.730469 354.566406 217.332031 351.964844 220.539062 351.964844 C 223.75 351.964844 226.351562 354.566406 226.351562 357.773438 L 226.351562 363.707031 C 226.351562 366.914062 223.75 369.515625 220.539062 369.515625 C 217.332031 369.515625 214.730469 366.914062 214.730469 363.707031 Z M 214.730469 357.773438 " clip-rule="nonzero"/></clipPath><clipPath id="ea474fba86"><path d="M 235.078125 355.71875 L 246.699219 355.71875 L 246.699219 373.289062 L 235.078125 373.289062 Z M 235.078125 355.71875 " clip-rule="nonzero"/></clipPath><clipPath id="b7abb919e3"><path d="M 235.078125 361.546875 C 235.078125 358.339844 237.679688 355.738281 240.886719 355.738281 C 244.097656 355.738281 246.699219 358.339844 246.699219 361.546875 L 246.699219 367.476562 C 246.699219 370.6875 244.097656 373.289062 240.886719 373.289062 C 237.679688 373.289062 235.078125 370.6875 235.078125 367.476562 Z M 235.078125 361.546875 " clip-rule="nonzero"/></clipPath><clipPath id="ce61d4bba1"><path d="M 255.753906 351.945312 L 267.375 351.945312 L 267.375 369.515625 L 255.753906 369.515625 Z M 255.753906 351.945312 " clip-rule="nonzero"/></clipPath><clipPath id="59db82cff1"><path d="M 255.753906 357.773438 C 255.753906 354.566406 258.355469 351.964844 261.566406 351.964844 C 264.773438 351.964844 267.375 354.566406 267.375 357.773438 L 267.375 363.707031 C 267.375 366.914062 264.773438 369.515625 261.566406 369.515625 C 258.355469 369.515625 255.753906 366.914062 255.753906 363.707031 Z M 255.753906 357.773438 " clip-rule="nonzero"/></clipPath><clipPath id="ed73056428"><path d="M 84.464844 246.847656 L 112.699219 246.847656 L 112.699219 320.964844 L 84.464844 320.964844 Z M 84.464844 246.847656 " clip-rule="nonzero"/></clipPath><clipPath id="923418660e"><path d="M 84.464844 270.363281 C 84.464844 257.40625 90.785156 246.90625 98.582031 246.90625 C 106.378906 246.90625 112.699219 257.40625 112.699219 270.363281 L 112.699219 297.503906 C 112.699219 310.460938 106.378906 320.964844 98.582031 320.964844 C 90.785156 320.964844 84.464844 310.460938 84.464844 297.503906 Z M 84.464844 270.363281 " clip-rule="nonzero"/></clipPath><clipPath id="bea59fc6df"><path d="M 82.964844 239.320312 L 114.152344 239.320312 L 114.152344 314.734375 L 82.964844 314.734375 Z M 82.964844 239.320312 " clip-rule="nonzero"/></clipPath><clipPath id="77ee396320"><path d="M 82.964844 265.320312 C 82.964844 251.011719 89.945312 239.410156 98.558594 239.410156 C 107.171875 239.410156 114.152344 251.011719 114.152344 265.320312 L 114.152344 288.820312 C 114.152344 303.132812 107.171875 314.734375 98.558594 314.734375 C 89.945312 314.734375 82.964844 303.132812 82.964844 288.820312 Z M 82.964844 265.320312 " clip-rule="nonzero"/></clipPath><clipPath id="2cd11a5bba"><path d="M 108.296875 225.429688 L 244.308594 225.429688 L 244.308594 301.621094 L 108.296875 301.621094 Z M 108.296875 225.429688 " clip-rule="nonzero"/></clipPath><clipPath id="547d66d529"><path d="M 153.570312 230.007812 C 160.507812 227.242188 168.441406 225.429688 176.207031 225.429688 C 183.972656 225.429688 191.441406 226.984375 198.328125 229.746094 C 198.476562 229.832031 198.621094 229.832031 198.769531 229.917969 C 224.628906 240.972656 243.675781 270.15625 244.039062 301.621094 L 108.296875 301.621094 C 108.664062 269.984375 127.417969 240.796875 153.570312 230.007812 Z M 153.570312 230.007812 " clip-rule="nonzero"/></clipPath><clipPath id="9bef4bbc57"><path d="M 55.4375 263.445312 L 83.675781 263.445312 L 83.675781 331.828125 L 55.4375 331.828125 Z M 55.4375 263.445312 " clip-rule="nonzero"/></clipPath><clipPath id="39e158bb4e"><path d="M 55.4375 286.953125 C 55.4375 273.996094 61.761719 263.496094 69.558594 263.496094 C 77.355469 263.496094 83.675781 273.996094 83.675781 286.953125 L 83.675781 308.371094 C 83.675781 321.324219 77.355469 331.828125 69.558594 331.828125 C 61.761719 331.828125 55.4375 321.324219 55.4375 308.371094 Z M 55.4375 286.953125 " clip-rule="nonzero"/></clipPath><clipPath id="495f48f30e"><path d="M 53.957031 263.496094 L 85.144531 263.496094 L 85.144531 326.113281 L 53.957031 326.113281 Z M 53.957031 263.496094 " clip-rule="nonzero"/></clipPath><clipPath id="a296c83bfb"><path d="M 53.957031 289.433594 C 53.957031 275.125 60.9375 263.523438 69.550781 263.523438 C 78.164062 263.523438 85.144531 275.125 85.144531 289.433594 L 85.144531 300.203125 C 85.144531 314.515625 78.164062 326.113281 69.550781 326.113281 C 60.9375 326.113281 53.957031 314.515625 53.957031 300.203125 Z M 53.957031 289.433594 " clip-rule="nonzero"/></clipPath><clipPath id="7bd18878f6"><path d="M 272.113281 259 L 300.347656 259 L 300.347656 331.828125 L 272.113281 331.828125 Z M 272.113281 259 " clip-rule="nonzero"/></clipPath><clipPath id="561e28d203"><path d="M 272.113281 282.453125 C 272.113281 269.496094 278.433594 258.996094 286.230469 258.996094 C 294.027344 258.996094 300.347656 269.496094 300.347656 282.453125 L 300.347656 308.371094 C 300.347656 321.324219 294.027344 331.828125 286.230469 331.828125 C 278.433594 331.828125 272.113281 321.324219 272.113281 308.371094 Z M 272.113281 282.453125 " clip-rule="nonzero"/></clipPath><clipPath id="f7e06f5d81"><path d="M 270.625 249.707031 L 301.8125 249.707031 L 301.8125 325.726562 L 270.625 325.726562 Z M 270.625 249.707031 " clip-rule="nonzero"/></clipPath><clipPath id="dc30e1fb40"><path d="M 270.625 275.675781 C 270.625 261.363281 277.605469 249.761719 286.21875 249.761719 C 294.832031 249.761719 301.8125 261.363281 301.8125 275.675781 L 301.8125 299.8125 C 301.8125 314.125 294.832031 325.726562 286.21875 325.726562 C 277.605469 325.726562 270.625 314.125 270.625 299.8125 Z M 270.625 275.675781 " clip-rule="nonzero"/></clipPath><clipPath id="e292b11604"><path d="M 110.132812 274.734375 L 138.367188 274.734375 L 138.367188 327.34375 L 110.132812 327.34375 Z M 110.132812 274.734375 " clip-rule="nonzero"/></clipPath><clipPath id="439a9b3760"><path d="M 110.132812 298.214844 C 110.132812 285.261719 116.453125 274.757812 124.25 274.757812 C 132.046875 274.757812 138.367188 285.261719 138.367188 298.214844 L 138.367188 303.882812 C 138.367188 316.839844 132.046875 327.34375 124.25 327.34375 C 116.453125 327.34375 110.132812 316.839844 110.132812 303.882812 Z M 110.132812 298.214844 " clip-rule="nonzero"/></clipPath><clipPath id="b7be08a77f"><path d="M 108.636719 268 L 139.828125 268 L 139.828125 319.835938 L 108.636719 319.835938 Z M 108.636719 268 " clip-rule="nonzero"/></clipPath><clipPath id="86904044da"><path d="M 108.636719 293.925781 C 108.636719 279.613281 115.621094 268.011719 124.230469 268.011719 C 132.84375 268.011719 139.828125 279.613281 139.828125 293.925781 C 139.828125 308.234375 132.84375 319.835938 124.230469 319.835938 C 115.621094 319.835938 108.636719 308.234375 108.636719 293.925781 Z M 108.636719 293.925781 " clip-rule="nonzero"/></clipPath><clipPath id="b0080736ce"><path d="M 160.589844 263.441406 L 200.203125 263.441406 L 200.203125 326.109375 L 160.589844 326.109375 Z M 160.589844 263.441406 " clip-rule="nonzero"/></clipPath><clipPath id="e0ae540e0e"><path d="M 160.589844 289.425781 C 160.589844 275.117188 169.457031 263.515625 180.394531 263.515625 C 191.335938 263.515625 200.203125 275.117188 200.203125 289.425781 L 200.203125 300.195312 C 200.203125 314.507812 191.335938 326.109375 180.394531 326.109375 C 169.457031 326.109375 160.589844 314.507812 160.589844 300.195312 Z M 160.589844 289.425781 " clip-rule="nonzero"/></clipPath><clipPath id="2c8da4c1cd"><path d="M 133.632812 258.945312 L 161.867188 258.945312 L 161.867188 327.328125 L 133.632812 327.328125 Z M 133.632812 258.945312 " clip-rule="nonzero"/></clipPath><clipPath id="d5a964aac5"><path d="M 133.632812 282.453125 C 133.632812 269.496094 139.953125 258.996094 147.75 258.996094 C 155.546875 258.996094 161.867188 269.496094 161.867188 282.453125 L 161.867188 303.871094 C 161.867188 316.824219 155.546875 327.328125 147.75 327.328125 C 139.953125 327.328125 133.632812 316.824219 133.632812 303.871094 Z M 133.632812 282.453125 " clip-rule="nonzero"/></clipPath><clipPath id="2ff317d839"><path d="M 132.144531 252.527344 L 163.332031 252.527344 L 163.332031 321.605469 L 132.144531 321.605469 Z M 132.144531 252.527344 " clip-rule="nonzero"/></clipPath><clipPath id="304b7f5e50"><path d="M 132.144531 278.542969 C 132.144531 264.230469 139.125 252.632812 147.738281 252.632812 C 156.347656 252.632812 163.332031 264.230469 163.332031 278.542969 L 163.332031 295.691406 C 163.332031 310.003906 156.347656 321.605469 147.738281 321.605469 C 139.125 321.605469 132.144531 310.003906 132.144531 295.691406 Z M 132.144531 278.542969 " clip-rule="nonzero"/></clipPath><clipPath id="77d4c95442"><path d="M 243.171875 259 L 273.625 259 L 273.625 331.835938 L 243.171875 331.835938 Z M 243.171875 259 " clip-rule="nonzero"/></clipPath><clipPath id="4d53faeedf"><path d="M 243.171875 282.460938 C 243.171875 269.503906 249.988281 259 258.398438 259 C 266.808594 259 273.625 269.503906 273.625 282.460938 L 273.625 308.375 C 273.625 321.332031 266.808594 331.835938 258.398438 331.835938 C 249.988281 331.835938 243.171875 321.332031 243.171875 308.375 Z M 243.171875 282.460938 " clip-rule="nonzero"/></clipPath><clipPath id="06282773b6"><path d="M 241.601562 252.542969 L 275.238281 252.542969 L 275.238281 325.726562 L 241.601562 325.726562 Z M 241.601562 252.542969 " clip-rule="nonzero"/></clipPath><clipPath id="d9d1ee8884"><path d="M 241.601562 278.546875 C 241.601562 264.234375 249.132812 252.632812 258.417969 252.632812 C 267.707031 252.632812 275.238281 264.234375 275.238281 278.546875 L 275.238281 299.816406 C 275.238281 314.128906 267.707031 325.726562 258.417969 325.726562 C 249.132812 325.726562 241.601562 314.128906 241.601562 299.816406 Z M 241.601562 278.546875 " clip-rule="nonzero"/></clipPath><clipPath id="823b930670"><path d="M 202.15625 280.445312 L 239.640625 280.445312 L 239.640625 333.15625 L 202.15625 333.15625 Z M 202.15625 280.445312 " clip-rule="nonzero"/></clipPath><clipPath id="cc4a0bcb98"><path d="M 202.15625 304.03125 C 202.15625 291.074219 210.546875 280.574219 220.898438 280.574219 C 231.25 280.574219 239.640625 291.074219 239.640625 304.03125 L 239.640625 309.699219 C 239.640625 322.65625 231.25 333.15625 220.898438 333.15625 C 210.546875 333.15625 202.15625 322.65625 202.15625 309.699219 Z M 202.15625 304.03125 " clip-rule="nonzero"/></clipPath><clipPath id="926af209fe"><path d="M 200.183594 273.730469 L 241.589844 273.730469 L 241.589844 325.648438 L 200.183594 325.648438 Z M 200.183594 273.730469 " clip-rule="nonzero"/></clipPath><clipPath id="119895fac3"><path d="M 200.183594 299.738281 C 200.183594 285.425781 209.453125 273.824219 220.886719 273.824219 C 232.320312 273.824219 241.589844 285.425781 241.589844 299.738281 C 241.589844 314.046875 232.320312 325.648438 220.886719 325.648438 C 209.453125 325.648438 200.183594 314.046875 200.183594 299.738281 Z M 200.183594 299.738281 " clip-rule="nonzero"/></clipPath><clipPath id="a446d17550"><path d="M 28 132 L 79 132 L 79 168 L 28 168 Z M 28 132 " clip-rule="nonzero"/></clipPath><clipPath id="a4ce208ed6"><path d="M 33.136719 171.546875 L 24.882812 155.222656 L 70.605469 132.105469 L 78.859375 148.429688 Z M 33.136719 171.546875 " clip-rule="nonzero"/></clipPath><clipPath id="068b15be7f"><path d="M 30.984375 165.800781 C 30.203125 165.148438 29.480469 164.3125 29.007812 163.378906 C 28.535156 162.445312 28.285156 161.445312 28.230469 160.433594 C 28.230469 160.410156 28.222656 160.394531 28.226562 160.371094 C 28.101562 156.527344 30.769531 152.304688 35.664062 149.773438 L 70.578125 132.117188 L 78.832031 148.441406 L 43.945312 166.082031 C 38.957031 168.550781 33.992188 168.230469 30.984375 165.800781 Z M 30.984375 165.800781 " clip-rule="nonzero"/></clipPath><clipPath id="d71d6e5509"><path d="M 33 108 L 84 108 L 84 146 L 33 146 Z M 33 108 " clip-rule="nonzero"/></clipPath><clipPath id="3c0b1843bb"><path d="M 39.585938 149.777344 L 30.375 133.972656 L 74.636719 108.171875 L 83.847656 123.976562 Z M 39.585938 149.777344 " clip-rule="nonzero"/></clipPath><clipPath id="78dadabec8"><path d="M 37.09375 144.167969 C 36.273438 143.5625 35.503906 142.773438 34.976562 141.871094 C 34.449219 140.964844 34.140625 139.980469 34.023438 138.976562 C 34.023438 138.953125 34.015625 138.933594 34.015625 138.910156 C 33.664062 135.082031 36.074219 130.707031 40.808594 127.890625 L 74.613281 108.1875 L 83.824219 123.992188 L 50.046875 143.679688 C 45.214844 146.4375 40.238281 146.414062 37.09375 144.167969 Z M 37.09375 144.167969 " clip-rule="nonzero"/></clipPath><clipPath id="d8775e206e"><path d="M 34 88 L 86 88 L 86 125 L 34 125 Z M 34 88 " clip-rule="nonzero"/></clipPath><clipPath id="5f25c4d394"><path d="M 39.726562 128.125 L 31.28125 111.898438 L 76.722656 88.238281 L 85.171875 104.464844 Z M 39.726562 128.125 " clip-rule="nonzero"/></clipPath><clipPath id="55fb2a4edd"><path d="M 37.507812 122.402344 C 36.714844 121.761719 35.984375 120.9375 35.503906 120.007812 C 35.019531 119.078125 34.757812 118.082031 34.6875 117.070312 C 34.691406 117.046875 34.679688 117.03125 34.683594 117.007812 C 34.511719 113.164062 37.128906 108.910156 41.996094 106.320312 L 76.695312 88.253906 L 85.144531 104.480469 L 50.46875 122.53125 C 45.507812 125.058594 40.539062 124.796875 37.507812 122.402344 Z M 37.507812 122.402344 " clip-rule="nonzero"/></clipPath><clipPath id="17ea62af43"><path d="M 264 92 L 315 92 L 315 129 L 264 129 Z M 264 92 " clip-rule="nonzero"/></clipPath><clipPath id="c8ad970f52"><path d="M 318.253906 115.851562 L 309.90625 132.128906 L 264.320312 108.746094 L 272.671875 92.46875 Z M 318.253906 115.851562 " clip-rule="nonzero"/></clipPath><clipPath id="d7c0d3123d"><path d="M 314.871094 120.972656 C 314.808594 121.992188 314.554688 123.0625 314.078125 123.996094 C 313.601562 124.925781 312.9375 125.71875 312.152344 126.359375 C 312.132812 126.371094 312.125 126.386719 312.105469 126.398438 C 309.070312 128.757812 304.082031 129.085938 299.160156 126.617188 L 264.347656 108.757812 L 272.695312 92.484375 L 307.480469 110.328125 C 312.410156 112.910156 315.070312 117.113281 314.871094 120.972656 Z M 314.871094 120.972656 " clip-rule="nonzero"/></clipPath><clipPath id="9e3be3c360"><path d="M 272 118 L 323 118 L 323 155 L 272 155 Z M 272 118 " clip-rule="nonzero"/></clipPath><clipPath id="cbb4d1f14b"><path d="M 326 142.347656 L 317.652344 158.625 L 272.066406 135.238281 L 280.414062 118.964844 Z M 326 142.347656 " clip-rule="nonzero"/></clipPath><clipPath id="13cbde8672"><path d="M 322.617188 147.46875 C 322.550781 148.484375 322.300781 149.558594 321.824219 150.488281 C 321.347656 151.421875 320.683594 152.210938 319.898438 152.851562 C 319.878906 152.863281 319.871094 152.882812 319.847656 152.894531 C 316.816406 155.253906 311.828125 155.582031 306.902344 153.109375 L 272.09375 135.253906 L 280.441406 118.976562 L 315.226562 136.820312 C 320.15625 139.40625 322.816406 143.609375 322.617188 147.46875 Z M 322.617188 147.46875 " clip-rule="nonzero"/></clipPath><clipPath id="f70217cfc6"><path d="M 275 138 L 326 138 L 326 175 L 275 175 Z M 275 138 " clip-rule="nonzero"/></clipPath><clipPath id="0988d9b946"><path d="M 329.121094 162.171875 L 320.773438 178.445312 L 275.1875 155.0625 L 283.535156 138.785156 Z M 329.121094 162.171875 " clip-rule="nonzero"/></clipPath><clipPath id="8026615d19"><path d="M 325.738281 167.292969 C 325.671875 168.308594 325.421875 169.382812 324.945312 170.3125 C 324.46875 171.242188 323.804688 172.035156 323.019531 172.675781 C 323 172.6875 322.988281 172.707031 322.96875 172.71875 C 319.933594 175.078125 314.949219 175.402344 310.023438 172.933594 L 275.214844 155.078125 L 283.5625 138.800781 L 318.347656 156.644531 C 323.277344 159.226562 325.9375 163.433594 325.738281 167.292969 Z M 325.738281 167.292969 " clip-rule="nonzero"/></clipPath><clipPath id="10742cb306"><path d="M 139 24 L 173 24 L 173 49 L 139 49 Z M 139 24 " clip-rule="nonzero"/></clipPath><clipPath id="e0c9eafd3e"><path d="M 143.976562 20.363281 L 176.167969 32.171875 L 168.4375 53.25 L 136.246094 41.441406 Z M 143.976562 20.363281 " clip-rule="nonzero"/></clipPath><clipPath id="db8b85c330"><path d="M 160.070312 26.269531 C 151.183594 23.007812 142.246094 25.082031 140.109375 30.902344 C 137.976562 36.722656 143.453125 44.085938 152.339844 47.347656 C 161.230469 50.605469 170.167969 48.53125 172.300781 42.710938 C 174.4375 36.890625 168.960938 29.527344 160.070312 26.269531 Z M 160.070312 26.269531 " clip-rule="nonzero"/></clipPath><clipPath id="ad3df40a51"><path d="M 163 12 L 209 12 L 209 54 L 163 54 Z M 163 12 " clip-rule="nonzero"/></clipPath><clipPath id="ee3b8e5e12"><path d="M 156.207031 35.824219 L 196.167969 4.539062 L 216.652344 30.703125 L 176.691406 61.988281 Z M 156.207031 35.824219 " clip-rule="nonzero"/></clipPath><clipPath id="a9cc26bfa3"><path d="M 176.1875 20.183594 C 165.152344 28.820312 160.792969 41.679688 166.449219 48.90625 C 172.105469 56.128906 185.636719 54.984375 196.667969 46.34375 C 207.703125 37.707031 212.0625 24.847656 206.40625 17.621094 C 200.75 10.398438 187.222656 11.542969 176.1875 20.183594 Z M 176.1875 20.183594 " clip-rule="nonzero"/></clipPath><clipPath id="540a104be7"><path d="M 235 20 L 306 20 L 306 90 L 235 90 Z M 235 20 " clip-rule="nonzero"/></clipPath><clipPath id="794d5a55ca"><path d="M 283.488281 9.71875 L 316.324219 49.058594 L 267.761719 89.589844 L 234.925781 50.25 Z M 283.488281 9.71875 " clip-rule="nonzero"/></clipPath><clipPath id="1b4d7c18f8"><path d="M 293.300781 23.789062 C 295.664062 25.226562 298.035156 27.148438 299.914062 29.398438 C 301.792969 31.648438 303.214844 34.136719 304.191406 36.707031 C 304.207031 36.765625 304.242188 36.808594 304.257812 36.867188 C 307.769531 46.652344 305.132812 58.21875 296.753906 65.394531 L 267.902344 89.472656 L 235.066406 50.132812 L 263.894531 26.070312 C 272.515625 19.054688 284.296875 18.445312 293.300781 23.789062 Z M 293.300781 23.789062 " clip-rule="nonzero"/></clipPath><clipPath id="cdc0d05793"><path d="M 242 28 L 297 28 L 297 83 L 242 83 Z M 242 28 " clip-rule="nonzero"/></clipPath><clipPath id="c72dfa04a3"><path d="M 279.523438 20.6875 L 304.824219 51 L 267.40625 82.226562 L 242.109375 51.917969 Z M 279.523438 20.6875 " clip-rule="nonzero"/></clipPath><clipPath id="9a0b3ed473"><path d="M 287.085938 31.527344 C 288.90625 32.636719 290.734375 34.117188 292.179688 35.851562 C 293.625 37.585938 294.722656 39.503906 295.476562 41.480469 C 295.488281 41.527344 295.515625 41.558594 295.527344 41.605469 C 298.230469 49.144531 296.199219 58.058594 289.746094 63.582031 L 267.515625 82.136719 L 242.21875 51.824219 L 264.429688 33.285156 C 271.070312 27.882812 280.148438 27.410156 287.085938 31.527344 Z M 287.085938 31.527344 " clip-rule="nonzero"/></clipPath><clipPath id="f6ebf18ce0"><path d="M 248 46 L 277 46 L 277 75 L 248 75 Z M 248 46 " clip-rule="nonzero"/></clipPath><clipPath id="702514f52e"><path d="M 267.929688 42.265625 L 281.269531 58.242188 L 261.542969 74.707031 L 248.207031 58.726562 Z M 267.929688 42.265625 " clip-rule="nonzero"/></clipPath><clipPath id="c6b472d4ef"><path d="M 271.917969 47.980469 C 272.878906 48.5625 273.839844 49.34375 274.605469 50.257812 C 275.367188 51.171875 275.945312 52.183594 276.34375 53.226562 C 276.347656 53.25 276.363281 53.269531 276.367188 53.292969 C 277.792969 57.265625 276.722656 61.964844 273.320312 64.878906 L 261.601562 74.660156 L 248.265625 58.679688 L 259.972656 48.90625 C 263.476562 46.058594 268.261719 45.808594 271.917969 47.980469 Z M 271.917969 47.980469 " clip-rule="nonzero"/></clipPath><clipPath id="f334778228"><path d="M 48 21 L 118 21 L 118 92 L 48 92 Z M 48 21 " clip-rule="nonzero"/></clipPath><clipPath id="1b07f80051"><path d="M 37.746094 44.25 L 76.554688 10.785156 L 117.863281 58.691406 L 79.054688 92.152344 Z M 37.746094 44.25 " clip-rule="nonzero"/></clipPath><clipPath id="663619bcec"><path d="M 51.65625 34.210938 C 53.058594 31.824219 54.941406 29.421875 57.164062 27.507812 C 59.382812 25.59375 61.847656 24.132812 64.398438 23.113281 C 64.457031 23.097656 64.5 23.058594 64.5625 23.046875 C 74.289062 19.378906 85.894531 21.828125 93.203125 30.089844 L 117.742188 58.550781 L 78.933594 92.011719 L 54.410156 63.574219 C 47.261719 55.070312 46.460938 43.300781 51.65625 34.210938 Z M 51.65625 34.210938 " clip-rule="nonzero"/></clipPath><clipPath id="13e90c56e3"><path d="M 56 30 L 111 30 L 111 85 L 56 85 Z M 56 30 " clip-rule="nonzero"/></clipPath><clipPath id="bcfebf4b26"><path d="M 48.769531 48.050781 L 78.667969 22.265625 L 110.492188 59.175781 L 80.59375 84.957031 Z M 48.769531 48.050781 " clip-rule="nonzero"/></clipPath><clipPath id="567b641d06"><path d="M 59.484375 40.316406 C 60.5625 38.476562 62.015625 36.625 63.726562 35.152344 C 65.4375 33.675781 67.335938 32.550781 69.300781 31.765625 C 69.347656 31.753906 69.378906 31.726562 69.425781 31.714844 C 76.921875 28.886719 85.863281 30.777344 91.492188 37.140625 L 110.402344 59.066406 L 80.5 84.851562 L 61.605469 62.941406 C 56.097656 56.386719 55.480469 47.316406 59.484375 40.316406 Z M 59.484375 40.316406 " clip-rule="nonzero"/></clipPath><clipPath id="62a2ed2e39"><path d="M 74 50 L 104 50 L 104 79 L 74 79 Z M 74 50 " clip-rule="nonzero"/></clipPath><clipPath id="fd167bc65b"><path d="M 70.527344 59.289062 L 86.292969 45.695312 L 103.070312 65.152344 L 87.304688 78.746094 Z M 70.527344 59.289062 " clip-rule="nonzero"/></clipPath><clipPath id="889055aaa2"><path d="M 76.179688 55.210938 C 76.746094 54.242188 77.511719 53.265625 78.414062 52.488281 C 79.316406 51.710938 80.316406 51.117188 81.355469 50.703125 C 81.378906 50.695312 81.394531 50.683594 81.417969 50.675781 C 85.371094 49.1875 90.085938 50.179688 93.050781 53.535156 L 103.019531 65.097656 L 87.257812 78.6875 L 77.296875 67.136719 C 74.390625 63.683594 74.066406 58.902344 76.179688 55.210938 Z M 76.179688 55.210938 " clip-rule="nonzero"/></clipPath><clipPath id="0477f3687e"><path d="M 189.042969 120.832031 L 253.183594 120.832031 L 253.183594 184.972656 L 189.042969 184.972656 Z M 189.042969 120.832031 " clip-rule="nonzero"/></clipPath><clipPath id="e80008430e"><path d="M 221.113281 120.832031 C 203.402344 120.832031 189.042969 135.191406 189.042969 152.902344 C 189.042969 170.613281 203.402344 184.972656 221.113281 184.972656 C 238.824219 184.972656 253.183594 170.613281 253.183594 152.902344 C 253.183594 135.191406 238.824219 120.832031 221.113281 120.832031 Z M 221.113281 120.832031 " clip-rule="nonzero"/></clipPath><clipPath id="16189dd217"><path d="M 186.328125 118.128906 L 250.46875 118.128906 L 250.46875 182.269531 L 186.328125 182.269531 Z M 186.328125 118.128906 " clip-rule="nonzero"/></clipPath><clipPath id="98976a7ebd"><path d="M 218.398438 118.128906 C 200.6875 118.128906 186.328125 132.488281 186.328125 150.199219 C 186.328125 167.910156 200.6875 182.269531 218.398438 182.269531 C 236.109375 182.269531 250.46875 167.910156 250.46875 150.199219 C 250.46875 132.488281 236.109375 118.128906 218.398438 118.128906 Z M 218.398438 118.128906 " clip-rule="nonzero"/></clipPath><clipPath id="007b013d17"><path d="M 192.40625 122.589844 L 244.390625 122.589844 L 244.390625 177.824219 L 192.40625 177.824219 Z M 192.40625 122.589844 " clip-rule="nonzero"/></clipPath><clipPath id="5e98f10c03"><path d="M 218.398438 122.589844 C 204.042969 122.589844 192.40625 134.957031 192.40625 150.207031 C 192.40625 165.457031 204.042969 177.824219 218.398438 177.824219 C 232.753906 177.824219 244.390625 165.457031 244.390625 150.207031 C 244.390625 134.957031 232.753906 122.589844 218.398438 122.589844 Z M 218.398438 122.589844 " clip-rule="nonzero"/></clipPath><clipPath id="c24d5f136a"><path d="M 198.480469 134.0625 L 216.433594 134.0625 L 216.433594 152.011719 L 198.480469 152.011719 Z M 198.480469 134.0625 " clip-rule="nonzero"/></clipPath><clipPath id="a2b160311e"><path d="M 207.457031 134.0625 C 202.5 134.0625 198.480469 138.078125 198.480469 143.039062 C 198.480469 147.996094 202.5 152.011719 207.457031 152.011719 C 212.414062 152.011719 216.433594 147.996094 216.433594 143.039062 C 216.433594 138.078125 212.414062 134.0625 207.457031 134.0625 Z M 207.457031 134.0625 " clip-rule="nonzero"/></clipPath><clipPath id="7671af39cd"><path d="M 216.4375 150.199219 L 226.847656 150.199219 L 226.847656 160.609375 L 216.4375 160.609375 Z M 216.4375 150.199219 " clip-rule="nonzero"/></clipPath><clipPath id="118f904ee4"><path d="M 221.640625 150.199219 C 218.769531 150.199219 216.4375 152.53125 216.4375 155.402344 C 216.4375 158.277344 218.769531 160.609375 221.640625 160.609375 C 224.515625 160.609375 226.847656 158.277344 226.847656 155.402344 C 226.847656 152.53125 224.515625 150.199219 221.640625 150.199219 Z M 221.640625 150.199219 " clip-rule="nonzero"/></clipPath><clipPath id="58d9f9cf6f"><path d="M 95.050781 146.667969 L 152.644531 146.667969 L 152.644531 188.671875 L 95.050781 188.671875 Z M 95.050781 146.667969 " clip-rule="nonzero"/></clipPath><clipPath id="89d865ce5e"><path d="M 114.210938 148.335938 C 117.144531 147.328125 120.5 146.667969 123.789062 146.667969 C 127.074219 146.667969 130.234375 147.234375 133.148438 148.242188 C 133.210938 148.273438 133.273438 148.273438 133.335938 148.304688 C 144.277344 152.335938 152.335938 162.976562 152.492188 174.765625 L 152.492188 188.671875 L 95.050781 188.671875 L 95.050781 174.777344 C 95.207031 162.914062 103.144531 152.273438 114.210938 148.335938 Z M 114.210938 148.335938 " clip-rule="nonzero"/></clipPath><clipPath id="1956f37923"><path d="M 191.035156 150.316406 L 248.625 150.316406 L 248.625 192.320312 L 191.035156 192.320312 Z M 191.035156 150.316406 " clip-rule="nonzero"/></clipPath><clipPath id="39665c86d5"><path d="M 210.191406 151.984375 C 213.125 150.976562 216.484375 150.316406 219.769531 150.316406 C 223.054688 150.316406 226.21875 150.882812 229.132812 151.890625 C 229.195312 151.921875 229.253906 151.921875 229.316406 151.953125 C 240.261719 155.980469 248.320312 166.625 248.472656 178.414062 L 248.472656 192.320312 L 191.035156 192.320312 L 191.035156 178.421875 C 191.1875 166.558594 199.125 155.917969 210.191406 151.984375 Z M 210.191406 151.984375 " clip-rule="nonzero"/></clipPath></defs><g clip-path="url(#1b0e4e6133)"><g clip-path="url(#b3ae9cb5ea)"><g clip-path="url(#4a63a3790d)"><path fill="#60b9b9" d="M 96.164062 139.878906 L 129.066406 194.175781 L 20.257812 260.109375 L -12.644531 205.8125 Z M 96.164062 139.878906 " fill-opacity="1" fill-rule="nonzero"/></g></g></g><g clip-path="url(#6c2b8b6de8)"><g clip-path="url(#597a4d9f77)"><g clip-path="url(#662cd8a4d8)"><path fill="#0c8794" d="M 85.15625 166.671875 L 109.570312 206.964844 L 28.828125 255.894531 L 4.410156 215.601562 Z M 85.15625 166.671875 " fill-opacity="1" fill-rule="nonzero"/></g></g></g><g clip-path="url(#f7515fa4eb)"><g clip-path="url(#119c055963)"><g clip-path="url(#7e79612f72)"><path fill="#60b9b9" d="M 239.171875 214.292969 L 264.214844 155.953125 L 381.125 206.140625 L 356.078125 264.480469 Z M 239.171875 214.292969 " fill-opacity="1" fill-rule="nonzero"/></g></g></g><g clip-path="url(#79a28ffe39)"><g clip-path="url(#292f12a03e)"><g clip-path="url(#fae6310e78)"><path fill="#0c8794" d="M 256.097656 224.148438 L 274.683594 180.855469 L 361.441406 218.101562 L 342.855469 261.394531 Z M 256.097656 224.148438 " fill-opacity="1" fill-rule="nonzero"/></g></g></g><g clip-path="url(#101e6ed185)"><g clip-path="url(#bcc680425d)"><path fill="#60b9b9" d="M 53.953125 36.808594 L 300.339844 36.808594 L 300.339844 308.214844 L 53.953125 308.214844 Z M 53.953125 36.808594 " fill-opacity="1" fill-rule="nonzero"/></g></g><g clip-path="url(#c53b897b98)"><path fill="#25284d" d="M 173.203125 198.070312 C 173.265625 198.820312 173.234375 199.574219 173.136719 200.316406 C 173.15625 200.171875 173.175781 200.027344 173.191406 199.882812 C 173.039062 201.023438 172.726562 202.132812 172.28125 203.191406 C 172.335938 203.0625 172.390625 202.933594 172.445312 202.804688 C 172.046875 203.75 171.539062 204.652344 170.914062 205.464844 C 170.996094 205.355469 171.082031 205.246094 171.167969 205.136719 C 170.378906 206.15625 169.449219 207.0625 168.429688 207.851562 C 168.539062 207.765625 168.648438 207.679688 168.757812 207.597656 C 167.925781 208.238281 167.03125 208.796875 166.085938 209.261719 C 165.820312 209.394531 165.546875 209.519531 165.273438 209.632812 C 165.402344 209.578125 165.53125 209.523438 165.660156 209.46875 C 164.761719 209.847656 163.832031 210.140625 162.875 210.332031 C 162.605469 210.382812 162.332031 210.429688 162.058594 210.464844 C 162.203125 210.445312 162.347656 210.425781 162.492188 210.40625 C 161.453125 210.546875 160.398438 210.558594 159.359375 210.417969 C 159.503906 210.4375 159.648438 210.457031 159.792969 210.476562 C 158.890625 210.355469 158.003906 210.117188 157.164062 209.765625 C 157.292969 209.820312 157.421875 209.875 157.554688 209.929688 C 156.769531 209.597656 156.03125 209.167969 155.355469 208.648438 C 155.464844 208.734375 155.574219 208.816406 155.683594 208.902344 C 154.953125 208.335938 154.300781 207.671875 153.734375 206.941406 C 153.820312 207.050781 153.902344 207.160156 153.988281 207.269531 C 153.382812 206.484375 152.839844 205.617188 152.453125 204.703125 C 152.507812 204.832031 152.5625 204.960938 152.617188 205.089844 C 152.300781 204.335938 152.085938 203.539062 151.886719 202.746094 C 151.660156 201.824219 151.464844 200.890625 151.300781 199.953125 C 151.21875 199.484375 151.144531 199.019531 151.082031 198.546875 C 151.101562 198.691406 151.121094 198.835938 151.140625 198.980469 C 151.074219 198.492188 150.996094 197.984375 151.015625 197.492188 C 151.03125 197.082031 150.824219 196.625 150.539062 196.339844 C 150.257812 196.058594 149.792969 195.84375 149.390625 195.863281 C 148.96875 195.882812 148.53125 196.019531 148.238281 196.339844 C 147.941406 196.664062 147.777344 197.046875 147.761719 197.492188 C 147.746094 197.917969 147.804688 198.351562 147.859375 198.777344 C 147.960938 199.574219 148.082031 200.371094 148.226562 201.160156 C 148.488281 202.574219 148.789062 204 149.257812 205.363281 C 149.800781 206.949219 150.695312 208.390625 151.777344 209.664062 C 152.234375 210.199219 152.742188 210.695312 153.292969 211.128906 C 153.917969 211.625 154.5625 212.078125 155.273438 212.441406 C 155.960938 212.792969 156.6875 213.089844 157.433594 213.300781 C 158.179688 213.515625 158.949219 213.636719 159.71875 213.714844 C 161.144531 213.855469 162.597656 213.71875 163.992188 213.414062 C 165.417969 213.105469 166.804688 212.5625 168.097656 211.882812 C 169.417969 211.191406 170.644531 210.300781 171.746094 209.296875 C 172.996094 208.152344 174.101562 206.796875 174.871094 205.277344 C 175.816406 203.417969 176.394531 201.367188 176.480469 199.277344 C 176.496094 198.875 176.492188 198.472656 176.457031 198.070312 C 176.464844 197.847656 176.417969 197.636719 176.316406 197.445312 C 176.25 197.242188 176.136719 197.066406 175.980469 196.921875 C 175.699219 196.636719 175.234375 196.425781 174.828125 196.445312 C 174.410156 196.460938 173.972656 196.601562 173.679688 196.921875 C 173.402344 197.222656 173.167969 197.644531 173.203125 198.070312 Z M 173.203125 198.070312 " fill-opacity="1" fill-rule="nonzero"/></g><g clip-path="url(#c35ca91462)"><path fill="#25284d" d="M 196.996094 198.644531 C 197.058594 199.367188 197.027344 200.089844 196.929688 200.808594 C 196.949219 200.667969 196.96875 200.53125 196.988281 200.390625 C 196.835938 201.488281 196.539062 202.558594 196.109375 203.578125 C 196.164062 203.457031 196.214844 203.332031 196.269531 203.207031 C 195.882812 204.117188 195.394531 204.984375 194.789062 205.769531 C 194.871094 205.664062 194.953125 205.558594 195.035156 205.453125 C 194.273438 206.433594 193.378906 207.308594 192.394531 208.070312 C 192.503906 207.988281 192.609375 207.90625 192.714844 207.824219 C 191.910156 208.441406 191.046875 208.980469 190.140625 209.429688 C 189.882812 209.554688 189.621094 209.675781 189.355469 209.785156 C 189.480469 209.734375 189.605469 209.683594 189.730469 209.628906 C 188.863281 209.992188 187.964844 210.277344 187.042969 210.457031 C 186.785156 210.507812 186.523438 210.550781 186.257812 210.589844 C 186.398438 210.570312 186.535156 210.550781 186.675781 210.53125 C 185.675781 210.664062 184.660156 210.675781 183.65625 210.542969 C 183.796875 210.5625 183.933594 210.582031 184.074219 210.597656 C 183.203125 210.480469 182.351562 210.253906 181.542969 209.914062 C 181.667969 209.96875 181.792969 210.019531 181.917969 210.070312 C 181.160156 209.753906 180.449219 209.335938 179.800781 208.835938 C 179.90625 208.917969 180.011719 209 180.117188 209.082031 C 179.410156 208.535156 178.78125 207.898438 178.238281 207.191406 C 178.320312 207.296875 178.398438 207.402344 178.480469 207.507812 C 177.898438 206.753906 177.375 205.917969 177 205.035156 C 177.054688 205.160156 177.105469 205.285156 177.160156 205.410156 C 176.855469 204.683594 176.648438 203.914062 176.457031 203.152344 C 176.238281 202.261719 176.050781 201.363281 175.894531 200.457031 C 175.8125 200.007812 175.742188 199.558594 175.679688 199.105469 C 175.699219 199.242188 175.71875 199.382812 175.738281 199.519531 C 175.671875 199.050781 175.601562 198.5625 175.617188 198.085938 C 175.632812 197.691406 175.433594 197.25 175.15625 196.976562 C 174.886719 196.707031 174.441406 196.5 174.050781 196.519531 C 173.644531 196.535156 173.222656 196.667969 172.941406 196.976562 C 172.652344 197.289062 172.5 197.65625 172.480469 198.085938 C 172.46875 198.496094 172.523438 198.917969 172.578125 199.324219 C 172.671875 200.09375 172.789062 200.859375 172.929688 201.621094 C 173.179688 202.984375 173.472656 204.359375 173.921875 205.671875 C 174.445312 207.199219 175.308594 208.589844 176.351562 209.816406 C 176.792969 210.332031 177.277344 210.808594 177.8125 211.226562 C 178.414062 211.703125 179.03125 212.144531 179.71875 212.492188 C 180.382812 212.828125 181.082031 213.113281 181.800781 213.320312 C 182.519531 213.527344 183.261719 213.640625 184.003906 213.71875 C 185.375 213.855469 186.777344 213.722656 188.121094 213.429688 C 189.496094 213.128906 190.832031 212.609375 192.078125 211.953125 C 193.347656 211.285156 194.53125 210.429688 195.589844 209.460938 C 196.796875 208.359375 197.863281 207.050781 198.601562 205.589844 C 199.511719 203.796875 200.070312 201.820312 200.15625 199.808594 C 200.171875 199.421875 200.164062 199.03125 200.132812 198.644531 C 200.140625 198.429688 200.09375 198.226562 199.996094 198.039062 C 199.933594 197.847656 199.824219 197.675781 199.671875 197.535156 C 199.402344 197.265625 198.953125 197.058594 198.5625 197.078125 C 198.15625 197.09375 197.738281 197.226562 197.457031 197.535156 C 197.1875 197.828125 196.960938 198.234375 196.996094 198.644531 Z M 196.996094 198.644531 " fill-opacity="1" fill-rule="nonzero"/></g><g clip-path="url(#c951d8a7c8)"><g clip-path="url(#6a1bfe5d39)"><path fill="#fe9284" d="M 244.039062 195.839844 L 270.191406 195.839844 L 270.191406 223.628906 L 244.039062 223.628906 Z M 244.039062 195.839844 " fill-opacity="1" fill-rule="nonzero"/></g></g><g clip-path="url(#c5e4504ce2)"><g clip-path="url(#10989001e4)"><path fill="#0c8794" d="M 93.527344 120.832031 L 157.667969 120.832031 L 157.667969 184.972656 L 93.527344 184.972656 Z M 93.527344 120.832031 " fill-opacity="1" fill-rule="nonzero"/></g></g><g clip-path="url(#66a5722bf7)"><g clip-path="url(#3590a2f3bb)"><path fill="#fdfcea" d="M 90.816406 118.128906 L 154.953125 118.128906 L 154.953125 182.269531 L 90.816406 182.269531 Z M 90.816406 118.128906 " fill-opacity="1" fill-rule="nonzero"/></g></g><g clip-path="url(#ffdc2a79ba)"><g clip-path="url(#0c13fabbe0)"><path fill="#25284d" d="M 96.894531 122.589844 L 148.875 122.589844 L 148.875 177.824219 L 96.894531 177.824219 Z M 96.894531 122.589844 " fill-opacity="1" fill-rule="nonzero"/></g></g><g clip-path="url(#f77a996a01)"><g clip-path="url(#88db036438)"><path fill="#fdfcea" d="M 102.96875 134.0625 L 120.917969 134.0625 L 120.917969 152.011719 L 102.96875 152.011719 Z M 102.96875 134.0625 " fill-opacity="1" fill-rule="nonzero"/></g></g><g clip-path="url(#74c8ca10b7)"><g clip-path="url(#23b1170501)"><path fill="#fdfcea" d="M 120.925781 150.199219 L 131.332031 150.199219 L 131.332031 160.609375 L 120.925781 160.609375 Z M 120.925781 150.199219 " fill-opacity="1" fill-rule="nonzero"/></g></g><g clip-path="url(#8e856a0ff4)"><g clip-path="url(#2e5fec6a2b)"><path fill="#60b9b9" d="M 77.742188 369.527344 L 77.742188 233.664062 L 160.554688 233.664062 L 160.554688 369.527344 Z M 77.742188 369.527344 " fill-opacity="1" fill-rule="nonzero"/></g></g><g clip-path="url(#3d632bb1ce)"><g clip-path="url(#1bb4491679)"><path fill="#25284d" d="M 92.277344 369.515625 L 92.277344 351.945312 L 103.898438 351.945312 L 103.898438 369.515625 Z M 92.277344 369.515625 " fill-opacity="1" fill-rule="nonzero"/></g></g><g clip-path="url(#f4ec05db9c)"><g clip-path="url(#da9dc89622)"><path fill="#25284d" d="M 112.625 373.289062 L 112.625 355.71875 L 124.246094 355.71875 L 124.246094 373.289062 Z M 112.625 373.289062 " fill-opacity="1" fill-rule="nonzero"/></g></g><g clip-path="url(#26202638be)"><g clip-path="url(#ae58bd1a2f)"><path fill="#25284d" d="M 133.300781 369.515625 L 133.300781 351.945312 L 144.925781 351.945312 L 144.925781 369.515625 Z M 133.300781 369.515625 " fill-opacity="1" fill-rule="nonzero"/></g></g><g clip-path="url(#7acba921b8)"><g clip-path="url(#3aef16a3d0)"><path fill="#fe9284" d="M 77.730469 195.839844 L 103.886719 195.839844 L 103.886719 223.628906 L 77.730469 223.628906 Z M 77.730469 195.839844 " fill-opacity="1" fill-rule="nonzero"/></g></g><g clip-path="url(#122d661583)"><g clip-path="url(#c051fe17ba)"><path fill="#60b9b9" d="M 200.195312 369.527344 L 200.195312 233.664062 L 283.003906 233.664062 L 283.003906 369.527344 Z M 200.195312 369.527344 " fill-opacity="1" fill-rule="nonzero"/></g></g><g clip-path="url(#9c41d5b458)"><g clip-path="url(#87b362d4b4)"><path fill="#25284d" d="M 214.730469 369.515625 L 214.730469 351.945312 L 226.351562 351.945312 L 226.351562 369.515625 Z M 214.730469 369.515625 " fill-opacity="1" fill-rule="nonzero"/></g></g><g clip-path="url(#ea474fba86)"><g clip-path="url(#b7abb919e3)"><path fill="#25284d" d="M 235.078125 373.289062 L 235.078125 355.71875 L 246.699219 355.71875 L 246.699219 373.289062 Z M 235.078125 373.289062 " fill-opacity="1" fill-rule="nonzero"/></g></g><g clip-path="url(#ce61d4bba1)"><g clip-path="url(#59db82cff1)"><path fill="#25284d" d="M 255.753906 369.515625 L 255.753906 351.945312 L 267.375 351.945312 L 267.375 369.515625 Z M 255.753906 369.515625 " fill-opacity="1" fill-rule="nonzero"/></g></g><g clip-path="url(#ed73056428)"><g clip-path="url(#923418660e)"><path fill="#0c8794" d="M 84.464844 320.964844 L 84.464844 246.957031 L 112.699219 246.957031 L 112.699219 320.964844 Z M 84.464844 320.964844 " fill-opacity="1" fill-rule="nonzero"/></g></g><g clip-path="url(#bea59fc6df)"><g clip-path="url(#77ee396320)"><path fill="#60b9b9" d="M 82.964844 314.734375 L 82.964844 239.445312 L 114.152344 239.445312 L 114.152344 314.734375 Z M 82.964844 314.734375 " fill-opacity="1" fill-rule="nonzero"/></g></g><g clip-path="url(#2cd11a5bba)"><g clip-path="url(#547d66d529)"><path fill="#c1efe3" d="M 108.296875 225.429688 L 244.011719 225.429688 L 244.011719 301.621094 L 108.296875 301.621094 Z M 108.296875 225.429688 " fill-opacity="1" fill-rule="nonzero"/></g></g><g clip-path="url(#9bef4bbc57)"><g clip-path="url(#39e158bb4e)"><path fill="#0c8794" d="M 55.4375 331.828125 L 55.4375 263.445312 L 83.675781 263.445312 L 83.675781 331.828125 Z M 55.4375 331.828125 " fill-opacity="1" fill-rule="nonzero"/></g></g><g clip-path="url(#495f48f30e)"><g clip-path="url(#a296c83bfb)"><path fill="#60b9b9" d="M 53.957031 326.113281 L 53.957031 263.496094 L 85.144531 263.496094 L 85.144531 326.113281 Z M 53.957031 326.113281 " fill-opacity="1" fill-rule="nonzero"/></g></g><g clip-path="url(#7bd18878f6)"><g clip-path="url(#561e28d203)"><path fill="#0c8794" d="M 272.113281 331.828125 L 272.113281 259.035156 L 300.347656 259.035156 L 300.347656 331.828125 Z M 272.113281 331.828125 " fill-opacity="1" fill-rule="nonzero"/></g></g><g clip-path="url(#f7e06f5d81)"><g clip-path="url(#dc30e1fb40)"><path fill="#60b9b9" d="M 270.625 325.726562 L 270.625 249.707031 L 301.8125 249.707031 L 301.8125 325.726562 Z M 270.625 325.726562 " fill-opacity="1" fill-rule="nonzero"/></g></g><g clip-path="url(#e292b11604)"><g clip-path="url(#439a9b3760)"><path fill="#0c8794" d="M 110.132812 327.34375 L 110.132812 274.734375 L 138.367188 274.734375 L 138.367188 327.34375 Z M 110.132812 327.34375 " fill-opacity="1" fill-rule="nonzero"/></g></g><g clip-path="url(#b7be08a77f)"><g clip-path="url(#86904044da)"><path fill="#c1efe3" d="M 108.636719 319.835938 L 108.636719 268.058594 L 139.828125 268.058594 L 139.828125 319.835938 Z M 108.636719 319.835938 " fill-opacity="1" fill-rule="nonzero"/></g></g><g clip-path="url(#b0080736ce)"><g clip-path="url(#e0ae540e0e)"><path fill="#c1efe3" d="M 160.589844 326.109375 L 160.589844 263.441406 L 200.203125 263.441406 L 200.203125 326.109375 Z M 160.589844 326.109375 " fill-opacity="1" fill-rule="nonzero"/></g></g><g clip-path="url(#2c8da4c1cd)"><g clip-path="url(#d5a964aac5)"><path fill="#0c8794" d="M 133.632812 327.328125 L 133.632812 258.945312 L 161.867188 258.945312 L 161.867188 327.328125 Z M 133.632812 327.328125 " fill-opacity="1" fill-rule="nonzero"/></g></g><g clip-path="url(#2ff317d839)"><g clip-path="url(#304b7f5e50)"><path fill="#c1efe3" d="M 132.144531 321.605469 L 132.144531 252.648438 L 163.332031 252.648438 L 163.332031 321.605469 Z M 132.144531 321.605469 " fill-opacity="1" fill-rule="nonzero"/></g></g><g clip-path="url(#77d4c95442)"><g clip-path="url(#4d53faeedf)"><path fill="#0c8794" d="M 243.171875 331.835938 L 243.171875 259.035156 L 273.625 259.035156 L 273.625 331.835938 Z M 243.171875 331.835938 " fill-opacity="1" fill-rule="nonzero"/></g></g><g clip-path="url(#06282773b6)"><g clip-path="url(#d9d1ee8884)"><path fill="#60b9b9" d="M 241.601562 325.726562 L 241.601562 252.675781 L 275.238281 252.675781 L 275.238281 325.726562 Z M 241.601562 325.726562 " fill-opacity="1" fill-rule="nonzero"/></g></g><g clip-path="url(#823b930670)"><g clip-path="url(#cc4a0bcb98)"><path fill="#0c8794" d="M 202.15625 333.15625 L 202.15625 280.589844 L 239.640625 280.589844 L 239.640625 333.15625 Z M 202.15625 333.15625 " fill-opacity="1" fill-rule="nonzero"/></g></g><g clip-path="url(#926af209fe)"><g clip-path="url(#119895fac3)"><path fill="#c1efe3" d="M 200.183594 325.648438 L 200.183594 273.890625 L 241.589844 273.890625 L 241.589844 325.648438 Z M 200.183594 325.648438 " fill-opacity="1" fill-rule="nonzero"/></g></g><g clip-path="url(#a446d17550)"><g clip-path="url(#a4ce208ed6)"><g clip-path="url(#068b15be7f)"><path fill="#60b9b9" d="M 33.136719 171.546875 L 24.882812 155.222656 L 70.605469 132.105469 L 78.859375 148.429688 Z M 33.136719 171.546875 " fill-opacity="1" fill-rule="nonzero"/></g></g></g><g clip-path="url(#d71d6e5509)"><g clip-path="url(#3c0b1843bb)"><g clip-path="url(#78dadabec8)"><path fill="#60b9b9" d="M 39.585938 149.777344 L 30.375 133.972656 L 74.636719 108.171875 L 83.847656 123.976562 Z M 39.585938 149.777344 " fill-opacity="1" fill-rule="nonzero"/></g></g></g><g clip-path="url(#d8775e206e)"><g clip-path="url(#5f25c4d394)"><g clip-path="url(#55fb2a4edd)"><path fill="#60b9b9" d="M 39.726562 128.125 L 31.28125 111.898438 L 76.722656 88.238281 L 85.171875 104.464844 Z M 39.726562 128.125 " fill-opacity="1" fill-rule="nonzero"/></g></g></g><g clip-path="url(#17ea62af43)"><g clip-path="url(#c8ad970f52)"><g clip-path="url(#d7c0d3123d)"><path fill="#60b9b9" d="M 318.253906 115.851562 L 309.90625 132.128906 L 264.320312 108.746094 L 272.667969 92.46875 Z M 318.253906 115.851562 " fill-opacity="1" fill-rule="nonzero"/></g></g></g><g clip-path="url(#9e3be3c360)"><g clip-path="url(#cbb4d1f14b)"><g clip-path="url(#13cbde8672)"><path fill="#60b9b9" d="M 326 142.347656 L 317.652344 158.625 L 272.066406 135.238281 L 280.414062 118.964844 Z M 326 142.347656 " fill-opacity="1" fill-rule="nonzero"/></g></g></g><g clip-path="url(#f70217cfc6)"><g clip-path="url(#0988d9b946)"><g clip-path="url(#8026615d19)"><path fill="#60b9b9" d="M 329.121094 162.171875 L 320.773438 178.445312 L 275.1875 155.0625 L 283.535156 138.785156 Z M 329.121094 162.171875 " fill-opacity="1" fill-rule="nonzero"/></g></g></g><g clip-path="url(#10742cb306)"><g clip-path="url(#e0c9eafd3e)"><g clip-path="url(#db8b85c330)"><path fill="#60b9b9" d="M 143.976562 20.363281 L 176.167969 32.171875 L 168.4375 53.25 L 136.246094 41.441406 Z M 143.976562 20.363281 " fill-opacity="1" fill-rule="nonzero"/></g></g></g><g clip-path="url(#ad3df40a51)"><g clip-path="url(#ee3b8e5e12)"><g clip-path="url(#a9cc26bfa3)"><path fill="#60b9b9" d="M 156.207031 35.824219 L 196.167969 4.539062 L 216.652344 30.703125 L 176.691406 61.988281 Z M 156.207031 35.824219 " fill-opacity="1" fill-rule="nonzero"/></g></g></g><g clip-path="url(#540a104be7)"><g clip-path="url(#794d5a55ca)"><g clip-path="url(#1b4d7c18f8)"><path fill="#60b9b9" d="M 283.488281 9.71875 L 316.324219 49.058594 L 267.914062 89.464844 L 235.078125 50.121094 Z M 283.488281 9.71875 " fill-opacity="1" fill-rule="nonzero"/></g></g></g><g clip-path="url(#cdc0d05793)"><g clip-path="url(#c72dfa04a3)"><g clip-path="url(#9a0b3ed473)"><path fill="#0c8794" d="M 279.523438 20.6875 L 304.824219 51 L 267.527344 82.128906 L 242.226562 51.816406 Z M 279.523438 20.6875 " fill-opacity="1" fill-rule="nonzero"/></g></g></g><g clip-path="url(#f6ebf18ce0)"><g clip-path="url(#702514f52e)"><g clip-path="url(#c6b472d4ef)"><path fill="#fe9284" d="M 267.929688 42.265625 L 281.269531 58.242188 L 261.605469 74.65625 L 248.269531 58.675781 Z M 267.929688 42.265625 " fill-opacity="1" fill-rule="nonzero"/></g></g></g><g clip-path="url(#f334778228)"><g clip-path="url(#1b07f80051)"><g clip-path="url(#663619bcec)"><path fill="#60b9b9" d="M 37.746094 44.25 L 76.554688 10.785156 L 117.730469 58.539062 L 78.925781 92 Z M 37.746094 44.25 " fill-opacity="1" fill-rule="nonzero"/></g></g></g><g clip-path="url(#13e90c56e3)"><g clip-path="url(#bcfebf4b26)"><g clip-path="url(#567b641d06)"><path fill="#0c8794" d="M 48.769531 48.050781 L 78.667969 22.265625 L 110.394531 59.058594 L 80.492188 84.839844 Z M 48.769531 48.050781 " fill-opacity="1" fill-rule="nonzero"/></g></g></g><g clip-path="url(#62a2ed2e39)"><g clip-path="url(#fd167bc65b)"><g clip-path="url(#889055aaa2)"><path fill="#fe9284" d="M 70.527344 59.289062 L 86.292969 45.695312 L 103.015625 65.089844 L 87.253906 78.683594 Z M 70.527344 59.289062 " fill-opacity="1" fill-rule="nonzero"/></g></g></g><g clip-path="url(#0477f3687e)"><g clip-path="url(#e80008430e)"><path fill="#0c8794" d="M 189.042969 120.832031 L 253.183594 120.832031 L 253.183594 184.972656 L 189.042969 184.972656 Z M 189.042969 120.832031 " fill-opacity="1" fill-rule="nonzero"/></g></g><g clip-path="url(#16189dd217)"><g clip-path="url(#98976a7ebd)"><path fill="#fdfcea" d="M 186.328125 118.128906 L 250.46875 118.128906 L 250.46875 182.269531 L 186.328125 182.269531 Z M 186.328125 118.128906 " fill-opacity="1" fill-rule="nonzero"/></g></g><g clip-path="url(#007b013d17)"><g clip-path="url(#5e98f10c03)"><path fill="#25284d" d="M 192.40625 122.589844 L 244.390625 122.589844 L 244.390625 177.824219 L 192.40625 177.824219 Z M 192.40625 122.589844 " fill-opacity="1" fill-rule="nonzero"/></g></g><g clip-path="url(#c24d5f136a)"><g clip-path="url(#a2b160311e)"><path fill="#fdfcea" d="M 198.480469 134.0625 L 216.433594 134.0625 L 216.433594 152.011719 L 198.480469 152.011719 Z M 198.480469 134.0625 " fill-opacity="1" fill-rule="nonzero"/></g></g><g clip-path="url(#7671af39cd)"><g clip-path="url(#118f904ee4)"><path fill="#fdfcea" d="M 216.4375 150.199219 L 226.847656 150.199219 L 226.847656 160.609375 L 216.4375 160.609375 Z M 216.4375 150.199219 " fill-opacity="1" fill-rule="nonzero"/></g></g><g clip-path="url(#58d9f9cf6f)"><g clip-path="url(#89d865ce5e)"><path fill="#60b9b9" d="M 95.050781 146.667969 L 152.480469 146.667969 L 152.480469 188.671875 L 95.050781 188.671875 Z M 95.050781 146.667969 " fill-opacity="1" fill-rule="nonzero"/></g></g><path stroke-linecap="round" transform="matrix(1.809003, 0.0848943, -0.0848943, 1.809003, 93.785485, 138.805772)" fill="none" stroke-linejoin="miter" d="M 4.838888 13.205565 C 12.966484 0.226564 21.093938 0.266223 29.220945 13.31808 " stroke="#25284d" stroke-width="7" stroke-opacity="1" stroke-miterlimit="4"/><g clip-path="url(#1956f37923)"><g clip-path="url(#39665c86d5)"><path fill="#60b9b9" d="M 191.035156 150.316406 L 248.460938 150.316406 L 248.460938 192.320312 L 191.035156 192.320312 Z M 191.035156 150.316406 " fill-opacity="1" fill-rule="nonzero"/></g></g><path stroke-linecap="round" transform="matrix(1.809003, 0.0848943, -0.0848943, 1.809003, 189.76757, 142.452413)" fill="none" stroke-linejoin="miter" d="M 4.837942 13.204443 C 12.965639 0.227596 21.092992 0.265101 29.222154 13.316857 " stroke="#25284d" stroke-width="7" stroke-opacity="1" stroke-miterlimit="4"/></svg>