<svg xmlns="http://www.w3.org/2000/svg" xmlns:xlink="http://www.w3.org/1999/xlink" width="500" zoomAndPan="magnify" viewBox="0 0 375 374.999991" height="500" preserveAspectRatio="xMidYMid meet" version="1.0"><defs><clipPath id="950d5b5fa8"><path d="M 7 162 L 130 162 L 130 225 L 7 225 Z M 7 162 " clip-rule="nonzero"/></clipPath><clipPath id="c54c2a7268"><path d="M 125.8125 155.441406 L 133.375 216.125 L 11.535156 231.304688 L 3.972656 170.621094 Z M 125.8125 155.441406 " clip-rule="nonzero"/></clipPath><clipPath id="bac2239b10"><path d="M 129.59375 185.785156 C 127.507812 169.027344 98.589844 158.835938 65.007812 163.019531 C 31.425781 167.203125 5.890625 184.175781 7.980469 200.933594 C 10.066406 217.691406 38.984375 227.882812 72.566406 223.699219 C 106.148438 219.515625 131.679688 202.542969 129.59375 185.785156 Z M 129.59375 185.785156 " clip-rule="nonzero"/></clipPath><clipPath id="7a94802aaf"><path d="M 18 179 L 109 179 L 109 227 L 18 227 Z M 18 179 " clip-rule="nonzero"/></clipPath><clipPath id="a5d04e661d"><path d="M 105.59375 174.664062 L 111.203125 219.699219 L 20.789062 230.960938 L 15.179688 185.929688 Z M 105.59375 174.664062 " clip-rule="nonzero"/></clipPath><clipPath id="536b8ff5c5"><path d="M 108.398438 197.179688 C 106.847656 184.746094 85.390625 177.183594 60.46875 180.289062 C 35.546875 183.390625 16.601562 195.988281 18.148438 208.425781 C 19.699219 220.859375 41.15625 228.421875 66.078125 225.320312 C 91 222.214844 109.945312 209.617188 108.398438 197.179688 Z M 108.398438 197.179688 " clip-rule="nonzero"/></clipPath><clipPath id="e0943bf410"><path d="M 251 168 L 374 168 L 374 230 L 251 230 Z M 251 168 " clip-rule="nonzero"/></clipPath><clipPath id="c098f2fb63"><path d="M 252.140625 230.980469 L 250.425781 169.855469 L 373.160156 166.414062 L 374.871094 227.542969 Z M 252.140625 230.980469 " clip-rule="nonzero"/></clipPath><clipPath id="23cb3a3706"><path d="M 251.28125 200.417969 C 251.757812 217.296875 279.5625 230.214844 313.394531 229.265625 C 347.222656 228.316406 374.261719 213.863281 373.789062 196.984375 C 373.316406 180.105469 345.507812 167.1875 311.679688 168.136719 C 277.851562 169.085938 250.808594 183.539062 251.28125 200.417969 Z M 251.28125 200.417969 " clip-rule="nonzero"/></clipPath><clipPath id="66d87c7814"><path d="M 270 186 L 362 186 L 362 232 L 270 232 Z M 270 186 " clip-rule="nonzero"/></clipPath><clipPath id="993ad85082"><path d="M 270.929688 232.746094 L 269.65625 187.386719 L 360.734375 184.832031 L 362.007812 230.195312 Z M 270.929688 232.746094 " clip-rule="nonzero"/></clipPath><clipPath id="1416a56935"><path d="M 270.292969 210.066406 C 270.644531 222.59375 291.28125 232.175781 316.382812 231.472656 C 341.488281 230.769531 361.554688 220.042969 361.203125 207.519531 C 360.851562 194.992188 340.214844 185.40625 315.113281 186.109375 C 290.007812 186.816406 269.941406 197.539062 270.292969 210.066406 Z M 270.292969 210.066406 " clip-rule="nonzero"/></clipPath><clipPath id="8ed826b70d"><path d="M 66.878906 39.550781 L 304.191406 39.550781 L 304.191406 301 L 66.878906 301 Z M 66.878906 39.550781 " clip-rule="nonzero"/></clipPath><clipPath id="0b041f0410"><path d="M 146.027344 45.6875 C 158.152344 41.980469 172.023438 39.550781 185.601562 39.550781 C 199.175781 39.550781 212.238281 41.632812 224.277344 45.339844 C 224.535156 45.457031 224.789062 45.457031 225.046875 45.574219 C 270.253906 60.398438 303.550781 99.546875 304.191406 145.296875 L 304.191406 301.199219 L 66.878906 301.199219 L 66.878906 145.414062 C 67.519531 99.316406 100.304688 60.167969 146.027344 45.6875 Z M 146.027344 45.6875 " clip-rule="nonzero"/></clipPath><clipPath id="597e52450a"><path d="M 157.003906 192.648438 L 184.914062 192.648438 L 184.914062 210 L 157.003906 210 Z M 157.003906 192.648438 " clip-rule="nonzero"/></clipPath><clipPath id="ec2bedea8a"><path d="M 181.550781 193 L 207.714844 193 L 207.714844 210 L 181.550781 210 Z M 181.550781 193 " clip-rule="nonzero"/></clipPath><clipPath id="9368aefa78"><path d="M 249.964844 192.726562 L 275.160156 192.726562 L 275.160156 219.496094 L 249.964844 219.496094 Z M 249.964844 192.726562 " clip-rule="nonzero"/></clipPath><clipPath id="e591384086"><path d="M 262.5625 192.726562 C 255.605469 192.726562 249.964844 198.71875 249.964844 206.109375 C 249.964844 213.503906 255.605469 219.492188 262.5625 219.492188 C 269.519531 219.492188 275.160156 213.503906 275.160156 206.109375 C 275.160156 198.71875 269.519531 192.726562 262.5625 192.726562 Z M 262.5625 192.726562 " clip-rule="nonzero"/></clipPath><clipPath id="a7277c726a"><path d="M 105 120.484375 L 166.78125 120.484375 L 166.78125 182.261719 L 105 182.261719 Z M 105 120.484375 " clip-rule="nonzero"/></clipPath><clipPath id="a6838bab5c"><path d="M 135.890625 120.484375 C 118.832031 120.484375 105 134.3125 105 151.371094 C 105 168.433594 118.832031 182.261719 135.890625 182.261719 C 152.949219 182.261719 166.78125 168.433594 166.78125 151.371094 C 166.78125 134.3125 152.949219 120.484375 135.890625 120.484375 Z M 135.890625 120.484375 " clip-rule="nonzero"/></clipPath><clipPath id="977da0ea20"><path d="M 102.386719 117.878906 L 164.164062 117.878906 L 164.164062 179.660156 L 102.386719 179.660156 Z M 102.386719 117.878906 " clip-rule="nonzero"/></clipPath><clipPath id="2e757a6d2b"><path d="M 133.277344 117.878906 C 116.21875 117.878906 102.386719 131.710938 102.386719 148.769531 C 102.386719 165.828125 116.21875 179.660156 133.277344 179.660156 C 150.335938 179.660156 164.164062 165.828125 164.164062 148.769531 C 164.164062 131.710938 150.335938 117.878906 133.277344 117.878906 Z M 133.277344 117.878906 " clip-rule="nonzero"/></clipPath><clipPath id="9bb1a88f8d"><path d="M 108.238281 122.179688 L 158.308594 122.179688 L 158.308594 175.378906 L 108.238281 175.378906 Z M 108.238281 122.179688 " clip-rule="nonzero"/></clipPath><clipPath id="7fd271c4dc"><path d="M 133.273438 122.179688 C 119.449219 122.179688 108.238281 134.085938 108.238281 148.777344 C 108.238281 163.46875 119.449219 175.378906 133.273438 175.378906 C 147.101562 175.378906 158.308594 163.46875 158.308594 148.777344 C 158.308594 134.085938 147.101562 122.179688 133.273438 122.179688 Z M 133.273438 122.179688 " clip-rule="nonzero"/></clipPath><clipPath id="cab0f8d3ec"><path d="M 114.089844 133.222656 L 131.382812 133.222656 L 131.382812 150.515625 L 114.089844 150.515625 Z M 114.089844 133.222656 " clip-rule="nonzero"/></clipPath><clipPath id="5cdce2476c"><path d="M 122.734375 133.222656 C 117.960938 133.222656 114.089844 137.09375 114.089844 141.871094 C 114.089844 146.644531 117.960938 150.515625 122.734375 150.515625 C 127.511719 150.515625 131.382812 146.644531 131.382812 141.871094 C 131.382812 137.09375 127.511719 133.222656 122.734375 133.222656 Z M 122.734375 133.222656 " clip-rule="nonzero"/></clipPath><clipPath id="d7d5a12c59"><path d="M 131.390625 148.769531 L 141.414062 148.769531 L 141.414062 158.792969 L 131.390625 158.792969 Z M 131.390625 148.769531 " clip-rule="nonzero"/></clipPath><clipPath id="97bfce63fc"><path d="M 136.402344 148.769531 C 133.632812 148.769531 131.390625 151.011719 131.390625 153.78125 C 131.390625 156.550781 133.632812 158.792969 136.402344 158.792969 C 139.171875 158.792969 141.414062 156.550781 141.414062 153.78125 C 141.414062 151.011719 139.171875 148.769531 136.402344 148.769531 Z M 136.402344 148.769531 " clip-rule="nonzero"/></clipPath><clipPath id="57465ae55b"><path d="M 89.792969 229.160156 L 169.554688 229.160156 L 169.554688 360.335938 L 89.792969 360.335938 Z M 89.792969 229.160156 " clip-rule="nonzero"/></clipPath><clipPath id="53c2bc2bc7"><path d="M 89.792969 261.902344 C 89.792969 243.839844 107.648438 229.199219 129.671875 229.199219 C 151.699219 229.199219 169.554688 243.839844 169.554688 261.902344 L 169.554688 327.316406 C 169.554688 345.378906 151.699219 360.023438 129.671875 360.023438 C 107.648438 360.023438 89.792969 345.378906 89.792969 327.316406 Z M 89.792969 261.902344 " clip-rule="nonzero"/></clipPath><clipPath id="50dc678b8a"><path d="M 103.792969 343.089844 L 114.988281 343.089844 L 114.988281 360.011719 L 103.792969 360.011719 Z M 103.792969 343.089844 " clip-rule="nonzero"/></clipPath><clipPath id="2356731bf0"><path d="M 103.792969 348.703125 C 103.792969 345.613281 106.300781 343.105469 109.390625 343.105469 C 112.480469 343.105469 114.988281 345.613281 114.988281 348.703125 L 114.988281 354.417969 C 114.988281 357.507812 112.480469 360.011719 109.390625 360.011719 C 106.300781 360.011719 103.792969 357.507812 103.792969 354.417969 Z M 103.792969 348.703125 " clip-rule="nonzero"/></clipPath><clipPath id="f5ff6a7d94"><path d="M 123.394531 346.722656 L 134.585938 346.722656 L 134.585938 363.648438 L 123.394531 363.648438 Z M 123.394531 346.722656 " clip-rule="nonzero"/></clipPath><clipPath id="1ff7cdb6c2"><path d="M 123.394531 352.335938 C 123.394531 349.246094 125.898438 346.742188 128.988281 346.742188 C 132.082031 346.742188 134.585938 349.246094 134.585938 352.335938 L 134.585938 358.050781 C 134.585938 361.140625 132.082031 363.648438 128.988281 363.648438 C 125.898438 363.648438 123.394531 361.140625 123.394531 358.050781 Z M 123.394531 352.335938 " clip-rule="nonzero"/></clipPath><clipPath id="b7e7f3d3d1"><path d="M 143.308594 343.089844 L 154.503906 343.089844 L 154.503906 360.011719 L 143.308594 360.011719 Z M 143.308594 343.089844 " clip-rule="nonzero"/></clipPath><clipPath id="06d08eb56e"><path d="M 143.308594 348.703125 C 143.308594 345.613281 145.816406 343.105469 148.90625 343.105469 C 151.996094 343.105469 154.503906 345.613281 154.503906 348.703125 L 154.503906 354.414062 C 154.503906 357.507812 151.996094 360.011719 148.90625 360.011719 C 145.816406 360.011719 143.308594 357.507812 143.308594 354.414062 Z M 143.308594 348.703125 " clip-rule="nonzero"/></clipPath><clipPath id="0c387fe783"><path d="M 89.78125 192.726562 L 114.972656 192.726562 L 114.972656 219.496094 L 89.78125 219.496094 Z M 89.78125 192.726562 " clip-rule="nonzero"/></clipPath><clipPath id="5056cc2d45"><path d="M 102.378906 192.726562 C 95.421875 192.726562 89.78125 198.71875 89.78125 206.109375 C 89.78125 213.503906 95.421875 219.492188 102.378906 219.492188 C 109.335938 219.492188 114.972656 213.503906 114.972656 206.109375 C 114.972656 198.71875 109.335938 192.726562 102.378906 192.726562 Z M 102.378906 192.726562 " clip-rule="nonzero"/></clipPath><clipPath id="bc8eb7920a"><path d="M 207.734375 229.160156 L 287.5 229.160156 L 287.5 360.335938 L 207.734375 360.335938 Z M 207.734375 229.160156 " clip-rule="nonzero"/></clipPath><clipPath id="2d476d9c5d"><path d="M 207.734375 261.902344 C 207.734375 243.839844 225.59375 229.199219 247.617188 229.199219 C 269.644531 229.199219 287.5 243.839844 287.5 261.902344 L 287.5 327.316406 C 287.5 345.378906 269.644531 360.023438 247.617188 360.023438 C 225.59375 360.023438 207.734375 345.378906 207.734375 327.316406 Z M 207.734375 261.902344 " clip-rule="nonzero"/></clipPath><clipPath id="9fabf706db"><path d="M 221.738281 343.089844 L 232.933594 343.089844 L 232.933594 360.011719 L 221.738281 360.011719 Z M 221.738281 343.089844 " clip-rule="nonzero"/></clipPath><clipPath id="047654cf02"><path d="M 221.738281 348.703125 C 221.738281 345.613281 224.242188 343.105469 227.335938 343.105469 C 230.425781 343.105469 232.933594 345.613281 232.933594 348.703125 L 232.933594 354.414062 C 232.933594 357.507812 230.425781 360.011719 227.335938 360.011719 C 224.242188 360.011719 221.738281 357.507812 221.738281 354.414062 Z M 221.738281 348.703125 " clip-rule="nonzero"/></clipPath><clipPath id="f9284fe7c5"><path d="M 241.335938 346.722656 L 252.53125 346.722656 L 252.53125 363.648438 L 241.335938 363.648438 Z M 241.335938 346.722656 " clip-rule="nonzero"/></clipPath><clipPath id="0dd8d9ae66"><path d="M 241.335938 352.335938 C 241.335938 349.246094 243.84375 346.742188 246.933594 346.742188 C 250.027344 346.742188 252.53125 349.246094 252.53125 352.335938 L 252.53125 358.050781 C 252.53125 361.140625 250.027344 363.648438 246.933594 363.648438 C 243.84375 363.648438 241.335938 361.140625 241.335938 358.050781 Z M 241.335938 352.335938 " clip-rule="nonzero"/></clipPath><clipPath id="1c244a0141"><path d="M 261.253906 343.089844 L 272.449219 343.089844 L 272.449219 360.011719 L 261.253906 360.011719 Z M 261.253906 343.089844 " clip-rule="nonzero"/></clipPath><clipPath id="738828a977"><path d="M 261.253906 348.703125 C 261.253906 345.613281 263.757812 343.105469 266.851562 343.105469 C 269.941406 343.105469 272.449219 345.613281 272.449219 348.703125 L 272.449219 354.414062 C 272.449219 357.507812 269.941406 360.011719 266.851562 360.011719 C 263.757812 360.011719 261.253906 357.507812 261.253906 354.414062 Z M 261.253906 348.703125 " clip-rule="nonzero"/></clipPath><clipPath id="a74459345b"><path d="M 96.269531 241.859375 L 123.464844 241.859375 L 123.464844 313.25 L 96.269531 313.25 Z M 96.269531 241.859375 " clip-rule="nonzero"/></clipPath><clipPath id="c3f07763b4"><path d="M 96.269531 264.511719 C 96.269531 252.03125 102.355469 241.914062 109.867188 241.914062 C 117.375 241.914062 123.464844 252.03125 123.464844 264.511719 L 123.464844 290.652344 C 123.464844 303.132812 117.375 313.25 109.867188 313.25 C 102.355469 313.25 96.269531 303.132812 96.269531 290.652344 Z M 96.269531 264.511719 " clip-rule="nonzero"/></clipPath><clipPath id="54dbd45ebf"><path d="M 94.824219 234.605469 L 124.863281 234.605469 L 124.863281 307.242188 L 94.824219 307.242188 Z M 94.824219 234.605469 " clip-rule="nonzero"/></clipPath><clipPath id="d934403252"><path d="M 94.824219 259.648438 C 94.824219 245.863281 101.550781 234.691406 109.84375 234.691406 C 118.140625 234.691406 124.863281 245.863281 124.863281 259.648438 L 124.863281 282.285156 C 124.863281 296.066406 118.140625 307.242188 109.84375 307.242188 C 101.550781 307.242188 94.824219 296.066406 94.824219 282.285156 Z M 94.824219 259.648438 " clip-rule="nonzero"/></clipPath><clipPath id="b7b562b27d"><path d="M 119.222656 221.230469 L 250 221.230469 L 250 294.617188 L 119.222656 294.617188 Z M 119.222656 221.230469 " clip-rule="nonzero"/></clipPath><clipPath id="8a5ed234aa"><path d="M 162.828125 225.636719 C 169.511719 222.976562 177.152344 221.230469 184.632812 221.230469 C 192.109375 221.230469 199.308594 222.726562 205.941406 225.386719 C 206.082031 225.472656 206.222656 225.472656 206.363281 225.554688 C 231.273438 236.199219 249.617188 264.308594 249.96875 294.617188 L 119.222656 294.617188 C 119.574219 264.144531 137.640625 236.035156 162.828125 225.636719 Z M 162.828125 225.636719 " clip-rule="nonzero"/></clipPath><clipPath id="0566278d35"><path d="M 68.316406 257.847656 L 95.511719 257.847656 L 95.511719 323.710938 L 68.316406 323.710938 Z M 68.316406 257.847656 " clip-rule="nonzero"/></clipPath><clipPath id="18f30afaf2"><path d="M 68.316406 280.488281 C 68.316406 268.007812 74.402344 257.890625 81.914062 257.890625 C 89.421875 257.890625 95.511719 268.007812 95.511719 280.488281 L 95.511719 301.117188 C 95.511719 313.59375 89.421875 323.710938 81.914062 323.710938 C 74.402344 323.710938 68.316406 313.59375 68.316406 301.117188 Z M 68.316406 280.488281 " clip-rule="nonzero"/></clipPath><clipPath id="2251541067"><path d="M 66.882812 257.894531 L 96.921875 257.894531 L 96.921875 318.207031 L 66.882812 318.207031 Z M 66.882812 257.894531 " clip-rule="nonzero"/></clipPath><clipPath id="3373b9cf16"><path d="M 66.882812 282.878906 C 66.882812 269.09375 73.605469 257.917969 81.902344 257.917969 C 90.195312 257.917969 96.921875 269.09375 96.921875 282.878906 L 96.921875 293.25 C 96.921875 307.035156 90.195312 318.207031 81.902344 318.207031 C 73.605469 318.207031 66.882812 307.035156 66.882812 293.25 Z M 66.882812 282.878906 " clip-rule="nonzero"/></clipPath><clipPath id="dccef6ed9e"><path d="M 277.011719 253.492188 L 304.207031 253.492188 L 304.207031 323.710938 L 277.011719 323.710938 Z M 277.011719 253.492188 " clip-rule="nonzero"/></clipPath><clipPath id="3003e7a0d5"><path d="M 277.011719 276.152344 C 277.011719 263.675781 283.101562 253.558594 290.609375 253.558594 C 298.121094 253.558594 304.207031 263.675781 304.207031 276.152344 L 304.207031 301.117188 C 304.207031 313.59375 298.121094 323.710938 290.609375 323.710938 C 283.101562 323.710938 277.011719 313.59375 277.011719 301.117188 Z M 277.011719 276.152344 " clip-rule="nonzero"/></clipPath><clipPath id="34d9b9ee18"><path d="M 275.574219 244.609375 L 305.617188 244.609375 L 305.617188 317.832031 L 275.574219 317.832031 Z M 275.574219 244.609375 " clip-rule="nonzero"/></clipPath><clipPath id="9028818398"><path d="M 275.574219 269.621094 C 275.574219 255.839844 282.300781 244.664062 290.59375 244.664062 C 298.890625 244.664062 305.617188 255.839844 305.617188 269.621094 L 305.617188 292.871094 C 305.617188 306.65625 298.890625 317.832031 290.59375 317.832031 C 282.300781 317.832031 275.574219 306.65625 275.574219 292.871094 Z M 275.574219 269.621094 " clip-rule="nonzero"/></clipPath><clipPath id="9630d05249"><path d="M 120.992188 268.71875 L 148.1875 268.71875 L 148.1875 319.390625 L 120.992188 319.390625 Z M 120.992188 268.71875 " clip-rule="nonzero"/></clipPath><clipPath id="b75b564098"><path d="M 120.992188 291.339844 C 120.992188 278.859375 127.078125 268.742188 134.589844 268.742188 C 142.097656 268.742188 148.1875 278.859375 148.1875 291.339844 L 148.1875 296.796875 C 148.1875 309.277344 142.097656 319.390625 134.589844 319.390625 C 127.078125 319.390625 120.992188 309.277344 120.992188 296.796875 Z M 120.992188 291.339844 " clip-rule="nonzero"/></clipPath><clipPath id="4e8224d5e2"><path d="M 119.550781 262.171875 L 149.589844 262.171875 L 149.589844 312.15625 L 119.550781 312.15625 Z M 119.550781 262.171875 " clip-rule="nonzero"/></clipPath><clipPath id="6be4cafe68"><path d="M 119.550781 287.199219 C 119.550781 273.417969 126.277344 262.242188 134.570312 262.242188 C 142.867188 262.242188 149.589844 273.417969 149.589844 287.199219 C 149.589844 300.984375 142.867188 312.15625 134.570312 312.15625 C 126.277344 312.15625 119.550781 300.984375 119.550781 287.199219 Z M 119.550781 287.199219 " clip-rule="nonzero"/></clipPath><clipPath id="0cc0250561"><path d="M 169.589844 257.84375 L 207.746094 257.84375 L 207.746094 318.203125 L 169.589844 318.203125 Z M 169.589844 257.84375 " clip-rule="nonzero"/></clipPath><clipPath id="878034ff03"><path d="M 169.589844 282.875 C 169.589844 269.089844 178.132812 257.914062 188.667969 257.914062 C 199.203125 257.914062 207.746094 269.089844 207.746094 282.875 L 207.746094 293.246094 C 207.746094 307.03125 199.203125 318.203125 188.667969 318.203125 C 178.132812 318.203125 169.589844 307.03125 169.589844 293.246094 Z M 169.589844 282.875 " clip-rule="nonzero"/></clipPath><clipPath id="d803ec024f"><path d="M 143.628906 253.511719 L 170.824219 253.511719 L 170.824219 319.375 L 143.628906 319.375 Z M 143.628906 253.511719 " clip-rule="nonzero"/></clipPath><clipPath id="5c1f6af177"><path d="M 143.628906 276.152344 C 143.628906 263.675781 149.714844 253.558594 157.226562 253.558594 C 164.738281 253.558594 170.824219 263.675781 170.824219 276.152344 L 170.824219 296.78125 C 170.824219 309.261719 164.738281 319.375 157.226562 319.375 C 149.714844 319.375 143.628906 309.261719 143.628906 296.78125 Z M 143.628906 276.152344 " clip-rule="nonzero"/></clipPath><clipPath id="b6c1f76c1f"><path d="M 142.191406 247.328125 L 172.230469 247.328125 L 172.230469 313.859375 L 142.191406 313.859375 Z M 142.191406 247.328125 " clip-rule="nonzero"/></clipPath><clipPath id="353b0f049a"><path d="M 142.191406 272.386719 C 142.191406 258.601562 148.917969 247.425781 157.210938 247.425781 C 165.507812 247.425781 172.230469 258.601562 172.230469 272.386719 L 172.230469 288.902344 C 172.230469 302.6875 165.507812 313.859375 157.210938 313.859375 C 148.917969 313.859375 142.191406 302.6875 142.191406 288.902344 Z M 142.191406 272.386719 " clip-rule="nonzero"/></clipPath><clipPath id="61322b9cd2"><path d="M 249.136719 253.480469 L 278.46875 253.480469 L 278.46875 323.714844 L 249.136719 323.714844 Z M 249.136719 253.480469 " clip-rule="nonzero"/></clipPath><clipPath id="4e9f7cfe6f"><path d="M 249.136719 276.15625 C 249.136719 263.675781 255.703125 253.5625 263.800781 253.5625 C 271.902344 253.5625 278.46875 263.675781 278.46875 276.15625 L 278.46875 301.117188 C 278.46875 313.597656 271.902344 323.714844 263.800781 323.714844 C 255.703125 323.714844 249.136719 313.597656 249.136719 301.117188 Z M 249.136719 276.15625 " clip-rule="nonzero"/></clipPath><clipPath id="672fe074df"><path d="M 247.621094 247.347656 L 280.019531 247.347656 L 280.019531 317.835938 L 247.621094 317.835938 Z M 247.621094 247.347656 " clip-rule="nonzero"/></clipPath><clipPath id="67062a4893"><path d="M 247.621094 272.390625 C 247.621094 258.609375 254.875 247.433594 263.820312 247.433594 C 272.765625 247.433594 280.019531 258.609375 280.019531 272.390625 L 280.019531 292.878906 C 280.019531 306.664062 272.765625 317.835938 263.820312 317.835938 C 254.875 317.835938 247.621094 306.664062 247.621094 292.878906 Z M 247.621094 272.390625 " clip-rule="nonzero"/></clipPath><clipPath id="a0d7cd1cab"><path d="M 209.628906 274.21875 L 245.734375 274.21875 L 245.734375 324.992188 L 209.628906 324.992188 Z M 209.628906 274.21875 " clip-rule="nonzero"/></clipPath><clipPath id="ea5b91f38a"><path d="M 209.628906 296.9375 C 209.628906 284.460938 217.710938 274.34375 227.679688 274.34375 C 237.652344 274.34375 245.734375 284.460938 245.734375 296.9375 L 245.734375 302.398438 C 245.734375 314.875 237.652344 324.992188 227.679688 324.992188 C 217.710938 324.992188 209.628906 314.875 209.628906 302.398438 Z M 209.628906 296.9375 " clip-rule="nonzero"/></clipPath><clipPath id="02ffe6f215"><path d="M 207.726562 267.75 L 247.609375 267.75 L 247.609375 317.757812 L 207.726562 317.757812 Z M 207.726562 267.75 " clip-rule="nonzero"/></clipPath><clipPath id="d03ae45330"><path d="M 207.726562 292.800781 C 207.726562 279.015625 216.65625 267.84375 227.667969 267.84375 C 238.679688 267.84375 247.609375 279.015625 247.609375 292.800781 C 247.609375 306.582031 238.679688 317.757812 227.667969 317.757812 C 216.65625 317.757812 207.726562 306.582031 207.726562 292.800781 Z M 207.726562 292.800781 " clip-rule="nonzero"/></clipPath><clipPath id="8b67b49b57"><path d="M 42 131 L 91 131 L 91 166 L 42 166 Z M 42 131 " clip-rule="nonzero"/></clipPath><clipPath id="add61a1b72"><path d="M 46.832031 169.328125 L 38.882812 153.605469 L 82.917969 131.339844 L 90.871094 147.0625 Z M 46.832031 169.328125 " clip-rule="nonzero"/></clipPath><clipPath id="01b0a937b4"><path d="M 44.757812 163.792969 C 44.003906 163.167969 43.308594 162.363281 42.855469 161.464844 C 42.402344 160.566406 42.160156 159.601562 42.105469 158.625 C 42.105469 158.601562 42.097656 158.585938 42.101562 158.5625 C 41.980469 154.863281 44.550781 150.792969 49.265625 148.355469 L 82.894531 131.351562 L 90.84375 147.074219 L 57.242188 164.066406 C 52.4375 166.441406 47.652344 166.132812 44.757812 163.792969 Z M 44.757812 163.792969 " clip-rule="nonzero"/></clipPath><clipPath id="4a4f7d59a9"><path d="M 47 108 L 96 108 L 96 145 L 47 145 Z M 47 108 " clip-rule="nonzero"/></clipPath><clipPath id="e9ac106dbc"><path d="M 53.042969 148.359375 L 44.171875 133.136719 L 86.804688 108.289062 L 95.675781 123.511719 Z M 53.042969 148.359375 " clip-rule="nonzero"/></clipPath><clipPath id="9897273439"><path d="M 50.640625 142.957031 C 49.851562 142.375 49.109375 141.617188 48.605469 140.746094 C 48.097656 139.875 47.796875 138.925781 47.683594 137.957031 C 47.6875 137.933594 47.675781 137.917969 47.679688 137.894531 C 47.339844 134.207031 49.660156 129.992188 54.222656 127.28125 L 86.777344 108.304688 L 95.652344 123.527344 L 63.117188 142.488281 C 58.464844 145.144531 53.671875 145.121094 50.640625 142.957031 Z M 50.640625 142.957031 " clip-rule="nonzero"/></clipPath><clipPath id="d089a94d80"><path d="M 48 89 L 97 89 L 97 124 L 48 124 Z M 48 89 " clip-rule="nonzero"/></clipPath><clipPath id="7eacd6f245"><path d="M 53.179688 127.503906 L 45.042969 111.878906 L 88.8125 89.089844 L 96.949219 104.71875 Z M 53.179688 127.503906 " clip-rule="nonzero"/></clipPath><clipPath id="be4c3d484a"><path d="M 51.039062 121.996094 C 50.277344 121.375 49.574219 120.582031 49.109375 119.6875 C 48.644531 118.792969 48.390625 117.832031 48.324219 116.859375 C 48.328125 116.835938 48.316406 116.820312 48.320312 116.796875 C 48.15625 113.097656 50.675781 109 55.363281 106.503906 L 88.785156 89.101562 L 96.921875 104.730469 L 63.523438 122.121094 C 58.75 124.554688 53.960938 124.300781 51.039062 121.996094 Z M 51.039062 121.996094 " clip-rule="nonzero"/></clipPath><clipPath id="bee64c6030"><path d="M 269 93 L 319 93 L 319 128 L 269 128 Z M 269 93 " clip-rule="nonzero"/></clipPath><clipPath id="9fec4c609b"><path d="M 321.453125 115.6875 L 313.410156 131.363281 L 269.503906 108.839844 L 277.546875 93.164062 Z M 321.453125 115.6875 " clip-rule="nonzero"/></clipPath><clipPath id="40629addf3"><path d="M 318.195312 120.617188 C 318.132812 121.597656 317.890625 122.632812 317.429688 123.527344 C 316.96875 124.425781 316.332031 125.1875 315.578125 125.804688 C 315.558594 125.816406 315.546875 125.832031 315.527344 125.84375 C 312.605469 128.117188 307.804688 128.433594 303.058594 126.050781 L 269.53125 108.851562 L 277.570312 93.175781 L 311.078125 110.363281 C 315.824219 112.851562 318.386719 116.902344 318.195312 120.617188 Z M 318.195312 120.617188 " clip-rule="nonzero"/></clipPath><clipPath id="6470c634a4"><path d="M 276 118 L 326 118 L 326 154 L 276 154 Z M 276 118 " clip-rule="nonzero"/></clipPath><clipPath id="e99925771b"><path d="M 328.914062 141.203125 L 320.871094 156.882812 L 276.964844 134.359375 L 285.007812 118.683594 Z M 328.914062 141.203125 " clip-rule="nonzero"/></clipPath><clipPath id="a2c731445c"><path d="M 325.65625 146.136719 C 325.59375 147.117188 325.351562 148.152344 324.890625 149.046875 C 324.429688 149.945312 323.792969 150.707031 323.035156 151.324219 C 323.015625 151.335938 323.007812 151.351562 322.988281 151.363281 C 320.066406 153.636719 315.265625 153.953125 310.519531 151.570312 L 276.992188 134.371094 L 285.03125 118.695312 L 318.535156 135.882812 C 323.285156 138.371094 325.847656 142.421875 325.65625 146.136719 Z M 325.65625 146.136719 " clip-rule="nonzero"/></clipPath><clipPath id="e32b07bbbe"><path d="M 279 137 L 329 137 L 329 173 L 279 173 Z M 279 137 " clip-rule="nonzero"/></clipPath><clipPath id="66de971b1f"><path d="M 331.917969 160.296875 L 323.878906 175.976562 L 279.96875 153.453125 L 288.011719 137.773438 Z M 331.917969 160.296875 " clip-rule="nonzero"/></clipPath><clipPath id="08e213ebf8"><path d="M 328.660156 165.230469 C 328.597656 166.210938 328.355469 167.242188 327.894531 168.140625 C 327.4375 169.039062 326.796875 169.800781 326.042969 170.417969 C 326.023438 170.429688 326.015625 170.445312 325.996094 170.457031 C 323.070312 172.730469 318.269531 173.042969 313.527344 170.664062 L 279.996094 153.464844 L 288.039062 137.789062 L 321.542969 154.976562 C 326.289062 157.464844 328.851562 161.515625 328.660156 165.230469 Z M 328.660156 165.230469 " clip-rule="nonzero"/></clipPath><clipPath id="e6d3297ca9"><path d="M 149 27 L 182 27 L 182 52 L 149 52 Z M 149 27 " clip-rule="nonzero"/></clipPath><clipPath id="adb0d6caed"><path d="M 153.589844 23.710938 L 184.597656 35.085938 L 177.152344 55.386719 L 146.144531 44.015625 Z M 153.589844 23.710938 " clip-rule="nonzero"/></clipPath><clipPath id="1bd7f774e5"><path d="M 169.09375 29.398438 C 160.53125 26.257812 151.925781 28.257812 149.867188 33.863281 C 147.8125 39.46875 153.085938 46.558594 161.648438 49.699219 C 170.210938 52.839844 178.816406 50.839844 180.875 45.234375 C 182.929688 39.628906 177.65625 32.539062 169.09375 29.398438 Z M 169.09375 29.398438 " clip-rule="nonzero"/></clipPath><clipPath id="4436e3ba9f"><path d="M 172 16 L 217 16 L 217 56 L 172 56 Z M 172 16 " clip-rule="nonzero"/></clipPath><clipPath id="e764e0fa88"><path d="M 165.371094 38.601562 L 203.859375 8.46875 L 223.589844 33.667969 L 185.097656 63.800781 Z M 165.371094 38.601562 " clip-rule="nonzero"/></clipPath><clipPath id="5438b3d828"><path d="M 184.613281 23.535156 C 173.984375 31.855469 169.785156 44.242188 175.234375 51.203125 C 180.683594 58.160156 193.714844 57.058594 204.34375 48.738281 C 214.972656 40.414062 219.171875 28.03125 213.722656 21.070312 C 208.273438 14.113281 195.242188 15.214844 184.613281 23.535156 Z M 184.613281 23.535156 " clip-rule="nonzero"/></clipPath><clipPath id="ee5ca64c90"><path d="M 241 23 L 310 23 L 310 91 L 241 91 Z M 241 23 " clip-rule="nonzero"/></clipPath><clipPath id="6b3043a114"><path d="M 287.96875 13.457031 L 319.59375 51.351562 L 272.820312 90.390625 L 241.195312 52.5 Z M 287.96875 13.457031 " clip-rule="nonzero"/></clipPath><clipPath id="563e8b53ba"><path d="M 297.421875 27.007812 C 299.699219 28.394531 301.980469 30.246094 303.789062 32.414062 C 305.597656 34.582031 306.96875 36.980469 307.914062 39.453125 C 307.925781 39.511719 307.960938 39.550781 307.972656 39.609375 C 311.355469 49.035156 308.816406 60.175781 300.746094 67.082031 L 272.957031 90.277344 L 241.332031 52.386719 L 269.097656 29.207031 C 277.398438 22.453125 288.746094 21.863281 297.421875 27.007812 Z M 297.421875 27.007812 " clip-rule="nonzero"/></clipPath><clipPath id="9863bdd7e1"><path d="M 248 31 L 301 31 L 301 84 L 248 84 Z M 248 31 " clip-rule="nonzero"/></clipPath><clipPath id="756a0e1e54"><path d="M 284.144531 24.023438 L 308.511719 53.21875 L 272.476562 83.296875 L 248.109375 54.101562 Z M 284.144531 24.023438 " clip-rule="nonzero"/></clipPath><clipPath id="d15d99d584"><path d="M 291.429688 34.464844 C 293.183594 35.53125 294.941406 36.960938 296.335938 38.628906 C 297.730469 40.300781 298.785156 42.144531 299.511719 44.050781 C 299.523438 44.097656 299.546875 44.128906 299.558594 44.171875 C 302.164062 51.433594 300.207031 60.015625 293.992188 65.339844 L 272.582031 83.210938 L 248.214844 54.015625 L 269.605469 36.160156 C 276.003906 30.953125 284.746094 30.5 291.429688 34.464844 Z M 291.429688 34.464844 " clip-rule="nonzero"/></clipPath><clipPath id="983b5d45ef"><path d="M 254 48 L 282 48 L 282 77 L 254 77 Z M 254 48 " clip-rule="nonzero"/></clipPath><clipPath id="5c84d51bc2"><path d="M 272.980469 44.804688 L 285.828125 60.195312 L 266.828125 76.054688 L 253.984375 60.664062 Z M 272.980469 44.804688 " clip-rule="nonzero"/></clipPath><clipPath id="4b06774849"><path d="M 276.820312 50.308594 C 277.746094 50.871094 278.671875 51.625 279.410156 52.503906 C 280.144531 53.386719 280.699219 54.359375 281.082031 55.363281 C 281.089844 55.386719 281.101562 55.402344 281.109375 55.425781 C 282.480469 59.253906 281.449219 63.78125 278.171875 66.585938 L 266.886719 76.007812 L 254.039062 60.617188 L 265.316406 51.203125 C 268.691406 48.460938 273.296875 48.21875 276.820312 50.308594 Z M 276.820312 50.308594 " clip-rule="nonzero"/></clipPath><clipPath id="f28d58c0c5"><path d="M 61 24 L 129 24 L 129 93 L 61 93 Z M 61 24 " clip-rule="nonzero"/></clipPath><clipPath id="d5223b6275"><path d="M 51.273438 46.71875 L 88.65625 14.488281 L 128.441406 60.628906 L 91.0625 92.859375 Z M 51.273438 46.71875 " clip-rule="nonzero"/></clipPath><clipPath id="a9ba288bd1"><path d="M 64.671875 37.046875 C 66.019531 34.75 67.835938 32.4375 69.976562 30.59375 C 72.113281 28.75 74.488281 27.34375 76.945312 26.359375 C 77.003906 26.34375 77.042969 26.308594 77.101562 26.296875 C 86.46875 22.761719 97.652344 25.121094 104.6875 33.082031 L 128.324219 60.492188 L 90.945312 92.722656 L 67.324219 65.332031 C 60.4375 57.140625 59.667969 45.804688 64.671875 37.046875 Z M 64.671875 37.046875 " clip-rule="nonzero"/></clipPath><clipPath id="5529b2c004"><path d="M 69 33 L 122 33 L 122 86 L 69 86 Z M 69 33 " clip-rule="nonzero"/></clipPath><clipPath id="4a339103c1"><path d="M 61.886719 50.378906 L 90.683594 25.546875 L 121.339844 61.09375 L 92.539062 85.929688 Z M 61.886719 50.378906 " clip-rule="nonzero"/></clipPath><clipPath id="e991057381"><path d="M 72.207031 42.929688 C 73.246094 41.15625 74.644531 39.375 76.292969 37.957031 C 77.941406 36.535156 79.769531 35.449219 81.664062 34.691406 C 81.707031 34.679688 81.738281 34.65625 81.78125 34.644531 C 89 31.921875 97.613281 33.738281 103.039062 39.871094 L 121.25 60.992188 L 92.449219 85.824219 L 74.25 64.71875 C 68.945312 58.40625 68.351562 49.671875 72.207031 42.929688 Z M 72.207031 42.929688 " clip-rule="nonzero"/></clipPath><clipPath id="0ede6c4f40"><path d="M 86 52 L 115 52 L 115 80 L 86 80 Z M 86 52 " clip-rule="nonzero"/></clipPath><clipPath id="21217a2492"><path d="M 82.847656 61.203125 L 98.027344 48.109375 L 114.1875 66.851562 L 99.007812 79.941406 Z M 82.847656 61.203125 " clip-rule="nonzero"/></clipPath><clipPath id="4990007c88"><path d="M 88.289062 57.273438 C 88.835938 56.339844 89.574219 55.402344 90.441406 54.652344 C 91.308594 53.902344 92.273438 53.332031 93.273438 52.933594 C 93.296875 52.925781 93.3125 52.914062 93.335938 52.90625 C 97.140625 51.472656 101.683594 52.429688 104.539062 55.664062 L 114.140625 66.796875 L 98.957031 79.886719 L 89.367188 68.761719 C 86.566406 65.433594 86.253906 60.832031 88.289062 57.273438 Z M 88.289062 57.273438 " clip-rule="nonzero"/></clipPath><clipPath id="c8071a01f8"><path d="M 197 120.484375 L 258.777344 120.484375 L 258.777344 182.261719 L 197 182.261719 Z M 197 120.484375 " clip-rule="nonzero"/></clipPath><clipPath id="12432db02c"><path d="M 227.886719 120.484375 C 210.828125 120.484375 197 134.3125 197 151.371094 C 197 168.433594 210.828125 182.261719 227.886719 182.261719 C 244.949219 182.261719 258.777344 168.433594 258.777344 151.371094 C 258.777344 134.3125 244.949219 120.484375 227.886719 120.484375 Z M 227.886719 120.484375 " clip-rule="nonzero"/></clipPath><clipPath id="f7f682df46"><path d="M 194.386719 117.878906 L 256.164062 117.878906 L 256.164062 179.660156 L 194.386719 179.660156 Z M 194.386719 117.878906 " clip-rule="nonzero"/></clipPath><clipPath id="41db7054e6"><path d="M 225.273438 117.878906 C 208.214844 117.878906 194.386719 131.710938 194.386719 148.769531 C 194.386719 165.828125 208.214844 179.660156 225.273438 179.660156 C 242.335938 179.660156 256.164062 165.828125 256.164062 148.769531 C 256.164062 131.710938 242.335938 117.878906 225.273438 117.878906 Z M 225.273438 117.878906 " clip-rule="nonzero"/></clipPath><clipPath id="a1ece0d963"><path d="M 200.238281 122.179688 L 250.308594 122.179688 L 250.308594 175.378906 L 200.238281 175.378906 Z M 200.238281 122.179688 " clip-rule="nonzero"/></clipPath><clipPath id="a24b1c9253"><path d="M 225.273438 122.179688 C 211.445312 122.179688 200.238281 134.085938 200.238281 148.777344 C 200.238281 163.46875 211.445312 175.378906 225.273438 175.378906 C 239.097656 175.378906 250.308594 163.46875 250.308594 148.777344 C 250.308594 134.085938 239.097656 122.179688 225.273438 122.179688 Z M 225.273438 122.179688 " clip-rule="nonzero"/></clipPath><clipPath id="c933085fbe"><path d="M 206.089844 133.222656 L 223.378906 133.222656 L 223.378906 150.515625 L 206.089844 150.515625 Z M 206.089844 133.222656 " clip-rule="nonzero"/></clipPath><clipPath id="bf7dfeefd3"><path d="M 214.734375 133.222656 C 209.957031 133.222656 206.089844 137.09375 206.089844 141.871094 C 206.089844 146.644531 209.957031 150.515625 214.734375 150.515625 C 219.507812 150.515625 223.378906 146.644531 223.378906 141.871094 C 223.378906 137.09375 219.507812 133.222656 214.734375 133.222656 Z M 214.734375 133.222656 " clip-rule="nonzero"/></clipPath><clipPath id="52be77377e"><path d="M 223.386719 148.769531 L 233.414062 148.769531 L 233.414062 158.792969 L 223.386719 158.792969 Z M 223.386719 148.769531 " clip-rule="nonzero"/></clipPath><clipPath id="9cb5c8053b"><path d="M 228.398438 148.769531 C 225.632812 148.769531 223.386719 151.011719 223.386719 153.78125 C 223.386719 156.550781 225.632812 158.792969 228.398438 158.792969 C 231.167969 158.792969 233.414062 156.550781 233.414062 153.78125 C 233.414062 151.011719 231.167969 148.769531 228.398438 148.769531 Z M 228.398438 148.769531 " clip-rule="nonzero"/></clipPath><clipPath id="d6115785e5"><path d="M 104.253906 134.714844 L 164.976562 134.714844 L 164.976562 185.023438 L 104.253906 185.023438 Z M 104.253906 134.714844 " clip-rule="nonzero"/></clipPath><clipPath id="f3412d0641"><path d="M 124.484375 136.324219 C 127.585938 135.355469 131.128906 134.714844 134.601562 134.714844 C 138.070312 134.714844 141.410156 135.261719 144.484375 136.234375 C 144.550781 136.261719 144.617188 136.261719 144.683594 136.292969 C 156.238281 140.175781 164.746094 150.425781 164.910156 162 L 164.910156 185.023438 L 104.253906 185.023438 L 104.253906 162.015625 C 104.417969 150.363281 112.796875 140.113281 124.484375 136.324219 Z M 124.484375 136.324219 " clip-rule="nonzero"/></clipPath><clipPath id="a3a70935a8"><path d="M 196.253906 134.195312 L 256.972656 134.195312 L 256.972656 184.503906 L 196.253906 184.503906 Z M 196.253906 134.195312 " clip-rule="nonzero"/></clipPath><clipPath id="c914bd82f3"><path d="M 216.484375 135.804688 C 219.582031 134.832031 223.128906 134.195312 226.597656 134.195312 C 230.066406 134.195312 233.40625 134.742188 236.484375 135.710938 C 236.546875 135.742188 236.613281 135.742188 236.679688 135.773438 C 248.234375 139.65625 256.746094 149.902344 256.910156 161.476562 L 256.910156 184.503906 L 196.253906 184.503906 L 196.253906 161.496094 C 196.417969 149.84375 204.796875 139.59375 216.484375 135.804688 Z M 216.484375 135.804688 " clip-rule="nonzero"/></clipPath></defs><g clip-path="url(#950d5b5fa8)"><g clip-path="url(#c54c2a7268)"><g clip-path="url(#bac2239b10)"><path fill="#60b9b9" d="M 125.8125 155.441406 L 133.375 216.125 L 11.769531 231.273438 L 4.210938 170.59375 Z M 125.8125 155.441406 " fill-opacity="1" fill-rule="nonzero"/></g></g></g><g clip-path="url(#7a94802aaf)"><g clip-path="url(#a5d04e661d)"><g clip-path="url(#536b8ff5c5)"><path fill="#0c8794" d="M 105.59375 174.664062 L 111.203125 219.699219 L 20.964844 230.9375 L 15.355469 185.90625 Z M 105.59375 174.664062 " fill-opacity="1" fill-rule="nonzero"/></g></g></g><g clip-path="url(#e0943bf410)"><g clip-path="url(#c098f2fb63)"><g clip-path="url(#23cb3a3706)"><path fill="#60b9b9" d="M 252.140625 230.980469 L 250.425781 169.855469 L 372.921875 166.421875 L 374.632812 227.546875 Z M 252.140625 230.980469 " fill-opacity="1" fill-rule="nonzero"/></g></g></g><g clip-path="url(#66d87c7814)"><g clip-path="url(#993ad85082)"><g clip-path="url(#1416a56935)"><path fill="#0c8794" d="M 270.929688 232.746094 L 269.65625 187.386719 L 360.558594 184.835938 L 361.832031 230.199219 Z M 270.929688 232.746094 " fill-opacity="1" fill-rule="nonzero"/></g></g></g><g clip-path="url(#8ed826b70d)"><g clip-path="url(#0b041f0410)"><path fill="#60b9b9" d="M 66.878906 39.550781 L 304.191406 39.550781 L 304.191406 300.964844 L 66.878906 300.964844 Z M 66.878906 39.550781 " fill-opacity="1" fill-rule="nonzero"/></g></g><g clip-path="url(#597e52450a)"><path fill="#25284d" d="M 181.742188 194.878906 C 181.804688 195.597656 181.773438 196.324219 181.675781 197.039062 C 181.695312 196.902344 181.714844 196.761719 181.730469 196.625 C 181.582031 197.71875 181.28125 198.792969 180.855469 199.8125 C 180.910156 199.6875 180.960938 199.5625 181.011719 199.4375 C 180.628906 200.347656 180.140625 201.214844 179.535156 202 C 179.617188 201.894531 179.699219 201.789062 179.78125 201.683594 C 179.019531 202.664062 178.125 203.539062 177.144531 204.296875 C 177.25 204.214844 177.355469 204.132812 177.460938 204.054688 C 176.65625 204.671875 175.796875 205.210938 174.886719 205.65625 C 174.628906 205.785156 174.367188 205.902344 174.105469 206.015625 C 174.226562 205.960938 174.351562 205.910156 174.476562 205.859375 C 173.613281 206.222656 172.714844 206.503906 171.792969 206.6875 C 171.53125 206.738281 171.269531 206.78125 171.007812 206.816406 C 171.148438 206.796875 171.285156 206.777344 171.425781 206.761719 C 170.425781 206.894531 169.410156 206.90625 168.40625 206.769531 C 168.546875 206.789062 168.683594 206.808594 168.824219 206.828125 C 167.953125 206.710938 167.101562 206.480469 166.292969 206.144531 C 166.417969 206.195312 166.542969 206.246094 166.667969 206.300781 C 165.914062 205.980469 165.203125 205.566406 164.550781 205.066406 C 164.65625 205.148438 164.761719 205.230469 164.867188 205.3125 C 164.164062 204.765625 163.535156 204.125 162.988281 203.421875 C 163.070312 203.527344 163.152344 203.632812 163.234375 203.738281 C 162.652344 202.984375 162.125 202.148438 161.753906 201.265625 C 161.808594 201.390625 161.859375 201.515625 161.914062 201.640625 C 161.609375 200.914062 161.402344 200.144531 161.210938 199.382812 C 160.992188 198.492188 160.804688 197.59375 160.648438 196.691406 C 160.566406 196.242188 160.496094 195.789062 160.433594 195.335938 C 160.453125 195.476562 160.472656 195.613281 160.492188 195.753906 C 160.425781 195.28125 160.355469 194.796875 160.371094 194.320312 C 160.386719 193.925781 160.1875 193.484375 159.914062 193.210938 C 159.640625 192.941406 159.195312 192.734375 158.804688 192.753906 C 158.398438 192.769531 157.980469 192.902344 157.695312 193.210938 C 157.410156 193.523438 157.253906 193.890625 157.238281 194.320312 C 157.222656 194.730469 157.28125 195.148438 157.332031 195.558594 C 157.429688 196.328125 157.542969 197.09375 157.683594 197.855469 C 157.933594 199.214844 158.226562 200.589844 158.675781 201.902344 C 159.199219 203.429688 160.0625 204.816406 161.105469 206.042969 C 161.542969 206.558594 162.03125 207.035156 162.5625 207.457031 C 163.167969 207.933594 163.785156 208.371094 164.472656 208.71875 C 165.132812 209.058594 165.835938 209.34375 166.550781 209.546875 C 167.269531 209.753906 168.011719 209.871094 168.753906 209.945312 C 170.125 210.082031 171.527344 209.949219 172.871094 209.65625 C 174.246094 209.355469 175.582031 208.835938 176.824219 208.183594 C 178.09375 207.515625 179.277344 206.660156 180.335938 205.691406 C 181.542969 204.585938 182.605469 203.28125 183.347656 201.820312 C 184.257812 200.027344 184.816406 198.054688 184.898438 196.039062 C 184.914062 195.652344 184.910156 195.265625 184.875 194.878906 C 184.882812 194.660156 184.839844 194.460938 184.742188 194.273438 C 184.675781 194.078125 184.570312 193.910156 184.417969 193.769531 C 184.144531 193.496094 183.699219 193.292969 183.308594 193.308594 C 182.902344 193.328125 182.484375 193.460938 182.199219 193.769531 C 181.933594 194.0625 181.707031 194.46875 181.742188 194.878906 Z M 181.742188 194.878906 " fill-opacity="1" fill-rule="nonzero"/></g><g clip-path="url(#ec2bedea8a)"><path fill="#25284d" d="M 204.660156 195.429688 C 204.71875 196.125 204.6875 196.824219 204.597656 197.511719 C 204.613281 197.378906 204.632812 197.246094 204.652344 197.113281 C 204.507812 198.167969 204.21875 199.199219 203.804688 200.183594 C 203.855469 200.0625 203.90625 199.941406 203.957031 199.824219 C 203.585938 200.699219 203.117188 201.535156 202.535156 202.292969 C 202.613281 202.191406 202.691406 202.089844 202.769531 201.988281 C 202.039062 202.933594 201.175781 203.777344 200.230469 204.507812 C 200.332031 204.429688 200.433594 204.347656 200.535156 204.269531 C 199.761719 204.867188 198.929688 205.386719 198.054688 205.816406 C 197.804688 205.9375 197.554688 206.054688 197.300781 206.160156 C 197.417969 206.109375 197.539062 206.058594 197.660156 206.007812 C 196.828125 206.359375 195.960938 206.632812 195.074219 206.808594 C 194.824219 206.859375 194.570312 206.898438 194.316406 206.933594 C 194.449219 206.914062 194.585938 206.898438 194.71875 206.878906 C 193.753906 207.007812 192.777344 207.019531 191.8125 206.890625 C 191.945312 206.90625 192.078125 206.925781 192.210938 206.945312 C 191.375 206.828125 190.554688 206.613281 189.773438 206.285156 C 189.894531 206.335938 190.015625 206.386719 190.132812 206.4375 C 189.40625 206.128906 188.722656 205.726562 188.097656 205.246094 C 188.199219 205.324219 188.300781 205.402344 188.402344 205.484375 C 187.722656 204.957031 187.117188 204.339844 186.589844 203.664062 C 186.667969 203.765625 186.746094 203.867188 186.828125 203.96875 C 186.265625 203.238281 185.757812 202.433594 185.402344 201.585938 C 185.453125 201.707031 185.503906 201.824219 185.554688 201.945312 C 185.261719 201.246094 185.058594 200.503906 184.878906 199.769531 C 184.664062 198.914062 184.484375 198.046875 184.332031 197.175781 C 184.257812 196.742188 184.1875 196.308594 184.128906 195.871094 C 184.144531 196.003906 184.164062 196.140625 184.183594 196.273438 C 184.121094 195.820312 184.050781 195.351562 184.066406 194.890625 C 184.082031 194.511719 183.890625 194.085938 183.625 193.824219 C 183.363281 193.5625 182.933594 193.363281 182.558594 193.382812 C 182.167969 193.398438 181.761719 193.527344 181.488281 193.824219 C 181.214844 194.125 181.0625 194.476562 181.046875 194.890625 C 181.03125 195.289062 181.089844 195.691406 181.136719 196.085938 C 181.230469 196.824219 181.34375 197.5625 181.480469 198.296875 C 181.71875 199.609375 182 200.933594 182.433594 202.195312 C 182.941406 203.667969 183.769531 205.007812 184.773438 206.191406 C 185.199219 206.6875 185.667969 207.144531 186.179688 207.550781 C 186.761719 208.007812 187.355469 208.429688 188.019531 208.765625 C 188.65625 209.09375 189.332031 209.367188 190.023438 209.566406 C 190.714844 209.761719 191.429688 209.875 192.144531 209.945312 C 193.464844 210.082031 194.816406 209.953125 196.113281 209.667969 C 197.433594 209.382812 198.722656 208.878906 199.921875 208.25 C 201.144531 207.605469 202.285156 206.78125 203.304688 205.847656 C 204.46875 204.785156 205.492188 203.527344 206.207031 202.117188 C 207.082031 200.390625 207.621094 198.488281 207.703125 196.550781 C 207.71875 196.175781 207.710938 195.800781 207.679688 195.429688 C 207.6875 195.222656 207.644531 195.027344 207.550781 194.847656 C 207.488281 194.660156 207.382812 194.496094 207.238281 194.363281 C 206.976562 194.101562 206.546875 193.902344 206.167969 193.917969 C 205.777344 193.9375 205.375 194.066406 205.101562 194.363281 C 204.84375 194.640625 204.625 195.035156 204.660156 195.429688 Z M 204.660156 195.429688 " fill-opacity="1" fill-rule="nonzero"/></g><g clip-path="url(#9368aefa78)"><g clip-path="url(#e591384086)"><path fill="#fe9284" d="M 249.964844 192.726562 L 275.160156 192.726562 L 275.160156 219.496094 L 249.964844 219.496094 Z M 249.964844 192.726562 " fill-opacity="1" fill-rule="nonzero"/></g></g><g clip-path="url(#a7277c726a)"><g clip-path="url(#a6838bab5c)"><path fill="#0c8794" d="M 105 120.484375 L 166.78125 120.484375 L 166.78125 182.261719 L 105 182.261719 Z M 105 120.484375 " fill-opacity="1" fill-rule="nonzero"/></g></g><g clip-path="url(#977da0ea20)"><g clip-path="url(#2e757a6d2b)"><path fill="#fdfcea" d="M 102.386719 117.878906 L 164.164062 117.878906 L 164.164062 179.660156 L 102.386719 179.660156 Z M 102.386719 117.878906 " fill-opacity="1" fill-rule="nonzero"/></g></g><g clip-path="url(#9bb1a88f8d)"><g clip-path="url(#7fd271c4dc)"><path fill="#25284d" d="M 108.238281 122.179688 L 158.308594 122.179688 L 158.308594 175.378906 L 108.238281 175.378906 Z M 108.238281 122.179688 " fill-opacity="1" fill-rule="nonzero"/></g></g><g clip-path="url(#cab0f8d3ec)"><g clip-path="url(#5cdce2476c)"><path fill="#fdfcea" d="M 114.089844 133.222656 L 131.382812 133.222656 L 131.382812 150.515625 L 114.089844 150.515625 Z M 114.089844 133.222656 " fill-opacity="1" fill-rule="nonzero"/></g></g><g clip-path="url(#d7d5a12c59)"><g clip-path="url(#97bfce63fc)"><path fill="#fdfcea" d="M 131.390625 148.769531 L 141.414062 148.769531 L 141.414062 158.792969 L 131.390625 158.792969 Z M 131.390625 148.769531 " fill-opacity="1" fill-rule="nonzero"/></g></g><g clip-path="url(#57465ae55b)"><g clip-path="url(#53c2bc2bc7)"><path fill="#60b9b9" d="M 89.792969 360.023438 L 89.792969 229.160156 L 169.554688 229.160156 L 169.554688 360.023438 Z M 89.792969 360.023438 " fill-opacity="1" fill-rule="nonzero"/></g></g><g clip-path="url(#50dc678b8a)"><g clip-path="url(#2356731bf0)"><path fill="#25284d" d="M 103.792969 360.011719 L 103.792969 343.089844 L 114.988281 343.089844 L 114.988281 360.011719 Z M 103.792969 360.011719 " fill-opacity="1" fill-rule="nonzero"/></g></g><g clip-path="url(#f5ff6a7d94)"><g clip-path="url(#1ff7cdb6c2)"><path fill="#25284d" d="M 123.394531 363.648438 L 123.394531 346.722656 L 134.585938 346.722656 L 134.585938 363.648438 Z M 123.394531 363.648438 " fill-opacity="1" fill-rule="nonzero"/></g></g><g clip-path="url(#b7e7f3d3d1)"><g clip-path="url(#06d08eb56e)"><path fill="#25284d" d="M 143.308594 360.011719 L 143.308594 343.089844 L 154.503906 343.089844 L 154.503906 360.011719 Z M 143.308594 360.011719 " fill-opacity="1" fill-rule="nonzero"/></g></g><g clip-path="url(#0c387fe783)"><g clip-path="url(#5056cc2d45)"><path fill="#fe9284" d="M 89.78125 192.726562 L 114.972656 192.726562 L 114.972656 219.496094 L 89.78125 219.496094 Z M 89.78125 192.726562 " fill-opacity="1" fill-rule="nonzero"/></g></g><g clip-path="url(#bc8eb7920a)"><g clip-path="url(#2d476d9c5d)"><path fill="#60b9b9" d="M 207.734375 360.023438 L 207.734375 229.160156 L 287.5 229.160156 L 287.5 360.023438 Z M 207.734375 360.023438 " fill-opacity="1" fill-rule="nonzero"/></g></g><g clip-path="url(#9fabf706db)"><g clip-path="url(#047654cf02)"><path fill="#25284d" d="M 221.738281 360.011719 L 221.738281 343.089844 L 232.933594 343.089844 L 232.933594 360.011719 Z M 221.738281 360.011719 " fill-opacity="1" fill-rule="nonzero"/></g></g><g clip-path="url(#f9284fe7c5)"><g clip-path="url(#0dd8d9ae66)"><path fill="#25284d" d="M 241.335938 363.648438 L 241.335938 346.722656 L 252.53125 346.722656 L 252.53125 363.648438 Z M 241.335938 363.648438 " fill-opacity="1" fill-rule="nonzero"/></g></g><g clip-path="url(#1c244a0141)"><g clip-path="url(#738828a977)"><path fill="#25284d" d="M 261.253906 360.011719 L 261.253906 343.089844 L 272.449219 343.089844 L 272.449219 360.011719 Z M 261.253906 360.011719 " fill-opacity="1" fill-rule="nonzero"/></g></g><g clip-path="url(#a74459345b)"><g clip-path="url(#c3f07763b4)"><path fill="#0c8794" d="M 96.269531 313.25 L 96.269531 241.964844 L 123.464844 241.964844 L 123.464844 313.25 Z M 96.269531 313.25 " fill-opacity="1" fill-rule="nonzero"/></g></g><g clip-path="url(#54dbd45ebf)"><g clip-path="url(#d934403252)"><path fill="#60b9b9" d="M 94.824219 307.242188 L 94.824219 234.722656 L 124.863281 234.722656 L 124.863281 307.242188 Z M 94.824219 307.242188 " fill-opacity="1" fill-rule="nonzero"/></g></g><g clip-path="url(#b7b562b27d)"><g clip-path="url(#8a5ed234aa)"><path fill="#c1efe3" d="M 119.222656 221.230469 L 249.941406 221.230469 L 249.941406 294.617188 L 119.222656 294.617188 Z M 119.222656 221.230469 " fill-opacity="1" fill-rule="nonzero"/></g></g><g clip-path="url(#0566278d35)"><g clip-path="url(#18f30afaf2)"><path fill="#0c8794" d="M 68.316406 323.710938 L 68.316406 257.847656 L 95.511719 257.847656 L 95.511719 323.710938 Z M 68.316406 323.710938 " fill-opacity="1" fill-rule="nonzero"/></g></g><g clip-path="url(#2251541067)"><g clip-path="url(#3373b9cf16)"><path fill="#60b9b9" d="M 66.882812 318.207031 L 66.882812 257.894531 L 96.921875 257.894531 L 96.921875 318.207031 Z M 66.882812 318.207031 " fill-opacity="1" fill-rule="nonzero"/></g></g><g clip-path="url(#dccef6ed9e)"><g clip-path="url(#3003e7a0d5)"><path fill="#0c8794" d="M 277.011719 323.710938 L 277.011719 253.597656 L 304.207031 253.597656 L 304.207031 323.710938 Z M 277.011719 323.710938 " fill-opacity="1" fill-rule="nonzero"/></g></g><g clip-path="url(#34d9b9ee18)"><g clip-path="url(#9028818398)"><path fill="#60b9b9" d="M 275.574219 317.832031 L 275.574219 244.609375 L 305.617188 244.609375 L 305.617188 317.832031 Z M 275.574219 317.832031 " fill-opacity="1" fill-rule="nonzero"/></g></g><g clip-path="url(#9630d05249)"><g clip-path="url(#b75b564098)"><path fill="#0c8794" d="M 120.992188 319.390625 L 120.992188 268.71875 L 148.1875 268.71875 L 148.1875 319.390625 Z M 120.992188 319.390625 " fill-opacity="1" fill-rule="nonzero"/></g></g><g clip-path="url(#4e8224d5e2)"><g clip-path="url(#6be4cafe68)"><path fill="#c1efe3" d="M 119.550781 312.15625 L 119.550781 262.289062 L 149.589844 262.289062 L 149.589844 312.15625 Z M 119.550781 312.15625 " fill-opacity="1" fill-rule="nonzero"/></g></g><g clip-path="url(#0cc0250561)"><g clip-path="url(#878034ff03)"><path fill="#c1efe3" d="M 169.589844 318.203125 L 169.589844 257.84375 L 207.746094 257.84375 L 207.746094 318.203125 Z M 169.589844 318.203125 " fill-opacity="1" fill-rule="nonzero"/></g></g><g clip-path="url(#d803ec024f)"><g clip-path="url(#5c1f6af177)"><path fill="#0c8794" d="M 143.628906 319.375 L 143.628906 253.511719 L 170.824219 253.511719 L 170.824219 319.375 Z M 143.628906 319.375 " fill-opacity="1" fill-rule="nonzero"/></g></g><g clip-path="url(#b6c1f76c1f)"><g clip-path="url(#353b0f049a)"><path fill="#c1efe3" d="M 142.191406 313.859375 L 142.191406 247.445312 L 172.230469 247.445312 L 172.230469 313.859375 Z M 142.191406 313.859375 " fill-opacity="1" fill-rule="nonzero"/></g></g><g clip-path="url(#61322b9cd2)"><g clip-path="url(#4e9f7cfe6f)"><path fill="#0c8794" d="M 249.136719 323.714844 L 249.136719 253.59375 L 278.46875 253.59375 L 278.46875 323.714844 Z M 249.136719 323.714844 " fill-opacity="1" fill-rule="nonzero"/></g></g><g clip-path="url(#672fe074df)"><g clip-path="url(#67062a4893)"><path fill="#60b9b9" d="M 247.621094 317.835938 L 247.621094 247.472656 L 280.019531 247.472656 L 280.019531 317.835938 Z M 247.621094 317.835938 " fill-opacity="1" fill-rule="nonzero"/></g></g><g clip-path="url(#a0d7cd1cab)"><g clip-path="url(#ea5b91f38a)"><path fill="#0c8794" d="M 209.628906 324.992188 L 209.628906 274.359375 L 245.734375 274.359375 L 245.734375 324.992188 Z M 209.628906 324.992188 " fill-opacity="1" fill-rule="nonzero"/></g></g><g clip-path="url(#02ffe6f215)"><g clip-path="url(#d03ae45330)"><path fill="#c1efe3" d="M 207.726562 317.757812 L 207.726562 267.90625 L 247.609375 267.90625 L 247.609375 317.757812 Z M 207.726562 317.757812 " fill-opacity="1" fill-rule="nonzero"/></g></g><g clip-path="url(#8b67b49b57)"><g clip-path="url(#add61a1b72)"><g clip-path="url(#01b0a937b4)"><path fill="#60b9b9" d="M 46.832031 169.328125 L 38.882812 153.605469 L 82.917969 131.339844 L 90.871094 147.0625 Z M 46.832031 169.328125 " fill-opacity="1" fill-rule="nonzero"/></g></g></g><g clip-path="url(#4a4f7d59a9)"><g clip-path="url(#e9ac106dbc)"><g clip-path="url(#9897273439)"><path fill="#60b9b9" d="M 53.042969 148.359375 L 44.171875 133.136719 L 86.804688 108.289062 L 95.675781 123.511719 Z M 53.042969 148.359375 " fill-opacity="1" fill-rule="nonzero"/></g></g></g><g clip-path="url(#d089a94d80)"><g clip-path="url(#7eacd6f245)"><g clip-path="url(#be4c3d484a)"><path fill="#60b9b9" d="M 53.179688 127.503906 L 45.042969 111.878906 L 88.8125 89.089844 L 96.949219 104.71875 Z M 53.179688 127.503906 " fill-opacity="1" fill-rule="nonzero"/></g></g></g><g clip-path="url(#bee64c6030)"><g clip-path="url(#9fec4c609b)"><g clip-path="url(#40629addf3)"><path fill="#60b9b9" d="M 321.453125 115.6875 L 313.410156 131.363281 L 269.503906 108.839844 L 277.546875 93.164062 Z M 321.453125 115.6875 " fill-opacity="1" fill-rule="nonzero"/></g></g></g><g clip-path="url(#6470c634a4)"><g clip-path="url(#e99925771b)"><g clip-path="url(#a2c731445c)"><path fill="#60b9b9" d="M 328.914062 141.203125 L 320.871094 156.882812 L 276.964844 134.359375 L 285.007812 118.683594 Z M 328.914062 141.203125 " fill-opacity="1" fill-rule="nonzero"/></g></g></g><g clip-path="url(#e32b07bbbe)"><g clip-path="url(#66de971b1f)"><g clip-path="url(#08e213ebf8)"><path fill="#60b9b9" d="M 331.917969 160.296875 L 323.878906 175.976562 L 279.96875 153.453125 L 288.011719 137.773438 Z M 331.917969 160.296875 " fill-opacity="1" fill-rule="nonzero"/></g></g></g><g clip-path="url(#e6d3297ca9)"><g clip-path="url(#adb0d6caed)"><g clip-path="url(#1bd7f774e5)"><path fill="#60b9b9" d="M 153.589844 23.710938 L 184.597656 35.085938 L 177.152344 55.386719 L 146.144531 44.015625 Z M 153.589844 23.710938 " fill-opacity="1" fill-rule="nonzero"/></g></g></g><g clip-path="url(#4436e3ba9f)"><g clip-path="url(#e764e0fa88)"><g clip-path="url(#5438b3d828)"><path fill="#60b9b9" d="M 165.371094 38.601562 L 203.859375 8.46875 L 223.589844 33.667969 L 185.097656 63.800781 Z M 165.371094 38.601562 " fill-opacity="1" fill-rule="nonzero"/></g></g></g><g clip-path="url(#ee5ca64c90)"><g clip-path="url(#6b3043a114)"><g clip-path="url(#563e8b53ba)"><path fill="#60b9b9" d="M 287.96875 13.457031 L 319.59375 51.351562 L 272.96875 90.269531 L 241.34375 52.375 Z M 287.96875 13.457031 " fill-opacity="1" fill-rule="nonzero"/></g></g></g><g clip-path="url(#9863bdd7e1)"><g clip-path="url(#756a0e1e54)"><g clip-path="url(#d15d99d584)"><path fill="#0c8794" d="M 284.144531 24.023438 L 308.511719 53.21875 L 272.589844 83.203125 L 248.222656 54.007812 Z M 284.144531 24.023438 " fill-opacity="1" fill-rule="nonzero"/></g></g></g><g clip-path="url(#983b5d45ef)"><g clip-path="url(#5c84d51bc2)"><g clip-path="url(#4b06774849)"><path fill="#fe9284" d="M 272.980469 44.804688 L 285.828125 60.195312 L 266.890625 76.003906 L 254.042969 60.613281 Z M 272.980469 44.804688 " fill-opacity="1" fill-rule="nonzero"/></g></g></g><g clip-path="url(#f28d58c0c5)"><g clip-path="url(#d5223b6275)"><g clip-path="url(#a9ba288bd1)"><path fill="#60b9b9" d="M 51.273438 46.71875 L 88.65625 14.488281 L 128.316406 60.480469 L 90.9375 92.714844 Z M 51.273438 46.71875 " fill-opacity="1" fill-rule="nonzero"/></g></g></g><g clip-path="url(#5529b2c004)"><g clip-path="url(#4a339103c1)"><g clip-path="url(#e991057381)"><path fill="#0c8794" d="M 61.886719 50.378906 L 90.683594 25.546875 L 121.242188 60.980469 L 92.441406 85.816406 Z M 61.886719 50.378906 " fill-opacity="1" fill-rule="nonzero"/></g></g></g><g clip-path="url(#0ede6c4f40)"><g clip-path="url(#21217a2492)"><g clip-path="url(#4990007c88)"><path fill="#fe9284" d="M 82.847656 61.203125 L 98.027344 48.109375 L 114.136719 66.792969 L 98.953125 79.882812 Z M 82.847656 61.203125 " fill-opacity="1" fill-rule="nonzero"/></g></g></g><g clip-path="url(#c8071a01f8)"><g clip-path="url(#12432db02c)"><path fill="#0c8794" d="M 197 120.484375 L 258.777344 120.484375 L 258.777344 182.261719 L 197 182.261719 Z M 197 120.484375 " fill-opacity="1" fill-rule="nonzero"/></g></g><g clip-path="url(#f7f682df46)"><g clip-path="url(#41db7054e6)"><path fill="#fdfcea" d="M 194.386719 117.878906 L 256.164062 117.878906 L 256.164062 179.660156 L 194.386719 179.660156 Z M 194.386719 117.878906 " fill-opacity="1" fill-rule="nonzero"/></g></g><g clip-path="url(#a1ece0d963)"><g clip-path="url(#a24b1c9253)"><path fill="#25284d" d="M 200.238281 122.179688 L 250.308594 122.179688 L 250.308594 175.378906 L 200.238281 175.378906 Z M 200.238281 122.179688 " fill-opacity="1" fill-rule="nonzero"/></g></g><g clip-path="url(#c933085fbe)"><g clip-path="url(#bf7dfeefd3)"><path fill="#fdfcea" d="M 206.089844 133.222656 L 223.378906 133.222656 L 223.378906 150.515625 L 206.089844 150.515625 Z M 206.089844 133.222656 " fill-opacity="1" fill-rule="nonzero"/></g></g><g clip-path="url(#52be77377e)"><g clip-path="url(#9cb5c8053b)"><path fill="#fdfcea" d="M 223.386719 148.769531 L 233.414062 148.769531 L 233.414062 158.792969 L 223.386719 158.792969 Z M 223.386719 148.769531 " fill-opacity="1" fill-rule="nonzero"/></g></g><g clip-path="url(#d6115785e5)"><g clip-path="url(#f3412d0641)"><path fill="#60b9b9" d="M 104.253906 134.714844 L 164.976562 134.714844 L 164.976562 185.023438 L 104.253906 185.023438 Z M 104.253906 134.714844 " fill-opacity="1" fill-rule="nonzero"/></g></g><path stroke-linecap="round" transform="matrix(1.744326, 0.000000000000000083, -0.000000000000000083, 1.744326, 100.695833, 127.517336)" fill="none" stroke-linejoin="miter" d="M 4.832336 15.630061 C 14.587181 -0.583226 24.339786 -0.542917 34.092392 15.74651 " stroke="#25284d" stroke-width="7" stroke-opacity="1" stroke-miterlimit="4"/><g clip-path="url(#a3a70935a8)"><g clip-path="url(#c914bd82f3)"><path fill="#60b9b9" d="M 196.253906 134.195312 L 256.972656 134.195312 L 256.972656 184.503906 L 196.253906 184.503906 Z M 196.253906 134.195312 " fill-opacity="1" fill-rule="nonzero"/></g></g><path stroke-linecap="round" transform="matrix(1.744326, 0.000000000000000083, -0.000000000000000083, 1.744326, 192.693551, 126.997141)" fill="none" stroke-linejoin="miter" d="M 4.833644 15.630441 C 14.58625 -0.582846 24.341095 -0.542536 34.0937 15.74689 " stroke="#25284d" stroke-width="7" stroke-opacity="1" stroke-miterlimit="4"/></svg>