<svg xmlns="http://www.w3.org/2000/svg" xmlns:xlink="http://www.w3.org/1999/xlink" width="500" zoomAndPan="magnify" viewBox="0 0 375 374.999991" height="500" preserveAspectRatio="xMidYMid meet" version="1.0"><defs><clipPath id="bceaceb41a"><path d="M 6 162 L 129 162 L 129 226 L 6 226 Z M 6 162 " clip-rule="nonzero"/></clipPath><clipPath id="9d8f66e039"><path d="M 132.648438 171.566406 L 124.347656 232.363281 L 2.273438 215.699219 L 10.574219 154.898438 Z M 132.648438 171.566406 " clip-rule="nonzero"/></clipPath><clipPath id="85f23f607c"><path d="M 128.496094 201.964844 C 130.789062 185.175781 105.371094 167.84375 71.722656 163.25 C 38.078125 158.65625 8.945312 168.542969 6.652344 185.332031 C 4.359375 202.121094 29.777344 219.453125 63.421875 224.046875 C 97.070312 228.640625 126.203125 218.753906 128.496094 201.964844 Z M 128.496094 201.964844 " clip-rule="nonzero"/></clipPath><clipPath id="707b925d4a"><path d="M 14 177 L 106 177 L 106 225 L 14 225 Z M 14 177 " clip-rule="nonzero"/></clipPath><clipPath id="7d2714930b"><path d="M 108.085938 185 L 101.925781 230.117188 L 11.335938 217.75 L 17.496094 172.632812 Z M 108.085938 185 " clip-rule="nonzero"/></clipPath><clipPath id="16b85bd7b0"><path d="M 105.003906 207.558594 C 106.707031 195.101562 87.84375 182.238281 62.875 178.828125 C 37.90625 175.417969 16.285156 182.753906 14.585938 195.214844 C 12.882812 207.671875 31.746094 220.535156 56.714844 223.945312 C 81.683594 227.355469 103.304688 220.019531 105.003906 207.558594 Z M 105.003906 207.558594 " clip-rule="nonzero"/></clipPath><clipPath id="feb20124e3"><path d="M 252 164 L 372 164 L 372 234 L 252 234 Z M 252 164 " clip-rule="nonzero"/></clipPath><clipPath id="5b581c1afa"><path d="M 262.253906 246.242188 L 244.410156 187.53125 L 362.292969 151.707031 L 380.132812 210.417969 Z M 262.253906 246.242188 " clip-rule="nonzero"/></clipPath><clipPath id="7d95a7061e"><path d="M 253.332031 216.886719 C 258.257812 233.101562 288.59375 238.238281 321.082031 228.363281 C 353.574219 218.492188 375.921875 197.34375 370.996094 181.128906 C 366.066406 164.917969 335.734375 159.777344 303.242188 169.652344 C 270.75 179.527344 248.40625 200.675781 253.332031 216.886719 Z M 253.332031 216.886719 " clip-rule="nonzero"/></clipPath><clipPath id="c88a4bb78d"><path d="M 273 182 L 363 182 L 363 234 L 273 234 Z M 273 182 " clip-rule="nonzero"/></clipPath><clipPath id="a1a74dcf78"><path d="M 280.910156 242.976562 L 267.667969 199.410156 L 355.144531 172.824219 L 368.386719 216.394531 Z M 280.910156 242.976562 " clip-rule="nonzero"/></clipPath><clipPath id="bdf525a3d7"><path d="M 274.289062 221.191406 C 277.945312 233.222656 300.453125 237.039062 324.566406 229.710938 C 348.679688 222.382812 365.261719 206.691406 361.605469 194.660156 C 357.949219 182.628906 335.4375 178.8125 311.328125 186.140625 C 287.214844 193.46875 270.632812 209.160156 274.289062 221.191406 Z M 274.289062 221.191406 " clip-rule="nonzero"/></clipPath><clipPath id="ea26940a3b"><path d="M 65.660156 39.308594 L 303.792969 39.308594 L 303.792969 302 L 65.660156 302 Z M 65.660156 39.308594 " clip-rule="nonzero"/></clipPath><clipPath id="9782db88da"><path d="M 145.078125 45.46875 C 157.25 41.75 171.167969 39.308594 184.789062 39.308594 C 198.414062 39.308594 211.519531 41.402344 223.601562 45.121094 C 223.859375 45.238281 224.113281 45.238281 224.371094 45.351562 C 269.734375 60.230469 303.148438 99.511719 303.792969 145.421875 L 303.792969 301.859375 L 65.660156 301.859375 L 65.660156 145.539062 C 66.300781 99.28125 99.199219 59.996094 145.078125 45.46875 Z M 145.078125 45.46875 " clip-rule="nonzero"/></clipPath><clipPath id="b55c912259"><path d="M 156.097656 193 L 184.101562 193 L 184.101562 210.441406 L 156.097656 210.441406 Z M 156.097656 193 " clip-rule="nonzero"/></clipPath><clipPath id="265f695db8"><path d="M 180.730469 193 L 206.984375 193 L 206.984375 210.4375 L 180.730469 210.4375 Z M 180.730469 193 " clip-rule="nonzero"/></clipPath><clipPath id="c5a76a8732"><path d="M 249.378906 193.015625 L 274.65625 193.015625 L 274.65625 219.875 L 249.378906 219.875 Z M 249.378906 193.015625 " clip-rule="nonzero"/></clipPath><clipPath id="63622e6761"><path d="M 262.019531 193.015625 C 255.039062 193.015625 249.378906 199.027344 249.378906 206.445312 C 249.378906 213.859375 255.039062 219.875 262.019531 219.875 C 269 219.875 274.65625 213.859375 274.65625 206.445312 C 274.65625 199.027344 269 193.015625 262.019531 193.015625 Z M 262.019531 193.015625 " clip-rule="nonzero"/></clipPath><clipPath id="b12c4e687e"><path d="M 103.917969 120.523438 L 165.90625 120.523438 L 165.90625 182.515625 L 103.917969 182.515625 Z M 103.917969 120.523438 " clip-rule="nonzero"/></clipPath><clipPath id="2038fd2983"><path d="M 134.910156 120.523438 C 117.792969 120.523438 103.917969 134.402344 103.917969 151.519531 C 103.917969 168.636719 117.792969 182.515625 134.910156 182.515625 C 152.03125 182.515625 165.90625 168.636719 165.90625 151.519531 C 165.90625 134.402344 152.03125 120.523438 134.910156 120.523438 Z M 134.910156 120.523438 " clip-rule="nonzero"/></clipPath><clipPath id="cad76dded8"><path d="M 101.292969 117.910156 L 163.285156 117.910156 L 163.285156 179.902344 L 101.292969 179.902344 Z M 101.292969 117.910156 " clip-rule="nonzero"/></clipPath><clipPath id="935cb91bc0"><path d="M 132.289062 117.910156 C 115.171875 117.910156 101.292969 131.789062 101.292969 148.90625 C 101.292969 166.023438 115.171875 179.902344 132.289062 179.902344 C 149.40625 179.902344 163.285156 166.023438 163.285156 148.90625 C 163.285156 131.789062 149.40625 117.910156 132.289062 117.910156 Z M 132.289062 117.910156 " clip-rule="nonzero"/></clipPath><clipPath id="53353838f6"><path d="M 107.164062 122.226562 L 157.40625 122.226562 L 157.40625 175.609375 L 107.164062 175.609375 Z M 107.164062 122.226562 " clip-rule="nonzero"/></clipPath><clipPath id="23fe336b26"><path d="M 132.285156 122.226562 C 118.410156 122.226562 107.164062 134.175781 107.164062 148.917969 C 107.164062 163.65625 118.410156 175.605469 132.285156 175.605469 C 146.160156 175.605469 157.40625 163.65625 157.40625 148.917969 C 157.40625 134.175781 146.160156 122.226562 132.285156 122.226562 Z M 132.285156 122.226562 " clip-rule="nonzero"/></clipPath><clipPath id="de01528f94"><path d="M 113.035156 133.308594 L 130.386719 133.308594 L 130.386719 150.65625 L 113.035156 150.65625 Z M 113.035156 133.308594 " clip-rule="nonzero"/></clipPath><clipPath id="f3d1547f43"><path d="M 121.710938 133.308594 C 116.917969 133.308594 113.035156 137.191406 113.035156 141.980469 C 113.035156 146.773438 116.917969 150.65625 121.710938 150.65625 C 126.5 150.65625 130.386719 146.773438 130.386719 141.980469 C 130.386719 137.191406 126.5 133.308594 121.710938 133.308594 Z M 121.710938 133.308594 " clip-rule="nonzero"/></clipPath><clipPath id="398ec4d33c"><path d="M 130.394531 148.90625 L 140.457031 148.90625 L 140.457031 158.964844 L 130.394531 158.964844 Z M 130.394531 148.90625 " clip-rule="nonzero"/></clipPath><clipPath id="d33d2a0b55"><path d="M 135.425781 148.90625 C 132.648438 148.90625 130.394531 151.15625 130.394531 153.9375 C 130.394531 156.714844 132.648438 158.964844 135.425781 158.964844 C 138.203125 158.964844 140.457031 156.714844 140.457031 153.9375 C 140.457031 151.15625 138.203125 148.90625 135.425781 148.90625 Z M 135.425781 148.90625 " clip-rule="nonzero"/></clipPath><clipPath id="9f96b5abbc"><path d="M 88.652344 229.574219 L 168.6875 229.574219 L 168.6875 361 L 88.652344 361 Z M 88.652344 229.574219 " clip-rule="nonzero"/></clipPath><clipPath id="11091fd25c"><path d="M 88.652344 262.429688 C 88.652344 244.304688 106.570312 229.613281 128.671875 229.613281 C 150.773438 229.613281 168.6875 244.304688 168.6875 262.429688 L 168.6875 328.070312 C 168.6875 346.195312 150.773438 360.886719 128.671875 360.886719 C 106.570312 360.886719 88.652344 346.195312 88.652344 328.070312 Z M 88.652344 262.429688 " clip-rule="nonzero"/></clipPath><clipPath id="4c0b1c39df"><path d="M 102.703125 343.898438 L 113.9375 343.898438 L 113.9375 360.878906 L 102.703125 360.878906 Z M 102.703125 343.898438 " clip-rule="nonzero"/></clipPath><clipPath id="4887b09874"><path d="M 102.703125 349.53125 C 102.703125 346.429688 105.21875 343.914062 108.320312 343.914062 C 111.421875 343.914062 113.9375 346.429688 113.9375 349.53125 L 113.9375 355.261719 C 113.9375 358.363281 111.421875 360.878906 108.320312 360.878906 C 105.21875 360.878906 102.703125 358.363281 102.703125 355.261719 Z M 102.703125 349.53125 " clip-rule="nonzero"/></clipPath><clipPath id="0957378b4a"><path d="M 122.371094 347.542969 L 133.601562 347.542969 L 133.601562 364.523438 L 122.371094 364.523438 Z M 122.371094 347.542969 " clip-rule="nonzero"/></clipPath><clipPath id="c65e64cfb8"><path d="M 122.371094 353.175781 C 122.371094 350.074219 124.882812 347.558594 127.984375 347.558594 C 131.089844 347.558594 133.601562 350.074219 133.601562 353.175781 L 133.601562 358.910156 C 133.601562 362.011719 131.089844 364.523438 127.984375 364.523438 C 124.882812 364.523438 122.371094 362.011719 122.371094 358.910156 Z M 122.371094 353.175781 " clip-rule="nonzero"/></clipPath><clipPath id="724b4291dd"><path d="M 142.355469 343.898438 L 153.585938 343.898438 L 153.585938 360.878906 L 142.355469 360.878906 Z M 142.355469 343.898438 " clip-rule="nonzero"/></clipPath><clipPath id="a4d056a6ea"><path d="M 142.355469 349.53125 C 142.355469 346.429688 144.867188 343.914062 147.972656 343.914062 C 151.074219 343.914062 153.585938 346.429688 153.585938 349.53125 L 153.585938 355.261719 C 153.585938 358.363281 151.074219 360.878906 147.972656 360.878906 C 144.867188 360.878906 142.355469 358.363281 142.355469 355.261719 Z M 142.355469 349.53125 " clip-rule="nonzero"/></clipPath><clipPath id="57775d6d6a"><path d="M 88.640625 193.015625 L 113.921875 193.015625 L 113.921875 219.875 L 88.640625 219.875 Z M 88.640625 193.015625 " clip-rule="nonzero"/></clipPath><clipPath id="251aec407c"><path d="M 101.28125 193.015625 C 94.300781 193.015625 88.640625 199.027344 88.640625 206.445312 C 88.640625 213.859375 94.300781 219.875 101.28125 219.875 C 108.261719 219.875 113.921875 213.859375 113.921875 206.445312 C 113.921875 199.027344 108.261719 193.015625 101.28125 193.015625 Z M 101.28125 193.015625 " clip-rule="nonzero"/></clipPath><clipPath id="3b820e0ecc"><path d="M 207.003906 229.574219 L 287.039062 229.574219 L 287.039062 361 L 207.003906 361 Z M 207.003906 229.574219 " clip-rule="nonzero"/></clipPath><clipPath id="b52ff6319d"><path d="M 207.003906 262.429688 C 207.003906 244.304688 224.917969 229.613281 247.019531 229.613281 C 269.125 229.613281 287.039062 244.304688 287.039062 262.429688 L 287.039062 328.070312 C 287.039062 346.195312 269.125 360.886719 247.019531 360.886719 C 224.917969 360.886719 207.003906 346.195312 207.003906 328.070312 Z M 207.003906 262.429688 " clip-rule="nonzero"/></clipPath><clipPath id="26528be1c4"><path d="M 221.054688 343.898438 L 232.285156 343.898438 L 232.285156 360.878906 L 221.054688 360.878906 Z M 221.054688 343.898438 " clip-rule="nonzero"/></clipPath><clipPath id="0fb6d3176a"><path d="M 221.054688 349.53125 C 221.054688 346.429688 223.566406 343.914062 226.671875 343.914062 C 229.773438 343.914062 232.285156 346.429688 232.285156 349.53125 L 232.285156 355.261719 C 232.285156 358.363281 229.773438 360.878906 226.671875 360.878906 C 223.566406 360.878906 221.054688 358.363281 221.054688 355.261719 Z M 221.054688 349.53125 " clip-rule="nonzero"/></clipPath><clipPath id="894523a84a"><path d="M 240.722656 347.542969 L 251.953125 347.542969 L 251.953125 364.523438 L 240.722656 364.523438 Z M 240.722656 347.542969 " clip-rule="nonzero"/></clipPath><clipPath id="dda421d788"><path d="M 240.722656 353.175781 C 240.722656 350.074219 243.234375 347.558594 246.335938 347.558594 C 249.4375 347.558594 251.953125 350.074219 251.953125 353.175781 L 251.953125 358.910156 C 251.953125 362.011719 249.4375 364.523438 246.335938 364.523438 C 243.234375 364.523438 240.722656 362.011719 240.722656 358.910156 Z M 240.722656 353.175781 " clip-rule="nonzero"/></clipPath><clipPath id="540b7dffe0"><path d="M 260.707031 343.898438 L 271.9375 343.898438 L 271.9375 360.878906 L 260.707031 360.878906 Z M 260.707031 343.898438 " clip-rule="nonzero"/></clipPath><clipPath id="fc225cdd38"><path d="M 260.707031 349.53125 C 260.707031 346.429688 263.21875 343.914062 266.320312 343.914062 C 269.425781 343.914062 271.9375 346.429688 271.9375 349.53125 L 271.9375 355.261719 C 271.9375 358.363281 269.425781 360.878906 266.320312 360.878906 C 263.21875 360.878906 260.707031 358.363281 260.707031 355.261719 Z M 260.707031 349.53125 " clip-rule="nonzero"/></clipPath><clipPath id="61fcc82e69"><path d="M 95.152344 242.320312 L 122.441406 242.320312 L 122.441406 313.953125 L 95.152344 313.953125 Z M 95.152344 242.320312 " clip-rule="nonzero"/></clipPath><clipPath id="3c03cc6437"><path d="M 95.152344 265.046875 C 95.152344 252.527344 101.261719 242.375 108.796875 242.375 C 116.332031 242.375 122.441406 252.527344 122.441406 265.046875 L 122.441406 291.28125 C 122.441406 303.804688 116.332031 313.953125 108.796875 313.953125 C 101.261719 313.953125 95.152344 303.804688 95.152344 291.28125 Z M 95.152344 265.046875 " clip-rule="nonzero"/></clipPath><clipPath id="7907759107"><path d="M 93.703125 235.039062 L 123.847656 235.039062 L 123.847656 307.921875 L 93.703125 307.921875 Z M 93.703125 235.039062 " clip-rule="nonzero"/></clipPath><clipPath id="da7d39aa35"><path d="M 93.703125 260.167969 C 93.703125 246.335938 100.453125 235.121094 108.777344 235.121094 C 117.101562 235.121094 123.847656 246.335938 123.847656 260.167969 L 123.847656 282.878906 C 123.847656 296.710938 117.101562 307.921875 108.777344 307.921875 C 100.453125 307.921875 93.703125 296.710938 93.703125 282.878906 Z M 93.703125 260.167969 " clip-rule="nonzero"/></clipPath><clipPath id="2b7fec6cf9"><path d="M 118.183594 221.617188 L 249.640625 221.617188 L 249.640625 295.253906 L 118.183594 295.253906 Z M 118.183594 221.617188 " clip-rule="nonzero"/></clipPath><clipPath id="1e5ee32b6a"><path d="M 161.941406 226.039062 C 168.644531 223.371094 176.3125 221.617188 183.820312 221.617188 C 191.324219 221.617188 198.546875 223.121094 205.203125 225.789062 C 205.34375 225.875 205.484375 225.875 205.625 225.957031 C 230.621094 236.636719 249.027344 264.84375 249.382812 295.253906 L 118.183594 295.253906 C 118.539062 264.675781 136.664062 236.472656 161.941406 226.039062 Z M 161.941406 226.039062 " clip-rule="nonzero"/></clipPath><clipPath id="5bc2a4f0a6"><path d="M 67.105469 258.359375 L 94.394531 258.359375 L 94.394531 324.449219 L 67.105469 324.449219 Z M 67.105469 258.359375 " clip-rule="nonzero"/></clipPath><clipPath id="bdb38f344a"><path d="M 67.105469 281.078125 C 67.105469 268.558594 73.214844 258.40625 80.75 258.40625 C 88.285156 258.40625 94.394531 268.558594 94.394531 281.078125 L 94.394531 301.777344 C 94.394531 314.300781 88.285156 324.449219 80.75 324.449219 C 73.214844 324.449219 67.105469 314.300781 67.105469 301.777344 Z M 67.105469 281.078125 " clip-rule="nonzero"/></clipPath><clipPath id="4118c19790"><path d="M 65.660156 258.40625 L 95.804688 258.40625 L 95.804688 318.929688 L 65.660156 318.929688 Z M 65.660156 258.40625 " clip-rule="nonzero"/></clipPath><clipPath id="f43e75e645"><path d="M 65.660156 283.476562 C 65.660156 269.644531 72.410156 258.433594 80.734375 258.433594 C 89.058594 258.433594 95.804688 269.644531 95.804688 283.476562 L 95.804688 293.882812 C 95.804688 307.714844 89.058594 318.929688 80.734375 318.929688 C 72.410156 318.929688 65.660156 307.714844 65.660156 293.882812 Z M 65.660156 283.476562 " clip-rule="nonzero"/></clipPath><clipPath id="ec21d7716d"><path d="M 276.519531 254 L 303.808594 254 L 303.808594 324.449219 L 276.519531 324.449219 Z M 276.519531 254 " clip-rule="nonzero"/></clipPath><clipPath id="10bbf47059"><path d="M 276.519531 276.730469 C 276.519531 264.207031 282.628906 254.054688 290.164062 254.054688 C 297.703125 254.054688 303.808594 264.207031 303.808594 276.730469 L 303.808594 301.777344 C 303.808594 314.300781 297.703125 324.449219 290.164062 324.449219 C 282.628906 324.449219 276.519531 314.300781 276.519531 301.777344 Z M 276.519531 276.730469 " clip-rule="nonzero"/></clipPath><clipPath id="faa198120d"><path d="M 275.078125 245.074219 L 305.21875 245.074219 L 305.21875 318.550781 L 275.078125 318.550781 Z M 275.078125 245.074219 " clip-rule="nonzero"/></clipPath><clipPath id="88fd9bbb17"><path d="M 275.078125 270.175781 C 275.078125 256.34375 281.824219 245.132812 290.148438 245.132812 C 298.472656 245.132812 305.21875 256.34375 305.21875 270.175781 L 305.21875 293.503906 C 305.21875 307.335938 298.472656 318.550781 290.148438 318.550781 C 281.824219 318.550781 275.078125 307.335938 275.078125 293.503906 Z M 275.078125 270.175781 " clip-rule="nonzero"/></clipPath><clipPath id="44745813cd"><path d="M 119.960938 269.269531 L 147.25 269.269531 L 147.25 320.117188 L 119.960938 320.117188 Z M 119.960938 269.269531 " clip-rule="nonzero"/></clipPath><clipPath id="a67c265131"><path d="M 119.960938 291.96875 C 119.960938 279.445312 126.070312 269.292969 133.605469 269.292969 C 141.140625 269.292969 147.25 279.445312 147.25 291.96875 L 147.25 297.445312 C 147.25 309.96875 141.140625 320.117188 133.605469 320.117188 C 126.070312 320.117188 119.960938 309.96875 119.960938 297.445312 Z M 119.960938 291.96875 " clip-rule="nonzero"/></clipPath><clipPath id="1c21845e82"><path d="M 118.515625 262.695312 L 148.660156 262.695312 L 148.660156 312.855469 L 118.515625 312.855469 Z M 118.515625 262.695312 " clip-rule="nonzero"/></clipPath><clipPath id="18da21a5fb"><path d="M 118.515625 287.8125 C 118.515625 273.980469 125.261719 262.769531 133.585938 262.769531 C 141.910156 262.769531 148.660156 273.980469 148.660156 287.8125 C 148.660156 301.644531 141.910156 312.855469 133.585938 312.855469 C 125.261719 312.855469 118.515625 301.644531 118.515625 287.8125 Z M 118.515625 287.8125 " clip-rule="nonzero"/></clipPath><clipPath id="97d10085fe"><path d="M 168.726562 258.359375 L 207.011719 258.359375 L 207.011719 318.925781 L 168.726562 318.925781 Z M 168.726562 258.359375 " clip-rule="nonzero"/></clipPath><clipPath id="8aca9fbe0c"><path d="M 168.726562 283.472656 C 168.726562 269.644531 177.296875 258.429688 187.867188 258.429688 C 198.441406 258.429688 207.011719 269.644531 207.011719 283.472656 L 207.011719 293.882812 C 207.011719 307.714844 198.441406 318.925781 187.867188 318.925781 C 177.296875 318.925781 168.726562 307.714844 168.726562 293.882812 Z M 168.726562 283.472656 " clip-rule="nonzero"/></clipPath><clipPath id="6cb72aa14b"><path d="M 142.675781 254.011719 L 169.96875 254.011719 L 169.96875 320.101562 L 142.675781 320.101562 Z M 142.675781 254.011719 " clip-rule="nonzero"/></clipPath><clipPath id="e2d779509c"><path d="M 142.675781 276.730469 C 142.675781 264.207031 148.785156 254.058594 156.324219 254.058594 C 163.859375 254.058594 169.96875 264.207031 169.96875 276.730469 L 169.96875 297.429688 C 169.96875 309.953125 163.859375 320.101562 156.324219 320.101562 C 148.785156 320.101562 142.675781 309.953125 142.675781 297.429688 Z M 142.675781 276.730469 " clip-rule="nonzero"/></clipPath><clipPath id="7df4bf2223"><path d="M 141.234375 247.804688 L 171.375 247.804688 L 171.375 314.566406 L 141.234375 314.566406 Z M 141.234375 247.804688 " clip-rule="nonzero"/></clipPath><clipPath id="19d8175841"><path d="M 141.234375 272.945312 C 141.234375 259.117188 147.980469 247.902344 156.304688 247.902344 C 164.628906 247.902344 171.375 259.117188 171.375 272.945312 L 171.375 289.523438 C 171.375 303.351562 164.628906 314.566406 156.304688 314.566406 C 147.980469 314.566406 141.234375 303.351562 141.234375 289.523438 Z M 141.234375 272.945312 " clip-rule="nonzero"/></clipPath><clipPath id="2f014ac33e"><path d="M 248.546875 254 L 277.980469 254 L 277.980469 324.453125 L 248.546875 324.453125 Z M 248.546875 254 " clip-rule="nonzero"/></clipPath><clipPath id="3bb9d51710"><path d="M 248.546875 276.730469 C 248.546875 264.207031 255.136719 254.058594 263.265625 254.058594 C 271.390625 254.058594 277.980469 264.207031 277.980469 276.730469 L 277.980469 301.777344 C 277.980469 314.300781 271.390625 324.453125 263.265625 324.453125 C 255.136719 324.453125 248.546875 314.300781 248.546875 301.777344 Z M 248.546875 276.730469 " clip-rule="nonzero"/></clipPath><clipPath id="574712663e"><path d="M 247.023438 247.824219 L 279.535156 247.824219 L 279.535156 318.558594 L 247.023438 318.558594 Z M 247.023438 247.824219 " clip-rule="nonzero"/></clipPath><clipPath id="18a371f7bb"><path d="M 247.023438 272.953125 C 247.023438 259.125 254.300781 247.910156 263.28125 247.910156 C 272.257812 247.910156 279.535156 259.125 279.535156 272.953125 L 279.535156 293.511719 C 279.535156 307.34375 272.257812 318.558594 263.28125 318.558594 C 254.300781 318.558594 247.023438 307.34375 247.023438 293.511719 Z M 247.023438 272.953125 " clip-rule="nonzero"/></clipPath><clipPath id="18247b81ea"><path d="M 208.902344 274.789062 L 245.132812 274.789062 L 245.132812 325.738281 L 208.902344 325.738281 Z M 208.902344 274.789062 " clip-rule="nonzero"/></clipPath><clipPath id="dc88194c75"><path d="M 208.902344 297.585938 C 208.902344 285.066406 217.011719 274.914062 227.015625 274.914062 C 237.023438 274.914062 245.132812 285.066406 245.132812 297.585938 L 245.132812 303.066406 C 245.132812 315.585938 237.023438 325.738281 227.015625 325.738281 C 217.011719 325.738281 208.902344 315.585938 208.902344 303.066406 Z M 208.902344 297.585938 " clip-rule="nonzero"/></clipPath><clipPath id="a919524ae2"><path d="M 206.996094 268.296875 L 247.011719 268.296875 L 247.011719 318.476562 L 206.996094 318.476562 Z M 206.996094 268.296875 " clip-rule="nonzero"/></clipPath><clipPath id="2fdd47ea55"><path d="M 206.996094 293.433594 C 206.996094 279.601562 215.953125 268.386719 227.003906 268.386719 C 238.054688 268.386719 247.011719 279.601562 247.011719 293.433594 C 247.011719 307.265625 238.054688 318.476562 227.003906 318.476562 C 215.953125 318.476562 206.996094 307.265625 206.996094 293.433594 Z M 206.996094 293.433594 " clip-rule="nonzero"/></clipPath><clipPath id="e54bae7679"><path d="M 40 131 L 90 131 L 90 166 L 40 166 Z M 40 131 " clip-rule="nonzero"/></clipPath><clipPath id="69c817f0c5"><path d="M 45.546875 169.539062 L 37.566406 153.761719 L 81.757812 131.414062 L 89.734375 147.191406 Z M 45.546875 169.539062 " clip-rule="nonzero"/></clipPath><clipPath id="e1c75900ea"><path d="M 43.464844 163.980469 C 42.707031 163.351562 42.011719 162.546875 41.554688 161.644531 C 41.097656 160.742188 40.855469 159.773438 40.800781 158.796875 C 40.804688 158.773438 40.796875 158.757812 40.796875 158.734375 C 40.679688 155.019531 43.253906 150.9375 47.988281 148.492188 L 81.730469 131.429688 L 89.707031 147.207031 L 55.988281 164.257812 C 51.167969 166.640625 46.371094 166.332031 43.464844 163.980469 Z M 43.464844 163.980469 " clip-rule="nonzero"/></clipPath><clipPath id="59858a6480"><path d="M 46 108 L 95 108 L 95 145 L 46 145 Z M 46 108 " clip-rule="nonzero"/></clipPath><clipPath id="6eddad5458"><path d="M 51.777344 148.496094 L 42.875 133.222656 L 85.65625 108.285156 L 94.558594 123.5625 Z M 51.777344 148.496094 " clip-rule="nonzero"/></clipPath><clipPath id="cf3c8e2599"><path d="M 49.367188 143.074219 C 48.574219 142.492188 47.832031 141.726562 47.324219 140.855469 C 46.8125 139.980469 46.515625 139.027344 46.402344 138.054688 C 46.402344 138.035156 46.394531 138.015625 46.394531 137.996094 C 46.054688 134.292969 48.382812 130.066406 52.960938 127.34375 L 85.628906 108.300781 L 94.53125 123.578125 L 61.886719 142.601562 C 57.21875 145.269531 52.40625 145.246094 49.367188 143.074219 Z M 49.367188 143.074219 " clip-rule="nonzero"/></clipPath><clipPath id="8513df0ccc"><path d="M 47 89 L 96 89 L 96 124 L 47 124 Z M 47 89 " clip-rule="nonzero"/></clipPath><clipPath id="ae9ab77132"><path d="M 51.914062 127.570312 L 43.75 111.886719 L 87.671875 89.019531 L 95.835938 104.703125 Z M 51.914062 127.570312 " clip-rule="nonzero"/></clipPath><clipPath id="bd11005a2c"><path d="M 49.769531 122.039062 C 49.003906 121.417969 48.296875 120.621094 47.832031 119.722656 C 47.363281 118.828125 47.109375 117.863281 47.042969 116.886719 C 47.046875 116.863281 47.035156 116.847656 47.039062 116.824219 C 46.875 113.113281 49.402344 108.996094 54.105469 106.496094 L 87.644531 89.035156 L 95.808594 104.714844 L 62.292969 122.164062 C 57.503906 124.605469 52.699219 124.351562 49.769531 122.039062 Z M 49.769531 122.039062 " clip-rule="nonzero"/></clipPath><clipPath id="4c6f9dae00"><path d="M 269 93 L 318 93 L 318 128 L 269 128 Z M 269 93 " clip-rule="nonzero"/></clipPath><clipPath id="ab359a46ca"><path d="M 321.113281 115.707031 L 313.042969 131.441406 L 268.984375 108.839844 L 277.054688 93.109375 Z M 321.113281 115.707031 " clip-rule="nonzero"/></clipPath><clipPath id="ab985cd98e"><path d="M 317.84375 120.660156 C 317.78125 121.640625 317.539062 122.679688 317.074219 123.578125 C 316.613281 124.476562 315.972656 125.242188 315.214844 125.863281 C 315.195312 125.875 315.1875 125.890625 315.167969 125.902344 C 312.234375 128.183594 307.417969 128.5 302.65625 126.109375 L 269.011719 108.851562 L 277.082031 93.121094 L 310.699219 110.367188 C 315.464844 112.863281 318.035156 116.929688 317.84375 120.660156 Z M 317.84375 120.660156 " clip-rule="nonzero"/></clipPath><clipPath id="a1cd1ac65e"><path d="M 276 118 L 326 118 L 326 154 L 276 154 Z M 276 118 " clip-rule="nonzero"/></clipPath><clipPath id="76a99132d7"><path d="M 328.597656 141.316406 L 320.53125 157.046875 L 276.472656 134.445312 L 284.539062 118.714844 Z M 328.597656 141.316406 " clip-rule="nonzero"/></clipPath><clipPath id="50b95c6014"><path d="M 325.328125 146.265625 C 325.265625 147.25 325.023438 148.285156 324.5625 149.183594 C 324.101562 150.085938 323.460938 150.851562 322.703125 151.46875 C 322.683594 151.480469 322.671875 151.496094 322.652344 151.507812 C 319.71875 153.789062 314.902344 154.105469 310.140625 151.71875 L 276.496094 134.460938 L 284.566406 118.730469 L 318.1875 135.972656 C 322.949219 138.472656 325.519531 142.535156 325.328125 146.265625 Z M 325.328125 146.265625 " clip-rule="nonzero"/></clipPath><clipPath id="88bd20e54c"><path d="M 279 137 L 329 137 L 329 173 L 279 173 Z M 279 137 " clip-rule="nonzero"/></clipPath><clipPath id="45dd8fbe1d"><path d="M 331.613281 160.476562 L 323.546875 176.207031 L 279.488281 153.605469 L 287.554688 137.875 Z M 331.613281 160.476562 " clip-rule="nonzero"/></clipPath><clipPath id="345c956025"><path d="M 328.34375 165.425781 C 328.28125 166.40625 328.039062 167.445312 327.578125 168.34375 C 327.117188 169.246094 326.476562 170.007812 325.71875 170.628906 C 325.699219 170.640625 325.6875 170.65625 325.667969 170.667969 C 322.738281 172.949219 317.917969 173.265625 313.15625 170.875 L 279.511719 153.617188 L 287.582031 137.886719 L 321.203125 155.132812 C 325.964844 157.628906 328.535156 161.695312 328.34375 165.425781 Z M 328.34375 165.425781 " clip-rule="nonzero"/></clipPath><clipPath id="9f3dbf5114"><path d="M 148 27 L 181 27 L 181 51 L 148 51 Z M 148 27 " clip-rule="nonzero"/></clipPath><clipPath id="d007b2d529"><path d="M 152.671875 23.417969 L 183.789062 34.828125 L 176.316406 55.203125 L 145.203125 43.789062 Z M 152.671875 23.417969 " clip-rule="nonzero"/></clipPath><clipPath id="a17f598b36"><path d="M 168.230469 29.125 C 159.636719 25.972656 151 27.976562 148.9375 33.601562 C 146.875 39.230469 152.167969 46.34375 160.757812 49.496094 C 169.347656 52.644531 177.988281 50.640625 180.050781 45.015625 C 182.113281 39.390625 176.820312 32.273438 168.230469 29.125 Z M 168.230469 29.125 " clip-rule="nonzero"/></clipPath><clipPath id="25ac52659a"><path d="M 171 16 L 216 16 L 216 56 L 171 56 Z M 171 16 " clip-rule="nonzero"/></clipPath><clipPath id="f0fe3a1464"><path d="M 164.492188 38.359375 L 203.113281 8.121094 L 222.910156 33.410156 L 184.289062 63.644531 Z M 164.492188 38.359375 " clip-rule="nonzero"/></clipPath><clipPath id="932a505aae"><path d="M 183.800781 23.242188 C 173.136719 31.589844 168.921875 44.019531 174.390625 51 C 179.855469 57.984375 192.933594 56.878906 203.597656 48.527344 C 214.261719 40.179688 218.476562 27.75 213.011719 20.765625 C 207.542969 13.785156 194.464844 14.890625 183.800781 23.242188 Z M 183.800781 23.242188 " clip-rule="nonzero"/></clipPath><clipPath id="3d0b5cb768"><path d="M 240 23 L 310 23 L 310 91 L 240 91 Z M 240 23 " clip-rule="nonzero"/></clipPath><clipPath id="803f91c080"><path d="M 287.515625 13.128906 L 319.25 51.152344 L 272.316406 90.328125 L 240.578125 52.304688 Z M 287.515625 13.128906 " clip-rule="nonzero"/></clipPath><clipPath id="e12aeaa990"><path d="M 297 26.726562 C 299.285156 28.117188 301.574219 29.976562 303.390625 32.152344 C 305.207031 34.328125 306.582031 36.730469 307.527344 39.214844 C 307.539062 39.273438 307.574219 39.3125 307.589844 39.371094 C 310.984375 48.828125 308.433594 60.007812 300.335938 66.941406 L 272.453125 90.214844 L 240.714844 52.191406 L 268.578125 28.933594 C 276.910156 22.15625 288.296875 21.5625 297 26.726562 Z M 297 26.726562 " clip-rule="nonzero"/></clipPath><clipPath id="70d3a2894a"><path d="M 247 31 L 301 31 L 301 84 L 247 84 Z M 247 31 " clip-rule="nonzero"/></clipPath><clipPath id="6bdee67c0e"><path d="M 283.675781 23.730469 L 308.128906 53.027344 L 271.964844 83.207031 L 247.515625 53.914062 Z M 283.675781 23.730469 " clip-rule="nonzero"/></clipPath><clipPath id="98364d4ed0"><path d="M 290.984375 34.207031 C 292.746094 35.277344 294.507812 36.710938 295.90625 38.386719 C 297.308594 40.0625 298.367188 41.914062 299.09375 43.828125 C 299.105469 43.871094 299.132812 43.902344 299.140625 43.949219 C 301.757812 51.234375 299.792969 59.847656 293.554688 65.1875 L 272.070312 83.121094 L 247.621094 53.824219 L 269.085938 35.90625 C 275.503906 30.683594 284.277344 30.226562 290.984375 34.207031 Z M 290.984375 34.207031 " clip-rule="nonzero"/></clipPath><clipPath id="8308f12e8b"><path d="M 253 48 L 282 48 L 282 76 L 253 76 Z M 253 48 " clip-rule="nonzero"/></clipPath><clipPath id="258ed63010"><path d="M 272.472656 44.585938 L 285.363281 60.027344 L 266.300781 75.9375 L 253.410156 60.496094 Z M 272.472656 44.585938 " clip-rule="nonzero"/></clipPath><clipPath id="6537f284bc"><path d="M 276.328125 50.105469 C 277.253906 50.671875 278.1875 51.425781 278.921875 52.308594 C 279.660156 53.195312 280.21875 54.171875 280.601562 55.179688 C 280.609375 55.203125 280.621094 55.21875 280.628906 55.242188 C 282.007812 59.082031 280.972656 63.625 277.683594 66.441406 L 266.355469 75.890625 L 253.46875 60.449219 L 264.785156 51.003906 C 268.167969 48.25 272.792969 48.007812 276.328125 50.105469 Z M 276.328125 50.105469 " clip-rule="nonzero"/></clipPath><clipPath id="cc090e8795"><path d="M 60 24 L 128 24 L 128 93 L 60 93 Z M 60 24 " clip-rule="nonzero"/></clipPath><clipPath id="1b16f12c12"><path d="M 50.007812 46.503906 L 87.515625 14.160156 L 127.4375 60.460938 L 89.929688 92.804688 Z M 50.007812 46.503906 " clip-rule="nonzero"/></clipPath><clipPath id="d3e0bfc8f9"><path d="M 63.449219 36.800781 C 64.800781 34.492188 66.625 32.175781 68.769531 30.324219 C 70.917969 28.472656 73.296875 27.0625 75.765625 26.074219 C 75.824219 26.058594 75.863281 26.023438 75.921875 26.011719 C 85.324219 22.464844 96.542969 24.835938 103.601562 32.820312 L 127.320312 60.324219 L 89.8125 92.667969 L 66.113281 65.183594 C 59.199219 56.960938 58.425781 45.585938 63.449219 36.800781 Z M 63.449219 36.800781 " clip-rule="nonzero"/></clipPath><clipPath id="dc75d1c270"><path d="M 68 33 L 121 33 L 121 86 L 68 86 Z M 68 33 " clip-rule="nonzero"/></clipPath><clipPath id="92db04da3d"><path d="M 60.648438 50.175781 L 89.546875 25.257812 L 120.308594 60.929688 L 91.410156 85.847656 Z M 60.648438 50.175781 " clip-rule="nonzero"/></clipPath><clipPath id="a7dbf268bd"><path d="M 71.007812 42.699219 C 72.050781 40.921875 73.453125 39.136719 75.105469 37.710938 C 76.757812 36.285156 78.59375 35.195312 80.496094 34.4375 C 80.539062 34.425781 80.570312 34.398438 80.617188 34.386719 C 87.859375 31.65625 96.503906 33.480469 101.945312 39.632812 L 120.21875 60.824219 L 91.320312 85.742188 L 73.058594 64.566406 C 67.734375 58.234375 67.136719 49.46875 71.007812 42.699219 Z M 71.007812 42.699219 " clip-rule="nonzero"/></clipPath><clipPath id="48a56e0e12"><path d="M 85 52 L 114 52 L 114 80 L 85 80 Z M 85 52 " clip-rule="nonzero"/></clipPath><clipPath id="8e73531b81"><path d="M 81.683594 61.035156 L 96.917969 47.898438 L 113.132812 66.707031 L 97.898438 79.839844 Z M 81.683594 61.035156 " clip-rule="nonzero"/></clipPath><clipPath id="f1a96c8a60"><path d="M 87.144531 57.09375 C 87.695312 56.160156 88.433594 55.214844 89.304688 54.464844 C 90.175781 53.714844 91.144531 53.140625 92.144531 52.738281 C 92.167969 52.734375 92.1875 52.71875 92.210938 52.710938 C 96.027344 51.273438 100.585938 52.234375 103.453125 55.476562 L 113.085938 66.648438 L 97.851562 79.785156 L 88.226562 68.621094 C 85.417969 65.285156 85.105469 60.664062 87.144531 57.09375 Z M 87.144531 57.09375 " clip-rule="nonzero"/></clipPath><clipPath id="e71efd0185"><path d="M 196.230469 120.523438 L 258.222656 120.523438 L 258.222656 182.515625 L 196.230469 182.515625 Z M 196.230469 120.523438 " clip-rule="nonzero"/></clipPath><clipPath id="c0d1312869"><path d="M 227.226562 120.523438 C 210.109375 120.523438 196.230469 134.402344 196.230469 151.519531 C 196.230469 168.636719 210.109375 182.515625 227.226562 182.515625 C 244.34375 182.515625 258.222656 168.636719 258.222656 151.519531 C 258.222656 134.402344 244.34375 120.523438 227.226562 120.523438 Z M 227.226562 120.523438 " clip-rule="nonzero"/></clipPath><clipPath id="c5a726681c"><path d="M 193.609375 117.910156 L 255.597656 117.910156 L 255.597656 179.902344 L 193.609375 179.902344 Z M 193.609375 117.910156 " clip-rule="nonzero"/></clipPath><clipPath id="f26a2403c2"><path d="M 224.605469 117.910156 C 207.484375 117.910156 193.609375 131.789062 193.609375 148.90625 C 193.609375 166.023438 207.484375 179.902344 224.605469 179.902344 C 241.722656 179.902344 255.597656 166.023438 255.597656 148.90625 C 255.597656 131.789062 241.722656 117.910156 224.605469 117.910156 Z M 224.605469 117.910156 " clip-rule="nonzero"/></clipPath><clipPath id="a3551eb9eb"><path d="M 199.476562 122.226562 L 249.722656 122.226562 L 249.722656 175.609375 L 199.476562 175.609375 Z M 199.476562 122.226562 " clip-rule="nonzero"/></clipPath><clipPath id="4d9642020f"><path d="M 224.597656 122.226562 C 210.726562 122.226562 199.476562 134.175781 199.476562 148.917969 C 199.476562 163.65625 210.726562 175.605469 224.597656 175.605469 C 238.472656 175.605469 249.722656 163.65625 249.722656 148.917969 C 249.722656 134.175781 238.472656 122.226562 224.597656 122.226562 Z M 224.597656 122.226562 " clip-rule="nonzero"/></clipPath><clipPath id="9262af85b5"><path d="M 205.351562 133.308594 L 222.699219 133.308594 L 222.699219 150.65625 L 205.351562 150.65625 Z M 205.351562 133.308594 " clip-rule="nonzero"/></clipPath><clipPath id="7bd179e342"><path d="M 214.023438 133.308594 C 209.234375 133.308594 205.351562 137.191406 205.351562 141.980469 C 205.351562 146.773438 209.234375 150.65625 214.023438 150.65625 C 218.816406 150.65625 222.699219 146.773438 222.699219 141.980469 C 222.699219 137.191406 218.816406 133.308594 214.023438 133.308594 Z M 214.023438 133.308594 " clip-rule="nonzero"/></clipPath><clipPath id="a67b32fde0"><path d="M 222.710938 148.90625 L 232.769531 148.90625 L 232.769531 158.964844 L 222.710938 158.964844 Z M 222.710938 148.90625 " clip-rule="nonzero"/></clipPath><clipPath id="342f5e977e"><path d="M 227.742188 148.90625 C 224.960938 148.90625 222.710938 151.15625 222.710938 153.9375 C 222.710938 156.714844 224.960938 158.964844 227.742188 158.964844 C 230.519531 158.964844 232.769531 156.714844 232.769531 153.9375 C 232.769531 151.15625 230.519531 148.90625 227.742188 148.90625 Z M 227.742188 148.90625 " clip-rule="nonzero"/></clipPath><clipPath id="3c6d392963"><path d="M 98.847656 131.0625 L 167.472656 131.0625 L 167.472656 197.109375 L 98.847656 197.109375 Z M 98.847656 131.0625 " clip-rule="nonzero"/></clipPath><clipPath id="8481a6d916"><path d="M 121.660156 132.675781 C 125.152344 131.703125 129.152344 131.0625 133.0625 131.0625 C 136.976562 131.0625 140.742188 131.613281 144.210938 132.585938 C 144.285156 132.617188 144.359375 132.617188 144.429688 132.644531 C 157.460938 136.539062 167.058594 146.824219 167.242188 158.785156 L 167.242188 197.109375 L 98.847656 197.109375 L 98.847656 158.8125 C 99.035156 146.765625 108.480469 136.480469 121.660156 132.675781 Z M 121.660156 132.675781 " clip-rule="nonzero"/></clipPath><clipPath id="5f2734f154"><path d="M 189.679688 132.8125 L 258.304688 132.8125 L 258.304688 198.859375 L 189.679688 198.859375 Z M 189.679688 132.8125 " clip-rule="nonzero"/></clipPath><clipPath id="9682d9ec00"><path d="M 212.488281 134.425781 C 215.984375 133.453125 219.980469 132.8125 223.894531 132.8125 C 227.804688 132.8125 231.570312 133.363281 235.039062 134.335938 C 235.113281 134.367188 235.1875 134.367188 235.261719 134.394531 C 248.289062 138.292969 257.886719 148.574219 258.070312 160.535156 L 258.070312 198.859375 L 189.679688 198.859375 L 189.679688 160.5625 C 189.863281 148.515625 199.3125 138.230469 212.488281 134.425781 Z M 212.488281 134.425781 " clip-rule="nonzero"/></clipPath></defs><g clip-path="url(#bceaceb41a)"><g clip-path="url(#9d8f66e039)"><g clip-path="url(#85f23f607c)"><path fill="#60b9b9" d="M 132.648438 171.566406 L 124.347656 232.363281 L 2.511719 215.730469 L 10.8125 154.933594 Z M 132.648438 171.566406 " fill-opacity="1" fill-rule="nonzero"/></g></g></g><g clip-path="url(#707b925d4a)"><g clip-path="url(#7d2714930b)"><g clip-path="url(#16b85bd7b0)"><path fill="#0c8794" d="M 108.085938 185 L 101.925781 230.117188 L 11.515625 217.773438 L 17.671875 172.65625 Z M 108.085938 185 " fill-opacity="1" fill-rule="nonzero"/></g></g></g><g clip-path="url(#feb20124e3)"><g clip-path="url(#5b581c1afa)"><g clip-path="url(#7d95a7061e)"><path fill="#60b9b9" d="M 262.253906 246.242188 L 244.410156 187.53125 L 362.0625 151.777344 L 379.902344 210.488281 Z M 262.253906 246.242188 " fill-opacity="1" fill-rule="nonzero"/></g></g></g><g clip-path="url(#c88a4bb78d)"><g clip-path="url(#a1a74dcf78)"><g clip-path="url(#bdf525a3d7)"><path fill="#0c8794" d="M 280.910156 242.976562 L 267.667969 199.410156 L 354.976562 172.875 L 368.214844 216.445312 Z M 280.910156 242.976562 " fill-opacity="1" fill-rule="nonzero"/></g></g></g><g clip-path="url(#ea26940a3b)"><g clip-path="url(#9782db88da)"><path fill="#60b9b9" d="M 65.660156 39.308594 L 303.792969 39.308594 L 303.792969 301.625 L 65.660156 301.625 Z M 65.660156 39.308594 " fill-opacity="1" fill-rule="nonzero"/></g></g><g clip-path="url(#b55c912259)"><path fill="#25284d" d="M 180.921875 195.171875 C 180.980469 195.898438 180.949219 196.625 180.855469 197.34375 C 180.875 197.203125 180.890625 197.066406 180.910156 196.925781 C 180.761719 198.027344 180.460938 199.101562 180.03125 200.125 C 180.082031 200 180.136719 199.875 180.1875 199.75 C 179.800781 200.664062 179.3125 201.535156 178.707031 202.320312 C 178.789062 202.214844 178.871094 202.109375 178.953125 202.003906 C 178.191406 202.988281 177.289062 203.867188 176.304688 204.625 C 176.414062 204.542969 176.519531 204.460938 176.625 204.378906 C 175.820312 205 174.953125 205.542969 174.042969 205.992188 C 173.785156 206.117188 173.523438 206.238281 173.257812 206.351562 C 173.382812 206.296875 173.507812 206.246094 173.632812 206.191406 C 172.761719 206.554688 171.863281 206.839844 170.9375 207.023438 C 170.675781 207.074219 170.414062 207.117188 170.148438 207.152344 C 170.289062 207.136719 170.429688 207.117188 170.566406 207.097656 C 169.5625 207.230469 168.542969 207.242188 167.539062 207.109375 C 167.679688 207.125 167.820312 207.144531 167.957031 207.164062 C 167.085938 207.046875 166.230469 206.820312 165.417969 206.476562 C 165.542969 206.53125 165.667969 206.582031 165.792969 206.636719 C 165.035156 206.316406 164.324219 205.898438 163.671875 205.398438 C 163.777344 205.480469 163.882812 205.5625 163.988281 205.644531 C 163.28125 205.09375 162.652344 204.453125 162.105469 203.746094 C 162.1875 203.851562 162.269531 203.960938 162.347656 204.066406 C 161.765625 203.308594 161.238281 202.46875 160.863281 201.585938 C 160.917969 201.710938 160.96875 201.835938 161.023438 201.960938 C 160.71875 201.230469 160.511719 200.460938 160.320312 199.695312 C 160.097656 198.800781 159.910156 197.898438 159.753906 196.992188 C 159.671875 196.542969 159.601562 196.089844 159.539062 195.632812 C 159.558594 195.773438 159.578125 195.914062 159.597656 196.050781 C 159.53125 195.578125 159.457031 195.09375 159.476562 194.613281 C 159.492188 194.21875 159.289062 193.777344 159.015625 193.5 C 158.742188 193.230469 158.296875 193.023438 157.902344 193.039062 C 157.496094 193.058594 157.074219 193.191406 156.792969 193.5 C 156.503906 193.816406 156.347656 194.183594 156.332031 194.613281 C 156.316406 195.027344 156.375 195.445312 156.425781 195.855469 C 156.523438 196.628906 156.640625 197.394531 156.78125 198.160156 C 157.03125 199.527344 157.324219 200.90625 157.777344 202.222656 C 158.300781 203.753906 159.164062 205.148438 160.214844 206.378906 C 160.652344 206.898438 161.144531 207.375 161.675781 207.796875 C 162.28125 208.273438 162.902344 208.714844 163.589844 209.0625 C 164.253906 209.402344 164.957031 209.6875 165.675781 209.894531 C 166.398438 210.101562 167.144531 210.21875 167.890625 210.292969 C 169.265625 210.429688 170.671875 210.296875 172.019531 210.003906 C 173.398438 209.703125 174.738281 209.179688 175.984375 208.523438 C 177.261719 207.855469 178.449219 206.996094 179.511719 206.023438 C 180.722656 204.917969 181.789062 203.605469 182.53125 202.140625 C 183.445312 200.339844 184.003906 198.359375 184.089844 196.339844 C 184.105469 195.953125 184.097656 195.5625 184.066406 195.171875 C 184.074219 194.957031 184.027344 194.753906 183.929688 194.566406 C 183.867188 194.371094 183.757812 194.203125 183.605469 194.0625 C 183.332031 193.789062 182.882812 193.582031 182.492188 193.601562 C 182.085938 193.621094 181.664062 193.753906 181.378906 194.0625 C 181.113281 194.355469 180.886719 194.761719 180.921875 195.171875 Z M 180.921875 195.171875 " fill-opacity="1" fill-rule="nonzero"/></g><g clip-path="url(#265f695db8)"><path fill="#25284d" d="M 203.917969 195.726562 C 203.976562 196.425781 203.945312 197.125 203.855469 197.816406 C 203.871094 197.683594 203.890625 197.550781 203.910156 197.414062 C 203.761719 198.476562 203.472656 199.511719 203.058594 200.496094 C 203.113281 200.375 203.160156 200.253906 203.214844 200.136719 C 202.839844 201.015625 202.367188 201.855469 201.785156 202.613281 C 201.863281 202.511719 201.941406 202.410156 202.019531 202.308594 C 201.285156 203.253906 200.417969 204.101562 199.472656 204.835938 C 199.574219 204.757812 199.675781 204.675781 199.777344 204.597656 C 199 205.195312 198.167969 205.71875 197.289062 206.148438 C 197.039062 206.273438 196.789062 206.386719 196.53125 206.496094 C 196.652344 206.445312 196.773438 206.394531 196.894531 206.34375 C 196.058594 206.695312 195.1875 206.96875 194.296875 207.144531 C 194.046875 207.195312 193.792969 207.234375 193.539062 207.269531 C 193.671875 207.253906 193.808594 207.234375 193.941406 207.214844 C 192.976562 207.34375 191.992188 207.355469 191.023438 207.226562 C 191.160156 207.246094 191.292969 207.261719 191.425781 207.28125 C 190.585938 207.167969 189.761719 206.949219 188.980469 206.617188 C 189.101562 206.671875 189.222656 206.71875 189.34375 206.773438 C 188.613281 206.464844 187.925781 206.0625 187.296875 205.578125 C 187.398438 205.65625 187.5 205.734375 187.601562 205.816406 C 186.921875 205.289062 186.3125 204.667969 185.785156 203.988281 C 185.863281 204.089844 185.945312 204.191406 186.023438 204.292969 C 185.460938 203.5625 184.953125 202.753906 184.59375 201.902344 C 184.644531 202.023438 184.695312 202.144531 184.746094 202.265625 C 184.453125 201.5625 184.25 200.820312 184.066406 200.082031 C 183.851562 199.222656 183.675781 198.351562 183.519531 197.480469 C 183.445312 197.046875 183.375 196.609375 183.316406 196.171875 C 183.332031 196.304688 183.351562 196.441406 183.371094 196.574219 C 183.308594 196.117188 183.238281 195.648438 183.253906 195.1875 C 183.269531 194.808594 183.074219 194.378906 182.8125 194.117188 C 182.546875 193.851562 182.117188 193.65625 181.738281 193.671875 C 181.347656 193.691406 180.941406 193.816406 180.667969 194.117188 C 180.390625 194.417969 180.238281 194.769531 180.222656 195.1875 C 180.210938 195.585938 180.265625 195.988281 180.316406 196.382812 C 180.410156 197.128906 180.519531 197.867188 180.65625 198.605469 C 180.898438 199.921875 181.179688 201.25 181.617188 202.519531 C 182.121094 203.996094 182.953125 205.335938 183.964844 206.523438 C 184.390625 207.023438 184.859375 207.484375 185.375 207.886719 C 185.957031 208.347656 186.554688 208.773438 187.21875 209.109375 C 187.859375 209.4375 188.539062 209.710938 189.230469 209.910156 C 189.925781 210.109375 190.644531 210.222656 191.359375 210.292969 C 192.6875 210.429688 194.042969 210.300781 195.339844 210.015625 C 196.667969 209.726562 197.960938 209.222656 199.164062 208.589844 C 200.390625 207.945312 201.535156 207.117188 202.558594 206.183594 C 203.726562 205.113281 204.753906 203.851562 205.46875 202.4375 C 206.351562 200.707031 206.890625 198.796875 206.972656 196.851562 C 206.984375 196.476562 206.980469 196.101562 206.949219 195.726562 C 206.957031 195.519531 206.910156 195.324219 206.816406 195.144531 C 206.753906 194.953125 206.652344 194.792969 206.503906 194.65625 C 206.242188 194.394531 205.808594 194.195312 205.433594 194.210938 C 205.039062 194.230469 204.632812 194.359375 204.359375 194.65625 C 204.101562 194.9375 203.882812 195.332031 203.917969 195.726562 Z M 203.917969 195.726562 " fill-opacity="1" fill-rule="nonzero"/></g><g clip-path="url(#c5a76a8732)"><g clip-path="url(#63622e6761)"><path fill="#fe9284" d="M 249.378906 193.015625 L 274.65625 193.015625 L 274.65625 219.875 L 249.378906 219.875 Z M 249.378906 193.015625 " fill-opacity="1" fill-rule="nonzero"/></g></g><g clip-path="url(#b12c4e687e)"><g clip-path="url(#2038fd2983)"><path fill="#0c8794" d="M 103.917969 120.523438 L 165.90625 120.523438 L 165.90625 182.515625 L 103.917969 182.515625 Z M 103.917969 120.523438 " fill-opacity="1" fill-rule="nonzero"/></g></g><g clip-path="url(#cad76dded8)"><g clip-path="url(#935cb91bc0)"><path fill="#fdfcea" d="M 101.292969 117.910156 L 163.285156 117.910156 L 163.285156 179.902344 L 101.292969 179.902344 Z M 101.292969 117.910156 " fill-opacity="1" fill-rule="nonzero"/></g></g><g clip-path="url(#53353838f6)"><g clip-path="url(#23fe336b26)"><path fill="#25284d" d="M 107.164062 122.226562 L 157.40625 122.226562 L 157.40625 175.609375 L 107.164062 175.609375 Z M 107.164062 122.226562 " fill-opacity="1" fill-rule="nonzero"/></g></g><g clip-path="url(#de01528f94)"><g clip-path="url(#f3d1547f43)"><path fill="#fdfcea" d="M 113.035156 133.308594 L 130.386719 133.308594 L 130.386719 150.65625 L 113.035156 150.65625 Z M 113.035156 133.308594 " fill-opacity="1" fill-rule="nonzero"/></g></g><g clip-path="url(#398ec4d33c)"><g clip-path="url(#d33d2a0b55)"><path fill="#fdfcea" d="M 130.394531 148.90625 L 140.457031 148.90625 L 140.457031 158.964844 L 130.394531 158.964844 Z M 130.394531 148.90625 " fill-opacity="1" fill-rule="nonzero"/></g></g><g clip-path="url(#9f96b5abbc)"><g clip-path="url(#11091fd25c)"><path fill="#60b9b9" d="M 88.652344 360.886719 L 88.652344 229.574219 L 168.6875 229.574219 L 168.6875 360.886719 Z M 88.652344 360.886719 " fill-opacity="1" fill-rule="nonzero"/></g></g><g clip-path="url(#4c0b1c39df)"><g clip-path="url(#4887b09874)"><path fill="#25284d" d="M 102.703125 360.878906 L 102.703125 343.898438 L 113.9375 343.898438 L 113.9375 360.878906 Z M 102.703125 360.878906 " fill-opacity="1" fill-rule="nonzero"/></g></g><g clip-path="url(#0957378b4a)"><g clip-path="url(#c65e64cfb8)"><path fill="#25284d" d="M 122.371094 364.523438 L 122.371094 347.542969 L 133.601562 347.542969 L 133.601562 364.523438 Z M 122.371094 364.523438 " fill-opacity="1" fill-rule="nonzero"/></g></g><g clip-path="url(#724b4291dd)"><g clip-path="url(#a4d056a6ea)"><path fill="#25284d" d="M 142.355469 360.878906 L 142.355469 343.898438 L 153.585938 343.898438 L 153.585938 360.878906 Z M 142.355469 360.878906 " fill-opacity="1" fill-rule="nonzero"/></g></g><g clip-path="url(#57775d6d6a)"><g clip-path="url(#251aec407c)"><path fill="#fe9284" d="M 88.640625 193.015625 L 113.921875 193.015625 L 113.921875 219.875 L 88.640625 219.875 Z M 88.640625 193.015625 " fill-opacity="1" fill-rule="nonzero"/></g></g><g clip-path="url(#3b820e0ecc)"><g clip-path="url(#b52ff6319d)"><path fill="#60b9b9" d="M 207.003906 360.886719 L 207.003906 229.574219 L 287.039062 229.574219 L 287.039062 360.886719 Z M 207.003906 360.886719 " fill-opacity="1" fill-rule="nonzero"/></g></g><g clip-path="url(#26528be1c4)"><g clip-path="url(#0fb6d3176a)"><path fill="#25284d" d="M 221.054688 360.878906 L 221.054688 343.898438 L 232.285156 343.898438 L 232.285156 360.878906 Z M 221.054688 360.878906 " fill-opacity="1" fill-rule="nonzero"/></g></g><g clip-path="url(#894523a84a)"><g clip-path="url(#dda421d788)"><path fill="#25284d" d="M 240.722656 364.523438 L 240.722656 347.542969 L 251.953125 347.542969 L 251.953125 364.523438 Z M 240.722656 364.523438 " fill-opacity="1" fill-rule="nonzero"/></g></g><g clip-path="url(#540b7dffe0)"><g clip-path="url(#fc225cdd38)"><path fill="#25284d" d="M 260.707031 360.878906 L 260.707031 343.898438 L 271.9375 343.898438 L 271.9375 360.878906 Z M 260.707031 360.878906 " fill-opacity="1" fill-rule="nonzero"/></g></g><g clip-path="url(#61fcc82e69)"><g clip-path="url(#3c03cc6437)"><path fill="#0c8794" d="M 95.152344 313.953125 L 95.152344 242.425781 L 122.441406 242.425781 L 122.441406 313.953125 Z M 95.152344 313.953125 " fill-opacity="1" fill-rule="nonzero"/></g></g><g clip-path="url(#7907759107)"><g clip-path="url(#da7d39aa35)"><path fill="#60b9b9" d="M 93.703125 307.921875 L 93.703125 235.15625 L 123.847656 235.15625 L 123.847656 307.921875 Z M 93.703125 307.921875 " fill-opacity="1" fill-rule="nonzero"/></g></g><g clip-path="url(#2b7fec6cf9)"><g clip-path="url(#1e5ee32b6a)"><path fill="#c1efe3" d="M 118.183594 221.617188 L 249.351562 221.617188 L 249.351562 295.253906 L 118.183594 295.253906 Z M 118.183594 221.617188 " fill-opacity="1" fill-rule="nonzero"/></g></g><g clip-path="url(#5bc2a4f0a6)"><g clip-path="url(#bdb38f344a)"><path fill="#0c8794" d="M 67.105469 324.449219 L 67.105469 258.359375 L 94.394531 258.359375 L 94.394531 324.449219 Z M 67.105469 324.449219 " fill-opacity="1" fill-rule="nonzero"/></g></g><g clip-path="url(#4118c19790)"><g clip-path="url(#f43e75e645)"><path fill="#60b9b9" d="M 65.660156 318.929688 L 65.660156 258.40625 L 95.804688 258.40625 L 95.804688 318.929688 Z M 65.660156 318.929688 " fill-opacity="1" fill-rule="nonzero"/></g></g><g clip-path="url(#ec21d7716d)"><g clip-path="url(#10bbf47059)"><path fill="#0c8794" d="M 276.519531 324.449219 L 276.519531 254.09375 L 303.808594 254.09375 L 303.808594 324.449219 Z M 276.519531 324.449219 " fill-opacity="1" fill-rule="nonzero"/></g></g><g clip-path="url(#faa198120d)"><g clip-path="url(#88fd9bbb17)"><path fill="#60b9b9" d="M 275.078125 318.550781 L 275.078125 245.074219 L 305.21875 245.074219 L 305.21875 318.550781 Z M 275.078125 318.550781 " fill-opacity="1" fill-rule="nonzero"/></g></g><g clip-path="url(#44745813cd)"><g clip-path="url(#a67c265131)"><path fill="#0c8794" d="M 119.960938 320.117188 L 119.960938 269.269531 L 147.25 269.269531 L 147.25 320.117188 Z M 119.960938 320.117188 " fill-opacity="1" fill-rule="nonzero"/></g></g><g clip-path="url(#1c21845e82)"><g clip-path="url(#18da21a5fb)"><path fill="#c1efe3" d="M 118.515625 312.855469 L 118.515625 262.816406 L 148.660156 262.816406 L 148.660156 312.855469 Z M 118.515625 312.855469 " fill-opacity="1" fill-rule="nonzero"/></g></g><g clip-path="url(#97d10085fe)"><g clip-path="url(#8aca9fbe0c)"><path fill="#c1efe3" d="M 168.726562 318.925781 L 168.726562 258.359375 L 207.011719 258.359375 L 207.011719 318.925781 Z M 168.726562 318.925781 " fill-opacity="1" fill-rule="nonzero"/></g></g><g clip-path="url(#6cb72aa14b)"><g clip-path="url(#e2d779509c)"><path fill="#0c8794" d="M 142.675781 320.101562 L 142.675781 254.011719 L 169.96875 254.011719 L 169.96875 320.101562 Z M 142.675781 320.101562 " fill-opacity="1" fill-rule="nonzero"/></g></g><g clip-path="url(#7df4bf2223)"><g clip-path="url(#19d8175841)"><path fill="#c1efe3" d="M 141.234375 314.566406 L 141.234375 247.921875 L 171.375 247.921875 L 171.375 314.566406 Z M 141.234375 314.566406 " fill-opacity="1" fill-rule="nonzero"/></g></g><g clip-path="url(#2f014ac33e)"><g clip-path="url(#3bb9d51710)"><path fill="#0c8794" d="M 248.546875 324.453125 L 248.546875 254.09375 L 277.980469 254.09375 L 277.980469 324.453125 Z M 248.546875 324.453125 " fill-opacity="1" fill-rule="nonzero"/></g></g><g clip-path="url(#574712663e)"><g clip-path="url(#18a371f7bb)"><path fill="#60b9b9" d="M 247.023438 318.558594 L 247.023438 247.949219 L 279.535156 247.949219 L 279.535156 318.558594 Z M 247.023438 318.558594 " fill-opacity="1" fill-rule="nonzero"/></g></g><g clip-path="url(#18247b81ea)"><g clip-path="url(#dc88194c75)"><path fill="#0c8794" d="M 208.902344 325.738281 L 208.902344 274.929688 L 245.132812 274.929688 L 245.132812 325.738281 Z M 208.902344 325.738281 " fill-opacity="1" fill-rule="nonzero"/></g></g><g clip-path="url(#a919524ae2)"><g clip-path="url(#2fdd47ea55)"><path fill="#c1efe3" d="M 206.996094 318.476562 L 206.996094 268.453125 L 247.011719 268.453125 L 247.011719 318.476562 Z M 206.996094 318.476562 " fill-opacity="1" fill-rule="nonzero"/></g></g><g clip-path="url(#e54bae7679)"><g clip-path="url(#69c817f0c5)"><g clip-path="url(#e1c75900ea)"><path fill="#60b9b9" d="M 45.546875 169.539062 L 37.566406 153.761719 L 81.757812 131.414062 L 89.734375 147.191406 Z M 45.546875 169.539062 " fill-opacity="1" fill-rule="nonzero"/></g></g></g><g clip-path="url(#59858a6480)"><g clip-path="url(#6eddad5458)"><g clip-path="url(#cf3c8e2599)"><path fill="#60b9b9" d="M 51.777344 148.496094 L 42.875 133.222656 L 85.65625 108.285156 L 94.558594 123.5625 Z M 51.777344 148.496094 " fill-opacity="1" fill-rule="nonzero"/></g></g></g><g clip-path="url(#8513df0ccc)"><g clip-path="url(#ae9ab77132)"><g clip-path="url(#bd11005a2c)"><path fill="#60b9b9" d="M 51.914062 127.570312 L 43.75 111.886719 L 87.671875 89.019531 L 95.835938 104.703125 Z M 51.914062 127.570312 " fill-opacity="1" fill-rule="nonzero"/></g></g></g><g clip-path="url(#4c6f9dae00)"><g clip-path="url(#ab359a46ca)"><g clip-path="url(#ab985cd98e)"><path fill="#60b9b9" d="M 321.113281 115.707031 L 313.042969 131.441406 L 268.984375 108.839844 L 277.054688 93.109375 Z M 321.113281 115.707031 " fill-opacity="1" fill-rule="nonzero"/></g></g></g><g clip-path="url(#a1cd1ac65e)"><g clip-path="url(#76a99132d7)"><g clip-path="url(#50b95c6014)"><path fill="#60b9b9" d="M 328.597656 141.316406 L 320.53125 157.046875 L 276.472656 134.445312 L 284.539062 118.714844 Z M 328.597656 141.316406 " fill-opacity="1" fill-rule="nonzero"/></g></g></g><g clip-path="url(#88bd20e54c)"><g clip-path="url(#45dd8fbe1d)"><g clip-path="url(#345c956025)"><path fill="#60b9b9" d="M 331.613281 160.476562 L 323.546875 176.207031 L 279.488281 153.605469 L 287.554688 137.875 Z M 331.613281 160.476562 " fill-opacity="1" fill-rule="nonzero"/></g></g></g><g clip-path="url(#9f3dbf5114)"><g clip-path="url(#d007b2d529)"><g clip-path="url(#a17f598b36)"><path fill="#60b9b9" d="M 152.671875 23.417969 L 183.789062 34.828125 L 176.316406 55.203125 L 145.203125 43.789062 Z M 152.671875 23.417969 " fill-opacity="1" fill-rule="nonzero"/></g></g></g><g clip-path="url(#25ac52659a)"><g clip-path="url(#f0fe3a1464)"><g clip-path="url(#932a505aae)"><path fill="#60b9b9" d="M 164.492188 38.359375 L 203.113281 8.121094 L 222.910156 33.410156 L 184.289062 63.644531 Z M 164.492188 38.359375 " fill-opacity="1" fill-rule="nonzero"/></g></g></g><g clip-path="url(#3d0b5cb768)"><g clip-path="url(#803f91c080)"><g clip-path="url(#e12aeaa990)"><path fill="#60b9b9" d="M 287.515625 13.128906 L 319.25 51.152344 L 272.464844 90.203125 L 240.726562 52.179688 Z M 287.515625 13.128906 " fill-opacity="1" fill-rule="nonzero"/></g></g></g><g clip-path="url(#70d3a2894a)"><g clip-path="url(#6bdee67c0e)"><g clip-path="url(#98364d4ed0)"><path fill="#0c8794" d="M 283.675781 23.730469 L 308.128906 53.027344 L 272.082031 83.113281 L 247.628906 53.816406 Z M 283.675781 23.730469 " fill-opacity="1" fill-rule="nonzero"/></g></g></g><g clip-path="url(#8308f12e8b)"><g clip-path="url(#258ed63010)"><g clip-path="url(#6537f284bc)"><path fill="#fe9284" d="M 272.472656 44.585938 L 285.363281 60.027344 L 266.363281 75.886719 L 253.472656 60.445312 Z M 272.472656 44.585938 " fill-opacity="1" fill-rule="nonzero"/></g></g></g><g clip-path="url(#cc090e8795)"><g clip-path="url(#1b16f12c12)"><g clip-path="url(#d3e0bfc8f9)"><path fill="#60b9b9" d="M 50.007812 46.503906 L 87.515625 14.160156 L 127.3125 60.3125 L 89.804688 92.65625 Z M 50.007812 46.503906 " fill-opacity="1" fill-rule="nonzero"/></g></g></g><g clip-path="url(#dc75d1c270)"><g clip-path="url(#92db04da3d)"><g clip-path="url(#a7dbf268bd)"><path fill="#0c8794" d="M 60.648438 50.175781 L 89.546875 25.257812 L 120.210938 60.816406 L 91.3125 85.734375 Z M 60.648438 50.175781 " fill-opacity="1" fill-rule="nonzero"/></g></g></g><g clip-path="url(#48a56e0e12)"><g clip-path="url(#8e73531b81)"><g clip-path="url(#f1a96c8a60)"><path fill="#fe9284" d="M 81.683594 61.035156 L 96.917969 47.898438 L 113.082031 66.644531 L 97.847656 79.78125 Z M 81.683594 61.035156 " fill-opacity="1" fill-rule="nonzero"/></g></g></g><g clip-path="url(#e71efd0185)"><g clip-path="url(#c0d1312869)"><path fill="#0c8794" d="M 196.230469 120.523438 L 258.222656 120.523438 L 258.222656 182.515625 L 196.230469 182.515625 Z M 196.230469 120.523438 " fill-opacity="1" fill-rule="nonzero"/></g></g><g clip-path="url(#c5a726681c)"><g clip-path="url(#f26a2403c2)"><path fill="#fdfcea" d="M 193.609375 117.910156 L 255.597656 117.910156 L 255.597656 179.902344 L 193.609375 179.902344 Z M 193.609375 117.910156 " fill-opacity="1" fill-rule="nonzero"/></g></g><g clip-path="url(#a3551eb9eb)"><g clip-path="url(#4d9642020f)"><path fill="#25284d" d="M 199.476562 122.226562 L 249.722656 122.226562 L 249.722656 175.609375 L 199.476562 175.609375 Z M 199.476562 122.226562 " fill-opacity="1" fill-rule="nonzero"/></g></g><g clip-path="url(#9262af85b5)"><g clip-path="url(#7bd179e342)"><path fill="#fdfcea" d="M 205.351562 133.308594 L 222.699219 133.308594 L 222.699219 150.65625 L 205.351562 150.65625 Z M 205.351562 133.308594 " fill-opacity="1" fill-rule="nonzero"/></g></g><g clip-path="url(#a67b32fde0)"><g clip-path="url(#342f5e977e)"><path fill="#fdfcea" d="M 222.710938 148.90625 L 232.769531 148.90625 L 232.769531 158.964844 L 222.710938 158.964844 Z M 222.710938 148.90625 " fill-opacity="1" fill-rule="nonzero"/></g></g><g clip-path="url(#3c6d392963)"><g clip-path="url(#8481a6d916)"><path fill="#60b9b9" d="M 98.847656 131.0625 L 167.214844 131.0625 L 167.214844 197.109375 L 98.847656 197.109375 Z M 98.847656 131.0625 " fill-opacity="1" fill-rule="nonzero"/></g></g><path stroke-linecap="round" transform="matrix(1.750101, 0.0286093, -0.0286093, 1.750101, 93.60763, 121.929909)" fill="none" stroke-linejoin="miter" d="M 4.84102 17.94871 C 16.995738 -1.35379 29.14744 -1.315843 41.300589 18.062478 " stroke="#25284d" stroke-width="7" stroke-opacity="1" stroke-miterlimit="4"/><g clip-path="url(#5f2734f154)"><g clip-path="url(#9682d9ec00)"><path fill="#60b9b9" d="M 189.679688 132.8125 L 258.046875 132.8125 L 258.046875 198.859375 L 189.679688 198.859375 Z M 189.679688 132.8125 " fill-opacity="1" fill-rule="nonzero"/></g></g><path stroke-linecap="round" transform="matrix(1.750101, 0.0286093, -0.0286093, 1.750101, 184.436712, 123.68025)" fill="none" stroke-linejoin="miter" d="M 4.842702 17.948487 C 16.995188 -1.353976 29.14689 -1.316029 41.30004 18.062292 " stroke="#25284d" stroke-width="7" stroke-opacity="1" stroke-miterlimit="4"/></svg>