<svg xmlns="http://www.w3.org/2000/svg" xmlns:xlink="http://www.w3.org/1999/xlink" width="500" zoomAndPan="magnify" viewBox="0 0 375 374.999991" height="500" preserveAspectRatio="xMidYMid meet" version="1.0"><defs><clipPath id="d1b2276139"><path d="M 292 129 L 345 129 L 345 167 L 292 167 Z M 292 129 " clip-rule="nonzero"/></clipPath><clipPath id="5d38eee174"><path d="M 347.5625 153.398438 L 339.0625 169.96875 L 292.652344 146.160156 L 301.152344 129.589844 Z M 347.5625 153.398438 " clip-rule="nonzero"/></clipPath><clipPath id="c74ce1fd26"><path d="M 344.117188 158.613281 C 344.050781 159.648438 343.796875 160.738281 343.308594 161.6875 C 342.824219 162.636719 342.148438 163.441406 341.351562 164.09375 C 341.328125 164.105469 341.320312 164.125 341.300781 164.136719 C 338.210938 166.539062 333.136719 166.871094 328.121094 164.355469 L 292.679688 146.175781 L 301.179688 129.605469 L 336.59375 147.773438 C 341.613281 150.402344 344.320312 154.683594 344.117188 158.613281 Z M 344.117188 158.613281 " clip-rule="nonzero"/></clipPath><clipPath id="4da4076f69"><path d="M 289 109 L 341 109 L 341 146 L 289 146 Z M 289 109 " clip-rule="nonzero"/></clipPath><clipPath id="95e716559b"><path d="M 344.386719 133.21875 L 335.886719 149.789062 L 289.476562 125.980469 L 297.976562 109.410156 Z M 344.386719 133.21875 " clip-rule="nonzero"/></clipPath><clipPath id="312f557750"><path d="M 340.941406 138.429688 C 340.875 139.464844 340.621094 140.558594 340.132812 141.507812 C 339.648438 142.453125 338.972656 143.261719 338.171875 143.914062 C 338.152344 143.925781 338.144531 143.941406 338.125 143.953125 C 335.035156 146.355469 329.957031 146.691406 324.945312 144.175781 L 289.503906 125.996094 L 298.003906 109.425781 L 333.417969 127.589844 C 338.433594 130.222656 341.144531 134.5 340.941406 138.429688 Z M 340.941406 138.429688 " clip-rule="nonzero"/></clipPath><clipPath id="857adbbc36"><path d="M 41 122 L 93 122 L 93 160 L 41 160 Z M 41 122 " clip-rule="nonzero"/></clipPath><clipPath id="532351e04a"><path d="M 46.226562 162.945312 L 37.820312 146.324219 L 84.367188 122.789062 L 92.773438 139.40625 Z M 46.226562 162.945312 " clip-rule="nonzero"/></clipPath><clipPath id="33e996d0c2"><path d="M 44.03125 157.09375 C 43.234375 156.429688 42.5 155.582031 42.019531 154.628906 C 41.539062 153.679688 41.285156 152.660156 41.226562 151.628906 C 41.230469 151.605469 41.21875 151.589844 41.222656 151.566406 C 41.097656 147.652344 43.8125 143.351562 48.796875 140.777344 L 84.339844 122.800781 L 92.746094 139.421875 L 57.226562 157.382812 C 52.148438 159.894531 47.089844 159.566406 44.03125 157.09375 Z M 44.03125 157.09375 " clip-rule="nonzero"/></clipPath><clipPath id="dc63a9a4ef"><path d="M 12 124 L 126 124 L 126 216 L 12 216 Z M 12 124 " clip-rule="nonzero"/></clipPath><clipPath id="05bee92761"><path d="M 140.519531 180.519531 L 103.539062 233.53125 L -2.902344 159.277344 L 34.082031 106.265625 Z M 140.519531 180.519531 " clip-rule="nonzero"/></clipPath><clipPath id="37b9f9449e"><path d="M 122.03125 207.023438 C 132.242188 192.386719 116.738281 163.925781 87.398438 143.460938 C 58.0625 122.992188 26 118.269531 15.789062 132.910156 C 5.574219 147.546875 21.078125 176.007812 50.417969 196.472656 C 79.753906 216.941406 111.816406 221.664062 122.03125 207.023438 Z M 122.03125 207.023438 " clip-rule="nonzero"/></clipPath><clipPath id="f645377c13"><path d="M 16 139 L 100 139 L 100 208 L 16 208 Z M 16 139 " clip-rule="nonzero"/></clipPath><clipPath id="aec3f192a4"><path d="M 111.042969 181.316406 L 83.597656 220.65625 L 4.609375 165.554688 L 32.054688 126.214844 Z M 111.042969 181.316406 " clip-rule="nonzero"/></clipPath><clipPath id="bf6ecd40cd"><path d="M 97.320312 200.984375 C 104.898438 190.121094 93.390625 169.003906 71.621094 153.816406 C 49.851562 138.628906 26.058594 135.121094 18.480469 145.984375 C 10.898438 156.847656 22.40625 177.96875 44.175781 193.15625 C 65.949219 208.34375 89.742188 211.847656 97.320312 200.984375 Z M 97.320312 200.984375 " clip-rule="nonzero"/></clipPath><clipPath id="da8abf1a87"><path d="M 264 126 L 375 126 L 375 221 L 264 221 Z M 264 126 " clip-rule="nonzero"/></clipPath><clipPath id="afecde99f1"><path d="M 288.398438 238.449219 L 248.777344 187.375 L 351.320312 107.828125 L 390.941406 158.898438 Z M 288.398438 238.449219 " clip-rule="nonzero"/></clipPath><clipPath id="32caf35964"><path d="M 268.585938 212.910156 C 279.527344 227.015625 311.308594 220.671875 339.574219 198.746094 C 367.835938 176.820312 381.878906 147.613281 370.941406 133.511719 C 360 119.410156 328.21875 125.75 299.953125 147.675781 C 271.691406 169.601562 257.648438 198.808594 268.585938 212.910156 Z M 268.585938 212.910156 " clip-rule="nonzero"/></clipPath><clipPath id="e00f4d99be"><path d="M 288 144 L 370 144 L 370 215 L 288 215 Z M 288 144 " clip-rule="nonzero"/></clipPath><clipPath id="5f9a979b19"><path d="M 305.53125 228.226562 L 276.132812 190.328125 L 352.226562 131.296875 L 381.628906 169.195312 Z M 305.53125 228.226562 " clip-rule="nonzero"/></clipPath><clipPath id="ee1fbadf8b"><path d="M 290.832031 209.277344 C 298.953125 219.742188 322.535156 215.035156 343.511719 198.765625 C 364.484375 182.496094 374.90625 160.820312 366.789062 150.355469 C 358.667969 139.890625 335.082031 144.59375 314.109375 160.867188 C 293.136719 177.136719 282.714844 198.8125 290.832031 209.277344 Z M 290.832031 209.277344 " clip-rule="nonzero"/></clipPath><clipPath id="df0c0a98d3"><path d="M 67.410156 25.761719 L 318.253906 25.761719 L 318.253906 303 L 67.410156 303 Z M 67.410156 25.761719 " clip-rule="nonzero"/></clipPath><clipPath id="b416e71b96"><path d="M 151.070312 32.25 C 163.886719 28.332031 178.550781 25.761719 192.898438 25.761719 C 207.25 25.761719 221.054688 27.964844 233.78125 31.882812 C 234.050781 32.003906 234.324219 32.003906 234.59375 32.128906 C 282.378906 47.796875 317.574219 89.179688 318.253906 137.539062 L 318.253906 302.324219 L 67.410156 302.324219 L 67.410156 137.660156 C 68.085938 88.933594 102.742188 47.554688 151.070312 32.25 Z M 151.070312 32.25 " clip-rule="nonzero"/></clipPath><clipPath id="032b9e1002"><path d="M 162.675781 187.59375 L 192.179688 187.59375 L 192.179688 206 L 162.675781 206 Z M 162.675781 187.59375 " clip-rule="nonzero"/></clipPath><clipPath id="dae3907573"><path d="M 188.625 188 L 216.28125 188 L 216.28125 206 L 188.625 206 Z M 188.625 188 " clip-rule="nonzero"/></clipPath><clipPath id="d6ce01d3f2"><path d="M 260.9375 187.671875 L 287.566406 187.671875 L 287.566406 215.964844 L 260.9375 215.964844 Z M 260.9375 187.671875 " clip-rule="nonzero"/></clipPath><clipPath id="f65175493f"><path d="M 274.25 187.671875 C 266.898438 187.671875 260.9375 194.003906 260.9375 201.820312 C 260.9375 209.632812 266.898438 215.964844 274.25 215.964844 C 281.605469 215.964844 287.566406 209.632812 287.566406 201.820312 C 287.566406 194.003906 281.605469 187.671875 274.25 187.671875 Z M 274.25 187.671875 " clip-rule="nonzero"/></clipPath><clipPath id="662f6c35c4"><path d="M 91.628906 226.1875 L 175.9375 226.1875 L 175.9375 364.839844 L 91.628906 364.839844 Z M 91.628906 226.1875 " clip-rule="nonzero"/></clipPath><clipPath id="3e4e4cf78c"><path d="M 91.628906 260.796875 C 91.628906 241.703125 110.5 226.226562 133.78125 226.226562 C 157.0625 226.226562 175.9375 241.703125 175.9375 260.796875 L 175.9375 329.9375 C 175.9375 349.03125 157.0625 364.507812 133.78125 364.507812 C 110.5 364.507812 91.628906 349.03125 91.628906 329.9375 Z M 91.628906 260.796875 " clip-rule="nonzero"/></clipPath><clipPath id="e0ab6a7720"><path d="M 106.429688 346.613281 L 118.261719 346.613281 L 118.261719 364.5 L 106.429688 364.5 Z M 106.429688 346.613281 " clip-rule="nonzero"/></clipPath><clipPath id="1ebcec953d"><path d="M 106.429688 352.546875 C 106.429688 349.277344 109.078125 346.628906 112.347656 346.628906 C 115.613281 346.628906 118.261719 349.277344 118.261719 352.546875 L 118.261719 358.585938 C 118.261719 361.851562 115.613281 364.5 112.347656 364.5 C 109.078125 364.5 106.429688 361.851562 106.429688 358.585938 Z M 106.429688 352.546875 " clip-rule="nonzero"/></clipPath><clipPath id="1980c96d84"><path d="M 127.148438 350.453125 L 138.980469 350.453125 L 138.980469 368.34375 L 127.148438 368.34375 Z M 127.148438 350.453125 " clip-rule="nonzero"/></clipPath><clipPath id="2d2a1100b4"><path d="M 127.148438 356.386719 C 127.148438 353.121094 129.796875 350.472656 133.0625 350.472656 C 136.332031 350.472656 138.980469 353.121094 138.980469 356.386719 L 138.980469 362.425781 C 138.980469 365.691406 136.332031 368.34375 133.0625 368.34375 C 129.796875 368.34375 127.148438 365.691406 127.148438 362.425781 Z M 127.148438 356.386719 " clip-rule="nonzero"/></clipPath><clipPath id="f10bfbbdc0"><path d="M 148.199219 346.613281 L 160.03125 346.613281 L 160.03125 364.5 L 148.199219 364.5 Z M 148.199219 346.613281 " clip-rule="nonzero"/></clipPath><clipPath id="c4ea5a90a1"><path d="M 148.199219 352.546875 C 148.199219 349.277344 150.847656 346.628906 154.117188 346.628906 C 157.382812 346.628906 160.03125 349.277344 160.03125 352.546875 L 160.03125 358.585938 C 160.03125 361.851562 157.382812 364.5 154.117188 364.5 C 150.847656 364.5 148.199219 361.851562 148.199219 358.585938 Z M 148.199219 352.546875 " clip-rule="nonzero"/></clipPath><clipPath id="61e8859780"><path d="M 91.621094 187.671875 L 118.25 187.671875 L 118.25 215.964844 L 91.621094 215.964844 Z M 91.621094 187.671875 " clip-rule="nonzero"/></clipPath><clipPath id="c4ac0017f5"><path d="M 104.933594 187.671875 C 97.582031 187.671875 91.621094 194.003906 91.621094 201.820312 C 91.621094 209.632812 97.582031 215.964844 104.933594 215.964844 C 112.289062 215.964844 118.25 209.632812 118.25 201.820312 C 118.25 194.003906 112.289062 187.671875 104.933594 187.671875 Z M 104.933594 187.671875 " clip-rule="nonzero"/></clipPath><clipPath id="a038df74b4"><path d="M 216.296875 226.1875 L 300.605469 226.1875 L 300.605469 364.839844 L 216.296875 364.839844 Z M 216.296875 226.1875 " clip-rule="nonzero"/></clipPath><clipPath id="f769612742"><path d="M 216.296875 260.796875 C 216.296875 241.703125 235.167969 226.226562 258.449219 226.226562 C 281.734375 226.226562 300.605469 241.703125 300.605469 260.796875 L 300.605469 329.9375 C 300.605469 349.03125 281.734375 364.507812 258.449219 364.507812 C 235.167969 364.507812 216.296875 349.03125 216.296875 329.9375 Z M 216.296875 260.796875 " clip-rule="nonzero"/></clipPath><clipPath id="bcea1b3aad"><path d="M 231.097656 346.613281 L 242.933594 346.613281 L 242.933594 364.5 L 231.097656 364.5 Z M 231.097656 346.613281 " clip-rule="nonzero"/></clipPath><clipPath id="3755db2513"><path d="M 231.097656 352.546875 C 231.097656 349.277344 233.746094 346.628906 237.015625 346.628906 C 240.28125 346.628906 242.933594 349.277344 242.933594 352.546875 L 242.933594 358.585938 C 242.933594 361.851562 240.28125 364.5 237.015625 364.5 C 233.746094 364.5 231.097656 361.851562 231.097656 358.585938 Z M 231.097656 352.546875 " clip-rule="nonzero"/></clipPath><clipPath id="c846fe4f1f"><path d="M 251.816406 350.453125 L 263.648438 350.453125 L 263.648438 368.34375 L 251.816406 368.34375 Z M 251.816406 350.453125 " clip-rule="nonzero"/></clipPath><clipPath id="d17ae01931"><path d="M 251.816406 356.386719 C 251.816406 353.121094 254.464844 350.472656 257.730469 350.472656 C 261 350.472656 263.648438 353.121094 263.648438 356.386719 L 263.648438 362.425781 C 263.648438 365.691406 261 368.34375 257.730469 368.34375 C 254.464844 368.34375 251.816406 365.691406 251.816406 362.425781 Z M 251.816406 356.386719 " clip-rule="nonzero"/></clipPath><clipPath id="04c0fddb2f"><path d="M 272.867188 346.613281 L 284.699219 346.613281 L 284.699219 364.5 L 272.867188 364.5 Z M 272.867188 346.613281 " clip-rule="nonzero"/></clipPath><clipPath id="429a5c0206"><path d="M 272.867188 352.546875 C 272.867188 349.277344 275.515625 346.628906 278.785156 346.628906 C 282.050781 346.628906 284.699219 349.277344 284.699219 352.546875 L 284.699219 358.585938 C 284.699219 361.851562 282.050781 364.5 278.785156 364.5 C 275.515625 364.5 272.867188 361.851562 272.867188 358.585938 Z M 272.867188 352.546875 " clip-rule="nonzero"/></clipPath><clipPath id="63ae0336f2"><path d="M 98.476562 239.613281 L 127.222656 239.613281 L 127.222656 315.070312 L 98.476562 315.070312 Z M 98.476562 239.613281 " clip-rule="nonzero"/></clipPath><clipPath id="ba4c8408c6"><path d="M 98.476562 263.554688 C 98.476562 250.367188 104.910156 239.671875 112.847656 239.671875 C 120.785156 239.671875 127.222656 250.367188 127.222656 263.554688 L 127.222656 291.1875 C 127.222656 304.378906 120.785156 315.070312 112.847656 315.070312 C 104.910156 315.070312 98.476562 304.378906 98.476562 291.1875 Z M 98.476562 263.554688 " clip-rule="nonzero"/></clipPath><clipPath id="07fc5e327b"><path d="M 96.957031 232 L 128.710938 232 L 128.710938 308.714844 L 96.957031 308.714844 Z M 96.957031 232 " clip-rule="nonzero"/></clipPath><clipPath id="b8336033c6"><path d="M 96.957031 258.410156 C 96.957031 243.839844 104.066406 232.027344 112.832031 232.027344 C 121.601562 232.027344 128.710938 243.839844 128.710938 258.410156 L 128.710938 282.335938 C 128.710938 296.902344 121.601562 308.714844 112.832031 308.714844 C 104.066406 308.714844 96.957031 296.902344 96.957031 282.335938 Z M 96.957031 258.410156 " clip-rule="nonzero"/></clipPath><clipPath id="6de580da95"><path d="M 122.738281 217.804688 L 261 217.804688 L 261 295.375 L 122.738281 295.375 Z M 122.738281 217.804688 " clip-rule="nonzero"/></clipPath><clipPath id="041aa98de0"><path d="M 168.832031 222.464844 C 175.890625 219.652344 183.96875 217.804688 191.875 217.804688 C 199.78125 217.804688 207.390625 219.386719 214.398438 222.199219 C 214.550781 222.289062 214.699219 222.289062 214.847656 222.375 C 241.175781 233.628906 260.566406 263.339844 260.9375 295.375 L 122.738281 295.375 C 123.113281 263.164062 142.203125 233.453125 168.832031 222.464844 Z M 168.832031 222.464844 " clip-rule="nonzero"/></clipPath><clipPath id="49a5109ba3"><path d="M 68.9375 256.511719 L 97.683594 256.511719 L 97.683594 326.128906 L 68.9375 326.128906 Z M 68.9375 256.511719 " clip-rule="nonzero"/></clipPath><clipPath id="c9cc148e1d"><path d="M 68.9375 280.441406 C 68.9375 267.253906 75.371094 256.558594 83.308594 256.558594 C 91.25 256.558594 97.683594 267.253906 97.683594 280.441406 L 97.683594 302.246094 C 97.683594 315.4375 91.25 326.128906 83.308594 326.128906 C 75.371094 326.128906 68.9375 315.4375 68.9375 302.246094 Z M 68.9375 280.441406 " clip-rule="nonzero"/></clipPath><clipPath id="60a5c6c79c"><path d="M 67.410156 256.554688 L 99.164062 256.554688 L 99.164062 320.308594 L 67.410156 320.308594 Z M 67.410156 256.554688 " clip-rule="nonzero"/></clipPath><clipPath id="e145d45023"><path d="M 67.410156 282.960938 C 67.410156 268.394531 74.519531 256.582031 83.289062 256.582031 C 92.054688 256.582031 99.164062 268.394531 99.164062 282.960938 L 99.164062 293.925781 C 99.164062 308.496094 92.054688 320.308594 83.289062 320.308594 C 74.519531 320.308594 67.410156 308.496094 67.410156 293.925781 Z M 67.410156 282.960938 " clip-rule="nonzero"/></clipPath><clipPath id="2a145aabec"><path d="M 289.53125 252 L 318.277344 252 L 318.277344 326.128906 L 289.53125 326.128906 Z M 289.53125 252 " clip-rule="nonzero"/></clipPath><clipPath id="348033837a"><path d="M 289.53125 275.859375 C 289.53125 262.671875 295.964844 251.976562 303.902344 251.976562 C 311.84375 251.976562 318.277344 262.671875 318.277344 275.859375 L 318.277344 302.246094 C 318.277344 315.4375 311.84375 326.128906 303.902344 326.128906 C 295.964844 326.128906 289.53125 315.4375 289.53125 302.246094 Z M 289.53125 275.859375 " clip-rule="nonzero"/></clipPath><clipPath id="9d10c8d46e"><path d="M 288.007812 242.511719 L 319.757812 242.511719 L 319.757812 319.910156 L 288.007812 319.910156 Z M 288.007812 242.511719 " clip-rule="nonzero"/></clipPath><clipPath id="764598d063"><path d="M 288.007812 268.953125 C 288.007812 254.382812 295.117188 242.570312 303.882812 242.570312 C 312.652344 242.570312 319.757812 254.382812 319.757812 268.953125 L 319.757812 293.527344 C 319.757812 308.097656 312.652344 319.910156 303.882812 319.910156 C 295.117188 319.910156 288.007812 308.097656 288.007812 293.527344 Z M 288.007812 268.953125 " clip-rule="nonzero"/></clipPath><clipPath id="9c49219e22"><path d="M 124.609375 268.003906 L 153.355469 268.003906 L 153.355469 321.566406 L 124.609375 321.566406 Z M 124.609375 268.003906 " clip-rule="nonzero"/></clipPath><clipPath id="347e243b55"><path d="M 124.609375 291.914062 C 124.609375 278.722656 131.046875 268.027344 138.984375 268.027344 C 146.921875 268.027344 153.355469 278.722656 153.355469 291.914062 L 153.355469 297.683594 C 153.355469 310.871094 146.921875 321.566406 138.984375 321.566406 C 131.046875 321.566406 124.609375 310.871094 124.609375 297.683594 Z M 124.609375 291.914062 " clip-rule="nonzero"/></clipPath><clipPath id="8c57169ee3"><path d="M 123.089844 261.074219 L 154.839844 261.074219 L 154.839844 313.910156 L 123.089844 313.910156 Z M 123.089844 261.074219 " clip-rule="nonzero"/></clipPath><clipPath id="0b465559f4"><path d="M 123.089844 287.53125 C 123.089844 272.960938 130.195312 261.152344 138.964844 261.152344 C 147.734375 261.152344 154.839844 272.960938 154.839844 287.53125 C 154.839844 302.101562 147.734375 313.910156 138.964844 313.910156 C 130.195312 313.910156 123.089844 302.101562 123.089844 287.53125 Z M 123.089844 287.53125 " clip-rule="nonzero"/></clipPath><clipPath id="0b5a73f0d1"><path d="M 175.976562 256.507812 L 216.304688 256.507812 L 216.304688 320.308594 L 175.976562 320.308594 Z M 175.976562 256.507812 " clip-rule="nonzero"/></clipPath><clipPath id="bb29fb21e4"><path d="M 175.976562 282.964844 C 175.976562 268.394531 185.003906 256.585938 196.140625 256.585938 C 207.277344 256.585938 216.304688 268.394531 216.304688 282.964844 L 216.304688 293.929688 C 216.304688 308.5 207.277344 320.308594 196.140625 320.308594 C 185.003906 320.308594 175.976562 308.5 175.976562 293.929688 Z M 175.976562 282.964844 " clip-rule="nonzero"/></clipPath><clipPath id="cecf937e55"><path d="M 148.542969 251.929688 L 177.289062 251.929688 L 177.289062 321.550781 L 148.542969 321.550781 Z M 148.542969 251.929688 " clip-rule="nonzero"/></clipPath><clipPath id="38f0c30982"><path d="M 148.542969 275.863281 C 148.542969 262.671875 154.980469 251.976562 162.917969 251.976562 C 170.855469 251.976562 177.289062 262.671875 177.289062 275.863281 L 177.289062 297.664062 C 177.289062 310.855469 170.855469 321.550781 162.917969 321.550781 C 154.980469 321.550781 148.542969 310.855469 148.542969 297.664062 Z M 148.542969 275.863281 " clip-rule="nonzero"/></clipPath><clipPath id="fddb2c5c54"><path d="M 147.019531 245.386719 L 178.773438 245.386719 L 178.773438 315.710938 L 147.019531 315.710938 Z M 147.019531 245.386719 " clip-rule="nonzero"/></clipPath><clipPath id="f26bd39a0f"><path d="M 147.019531 271.871094 C 147.019531 257.300781 154.128906 245.492188 162.894531 245.492188 C 171.664062 245.492188 178.773438 257.300781 178.773438 271.871094 L 178.773438 289.332031 C 178.773438 303.902344 171.664062 315.710938 162.894531 315.710938 C 154.128906 315.710938 147.019531 303.902344 147.019531 289.332031 Z M 147.019531 271.871094 " clip-rule="nonzero"/></clipPath><clipPath id="9f3ab8c78b"><path d="M 260.066406 252 L 291.066406 252 L 291.066406 326.125 L 260.066406 326.125 Z M 260.066406 252 " clip-rule="nonzero"/></clipPath><clipPath id="6a27ca092b"><path d="M 260.066406 275.859375 C 260.066406 262.667969 267.003906 251.972656 275.566406 251.972656 C 284.128906 251.972656 291.066406 262.667969 291.066406 275.859375 L 291.066406 302.242188 C 291.066406 315.433594 284.128906 326.125 275.566406 326.125 C 267.003906 326.125 260.066406 315.433594 260.066406 302.242188 Z M 260.066406 275.859375 " clip-rule="nonzero"/></clipPath><clipPath id="ed71e3568d"><path d="M 258.457031 245.410156 L 292.699219 245.410156 L 292.699219 319.921875 L 258.457031 319.921875 Z M 258.457031 245.410156 " clip-rule="nonzero"/></clipPath><clipPath id="243fac9b00"><path d="M 258.457031 271.882812 C 258.457031 257.3125 266.121094 245.503906 275.578125 245.503906 C 285.035156 245.503906 292.699219 257.3125 292.699219 271.882812 L 292.699219 293.539062 C 292.699219 308.109375 285.035156 319.921875 275.578125 319.921875 C 266.121094 319.921875 258.457031 308.109375 258.457031 293.539062 Z M 258.457031 271.882812 " clip-rule="nonzero"/></clipPath><clipPath id="acf2a01299"><path d="M 218.296875 273.816406 L 256.460938 273.816406 L 256.460938 327.484375 L 218.296875 327.484375 Z M 218.296875 273.816406 " clip-rule="nonzero"/></clipPath><clipPath id="c55a101ed1"><path d="M 218.296875 297.832031 C 218.296875 284.640625 226.84375 273.949219 237.378906 273.949219 C 247.917969 273.949219 256.460938 284.640625 256.460938 297.832031 L 256.460938 303.601562 C 256.460938 316.792969 247.917969 327.484375 237.378906 327.484375 C 226.84375 327.484375 218.296875 316.792969 218.296875 303.601562 Z M 218.296875 297.832031 " clip-rule="nonzero"/></clipPath><clipPath id="a15b637210"><path d="M 216.289062 267 L 258.445312 267 L 258.445312 319.832031 L 216.289062 319.832031 Z M 216.289062 267 " clip-rule="nonzero"/></clipPath><clipPath id="059d063530"><path d="M 216.289062 293.453125 C 216.289062 278.882812 225.726562 267.070312 237.367188 267.070312 C 249.007812 267.070312 258.445312 278.882812 258.445312 293.453125 C 258.445312 308.019531 249.007812 319.832031 237.367188 319.832031 C 225.726562 319.832031 216.289062 308.019531 216.289062 293.453125 Z M 216.289062 293.453125 " clip-rule="nonzero"/></clipPath><clipPath id="03cb8718e5"><path d="M 47 98 L 98 98 L 98 137 L 47 137 Z M 47 98 " clip-rule="nonzero"/></clipPath><clipPath id="380ba37535"><path d="M 52.789062 140.78125 L 43.410156 124.691406 L 88.472656 98.425781 L 97.851562 114.515625 Z M 52.789062 140.78125 " clip-rule="nonzero"/></clipPath><clipPath id="903bd0a274"><path d="M 50.25 135.070312 C 49.414062 134.453125 48.632812 133.652344 48.097656 132.730469 C 47.558594 131.808594 47.246094 130.808594 47.125 129.785156 C 47.125 129.757812 47.117188 129.742188 47.117188 129.71875 C 46.757812 125.820312 49.214844 121.367188 54.035156 118.496094 L 88.449219 98.441406 L 97.824219 114.53125 L 63.4375 134.574219 C 58.519531 137.382812 53.453125 137.355469 50.25 135.070312 Z M 50.25 135.070312 " clip-rule="nonzero"/></clipPath><clipPath id="e0ea37835d"><path d="M 47 78 L 100 78 L 100 115 L 47 115 Z M 47 78 " clip-rule="nonzero"/></clipPath><clipPath id="cbd8700d17"><path d="M 52.933594 118.738281 L 44.332031 102.21875 L 90.597656 78.128906 L 99.199219 94.648438 Z M 52.933594 118.738281 " clip-rule="nonzero"/></clipPath><clipPath id="e3d68bad47"><path d="M 50.671875 112.910156 C 49.867188 112.257812 49.121094 111.417969 48.632812 110.472656 C 48.140625 109.527344 47.871094 108.511719 47.800781 107.484375 C 47.804688 107.457031 47.792969 107.441406 47.796875 107.417969 C 47.625 103.507812 50.289062 99.175781 55.242188 96.539062 L 90.570312 78.144531 L 99.171875 94.664062 L 63.867188 113.042969 C 58.820312 115.617188 53.761719 115.347656 50.671875 112.910156 Z M 50.671875 112.910156 " clip-rule="nonzero"/></clipPath><clipPath id="bfa0f75120"><path d="M 281 82 L 334 82 L 334 119 L 281 119 Z M 281 82 " clip-rule="nonzero"/></clipPath><clipPath id="02d1354a2f"><path d="M 336.5 106.242188 L 328 122.8125 L 281.589844 99.007812 L 290.089844 82.4375 Z M 336.5 106.242188 " clip-rule="nonzero"/></clipPath><clipPath id="af75953010"><path d="M 333.054688 111.457031 C 332.988281 112.492188 332.734375 113.585938 332.246094 114.53125 C 331.761719 115.480469 331.085938 116.285156 330.289062 116.9375 C 330.265625 116.949219 330.257812 116.96875 330.238281 116.980469 C 327.148438 119.382812 322.074219 119.714844 317.058594 117.199219 L 281.617188 99.019531 L 290.117188 82.449219 L 325.53125 100.617188 C 330.550781 103.246094 333.257812 107.527344 333.054688 111.457031 Z M 333.054688 111.457031 " clip-rule="nonzero"/></clipPath><clipPath id="5273db76db"><path d="M 154 13 L 189 13 L 189 39 L 154 39 Z M 154 13 " clip-rule="nonzero"/></clipPath><clipPath id="90f0dd8930"><path d="M 159.070312 9.023438 L 191.847656 21.046875 L 183.976562 42.503906 L 151.199219 30.484375 Z M 159.070312 9.023438 " clip-rule="nonzero"/></clipPath><clipPath id="d277188114"><path d="M 175.457031 15.035156 C 166.40625 11.714844 157.308594 13.828125 155.136719 19.753906 C 152.960938 25.679688 158.539062 33.175781 167.585938 36.496094 C 176.636719 39.8125 185.734375 37.699219 187.910156 31.773438 C 190.082031 25.851562 184.507812 18.355469 175.457031 15.035156 Z M 175.457031 15.035156 " clip-rule="nonzero"/></clipPath><clipPath id="3a893cb1d8"><path d="M 179 1 L 226 1 L 226 43 L 179 43 Z M 179 1 " clip-rule="nonzero"/></clipPath><clipPath id="a51c916ebf"><path d="M 171.519531 24.761719 L 212.203125 -7.089844 L 233.054688 19.546875 L 192.371094 51.398438 Z M 171.519531 24.761719 " clip-rule="nonzero"/></clipPath><clipPath id="59fee67828"><path d="M 191.859375 8.835938 C 180.625 17.632812 176.1875 30.726562 181.945312 38.082031 C 187.703125 45.4375 201.480469 44.269531 212.714844 35.476562 C 223.945312 26.679688 228.386719 13.585938 222.625 6.230469 C 216.867188 -1.125 203.09375 0.0429688 191.859375 8.835938 Z M 191.859375 8.835938 " clip-rule="nonzero"/></clipPath><clipPath id="f8b602c8b5"><path d="M 251 8 L 324 8 L 324 80 L 251 80 Z M 251 8 " clip-rule="nonzero"/></clipPath><clipPath id="08d35fa04a"><path d="M 301.109375 -1.808594 L 334.542969 38.246094 L 285.101562 79.511719 L 251.671875 39.457031 Z M 301.109375 -1.808594 " clip-rule="nonzero"/></clipPath><clipPath id="024c95eb26"><path d="M 311.105469 12.515625 C 313.511719 13.980469 315.921875 15.9375 317.835938 18.230469 C 319.746094 20.519531 321.195312 23.054688 322.191406 25.667969 C 322.207031 25.730469 322.242188 25.773438 322.257812 25.832031 C 325.832031 35.796875 323.148438 47.570312 314.617188 54.875 L 285.246094 79.390625 L 251.816406 39.335938 L 281.164062 14.839844 C 289.941406 7.699219 301.9375 7.074219 311.105469 12.515625 Z M 311.105469 12.515625 " clip-rule="nonzero"/></clipPath><clipPath id="f54e1646c3"><path d="M 259 17 L 315 17 L 315 72 L 259 72 Z M 259 17 " clip-rule="nonzero"/></clipPath><clipPath id="80433cc59b"><path d="M 297.0625 9.351562 L 322.820312 40.210938 L 284.730469 72.007812 L 258.972656 41.148438 Z M 297.0625 9.351562 " clip-rule="nonzero"/></clipPath><clipPath id="733613228d"><path d="M 304.761719 20.390625 C 306.617188 21.515625 308.476562 23.027344 309.949219 24.792969 C 311.421875 26.554688 312.539062 28.507812 313.304688 30.523438 C 313.316406 30.570312 313.34375 30.601562 313.355469 30.648438 C 316.109375 38.324219 314.042969 47.398438 307.46875 53.023438 L 284.839844 71.914062 L 259.082031 41.054688 L 281.695312 22.179688 C 288.457031 16.679688 297.699219 16.199219 304.761719 20.390625 Z M 304.761719 20.390625 " clip-rule="nonzero"/></clipPath><clipPath id="e38d679eeb"><path d="M 265 35 L 295 35 L 295 65 L 265 65 Z M 265 35 " clip-rule="nonzero"/></clipPath><clipPath id="113ce339aa"><path d="M 285.265625 31.320312 L 298.84375 47.589844 L 278.765625 64.347656 L 265.1875 48.082031 Z M 285.265625 31.320312 " clip-rule="nonzero"/></clipPath><clipPath id="fe52862c1f"><path d="M 289.324219 37.136719 C 290.300781 37.734375 291.28125 38.527344 292.058594 39.457031 C 292.835938 40.390625 293.425781 41.417969 293.828125 42.480469 C 293.835938 42.503906 293.847656 42.523438 293.855469 42.546875 C 295.308594 46.59375 294.21875 51.375 290.753906 54.34375 L 278.824219 64.300781 L 265.246094 48.03125 L 277.164062 38.082031 C 280.730469 35.183594 285.601562 34.929688 289.324219 37.136719 Z M 289.324219 37.136719 " clip-rule="nonzero"/></clipPath><clipPath id="1b1147c2c2"><path d="M 61 10 L 133 10 L 133 82 L 61 82 Z M 61 10 " clip-rule="nonzero"/></clipPath><clipPath id="628f855313"><path d="M 50.925781 33.347656 L 90.4375 -0.722656 L 132.492188 48.050781 L 92.980469 82.117188 Z M 50.925781 33.347656 " clip-rule="nonzero"/></clipPath><clipPath id="8065ca98be"><path d="M 65.085938 23.125 C 66.511719 20.695312 68.429688 18.253906 70.691406 16.304688 C 72.953125 14.355469 75.460938 12.867188 78.058594 11.828125 C 78.121094 11.8125 78.164062 11.777344 78.222656 11.761719 C 88.128906 8.023438 99.945312 10.519531 107.382812 18.933594 L 132.367188 47.90625 L 92.859375 81.976562 L 67.890625 53.023438 C 60.609375 44.363281 59.796875 32.378906 65.085938 23.125 Z M 65.085938 23.125 " clip-rule="nonzero"/></clipPath><clipPath id="5d3ce3d6bc"><path d="M 70 19 L 125 19 L 125 75 L 70 75 Z M 70 19 " clip-rule="nonzero"/></clipPath><clipPath id="4994a6eadf"><path d="M 62.132812 37.210938 L 92.574219 10.960938 L 124.976562 48.539062 L 94.535156 74.785156 Z M 62.132812 37.210938 " clip-rule="nonzero"/></clipPath><clipPath id="91b0371546"><path d="M 73.042969 29.335938 C 74.140625 27.464844 75.621094 25.582031 77.363281 24.078125 C 79.101562 22.578125 81.035156 21.429688 83.039062 20.628906 C 83.085938 20.617188 83.117188 20.589844 83.164062 20.578125 C 90.792969 17.699219 99.898438 19.625 105.632812 26.105469 L 124.878906 48.425781 L 94.441406 74.675781 L 75.203125 52.371094 C 69.59375 45.699219 68.964844 36.464844 73.042969 29.335938 Z M 73.042969 29.335938 " clip-rule="nonzero"/></clipPath><clipPath id="fcdba23762"><path d="M 88 39 L 118 39 L 118 69 L 88 69 Z M 88 39 " clip-rule="nonzero"/></clipPath><clipPath id="cebd2dca00"><path d="M 84.292969 48.652344 L 100.339844 34.8125 L 117.421875 54.621094 L 101.371094 68.460938 Z M 84.292969 48.652344 " clip-rule="nonzero"/></clipPath><clipPath id="832b7deff7"><path d="M 90.042969 44.5 C 90.621094 43.511719 91.402344 42.519531 92.320312 41.730469 C 93.238281 40.9375 94.257812 40.332031 95.3125 39.910156 C 95.335938 39.90625 95.355469 39.890625 95.378906 39.882812 C 99.402344 38.367188 104.203125 39.378906 107.222656 42.796875 L 117.371094 54.566406 L 101.324219 68.402344 L 91.183594 56.644531 C 88.226562 53.125 87.894531 48.257812 90.042969 44.5 Z M 90.042969 44.5 " clip-rule="nonzero"/></clipPath></defs><g clip-path="url(#d1b2276139)"><g clip-path="url(#5d38eee174)"><g clip-path="url(#c74ce1fd26)"><path fill="#60b9b9" d="M 347.5625 153.398438 L 339.0625 169.96875 L 292.652344 146.160156 L 301.152344 129.589844 Z M 347.5625 153.398438 " fill-opacity="1" fill-rule="nonzero"/></g></g></g><g clip-path="url(#4da4076f69)"><g clip-path="url(#95e716559b)"><g clip-path="url(#312f557750)"><path fill="#60b9b9" d="M 344.386719 133.21875 L 335.886719 149.789062 L 289.476562 125.980469 L 297.976562 109.410156 Z M 344.386719 133.21875 " fill-opacity="1" fill-rule="nonzero"/></g></g></g><g clip-path="url(#857adbbc36)"><g clip-path="url(#532351e04a)"><g clip-path="url(#33e996d0c2)"><path fill="#60b9b9" d="M 46.226562 162.945312 L 37.820312 146.324219 L 84.367188 122.789062 L 92.773438 139.40625 Z M 46.226562 162.945312 " fill-opacity="1" fill-rule="nonzero"/></g></g></g><g clip-path="url(#dc63a9a4ef)"><g clip-path="url(#05bee92761)"><g clip-path="url(#37b9f9449e)"><path fill="#60b9b9" d="M 140.519531 180.519531 L 103.539062 233.53125 L -2.695312 159.421875 L 34.289062 106.410156 Z M 140.519531 180.519531 " fill-opacity="1" fill-rule="nonzero"/></g></g></g><g clip-path="url(#f645377c13)"><g clip-path="url(#aec3f192a4)"><g clip-path="url(#bf6ecd40cd)"><path fill="#0c8794" d="M 111.042969 181.316406 L 83.597656 220.65625 L 4.765625 165.660156 L 32.207031 126.320312 Z M 111.042969 181.316406 " fill-opacity="1" fill-rule="nonzero"/></g></g></g><g clip-path="url(#da8abf1a87)"><g clip-path="url(#afecde99f1)"><g clip-path="url(#32caf35964)"><path fill="#60b9b9" d="M 288.398438 238.449219 L 248.777344 187.375 L 351.121094 107.984375 L 390.738281 159.054688 Z M 288.398438 238.449219 " fill-opacity="1" fill-rule="nonzero"/></g></g></g><g clip-path="url(#e00f4d99be)"><g clip-path="url(#5f9a979b19)"><g clip-path="url(#ee1fbadf8b)"><path fill="#0c8794" d="M 305.53125 228.226562 L 276.132812 190.328125 L 352.078125 131.410156 L 381.480469 169.3125 Z M 305.53125 228.226562 " fill-opacity="1" fill-rule="nonzero"/></g></g></g><g clip-path="url(#df0c0a98d3)"><g clip-path="url(#b416e71b96)"><path fill="#60b9b9" d="M 67.410156 25.761719 L 318.253906 25.761719 L 318.253906 302.082031 L 67.410156 302.082031 Z M 67.410156 25.761719 " fill-opacity="1" fill-rule="nonzero"/></g></g><g clip-path="url(#032b9e1002)"><path fill="#25284d" d="M 188.824219 189.949219 C 188.890625 190.710938 188.859375 191.480469 188.757812 192.238281 C 188.777344 192.089844 188.796875 191.945312 188.816406 191.796875 C 188.65625 192.953125 188.339844 194.085938 187.886719 195.164062 C 187.945312 195.035156 188 194.902344 188.054688 194.769531 C 187.648438 195.734375 187.132812 196.652344 186.492188 197.480469 C 186.578125 197.367188 186.664062 197.257812 186.753906 197.144531 C 185.949219 198.179688 185 199.105469 183.964844 199.90625 C 184.078125 199.820312 184.1875 199.734375 184.300781 199.648438 C 183.453125 200.300781 182.539062 200.871094 181.578125 201.34375 C 181.308594 201.480469 181.03125 201.605469 180.75 201.722656 C 180.882812 201.667969 181.015625 201.613281 181.148438 201.558594 C 180.234375 201.941406 179.28125 202.238281 178.308594 202.433594 C 178.035156 202.488281 177.757812 202.53125 177.480469 202.570312 C 177.625 202.550781 177.773438 202.53125 177.921875 202.511719 C 176.863281 202.652344 175.789062 202.664062 174.730469 202.523438 C 174.878906 202.542969 175.023438 202.5625 175.171875 202.582031 C 174.253906 202.457031 173.351562 202.21875 172.496094 201.859375 C 172.628906 201.914062 172.761719 201.96875 172.890625 202.023438 C 172.09375 201.6875 171.34375 201.246094 170.65625 200.71875 C 170.765625 200.804688 170.878906 200.894531 170.992188 200.980469 C 170.246094 200.402344 169.582031 199.726562 169.003906 198.980469 C 169.089844 199.09375 169.175781 199.203125 169.261719 199.316406 C 168.648438 198.519531 168.09375 197.632812 167.699219 196.703125 C 167.753906 196.835938 167.808594 196.964844 167.867188 197.097656 C 167.542969 196.332031 167.324219 195.519531 167.125 194.710938 C 166.890625 193.773438 166.695312 192.820312 166.527344 191.867188 C 166.445312 191.390625 166.367188 190.914062 166.304688 190.4375 C 166.324219 190.582031 166.34375 190.730469 166.363281 190.875 C 166.296875 190.378906 166.21875 189.863281 166.234375 189.359375 C 166.25 188.945312 166.039062 188.476562 165.75 188.1875 C 165.464844 187.902344 164.992188 187.683594 164.582031 187.703125 C 164.152344 187.722656 163.707031 187.863281 163.410156 188.1875 C 163.105469 188.519531 162.941406 188.90625 162.925781 189.359375 C 162.90625 189.796875 162.96875 190.238281 163.023438 190.667969 C 163.125 191.480469 163.25 192.292969 163.398438 193.097656 C 163.660156 194.535156 163.96875 195.988281 164.445312 197.375 C 165 198.988281 165.910156 200.457031 167.011719 201.753906 C 167.476562 202.300781 167.992188 202.800781 168.554688 203.246094 C 169.191406 203.75 169.84375 204.214844 170.570312 204.582031 C 171.269531 204.9375 172.011719 205.238281 172.769531 205.457031 C 173.53125 205.675781 174.3125 205.796875 175.097656 205.875 C 176.546875 206.023438 178.027344 205.882812 179.449219 205.570312 C 180.898438 205.253906 182.3125 204.703125 183.625 204.015625 C 184.96875 203.308594 186.222656 202.402344 187.339844 201.378906 C 188.617188 200.214844 189.738281 198.832031 190.523438 197.289062 C 191.484375 195.394531 192.074219 193.308594 192.164062 191.179688 C 192.179688 190.769531 192.171875 190.359375 192.136719 189.949219 C 192.144531 189.722656 192.097656 189.507812 191.996094 189.3125 C 191.929688 189.105469 191.8125 188.929688 191.652344 188.777344 C 191.363281 188.492188 190.894531 188.273438 190.480469 188.292969 C 190.050781 188.3125 189.609375 188.453125 189.308594 188.777344 C 189.027344 189.085938 188.789062 189.519531 188.824219 189.949219 Z M 188.824219 189.949219 " fill-opacity="1" fill-rule="nonzero"/></g><g clip-path="url(#dae3907573)"><path fill="#25284d" d="M 213.050781 190.53125 C 213.113281 191.265625 213.082031 192.003906 212.984375 192.734375 C 213.003906 192.59375 213.023438 192.453125 213.042969 192.3125 C 212.890625 193.425781 212.582031 194.519531 212.148438 195.558594 C 212.203125 195.429688 212.253906 195.304688 212.308594 195.175781 C 211.917969 196.105469 211.417969 196.988281 210.804688 197.789062 C 210.886719 197.679688 210.96875 197.574219 211.054688 197.464844 C 210.28125 198.464844 209.367188 199.355469 208.367188 200.128906 C 208.476562 200.042969 208.582031 199.960938 208.691406 199.878906 C 207.871094 200.507812 206.996094 201.058594 206.070312 201.511719 C 205.808594 201.640625 205.539062 201.761719 205.269531 201.875 C 205.398438 201.824219 205.523438 201.769531 205.652344 201.714844 C 204.773438 202.085938 203.855469 202.375 202.917969 202.558594 C 202.652344 202.613281 202.386719 202.65625 202.117188 202.691406 C 202.261719 202.671875 202.402344 202.652344 202.542969 202.636719 C 201.523438 202.769531 200.488281 202.78125 199.46875 202.644531 C 199.609375 202.664062 199.753906 202.683594 199.894531 202.703125 C 199.007812 202.582031 198.140625 202.351562 197.316406 202.007812 C 197.445312 202.058594 197.570312 202.113281 197.699219 202.167969 C 196.929688 201.839844 196.203125 201.417969 195.542969 200.910156 C 195.652344 200.992188 195.757812 201.074219 195.867188 201.160156 C 195.148438 200.601562 194.507812 199.953125 193.953125 199.234375 C 194.035156 199.34375 194.117188 199.449219 194.203125 199.558594 C 193.609375 198.789062 193.074219 197.9375 192.695312 197.039062 C 192.75 197.167969 192.800781 197.292969 192.855469 197.421875 C 192.546875 196.679688 192.335938 195.898438 192.140625 195.121094 C 191.914062 194.214844 191.726562 193.300781 191.566406 192.378906 C 191.484375 191.921875 191.410156 191.460938 191.347656 191 C 191.367188 191.140625 191.386719 191.285156 191.40625 191.425781 C 191.34375 190.945312 191.265625 190.449219 191.285156 189.964844 C 191.300781 189.5625 191.097656 189.113281 190.816406 188.835938 C 190.539062 188.558594 190.085938 188.351562 189.6875 188.367188 C 189.277344 188.386719 188.847656 188.523438 188.558594 188.835938 C 188.269531 189.152344 188.109375 189.527344 188.09375 189.964844 C 188.078125 190.382812 188.136719 190.808594 188.1875 191.226562 C 188.289062 192.007812 188.40625 192.789062 188.546875 193.5625 C 188.804688 194.953125 189.101562 196.351562 189.558594 197.6875 C 190.09375 199.242188 190.96875 200.65625 192.03125 201.90625 C 192.480469 202.429688 192.976562 202.914062 193.519531 203.34375 C 194.132812 203.828125 194.761719 204.277344 195.460938 204.628906 C 196.136719 204.972656 196.851562 205.265625 197.578125 205.472656 C 198.3125 205.683594 199.066406 205.800781 199.824219 205.878906 C 201.21875 206.019531 202.648438 205.882812 204.015625 205.585938 C 205.414062 205.28125 206.777344 204.75 208.042969 204.082031 C 209.335938 203.402344 210.542969 202.53125 211.621094 201.546875 C 212.847656 200.421875 213.929688 199.089844 214.6875 197.601562 C 215.613281 195.777344 216.183594 193.769531 216.265625 191.714844 C 216.285156 191.320312 216.277344 190.925781 216.242188 190.53125 C 216.25 190.3125 216.207031 190.105469 216.105469 189.917969 C 216.039062 189.71875 215.929688 189.546875 215.773438 189.402344 C 215.5 189.128906 215.042969 188.917969 214.644531 188.9375 C 214.234375 188.957031 213.804688 189.089844 213.519531 189.402344 C 213.246094 189.699219 213.015625 190.117188 213.050781 190.53125 Z M 213.050781 190.53125 " fill-opacity="1" fill-rule="nonzero"/></g><g clip-path="url(#d6ce01d3f2)"><g clip-path="url(#f65175493f)"><path fill="#fe9284" d="M 260.9375 187.671875 L 287.566406 187.671875 L 287.566406 215.964844 L 260.9375 215.964844 Z M 260.9375 187.671875 " fill-opacity="1" fill-rule="nonzero"/></g></g><g clip-path="url(#662f6c35c4)"><g clip-path="url(#3e4e4cf78c)"><path fill="#60b9b9" d="M 91.628906 364.507812 L 91.628906 226.1875 L 175.9375 226.1875 L 175.9375 364.507812 Z M 91.628906 364.507812 " fill-opacity="1" fill-rule="nonzero"/></g></g><g clip-path="url(#e0ab6a7720)"><g clip-path="url(#1ebcec953d)"><path fill="#25284d" d="M 106.429688 364.5 L 106.429688 346.613281 L 118.261719 346.613281 L 118.261719 364.5 Z M 106.429688 364.5 " fill-opacity="1" fill-rule="nonzero"/></g></g><g clip-path="url(#1980c96d84)"><g clip-path="url(#2d2a1100b4)"><path fill="#25284d" d="M 127.148438 368.34375 L 127.148438 350.453125 L 138.980469 350.453125 L 138.980469 368.34375 Z M 127.148438 368.34375 " fill-opacity="1" fill-rule="nonzero"/></g></g><g clip-path="url(#f10bfbbdc0)"><g clip-path="url(#c4ea5a90a1)"><path fill="#25284d" d="M 148.199219 364.5 L 148.199219 346.613281 L 160.03125 346.613281 L 160.03125 364.5 Z M 148.199219 364.5 " fill-opacity="1" fill-rule="nonzero"/></g></g><g clip-path="url(#61e8859780)"><g clip-path="url(#c4ac0017f5)"><path fill="#fe9284" d="M 91.621094 187.671875 L 118.25 187.671875 L 118.25 215.964844 L 91.621094 215.964844 Z M 91.621094 187.671875 " fill-opacity="1" fill-rule="nonzero"/></g></g><g clip-path="url(#a038df74b4)"><g clip-path="url(#f769612742)"><path fill="#60b9b9" d="M 216.296875 364.507812 L 216.296875 226.1875 L 300.605469 226.1875 L 300.605469 364.507812 Z M 216.296875 364.507812 " fill-opacity="1" fill-rule="nonzero"/></g></g><g clip-path="url(#bcea1b3aad)"><g clip-path="url(#3755db2513)"><path fill="#25284d" d="M 231.097656 364.5 L 231.097656 346.613281 L 242.933594 346.613281 L 242.933594 364.5 Z M 231.097656 364.5 " fill-opacity="1" fill-rule="nonzero"/></g></g><g clip-path="url(#c846fe4f1f)"><g clip-path="url(#d17ae01931)"><path fill="#25284d" d="M 251.816406 368.34375 L 251.816406 350.453125 L 263.648438 350.453125 L 263.648438 368.34375 Z M 251.816406 368.34375 " fill-opacity="1" fill-rule="nonzero"/></g></g><g clip-path="url(#04c0fddb2f)"><g clip-path="url(#429a5c0206)"><path fill="#25284d" d="M 272.867188 364.5 L 272.867188 346.613281 L 284.699219 346.613281 L 284.699219 364.5 Z M 272.867188 364.5 " fill-opacity="1" fill-rule="nonzero"/></g></g><g clip-path="url(#63ae0336f2)"><g clip-path="url(#ba4c8408c6)"><path fill="#0c8794" d="M 98.476562 315.070312 L 98.476562 239.726562 L 127.222656 239.726562 L 127.222656 315.070312 Z M 98.476562 315.070312 " fill-opacity="1" fill-rule="nonzero"/></g></g><g clip-path="url(#07fc5e327b)"><g clip-path="url(#b8336033c6)"><path fill="#60b9b9" d="M 96.957031 308.714844 L 96.957031 232.0625 L 128.710938 232.0625 L 128.710938 308.714844 Z M 96.957031 308.714844 " fill-opacity="1" fill-rule="nonzero"/></g></g><g clip-path="url(#6de580da95)"><g clip-path="url(#041aa98de0)"><path fill="#c1efe3" d="M 122.738281 217.804688 L 260.90625 217.804688 L 260.90625 295.375 L 122.738281 295.375 Z M 122.738281 217.804688 " fill-opacity="1" fill-rule="nonzero"/></g></g><g clip-path="url(#49a5109ba3)"><g clip-path="url(#c9cc148e1d)"><path fill="#0c8794" d="M 68.9375 326.128906 L 68.9375 256.511719 L 97.683594 256.511719 L 97.683594 326.128906 Z M 68.9375 326.128906 " fill-opacity="1" fill-rule="nonzero"/></g></g><g clip-path="url(#60a5c6c79c)"><g clip-path="url(#e145d45023)"><path fill="#60b9b9" d="M 67.410156 320.308594 L 67.410156 256.554688 L 99.164062 256.554688 L 99.164062 320.308594 Z M 67.410156 320.308594 " fill-opacity="1" fill-rule="nonzero"/></g></g><g clip-path="url(#2a145aabec)"><g clip-path="url(#348033837a)"><path fill="#0c8794" d="M 289.53125 326.128906 L 289.53125 252.019531 L 318.277344 252.019531 L 318.277344 326.128906 Z M 289.53125 326.128906 " fill-opacity="1" fill-rule="nonzero"/></g></g><g clip-path="url(#9d10c8d46e)"><g clip-path="url(#764598d063)"><path fill="#60b9b9" d="M 288.007812 319.910156 L 288.007812 242.511719 L 319.757812 242.511719 L 319.757812 319.910156 Z M 288.007812 319.910156 " fill-opacity="1" fill-rule="nonzero"/></g></g><g clip-path="url(#9c49219e22)"><g clip-path="url(#347e243b55)"><path fill="#0c8794" d="M 124.609375 321.566406 L 124.609375 268.003906 L 153.355469 268.003906 L 153.355469 321.566406 Z M 124.609375 321.566406 " fill-opacity="1" fill-rule="nonzero"/></g></g><g clip-path="url(#8c57169ee3)"><g clip-path="url(#0b465559f4)"><path fill="#c1efe3" d="M 123.089844 313.910156 L 123.089844 261.199219 L 154.839844 261.199219 L 154.839844 313.910156 Z M 123.089844 313.910156 " fill-opacity="1" fill-rule="nonzero"/></g></g><g clip-path="url(#0b5a73f0d1)"><g clip-path="url(#bb29fb21e4)"><path fill="#c1efe3" d="M 175.976562 320.308594 L 175.976562 256.507812 L 216.304688 256.507812 L 216.304688 320.308594 Z M 175.976562 320.308594 " fill-opacity="1" fill-rule="nonzero"/></g></g><g clip-path="url(#cecf937e55)"><g clip-path="url(#38f0c30982)"><path fill="#0c8794" d="M 148.542969 321.550781 L 148.542969 251.929688 L 177.289062 251.929688 L 177.289062 321.550781 Z M 148.542969 321.550781 " fill-opacity="1" fill-rule="nonzero"/></g></g><g clip-path="url(#fddb2c5c54)"><g clip-path="url(#f26bd39a0f)"><path fill="#c1efe3" d="M 147.019531 315.710938 L 147.019531 245.511719 L 178.773438 245.511719 L 178.773438 315.710938 Z M 147.019531 315.710938 " fill-opacity="1" fill-rule="nonzero"/></g></g><g clip-path="url(#9f3ab8c78b)"><g clip-path="url(#6a27ca092b)"><path fill="#0c8794" d="M 260.066406 326.125 L 260.066406 252.011719 L 291.066406 252.011719 L 291.066406 326.125 Z M 260.066406 326.125 " fill-opacity="1" fill-rule="nonzero"/></g></g><g clip-path="url(#ed71e3568d)"><g clip-path="url(#243fac9b00)"><path fill="#60b9b9" d="M 258.457031 319.921875 L 258.457031 245.546875 L 292.699219 245.546875 L 292.699219 319.921875 Z M 258.457031 319.921875 " fill-opacity="1" fill-rule="nonzero"/></g></g><g clip-path="url(#acf2a01299)"><g clip-path="url(#c55a101ed1)"><path fill="#0c8794" d="M 218.296875 327.484375 L 218.296875 273.964844 L 256.460938 273.964844 L 256.460938 327.484375 Z M 218.296875 327.484375 " fill-opacity="1" fill-rule="nonzero"/></g></g><g clip-path="url(#a15b637210)"><g clip-path="url(#059d063530)"><path fill="#c1efe3" d="M 216.289062 319.832031 L 216.289062 267.136719 L 258.445312 267.136719 L 258.445312 319.832031 Z M 216.289062 319.832031 " fill-opacity="1" fill-rule="nonzero"/></g></g><g clip-path="url(#03cb8718e5)"><g clip-path="url(#380ba37535)"><g clip-path="url(#903bd0a274)"><path fill="#60b9b9" d="M 52.789062 140.78125 L 43.410156 124.691406 L 88.472656 98.425781 L 97.851562 114.515625 Z M 52.789062 140.78125 " fill-opacity="1" fill-rule="nonzero"/></g></g></g><g clip-path="url(#e0ea37835d)"><g clip-path="url(#cbd8700d17)"><g clip-path="url(#e3d68bad47)"><path fill="#60b9b9" d="M 52.933594 118.738281 L 44.332031 102.21875 L 90.597656 78.128906 L 99.199219 94.648438 Z M 52.933594 118.738281 " fill-opacity="1" fill-rule="nonzero"/></g></g></g><g clip-path="url(#bfa0f75120)"><g clip-path="url(#02d1354a2f)"><g clip-path="url(#af75953010)"><path fill="#60b9b9" d="M 336.5 106.242188 L 328 122.8125 L 281.589844 99.007812 L 290.089844 82.4375 Z M 336.5 106.242188 " fill-opacity="1" fill-rule="nonzero"/></g></g></g><g clip-path="url(#5273db76db)"><g clip-path="url(#90f0dd8930)"><g clip-path="url(#d277188114)"><path fill="#60b9b9" d="M 159.070312 9.023438 L 191.847656 21.046875 L 183.976562 42.503906 L 151.199219 30.484375 Z M 159.070312 9.023438 " fill-opacity="1" fill-rule="nonzero"/></g></g></g><g clip-path="url(#3a893cb1d8)"><g clip-path="url(#a51c916ebf)"><g clip-path="url(#59fee67828)"><path fill="#60b9b9" d="M 171.519531 24.761719 L 212.203125 -7.089844 L 233.054688 19.546875 L 192.371094 51.398438 Z M 171.519531 24.761719 " fill-opacity="1" fill-rule="nonzero"/></g></g></g><g clip-path="url(#f8b602c8b5)"><g clip-path="url(#08d35fa04a)"><g clip-path="url(#024c95eb26)"><path fill="#60b9b9" d="M 301.109375 -1.808594 L 334.542969 38.246094 L 285.257812 79.378906 L 251.828125 39.328125 Z M 301.109375 -1.808594 " fill-opacity="1" fill-rule="nonzero"/></g></g></g><g clip-path="url(#f54e1646c3)"><g clip-path="url(#80433cc59b)"><g clip-path="url(#733613228d)"><path fill="#0c8794" d="M 297.0625 9.351562 L 322.820312 40.210938 L 284.847656 71.90625 L 259.09375 41.046875 Z M 297.0625 9.351562 " fill-opacity="1" fill-rule="nonzero"/></g></g></g><g clip-path="url(#e38d679eeb)"><g clip-path="url(#113ce339aa)"><g clip-path="url(#fe52862c1f)"><path fill="#fe9284" d="M 285.265625 31.320312 L 298.84375 47.589844 L 278.828125 64.296875 L 265.25 48.027344 Z M 285.265625 31.320312 " fill-opacity="1" fill-rule="nonzero"/></g></g></g><g clip-path="url(#1b1147c2c2)"><g clip-path="url(#628f855313)"><g clip-path="url(#8065ca98be)"><path fill="#60b9b9" d="M 50.925781 33.347656 L 90.4375 -0.722656 L 132.359375 47.894531 L 92.847656 81.964844 Z M 50.925781 33.347656 " fill-opacity="1" fill-rule="nonzero"/></g></g></g><g clip-path="url(#5d3ce3d6bc)"><g clip-path="url(#4994a6eadf)"><g clip-path="url(#91b0371546)"><path fill="#0c8794" d="M 62.132812 37.210938 L 92.574219 10.960938 L 124.871094 48.417969 L 94.429688 74.667969 Z M 62.132812 37.210938 " fill-opacity="1" fill-rule="nonzero"/></g></g></g><g clip-path="url(#fcdba23762)"><g clip-path="url(#cebd2dca00)"><g clip-path="url(#832b7deff7)"><path fill="#fe9284" d="M 84.292969 48.652344 L 100.339844 34.8125 L 117.367188 54.558594 L 101.320312 68.398438 Z M 84.292969 48.652344 " fill-opacity="1" fill-rule="nonzero"/></g></g></g><path stroke-linecap="round" transform="matrix(1.843119, 0.0486933, -0.0486933, 1.843119, 102.747031, 125.435089)" fill="none" stroke-linejoin="miter" d="M 5.072605 10.724825 C 14.956448 1.0643 24.841902 1.091371 34.724789 10.808266 " stroke="#25284d" stroke-width="7" stroke-opacity="1" stroke-miterlimit="4"/><path stroke-linecap="round" transform="matrix(1.843119, 0.0486933, -0.0486933, 1.843119, 203.055826, 125.612159)" fill="none" stroke-linejoin="miter" d="M 5.072478 10.724129 C 14.95632 1.063604 24.841774 1.090675 34.724661 10.807571 " stroke="#25284d" stroke-width="7" stroke-opacity="1" stroke-miterlimit="4"/></svg>